<svg width="12" height="13" viewBox="0 0 12 13" fill="none" xmlns="http://www.w3.org/2000/svg">
<g clip-path="url(#clip0_2785_3495)">
<path d="M9.92334 4.92383H5.42334C4.87106 4.92383 4.42334 5.37154 4.42334 5.92383V10.4238C4.42334 10.9761 4.87106 11.4238 5.42334 11.4238H9.92334C10.4756 11.4238 10.9233 10.9761 10.9233 10.4238V5.92383C10.9233 5.37154 10.4756 4.92383 9.92334 4.92383Z" stroke="#8E9BAE" stroke-linecap="round" stroke-linejoin="round"/>
<path d="M2.4231 7.92383H1.9231C1.65788 7.92383 1.40353 7.81847 1.21599 7.63093C1.02845 7.4434 0.923096 7.18904 0.923096 6.92383V2.42383C0.923096 2.15861 1.02845 1.90426 1.21599 1.71672C1.40353 1.52918 1.65788 1.42383 1.9231 1.42383H6.4231C6.68831 1.42383 6.94267 1.52918 7.1302 1.71672C7.31774 1.90426 7.4231 2.15861 7.4231 2.42383V2.92383" stroke="#8E9BAE" stroke-linecap="round" stroke-linejoin="round"/>
</g>
<defs>
<clipPath id="clip0_2785_3495">
<rect width="12" height="12" fill="white" transform="translate(0 0.5)"/>
</clipPath>
</defs>
</svg>
