<svg xmlns="http://www.w3.org/2000/svg" xmlns:xlink="http://www.w3.org/1999/xlink" width="16" height="16" viewBox="0 0 16 16">
  <defs>
    <clipPath id="clip-path">
      <rect id="矩形_3653" data-name="矩形 3653" width="16" height="16" transform="translate(255 127)" fill="#fff" stroke="#707070" stroke-width="1"/>
    </clipPath>
  </defs>
  <g id="蒙版组_616" data-name="蒙版组 616" transform="translate(-255 -127)" clip-path="url(#clip-path)">
    <g id="组_24312" data-name="组 24312" transform="translate(255 127)">
      <rect id="矩形_97" data-name="矩形 97" width="16" height="16" fill="rgba(255,255,255,0)"/>
      <path id="路径_60216" data-name="路径 60216" d="M139.892,214.256h10.851a.286.286,0,0,1,0,.572H139.892a.286.286,0,0,1,0-.572Zm8.282,2a4,4,0,0,1,0,8h0a3.962,3.962,0,0,1-2.474-.863l-5.8.007a.286.286,0,0,1,0-.572h5.218s0,0,0,0a3.6,3.6,0,0,1-.886-2.312l-4.332.028a.284.284,0,1,1,0-.568h4.3a3.607,3.607,0,0,1,.886-2.315v0l-5.181.032a.284.284,0,1,1,0-.568h5.815A3.936,3.936,0,0,1,148.174,216.256Zm-3.427,4a3.432,3.432,0,0,0,4.223,3.337,3.366,3.366,0,0,0,2.539-2.541,3.428,3.428,0,1,0-6.763-.8Zm3.427-2a.284.284,0,0,1,.284.284v1.714h1.419a.29.29,0,0,1,.293.275.284.284,0,0,1-.284.295h-2v-2.284A.283.283,0,0,1,148.174,218.255Zm0,6.134h0a4.074,4.074,0,0,1-2.522-.863l-5.757.007a.424.424,0,1,1,0-.847h4.936a3.659,3.659,0,0,1-.732-2.036l-4.2.026h0a.422.422,0,0,1-.3-.124.422.422,0,0,1,.3-.722h4.172a3.764,3.764,0,0,1,.718-2.04l-4.887.03a.413.413,0,0,1-.3-.124.418.418,0,0,1-.125-.3.424.424,0,0,1,.424-.424h5.767a4.133,4.133,0,1,1,2.515,7.415Zm-2.386-1.1a3.8,3.8,0,0,0,2.382.828h0a3.859,3.859,0,1,0,0-7.719,3.8,3.8,0,0,0-2.377.824l-.035.034h-5.87a.146.146,0,1,0,0,.293l5.275-.032.071.171-.064.064a3.46,3.46,0,0,0-.847,2.231l0,.026-.051.1h-4.384a.146.146,0,0,0-.1.251.142.142,0,0,0,.1.042h0l4.472-.028v.136a3.455,3.455,0,0,0,.84,2.211l.069.046-.06.2h-5.322a.149.149,0,0,0-.148.148.147.147,0,0,0,.044.1.145.145,0,0,0,.1.042l5.862-.007.034.039Zm2.391.533a3.564,3.564,0,1,1,2.779-5.788,3.592,3.592,0,0,1,.686,3.051A3.508,3.508,0,0,1,149,223.726,3.837,3.837,0,0,1,148.18,223.817Zm-3.295-3.565a3.288,3.288,0,0,0,3.295,3.288,3.5,3.5,0,0,0,.761-.085,3.237,3.237,0,0,0,2.435-2.437,3.314,3.314,0,0,0-.634-2.818,3.288,3.288,0,0,0-5.857,2.052Zm5,.709h-2.135v-2.423a.424.424,0,0,1,.847,0v1.576h1.283a.431.431,0,0,1,.431.409.424.424,0,0,1-.118.309A.43.43,0,0,1,149.886,220.962Zm-1.862-.277h1.862a.148.148,0,0,0,.106-.044.142.142,0,0,0,.041-.108.152.152,0,0,0-.155-.141h-1.558v-1.853a.146.146,0,0,0-.146-.146.148.148,0,0,0-.148.146Zm2.719-5.72H139.892a.424.424,0,1,1,0-.847h10.851a.424.424,0,1,1,0,.847Zm-10.851-.572a.148.148,0,1,0,0,.3h10.851a.148.148,0,1,0,0-.3Z" transform="translate(-137.889 -211.254)" fill="#2873ff" stroke="#2873ff" stroke-width="0.2"/>
    </g>
  </g>
</svg>
