<svg width="122" height="122" viewBox="0 0 122 122" fill="none" xmlns="http://www.w3.org/2000/svg">
<circle cx="61" cy="61" r="61" fill="url(#paint0_linear_1666_3128)"/>
<path fill-rule="evenodd" clip-rule="evenodd" d="M30.0671 52.1505C33.0892 49.695 37.1943 49.0423 40.8288 50.4395L41.6882 50.7706C45.4215 52.2059 48.24 55.345 49.2653 59.211L51.8718 69.043C53.9268 76.7927 59.8467 82.9262 67.5183 85.2559C68.5957 85.5831 69.2047 86.7225 68.8777 87.7999C68.5505 88.8773 67.4111 89.4853 66.3337 89.1583C57.3101 86.418 50.3473 79.2025 47.9304 70.087L45.3239 60.2569C44.6341 57.6552 42.7376 55.5422 40.2253 54.5762L39.365 54.2452C37.0935 53.3721 34.5282 53.7801 32.6394 55.3145L32.4128 55.4991C30.5747 56.9927 29.7258 59.3885 30.2136 61.7061L30.4226 62.7022C30.7554 64.2825 31.9022 65.5684 33.4343 66.0792L35.24 66.6807C36.4095 67.0705 37.6852 66.5179 38.2019 65.3985C38.6484 64.4307 38.4096 63.2844 37.613 62.5762L35.4968 60.6973C34.6553 59.9492 34.5798 58.659 35.3278 57.8174C36.0759 56.976 37.3652 56.9006 38.2068 57.6485L40.322 59.5294C42.4613 61.4312 43.1045 64.5094 41.905 67.1085C40.5175 70.1142 37.0916 71.5957 33.9509 70.5489L32.1452 69.9473C29.2388 68.9785 27.0635 66.54 26.4323 63.5421L26.2234 62.5469C25.4206 58.7338 26.8173 54.7913 29.8415 52.334L30.0671 52.1505ZM34.8132 33.1768C45.902 33.1768 55.5952 40.6578 58.404 51.3848L59.9069 57.126C63.1315 69.4419 74.26 78.0323 86.9909 78.0323H94.9607C96.0867 78.0323 96.9997 78.9453 96.9997 80.0714C96.9995 81.1973 96.0866 82.1094 94.9607 82.1094H86.9909C72.4058 82.1094 59.656 72.2696 55.9616 58.1602L54.4587 52.418C52.1196 43.4848 44.0477 37.254 34.8132 37.254C33.6873 37.2538 32.7741 36.3409 32.7741 35.2149C32.7744 34.0892 33.6874 33.177 34.8132 33.1768ZM48.1882 25.3428C48.573 24.2848 49.7434 23.7386 50.8015 24.1231C58.4605 26.9082 64.3304 33.1833 66.5993 41.0108L70.8552 55.6934C72.2611 60.5439 76.2008 64.2424 81.1306 65.338C82.2295 65.5823 82.9225 66.6706 82.6784 67.7696C82.4342 68.8688 81.345 69.5616 80.2458 69.3174C73.8617 67.8985 68.76 63.1105 66.9392 56.8292L62.6823 42.1465C60.7758 35.5691 55.8438 30.2964 49.4079 27.9561C48.3498 27.5712 47.8034 26.401 48.1882 25.3428Z" fill="black"/>
<path d="M30.0671 52.1505L29.7518 51.7624L29.7515 51.7627L30.0671 52.1505ZM40.8288 50.4395L41.0086 49.9729L41.0082 49.9728L40.8288 50.4395ZM41.6882 50.7706L41.5085 51.2372L41.5088 51.2373L41.6882 50.7706ZM49.2653 59.211L49.7487 59.0829L49.7486 59.0828L49.2653 59.211ZM51.8718 69.043L51.3885 69.1712L51.3885 69.1712L51.8718 69.043ZM67.5183 85.2559L67.373 85.7343L67.373 85.7344L67.5183 85.2559ZM68.8777 87.7999L69.3561 87.9452L69.3561 87.9451L68.8777 87.7999ZM66.3337 89.1583L66.1884 89.6367L66.1885 89.6367L66.3337 89.1583ZM47.9304 70.087L48.4137 69.9588V69.9588L47.9304 70.087ZM45.3239 60.2569L45.8072 60.1288L45.8072 60.1287L45.3239 60.2569ZM40.2253 54.5762L40.0457 55.0429L40.0459 55.0429L40.2253 54.5762ZM39.365 54.2452L39.5445 53.7785L39.5443 53.7785L39.365 54.2452ZM32.6394 55.3145L32.3241 54.9264L32.3236 54.9269L32.6394 55.3145ZM32.4128 55.4991L32.7281 55.8871L32.7286 55.8867L32.4128 55.4991ZM30.2136 61.7061L30.7029 61.6035L30.7029 61.6031L30.2136 61.7061ZM30.4226 62.7022L29.9332 62.8049L29.9333 62.8052L30.4226 62.7022ZM33.4343 66.0792L33.2762 66.5535L33.2763 66.5535L33.4343 66.0792ZM35.24 66.6807L35.398 66.2064L35.398 66.2064L35.24 66.6807ZM38.2019 65.3985L38.6559 65.608L38.6559 65.608L38.2019 65.3985ZM37.613 62.5762L37.9452 62.2025L37.945 62.2023L37.613 62.5762ZM35.4968 60.6973L35.1646 61.071L35.1648 61.0712L35.4968 60.6973ZM35.3278 57.8174L34.9542 57.4852L34.9541 57.4853L35.3278 57.8174ZM38.2068 57.6485L38.539 57.2749L38.5389 57.2748L38.2068 57.6485ZM40.322 59.5294L39.9897 59.903L39.9898 59.903L40.322 59.5294ZM41.905 67.1085L42.359 67.318L42.359 67.318L41.905 67.1085ZM33.9509 70.5489L34.109 70.0745L34.1089 70.0745L33.9509 70.5489ZM32.1452 69.9473L31.9871 70.4217L31.9872 70.4217L32.1452 69.9473ZM26.4323 63.5421L25.943 63.6448L25.9431 63.6451L26.4323 63.5421ZM26.2234 62.5469L26.7127 62.4442L26.7126 62.4439L26.2234 62.5469ZM29.8415 52.334L30.1568 52.7221L30.1571 52.7218L29.8415 52.334ZM34.8132 33.1768V32.6768H34.8131L34.8132 33.1768ZM58.404 51.3848L58.8877 51.2582L58.8877 51.2582L58.404 51.3848ZM59.9069 57.126L59.4232 57.2527L59.4233 57.2527L59.9069 57.126ZM96.9997 80.0714L97.4997 80.0714V80.0714H96.9997ZM55.9616 58.1602L55.4779 58.2868L55.4779 58.2869L55.9616 58.1602ZM54.4587 52.418L54.9424 52.2914L54.9424 52.2914L54.4587 52.418ZM34.8132 37.254L34.8131 37.754H34.8132V37.254ZM32.7741 35.2149L32.2741 35.2148V35.2149H32.7741ZM48.1882 25.3428L47.7183 25.1719L47.7183 25.172L48.1882 25.3428ZM50.8015 24.1231L50.9724 23.6532L50.9723 23.6532L50.8015 24.1231ZM66.5993 41.0108L67.0796 40.8716L67.0796 40.8716L66.5993 41.0108ZM70.8552 55.6934L71.3354 55.5542V55.5542L70.8552 55.6934ZM81.1306 65.338L81.2391 64.8499L81.2391 64.8499L81.1306 65.338ZM82.6784 67.7696L83.1665 67.8781L83.1665 67.878L82.6784 67.7696ZM80.2458 69.3174L80.1373 69.8055L80.1374 69.8056L80.2458 69.3174ZM66.9392 56.8292L67.4194 56.69L67.4194 56.6899L66.9392 56.8292ZM62.6823 42.1465L62.2021 42.2857L62.2021 42.2858L62.6823 42.1465ZM49.4079 27.9561L49.237 28.426L49.2371 28.426L49.4079 27.9561ZM30.0671 52.1505L30.3824 52.5385C33.2655 50.196 37.182 49.5732 40.6494 50.9062L40.8288 50.4395L41.0082 49.9728C37.2066 48.5113 32.9128 49.1941 29.7518 51.7624L30.0671 52.1505ZM40.8288 50.4395L40.6491 50.9061L41.5085 51.2372L41.6882 50.7706L41.8679 50.304L41.0086 49.9729L40.8288 50.4395ZM41.6882 50.7706L41.5088 51.2373C45.0924 52.6151 47.7978 55.6283 48.7821 59.3392L49.2653 59.211L49.7486 59.0828C48.6821 55.0617 45.7506 51.7968 41.8676 50.3039L41.6882 50.7706ZM49.2653 59.211L48.782 59.3391L51.3885 69.1712L51.8718 69.043L52.3551 68.9149L49.7487 59.0829L49.2653 59.211ZM51.8718 69.043L51.3885 69.1712C53.488 77.0883 59.5357 83.3543 67.373 85.7343L67.5183 85.2559L67.6636 84.7775C60.1577 82.4981 54.3657 76.4971 52.3551 68.9149L51.8718 69.043ZM67.5183 85.2559L67.373 85.7344C68.1863 85.9813 68.646 86.8416 68.3992 87.6546L68.8777 87.7999L69.3561 87.9451C69.7634 86.6034 69.005 85.1849 67.6636 84.7775L67.5183 85.2559ZM68.8777 87.7999L68.3992 87.6546C68.1523 88.4676 67.2923 88.9268 66.4789 88.6798L66.3337 89.1583L66.1885 89.6367C67.5299 90.0439 68.9486 89.287 69.3561 87.9452L68.8777 87.7999ZM66.3337 89.1583L66.479 88.6798C57.6211 85.9899 50.7862 78.907 48.4137 69.9588L47.9304 70.087L47.4471 70.2151C49.9084 79.4981 56.999 86.8461 66.1884 89.6367L66.3337 89.1583ZM47.9304 70.087L48.4137 69.9588L45.8072 60.1288L45.3239 60.2569L44.8406 60.385L47.4471 70.2151L47.9304 70.087ZM45.3239 60.2569L45.8072 60.1287C45.0763 57.372 43.0668 55.1331 40.4047 54.1095L40.2253 54.5762L40.0459 55.0429C42.4084 55.9513 44.1919 57.9384 44.8406 60.3851L45.3239 60.2569ZM40.2253 54.5762L40.4049 54.1096L39.5445 53.7785L39.365 54.2452L39.1854 54.7118L40.0457 55.0429L40.2253 54.5762ZM39.365 54.2452L39.5443 53.7785C37.1057 52.8412 34.3518 53.2792 32.3241 54.9264L32.6394 55.3145L32.9546 55.7026C34.7045 54.281 37.0812 53.9031 39.1856 54.7119L39.365 54.2452ZM32.6394 55.3145L32.3236 54.9269L32.097 55.1114L32.4128 55.4991L32.7286 55.8867L32.9552 55.7022L32.6394 55.3145ZM32.4128 55.4991L32.0975 55.111C30.114 56.7228 29.1979 59.3081 29.7243 61.8091L30.2136 61.7061L30.7029 61.6031C30.2537 59.4689 31.0354 57.2626 32.7281 55.8871L32.4128 55.4991ZM30.2136 61.7061L29.7242 61.8088L29.9332 62.8049L30.4226 62.7022L30.9119 62.5995L30.7029 61.6035L30.2136 61.7061ZM30.4226 62.7022L29.9333 62.8052C30.3027 64.5594 31.5756 65.9866 33.2762 66.5535L33.4343 66.0792L33.5924 65.6048C32.2288 65.1503 31.208 64.0057 30.9118 62.5992L30.4226 62.7022ZM33.4343 66.0792L33.2763 66.5535L35.0819 67.1551L35.24 66.6807L35.398 66.2064L33.5923 65.6048L33.4343 66.0792ZM35.24 66.6807L35.0819 67.1551C36.4934 67.6255 38.0326 66.9585 38.6559 65.608L38.2019 65.3985L37.7479 65.189C37.3379 66.0773 36.3257 66.5155 35.398 66.2064L35.24 66.6807ZM38.2019 65.3985L38.6559 65.608C39.1945 64.4404 38.9067 63.0572 37.9452 62.2025L37.613 62.5762L37.2808 62.9499C37.9126 63.5115 38.1022 64.421 37.7479 65.1891L38.2019 65.3985ZM37.613 62.5762L37.945 62.2023L35.8288 60.3234L35.4968 60.6973L35.1648 61.0712L37.281 62.9501L37.613 62.5762ZM35.4968 60.6973L35.829 60.3236C35.194 59.7591 35.1368 58.785 35.7016 58.1496L35.3278 57.8174L34.9541 57.4853C34.0227 58.5331 34.1166 60.1393 35.1646 61.071L35.4968 60.6973ZM35.3278 57.8174L35.7015 58.1497C36.266 57.5147 37.2393 57.4576 37.8746 58.0223L38.2068 57.6485L38.5389 57.2748C37.4911 56.3436 35.8858 56.4373 34.9542 57.4852L35.3278 57.8174ZM38.2068 57.6485L37.8745 58.0221L39.9897 59.903L40.322 59.5294L40.6542 59.1557L38.539 57.2749L38.2068 57.6485ZM40.322 59.5294L39.9898 59.903C41.9645 61.6586 42.5582 64.5 41.451 66.8989L41.905 67.1085L42.359 67.318C43.6509 64.5189 42.9581 61.2038 40.6542 59.1557L40.322 59.5294ZM41.905 67.1085L41.451 66.8989C40.1704 69.6733 37.0081 71.0408 34.109 70.0745L33.9509 70.5489L33.7928 71.0232C37.1751 72.1506 40.8647 70.5552 42.359 67.318L41.905 67.1085ZM33.9509 70.5489L34.1089 70.0745L32.3033 69.473L32.1452 69.9473L31.9872 70.4217L33.7929 71.0233L33.9509 70.5489ZM32.1452 69.9473L32.3033 69.473C29.5653 68.5603 27.5162 66.2632 26.9216 63.4391L26.4323 63.5421L25.9431 63.6451C26.6108 66.8169 28.9122 69.3967 31.9871 70.4217L32.1452 69.9473ZM26.4323 63.5421L26.9217 63.4393L26.7127 62.4442L26.2234 62.5469L25.734 62.6497L25.943 63.6448L26.4323 63.5421ZM26.2234 62.5469L26.7126 62.4439C25.9485 58.8141 27.278 55.0612 30.1568 52.7221L29.8415 52.334L29.5262 51.946C26.3565 54.5215 24.8927 58.6535 25.7341 62.6499L26.2234 62.5469ZM29.8415 52.334L30.1571 52.7218L30.3827 52.5383L30.0671 52.1505L29.7515 51.7627L29.5259 51.9462L29.8415 52.334ZM34.8132 33.1768V33.6768C45.6746 33.6768 55.1691 41.0044 57.9203 51.5115L58.404 51.3848L58.8877 51.2582C56.0213 40.3111 46.1293 32.6768 34.8132 32.6768V33.1768ZM58.404 51.3848L57.9203 51.5115L59.4232 57.2527L59.9069 57.126L60.3907 56.9994L58.8877 51.2582L58.404 51.3848ZM59.9069 57.126L59.4233 57.2527C62.7053 69.7884 74.0326 78.5323 86.9909 78.5323V78.0323V77.5323C74.4874 77.5323 63.5576 69.0953 60.3906 56.9994L59.9069 57.126ZM86.9909 78.0323V78.5323H94.9607V78.0323V77.5323H86.9909V78.0323ZM94.9607 78.0323V78.5323C95.8106 78.5323 96.4997 79.2214 96.4997 80.0714H96.9997H97.4997C97.4997 78.6692 96.3629 77.5323 94.9607 77.5323V78.0323ZM96.9997 80.0714L96.4997 80.0713C96.4996 80.9209 95.8107 81.6094 94.9607 81.6094V82.1094V82.6094C96.3625 82.6094 97.4995 81.4736 97.4997 80.0714L96.9997 80.0714ZM94.9607 82.1094V81.6094H86.9909V82.1094V82.6094H94.9607V82.1094ZM86.9909 82.1094V81.6094C72.6332 81.6094 60.0821 71.923 56.4453 58.0336L55.9616 58.1602L55.4779 58.2869C59.2299 72.6163 72.1785 82.6094 86.9909 82.6094V82.1094ZM55.9616 58.1602L56.4453 58.0336L54.9424 52.2914L54.4587 52.418L53.975 52.5446L55.4779 58.2868L55.9616 58.1602ZM54.4587 52.418L54.9424 52.2914C52.5457 43.1382 44.2751 36.754 34.8132 36.754V37.254V37.754C43.8203 37.754 51.6935 43.8313 53.975 52.5447L54.4587 52.418ZM34.8132 37.254L34.8133 36.754C33.9634 36.7538 33.2741 36.0646 33.2741 35.2149H32.7741H32.2741C32.2741 36.6171 33.4112 37.7538 34.8131 37.754L34.8132 37.254ZM32.7741 35.2149L33.2741 35.215C33.2743 34.3656 33.9633 33.6769 34.8133 33.6768L34.8132 33.1768L34.8131 32.6768C33.4116 32.677 32.2744 33.8127 32.2741 35.2148L32.7741 35.2149ZM48.1882 25.3428L48.6581 25.5138C48.9485 24.7152 49.8321 24.3028 50.6307 24.593L50.8015 24.1231L50.9723 23.6532C49.6547 23.1744 48.1975 23.8545 47.7183 25.1719L48.1882 25.3428ZM50.8015 24.1231L50.6306 24.593C58.1396 27.3236 63.8946 33.4758 66.1191 41.15L66.5993 41.0108L67.0796 40.8716C64.7662 32.8909 58.7814 26.4929 50.9724 23.6532L50.8015 24.1231ZM66.5993 41.0108L66.1191 41.15L70.375 55.8326L70.8552 55.6934L71.3354 55.5542L67.0796 40.8716L66.5993 41.0108ZM70.8552 55.6934L70.375 55.8326C71.8317 60.8585 75.9139 64.6908 81.0221 65.826L81.1306 65.338L81.2391 64.8499C76.4877 63.7939 72.6905 60.2293 71.3354 55.5542L70.8552 55.6934ZM81.1306 65.338L81.022 65.826C81.8517 66.0105 82.3745 66.8319 82.1903 67.6612L82.6784 67.7696L83.1665 67.878C83.4705 66.5093 82.6074 65.1542 81.2391 64.8499L81.1306 65.338ZM82.6784 67.7696L82.1903 67.6611C82.006 68.4906 81.184 69.0136 80.3542 68.8293L80.2458 69.3174L80.1374 69.8056C81.506 70.1095 82.8623 69.2469 83.1665 67.8781L82.6784 67.7696ZM80.2458 69.3174L80.3543 68.8294C74.1485 67.4501 69.1894 62.7958 67.4194 56.69L66.9392 56.8292L66.4589 56.9684C68.3307 63.4252 73.5748 68.347 80.1373 69.8055L80.2458 69.3174ZM66.9392 56.8292L67.4194 56.6899L63.1626 42.0073L62.6823 42.1465L62.2021 42.2858L66.459 56.9684L66.9392 56.8292ZM62.6823 42.1465L63.1626 42.0074C61.2116 35.2766 56.1647 29.8811 49.5788 27.4862L49.4079 27.9561L49.2371 28.426C55.5229 30.7118 60.34 35.8616 62.2021 42.2857L62.6823 42.1465ZM49.4079 27.9561L49.5788 27.4862C48.7801 27.1957 48.3677 26.3123 48.6581 25.5137L48.1882 25.3428L47.7183 25.172C47.2391 26.4898 47.9195 27.9468 49.237 28.426L49.4079 27.9561Z" fill="black"/>
<defs>
<linearGradient id="paint0_linear_1666_3128" x1="35" y1="8" x2="91.2783" y2="113" gradientUnits="userSpaceOnUse">
<stop stop-color="#84CAFF"/>
<stop offset="0.489822" stop-color="#CD55D1"/>
<stop offset="1" stop-color="#EE7249"/>
</linearGradient>
</defs>
</svg>
