<svg width="122" height="122" viewBox="0 0 122 122" fill="none" xmlns="http://www.w3.org/2000/svg">
<circle cx="61" cy="61" r="61" fill="url(#paint0_linear_1666_3127)"/>
<path d="M101.16 72.8707C100.65 73.8949 100.141 74.9191 99.6312 75.9434C97.6401 79.9494 94.9251 83.5867 91.6612 86.6282C88.6338 89.4529 85.1361 91.764 81.3601 93.4381C72.6398 97.3425 62.4319 97.6696 53.5257 94.3684C52.3295 93.9298 51.1332 93.4911 49.937 93.0525C43.3131 90.6331 37.4211 86.3028 33.1465 80.7322C32.8476 80.3439 32.5487 79.9556 32.2498 79.5673C26.6838 72.3891 24.2031 62.9582 25.4899 54.0231C25.5241 53.7788 25.5583 53.5345 25.5925 53.2903C26.7725 44.6268 31.6601 36.5827 38.7494 31.5603C39.2564 31.1979 39.7634 30.8354 40.2705 30.473C47.0328 25.5902 55.9953 24.0025 63.9726 26.2288C64.9495 26.4957 65.9263 26.7625 66.9032 27.0293C76.9371 29.6206 84.4393 39.3665 84.4256 49.6192C84.4352 50.3122 84.4449 51.0053 84.4546 51.6983C84.601 58.6093 80.8424 65.3998 74.9714 68.935C74.6231 69.1488 74.2748 69.3627 73.9265 69.5765C69.1369 72.5551 62.9034 72.9626 57.8014 70.6678C57.5147 70.5414 57.228 70.4149 56.9413 70.2885C53.2346 68.6669 50.2638 65.4922 48.892 61.7155C48.8459 61.5904 48.7998 61.4654 48.7537 61.3403C47.5415 58.0735 47.6242 54.3646 48.9651 51.1728C49.223 50.5516 49.4809 49.9303 49.7388 49.3091C50.8395 46.6304 53.2049 44.5294 55.9692 43.7505C59.6671 42.6396 63.9245 44.0602 66.2031 47.1224C66.2735 47.2143 66.344 47.3063 66.4144 47.3982C67.5848 48.9255 68.2365 50.8333 68.2485 52.7458C68.253 53.1846 68.2575 53.6235 68.262 54.0623C68.2757 55.4154 67.765 56.7593 66.866 57.7562C66.5902 58.0658 66.3144 58.3754 66.0387 58.6851C65.5386 59.2431 64.8857 59.6428 64.169 59.8352C63.2091 60.0961 62.1664 59.9685 61.3067 59.4872C61.1339 59.3924 60.9612 59.2976 60.7885 59.2028C58.7032 58.1636 58.4631 54.9203 60.3081 53.6014C60.8258 53.1871 61.1559 52.5851 61.2241 51.9255C61.2923 51.266 61.0929 50.603 60.6716 50.0846C60.2503 49.5662 59.6421 49.2354 58.9826 49.1673C58.3231 49.0991 57.6662 49.2991 57.1548 49.7211C57.1548 49.7211 57.1548 49.7211 57.1548 49.7211C52.6196 53.1606 53.4247 61.0103 58.4961 63.4541C58.6703 63.5463 58.8444 63.6385 59.0185 63.7308C60.9717 64.7814 63.3408 65.0255 65.459 64.4067C67.0446 63.9535 68.4954 63.0257 69.5692 61.7828C69.8403 61.4691 70.1115 61.1554 70.3826 60.8417C72.0226 58.9621 72.9199 56.4642 72.8544 53.9813C72.8434 53.5426 72.8324 53.1039 72.8215 52.6651C72.7584 49.7715 71.7286 46.9162 69.94 44.6556C69.8682 44.5647 69.7964 44.4738 69.7247 44.3829C66.3014 39.933 60.0662 37.989 54.7568 39.6738C50.7848 40.8598 47.4507 43.9306 45.9431 47.7661C45.6944 48.3911 45.4457 49.0162 45.197 49.6412C43.526 53.7936 43.5009 58.5619 45.1129 62.7134C45.1609 62.8378 45.2088 62.9621 45.2568 63.0865C47.0558 67.8152 50.8405 71.7228 55.4802 73.6699C55.7688 73.792 56.0573 73.9142 56.3459 74.0363C62.5716 76.7238 70.0593 76.099 75.7243 72.4565C76.0694 72.2375 76.4145 72.0186 76.7596 71.7996C83.5701 67.5566 87.7896 59.5927 87.501 51.6332C87.4811 50.9404 87.4611 50.2476 87.4412 49.5548C87.2779 37.9881 78.6889 27.2747 67.553 24.5791C66.5723 24.3268 65.5916 24.0744 64.6109 23.8221C55.8857 21.5274 46.2208 23.4139 39.0332 28.769C38.5316 29.1389 38.03 29.5088 37.5284 29.8787C30.0595 35.3394 25.0327 43.9396 23.9275 53.0698C23.8969 53.3145 23.8663 53.5592 23.8357 53.804C22.6256 63.198 25.379 72.9877 31.2589 80.3418C31.5635 80.7256 31.8681 81.1094 32.1727 81.4932C36.6739 87.1821 42.8056 91.5397 49.6272 93.9172C50.8298 94.338 52.0324 94.7589 53.235 95.1797C62.3992 98.4221 72.7782 97.9146 81.5394 93.8342C85.334 92.084 88.8279 89.6982 91.833 86.8097C95.0731 83.6994 97.7429 80.0063 99.6769 75.9657C100.171 74.934 100.665 73.9023 101.16 72.8707Z" fill="black"/>
<defs>
<linearGradient id="paint0_linear_1666_3127" x1="35" y1="8" x2="91.2783" y2="113" gradientUnits="userSpaceOnUse">
<stop stop-color="#80C8FF"/>
<stop offset="0.489822" stop-color="#CD55D1"/>
<stop offset="1" stop-color="#EE7249"/>
</linearGradient>
</defs>
</svg>
