<svg xmlns="http://www.w3.org/2000/svg" xmlns:xlink="http://www.w3.org/1999/xlink" width="26" height="26" viewBox="0 0 26 26">
  <defs>
    <clipPath id="clip-path">
      <rect id="矩形_3464" data-name="矩形 3464" width="26" height="26" transform="translate(8 8)" fill="rgba(255,255,255,0)"/>
    </clipPath>
    <linearGradient id="linear-gradient" x1="0.346" x2="0.567" y2="0.967" gradientUnits="objectBoundingBox">
      <stop offset="0" stop-color="#1ff7fd"/>
      <stop offset="0.491" stop-color="#b33bf6"/>
      <stop offset="0.846" stop-color="#ff844c"/>
      <stop offset="1" stop-color="#ff844b"/>
    </linearGradient>
  </defs>
  <g id="蒙版组_576" data-name="蒙版组 576" transform="translate(-8 -8)" clip-path="url(#clip-path)">
    <path id="路径_60275" data-name="路径 60275" d="M74.159,109.83v13.377a.958.958,0,0,1-.928.93H52.4a.986.986,0,0,1-.956-.93V117.46c0-.933.482-1.422.988-.955l2.816,2.158c.378.316.947.744,1.265.371l3.228-3.816c.316-.373.887-.9,1.269-.589l2.778,2.354c.381.312,1.171.856,1.481.477l6.913-8.108C73.118,108.315,74.159,108.559,74.159,109.83Zm-8.869,8.557H63.936v2.773l.012.128a.914.914,0,0,0,.495.618,3.323,3.323,0,0,0,2.822,0,.869.869,0,0,0,.506-.745v-2.774H66.415V121.2l-.011.084c-.054.183-.284.256-.551.256-.305,0-.562-.095-.562-.34Zm5.035,0a2.907,2.907,0,0,0-1.25.238.92.92,0,0,0-.61.834c0,.587.286.787.972.946l.859.194.134.033c.371.093.456.178.456.5a.343.343,0,0,1-.133.317.717.717,0,0,1-.429.095.8.8,0,0,1-.419-.089.35.35,0,0,1-.143-.344H68.409l.005.139a.8.8,0,0,0,.443.7,3.163,3.163,0,0,0,1.468.275,3.279,3.279,0,0,0,1.479-.28.814.814,0,0,0,.438-.834c0-.681-.248-.9-1.107-1.088l-.849-.19-.119-.029c-.288-.077-.349-.156-.349-.367a.292.292,0,0,1,.115-.268.633.633,0,0,1,.391-.1.625.625,0,0,1,.391.1c.115.084.115.206.115.339h1.355l-.008-.139a.888.888,0,0,0-.518-.732,2.974,2.974,0,0,0-1.335-.238Zm3.3-14.838-8.5,10.631a1.559,1.559,0,0,1-2.192.224L59.8,111.835l-3.149,4.043a1.556,1.556,0,0,1-2.188.253l-2.747-2.188a1.462,1.462,0,0,1-.215-2.1,1.558,1.558,0,0,1,2.152-.21l1.518,1.209,3.162-4.061a1.534,1.534,0,0,1,1.048-.58,1.563,1.563,0,0,1,1.157.34l3.15,2.584,4.071-4.971-1.135-.916c-.805-.65-.626-1.355.4-1.565l5.9-1.214c1.024-.212,1.341.277.7,1.086Z" transform="translate(-41.658 -92.357)" fill="url(#linear-gradient)"/>
  </g>
</svg>
