<svg width="26" height="26" viewBox="0 0 26 26" fill="none" xmlns="http://www.w3.org/2000/svg">
<g clip-path="url(#clip0_4205_991)">
<path d="M18.6777 0.689C18.6777 0.30875 18.369 0 17.9887 0H8.0112C7.63095 0 7.3222 0.30875 7.3222 0.689V2.5675C7.3222 2.94775 7.63095 3.2565 8.0112 3.2565H17.992C18.3722 3.2565 18.681 2.94775 18.681 2.5675V0.689H18.6777ZM22.8962 17.407C23.283 17.407 23.6177 17.0755 23.6177 16.6888C23.6177 16.302 23.283 15.9705 22.8962 15.9705C22.5095 15.9705 22.1747 16.302 22.1747 16.6888C22.1747 17.0755 22.5062 17.407 22.8962 17.407ZM17.4037 15.9933C17.017 15.9933 16.6822 16.3248 16.6822 16.7115C16.6822 17.0983 17.017 17.4298 17.4037 17.4298C17.7905 17.4298 18.1252 17.0983 18.1252 16.7115C18.1252 16.2988 17.7937 15.9965 17.4037 15.9933Z" fill="url(#paint0_linear_4205_991)"/>
<path d="M25.1679 20.0955H23.2537C22.8929 20.0955 22.5874 20.3165 22.4769 20.6513H20.3774V19.0685H22.8637C24.1669 19.0685 25.2492 17.9863 25.2492 16.683C25.2492 15.383 24.1669 14.3008 22.8637 14.3008H17.4329C16.1297 14.3008 15.0474 15.383 15.0474 16.683C15.0474 17.9863 16.1297 19.0685 17.4329 19.0685H19.9062V20.6513H17.8197C17.7092 20.3165 17.4037 20.0955 17.0429 20.0955H15.1287C14.6867 20.0955 14.2967 20.4563 14.2967 20.9275V25.1688C14.3259 25.6368 14.6834 26.0008 15.1287 26.0008H17.0429C17.4037 26.0008 17.7092 25.7798 17.8197 25.445H22.4802C22.5907 25.7798 22.8962 26.0008 23.2569 26.0008H25.1712C25.6132 26.0008 26.0032 25.64 26.0032 25.1688V20.9275C25.9999 20.4855 25.6392 20.0955 25.1679 20.0955ZM21.8952 16.7123C21.8952 16.1565 22.3404 15.7145 22.8929 15.7145C23.4487 15.7145 23.8907 16.1598 23.8907 16.7123V16.7155C23.8907 17.2713 23.4454 17.7133 22.8929 17.7133C22.3404 17.7133 21.8952 17.268 21.8952 16.7123ZM18.4047 16.7155C18.4047 17.2713 17.9594 17.7133 17.4069 17.7133C16.8512 17.7133 16.4092 17.2713 16.4092 16.7155V16.7123C16.4092 16.1565 16.8544 15.7145 17.4069 15.7145C17.9594 15.7145 18.4047 16.1598 18.4047 16.7155ZM17.3159 24.782H14.8784V24.5318H17.3159V24.782ZM17.3159 23.287H14.8784V23.0108H17.3159V23.287ZM17.3159 21.597H14.8784V21.3208H17.3159V21.597ZM22.4509 25.198H17.8782V20.9568H22.4542V25.198H22.4509ZM25.4669 24.782H23.0294V24.5318H25.4669V24.782ZM25.4669 23.287H23.0294V23.0108H25.4669V23.287ZM25.4669 21.597H23.0294V21.3208H25.4669V21.597Z" fill="url(#paint1_linear_4205_991)"/>
<path d="M12.5157 25.2759L12.5125 25.1719V21.4669H10.9395C10.374 21.4669 9.91572 21.0021 9.91572 20.4334C9.91572 19.8646 10.374 19.3999 10.9395 19.3999H13.0097C13.2145 19.1139 13.4777 18.8734 13.78 18.6881C13.442 18.0804 13.2632 17.3946 13.2632 16.6829C13.2632 16.6146 13.2665 16.5464 13.2697 16.4814H10.9427C10.3772 16.4814 9.91897 16.0296 9.91897 15.4609C9.91897 14.8921 10.3772 14.4404 10.9427 14.4404H13.923C14.0855 14.1901 14.274 13.9529 14.4917 13.7384C15.2847 12.9486 16.328 12.5099 17.4362 12.5099H22.8702C23.3805 12.5099 23.8777 12.6041 24.3457 12.7796V3.67962C24.3457 2.53887 23.4162 1.60938 22.2755 1.60938H20.2962V4.16712C20.2962 4.54737 19.9907 4.86587 19.6105 4.86587H6.42197C6.04172 4.86587 5.73622 4.54737 5.73622 4.16712V1.61588H3.72772C2.59022 1.61588 1.65747 2.54537 1.65747 3.68612V23.9206C1.65747 25.0581 2.58697 26.0006 3.72772 26.0006H12.6587C12.5807 25.7731 12.532 25.5294 12.5157 25.2759ZM10.9395 9.48737H18.928C19.4935 9.48737 19.9517 9.93912 19.9517 10.5079C19.9485 11.0766 19.4902 11.5284 18.9247 11.5284H10.9395C10.374 11.5284 9.91572 11.0766 9.91572 10.5079C9.91247 9.93912 10.3707 9.48737 10.9395 9.48737ZM7.56922 21.4409C7.00047 21.4409 6.53897 20.9794 6.53897 20.4106C6.53897 19.8419 7.00047 19.3804 7.56922 19.3804C8.13797 19.3804 8.59947 19.8419 8.59947 20.4106C8.59947 20.9794 8.13797 21.4409 7.56922 21.4409ZM7.56922 16.4814C7.00047 16.4814 6.53897 16.0199 6.53897 15.4511C6.53897 14.8824 7.00047 14.4209 7.56922 14.4209C8.13797 14.4209 8.59947 14.8824 8.59947 15.4511C8.59947 16.0199 8.13797 16.4814 7.56922 16.4814ZM7.56922 11.5251C7.00047 11.5251 6.53897 11.0636 6.53897 10.4949C6.53897 9.92613 7.00047 9.46462 7.56922 9.46462C8.13797 9.46462 8.59947 9.92613 8.59947 10.4949C8.59947 11.0636 8.13797 11.5251 7.56922 11.5251Z" fill="url(#paint2_linear_4205_991)"/>
</g>
<defs>
<linearGradient id="paint0_linear_4205_991" x1="15.47" y1="0" x2="15.47" y2="17.4298" gradientUnits="userSpaceOnUse">
<stop stop-color="#37D9FD"/>
<stop offset="0.485" stop-color="#AE40F6"/>
<stop offset="1" stop-color="#FF844B"/>
</linearGradient>
<linearGradient id="paint1_linear_4205_991" x1="20.1499" y1="14.3008" x2="20.1499" y2="26.0008" gradientUnits="userSpaceOnUse">
<stop stop-color="#37D9FD"/>
<stop offset="0.485" stop-color="#AE40F6"/>
<stop offset="1" stop-color="#FF844B"/>
</linearGradient>
<linearGradient id="paint2_linear_4205_991" x1="13.0016" y1="1.60937" x2="13.0016" y2="26.0006" gradientUnits="userSpaceOnUse">
<stop stop-color="#37D9FD"/>
<stop offset="0.485" stop-color="#AE40F6"/>
<stop offset="1" stop-color="#FF844B"/>
</linearGradient>
<clipPath id="clip0_4205_991">
<rect width="26" height="26" fill="white"/>
</clipPath>
</defs>
</svg>
