<svg xmlns="http://www.w3.org/2000/svg" width="14" height="14" viewBox="0 0 14 14">
    <g data-name="组 24002">
        <path data-name="矩形 3384" style="fill:transparent" d="M0 0h14v14H0z"/>
        <path data-name="路径 60122" d="M9.841 95.732h.5c.077 0 .193-.039.271-.039.039 0 .116-.039.155-.039.077-.039.193-.039.271-.077.039 0 .077-.039.116-.039.116-.039.193-.077.309-.116.039 0 .039-.039.077-.039.116-.039.232-.116.348-.155a3.88 3.88 0 0 0 1.005-.773 2.209 2.209 0 0 0 .271-.309c0-.039.039-.039.039-.077a4.425 4.425 0 0 0 .966-2.783h-1.042c-.039 0-.039 0-.077-.039v-.077l1.817-2.67c0-.039.039-.039.077-.039s.039 0 .077.039l1.7 2.629v.077c0 .039-.039.039-.077.039H15.6a5.971 5.971 0 0 1-1.044 3.363.038.038 0 0 1-.039.039 1.682 1.682 0 0 1-.232.271c-.039.039-.039.077-.077.116-.116.116-.232.271-.348.387l-.039.039a6.587 6.587 0 0 1-1.314 1.005.038.038 0 0 0-.039.039 2.071 2.071 0 0 1-.425.193c-.039 0-.077.039-.116.039a4.011 4.011 0 0 1-.387.155c-.077.039-.116.039-.193.077a1.129 1.129 0 0 1-.348.077c-.077 0-.155.039-.232.039-.039 0-.077 0-.077.039a.961.961 0 0 1-.309.039h-.116c-.193 0-.387.039-.58.039a5.693 5.693 0 0 1-3.325-1.082.727.727 0 0 1-.155-1.005.687.687 0 0 1 .966-.155 4.76 4.76 0 0 0 2.667.773zm-4.87-7.809a.038.038 0 0 1 .039-.039 2.125 2.125 0 0 1 .271-.348l.039-.039a6.03 6.03 0 0 1 2.165-1.662c.039 0 .039-.039.077-.039.116-.039.271-.116.425-.155.039 0 .116-.039.155-.039a1.129 1.129 0 0 1 .348-.077 1.674 1.674 0 0 0 .193-.039.142.142 0 0 0 .116-.039c.077 0 .193-.039.271-.039a.349.349 0 0 0 .193-.039c.116 0 .271-.039.425-.039h.077a5.9 5.9 0 0 1 3.363 1.082.727.727 0 0 1 .155 1.005.687.687 0 0 1-.966.155 4.47 4.47 0 0 0-2.59-.812 1.315 1.315 0 0 0-.387.039h-.117c-.116 0-.193.039-.309.039-.039 0-.077.039-.116.039-.116.039-.193.039-.309.077a.135.135 0 0 0-.078.046l-.348.116h-.038a4.179 4.179 0 0 0-1.662 1.276 4.594 4.594 0 0 0-1.005 2.861H6.4c.039 0 .039 0 .077.039v.077l-1.74 2.629c0 .039-.039.039-.077.039s-.039 0-.077-.039l-1.74-2.629v-.077c0-.039.039-.039.077-.039h1.046a5.461 5.461 0 0 1 1.005-3.33z" transform="translate(-2.784 -84.289)" style="fill:#fff"/>
    </g>
</svg>
