<svg xmlns="http://www.w3.org/2000/svg" width="16" height="16" viewBox="0 0 16 16">
    <defs>
        <clipPath id="qrsyofb54a">
            <path data-name="矩形 3649" transform="translate(-.393 1)" style="fill:#fff;stroke:#707070" d="M0 0h16v16H0z"/>
        </clipPath>
    </defs>
    <g data-name="蒙版组 613" transform="translate(.393 -1)" style="clip-path:url(#qrsyofb54a)">
        <g data-name="组 24312">
            <path data-name="矩形 97" style="fill:transparent" d="M0 0h16v16H0z" transform="translate(0 1)"/>
            <path data-name="路径 60195" d="M130 72.012h-4.981c-.091 0-.164.123-.164.274s.073.273.164.273H130c.09 0 .164-.122.164-.273s-.078-.274-.164-.274zm0 0v-1.264h-4.981c-.091 0-.164.123-.164.274s.073.273.164.273H130c.09 0 .164-.122.164-.273s-.078-.274-.164-.274zm0 0v-1.263h-4.981c-.091 0-.164.122-.164.273s.073.274.164.274H130c.09 0 .164-.123.164-.274s-.078-1.537-.164-1.537zm0 0 3.539-2.943a1.56 1.56 0 0 0-1.556-1.559h-7.651a1.54 1.54 0 0 0-1.515 1.559v9.114a.426.426 0 0 0 .125.3l1.238 1.228a.4.4 0 0 0 .569 0l1.263-1.253 1.31 1.3a.4.4 0 0 0 .569 0l1.311-1.3 1.311 1.3a.4.4 0 0 0 .569 0l1.186-1.177a.428.428 0 0 0 .125-.3v-7.71a1.561 1.561 0 0 0 1.147-1.5zm-2.666 9.931-1.342-1.332a.41.41 0 0 0-.582 0l2.19-4.138-1.342-1.332a.411.411 0 0 0-.582 0l-1.293 1.283-.848-.841v-9.15a.724.724 0 0 1 .713-.734h.023a.734.734 0 1 1 0 1.467.432.432 0 0 0 0 .863h7.394v7.654l-.8.79zm.938-9.132-6.531-.042a.73.73 0 0 0 .4-.7 1.613 1.613 0 0 0-.18-.851l6.539-.011a.917.917 0 0 1 .838.829.859.859 0 0 1-.843.759zm0 0" transform="translate(-120.172 -62.168)" style="fill:#2873ff;stroke:#2873ff;stroke-width:.2px"/>
        </g>
    </g>
</svg>
