<svg xmlns="http://www.w3.org/2000/svg" xmlns:xlink="http://www.w3.org/1999/xlink" width="18" height="18" viewBox="0 0 18 18">
  <defs>
    <clipPath id="clip-path">
      <rect id="矩形_2592" data-name="矩形 2592" width="18" height="18" fill="#2873ff" stroke="#707070" stroke-width="1"/>
    </clipPath>
  </defs>
  <g id="蒙版组_447" data-name="蒙版组 447" clip-path="url(#clip-path)">
    <path id="路径_60315" data-name="路径 60315" d="M9.761,13.733a.59.59,0,0,1,.581.484l.01.106V15.43a.59.59,0,0,1-1.175.107l-.01-.106V14.323a.59.59,0,0,1,.59-.59Zm4.766-1.743.093.076.784.784a.59.59,0,0,1-.742.91l-.093-.076-.784-.784a.59.59,0,0,1,.742-.91Zm-8.79.076a.59.59,0,0,1,.076.742l-.076.093-.784.784a.59.59,0,0,1-.91-.742l.076-.093.784-.784a.59.59,0,0,1,.835,0ZM9.761,3.819A4.222,4.222,0,1,1,5.538,8.042,4.222,4.222,0,0,1,9.761,3.819ZM17.15,7.452a.59.59,0,0,1,.106,1.171l-.106.01H16.042a.59.59,0,0,1-.106-1.175l.106-.01H17.15Zm-13.671,0a.59.59,0,0,1,.106,1.171l-.106.01H2.371a.59.59,0,0,1-.106-1.175l.106-.01H3.48ZM15.4,2.4a.59.59,0,0,1,.076.742l-.076.093-.784.784a.59.59,0,0,1-.91-.742l.076-.093L14.57,2.4a.59.59,0,0,1,.834,0ZM4.861,2.324l.093.076.784.784A.59.59,0,0,1,5,4.094L4.9,4.018l-.784-.784a.59.59,0,0,1,.742-.91ZM9.761.063a.59.59,0,0,1,.581.484l.01.106V1.762a.59.59,0,0,1-1.175.106l-.01-.106V.652A.59.59,0,0,1,9.761.063Z" transform="translate(-0.746 0.944)" fill="#2873ff"/>
  </g>
</svg>
