<svg xmlns="http://www.w3.org/2000/svg" xmlns:xlink="http://www.w3.org/1999/xlink" width="26" height="26" viewBox="0 0 26 26">
  <defs>
    <linearGradient id="linear-gradient" x2="1" y2="0.547" gradientUnits="objectBoundingBox">
      <stop offset="0" stop-color="#1ff7fd"/>
      <stop offset="0.491" stop-color="#b33bf6"/>
      <stop offset="0.846" stop-color="#ff844c"/>
      <stop offset="1" stop-color="#ff844b"/>
    </linearGradient>
  </defs>
  <g id="组_24203" data-name="组 24203" transform="translate(-0.001)">
    <rect id="矩形_3462" data-name="矩形 3462" width="26" height="26" transform="translate(0.001)" fill="rgba(255,255,255,0)"/>
    <g id="组_24139" data-name="组 24139" transform="translate(1.332 2.055)">
      <path id="路径_59128" data-name="路径 59128" d="M307.592,384.938a7.65,7.65,0,0,1,3.225-5.059,5.331,5.331,0,0,1-.455-1.2,8.92,8.92,0,0,0-4.054,6.4,5.015,5.015,0,0,1,1.18-.14Zm15.131,0a5.344,5.344,0,0,1,1.3.2,8.945,8.945,0,0,0-3.809-6.3,4.983,4.983,0,0,1-.5,1.18A7.732,7.732,0,0,1,322.723,384.938Zm-4.194,8.155a7.7,7.7,0,0,1-3.377.783,7.5,7.5,0,0,1-3.541-.876,5.234,5.234,0,0,1-.888.947,8.906,8.906,0,0,0,8.716.081A4.929,4.929,0,0,1,318.528,393.093Z" transform="translate(-303.328 -373.237)" fill="url(#linear-gradient)"/>
      <path id="路径_59129" data-name="路径 59129" d="M425.706,256.775m-4.081,0a4.081,4.081,0,1,0,4.081-4.081A4.081,4.081,0,0,0,421.625,256.775Z" transform="translate(-413.668 -252.694)" fill="url(#linear-gradient)"/>
      <path id="路径_59130" data-name="路径 59130" d="M241.357,551.79m-4.081,0a4.081,4.081,0,1,0,4.081-4.081A4.081,4.081,0,0,0,237.275,551.79Z" transform="translate(-237.275 -534.974)" fill="url(#linear-gradient)"/>
      <path id="路径_59131" data-name="路径 59131" d="M592.823,551.79m-4.081,0a4.081,4.081,0,1,0,4.081-4.081A4.081,4.081,0,0,0,588.741,551.79Z" transform="translate(-573.57 -534.974)" fill="url(#linear-gradient)"/>
    </g>
  </g>
</svg>
