<svg xmlns="http://www.w3.org/2000/svg" xmlns:xlink="http://www.w3.org/1999/xlink" width="26" height="26" viewBox="0 0 26 26">
  <defs>
    <linearGradient id="linear-gradient" x1="0.346" x2="0.567" y2="0.967" gradientUnits="objectBoundingBox">
      <stop offset="0" stop-color="#1ff7fd"/>
      <stop offset="0.491" stop-color="#b33bf6"/>
      <stop offset="0.846" stop-color="#ff844c"/>
      <stop offset="1" stop-color="#ff844b"/>
    </linearGradient>
  </defs>
  <g id="组_24167" data-name="组 24167" transform="translate(18588 3621)">
    <rect id="矩形_3470" data-name="矩形 3470" width="26" height="26" transform="translate(-18588 -3621)" fill="rgba(255,255,255,0)"/>
    <path id="路径_60170" data-name="路径 60170" d="M73.111,79.563a6.047,6.047,0,0,1,10.121-4.469c.049-2.04.093-3.581.093-3.581l-6.617-7.44H65.744a2.128,2.128,0,0,0-2.056,2.194V82.832a2.128,2.128,0,0,0,2.056,2.194h10.82A6.047,6.047,0,0,1,73.111,79.563Zm3.236-13.924,5.739,6.454H77.749a1.488,1.488,0,0,1-1.4-1.559v-4.9Zm-8.831,3.687h5.471v.823H67.516Zm0,3.209h5.471v.823H67.516Zm5.471,7.24H67.516v-.823h5.471Zm0-3.209H67.516v-.823h5.471Zm9.864-.7a5.224,5.224,0,1,0,1.53,3.694A5.19,5.19,0,0,0,82.851,75.869Zm-3.159,3.905H75.255q-.006-.1-.006-.211a3.935,3.935,0,0,1,.048-.611h4.395Zm0-3.209H76.65a3.894,3.894,0,0,1,1.681-.823h1.361Zm6.792,9.507-2.767-2.757-.776.776,2.767,2.757a.548.548,0,1,0,.776-.776Z" transform="translate(-18650.064 -3683.439)" fill="url(#linear-gradient)"/>
  </g>
</svg>
