<svg xmlns="http://www.w3.org/2000/svg" xmlns:xlink="http://www.w3.org/1999/xlink" width="26" height="26" viewBox="0 0 26 26">
  <defs>
    <linearGradient id="linear-gradient" x1="0.346" x2="0.567" y2="0.967" gradientUnits="objectBoundingBox">
      <stop offset="0" stop-color="#1ff7fd"/>
      <stop offset="0.491" stop-color="#b33bf6"/>
      <stop offset="0.846" stop-color="#ff844c"/>
      <stop offset="1" stop-color="#ff844b"/>
    </linearGradient>
  </defs>
  <g id="组_24817" data-name="组 24817" transform="translate(-792 -465)">
    <rect id="矩形_3463" data-name="矩形 3463" width="26" height="26" transform="translate(792 465)" fill="rgba(255,255,255,0)"/>
    <path id="路径_60246" data-name="路径 60246" d="M-4704.9,3896.413l-3.6-1.423a.5.5,0,0,1-.312-.4l-.052-.432-3.121-1.233a.5.5,0,0,1-.312-.418l-.171-1.883a.5.5,0,0,1,.366-.525l1.243-.333a.21.21,0,0,0,.045-.018l.031-.019a.227.227,0,0,1,.022-.021l.011-.017a.384.384,0,0,0,.017-.038s.009-.022.012-.026a.343.343,0,0,0,.013-.059l0-.021c0-.028.006-.057.007-.086v-.034a1.321,1.321,0,0,0-.01-.147l-.827-6.841-1.921-.758a.5.5,0,0,1-.311-.4l-.223-1.84a.5.5,0,0,1,.366-.541l2.824-.756-.292-2.422a.5.5,0,0,1,.365-.54l1.62-.434a.493.493,0,0,1,.312.017l.4.158a.5.5,0,0,1,.369-.465l1.62-.434a.492.492,0,0,1,.311.018l3.6,1.423a.5.5,0,0,1,.311.4l.189,1.565,2.714,1.072a.274.274,0,0,1,.05.024,2.7,2.7,0,0,1,1.665,1.888,3.945,3.945,0,0,1-.511,3.212l.215.085.042.018a2.98,2.98,0,0,1,1.838,2.605c.366,3.017-1.094,5.063-4.22,5.924l.3,2.479a.5.5,0,0,1-.364.541l-1.621.434a.484.484,0,0,1-.311-.018l-.4-.157a.5.5,0,0,1-.369.465l-1.62.434a.479.479,0,0,1-.129.016A.508.508,0,0,1-4704.9,3896.413Zm.182-.463,1.621-.434-.352-2.908,1.08-.289.353,2.907,1.62-.434-.352-2.907.352-.095c3.321-.89,4.215-2.968,3.921-5.4a2.523,2.523,0,0,0-2.55-2.409,3.479,3.479,0,0,0,.976-3.449c-.467-1.848-2.61-2.015-4.28-1.728l-.349-2.882-1.62.434.344,2.85-1.081.289-.344-2.849-1.62.434.344,2.849-3.242.868.223,1.84,1.215-.325c.541-.145.833-.04.89.434s.875,7.239.955,7.893-.194.941-.516,1.027l-1.244.332.172,1.885,3.133-.84Zm.562-9.189,1.27-.341.812-.217c.485-.13,2.288-.428,2.461,1a3.246,3.246,0,0,1,.024.389c0,1.217-.756,2.073-2.323,2.494l-1.784.478Zm-.643-5.311c.18-.047.579-.154,1.163-.311.809-.217,2.422-.494,2.6.958a2.7,2.7,0,0,1,.021.325,2.057,2.057,0,0,1-1.213,1.94l-2.146.574Z" transform="translate(5510.223 -3407.109)" fill="url(#linear-gradient)"/>
  </g>
</svg>
