<svg xmlns="http://www.w3.org/2000/svg" width="14.13" height="15.695" viewBox="0 0 14.13 15.695">
  <g id="组_24811" data-name="组 24811" transform="translate(-143.418 -401.773)">
    <rect id="矩形_3406" data-name="矩形 3406" width="14.13" height="15.696" transform="translate(143.418 401.773)" fill="rgba(255,255,255,0)"/>
    <g id="组_23906" data-name="组 23906" transform="translate(144.427 403.005)">
      <path id="路径_60106" data-name="路径 60106" d="M.2,579.017a1.157,1.157,0,0,1,.052-1.379c.729-.781,1.973-1.927,2.783-1.927,1.209,0,5.347.038,5.592.383s.035,1.372-1.125,1.487c-.838.083-1.869.07-2.428.1-.1.007-.131.193-.039.256a3.965,3.965,0,0,0,2.352.732,3.328,3.328,0,0,0,2.341-1.326c.538-.65,1.355-1.558,1.722-1.558a1.063,1.063,0,0,1,.559.132.269.269,0,0,1,.065.343c-.421.752-2.089,3.557-3.924,4.3A7.367,7.367,0,0,1,4.1,580.8a1.1,1.1,0,0,0-.988.314l-.338.32a.542.542,0,0,1-.849-.1L.2,579.018Z" transform="translate(0 -568.359)" fill="#fff"/>
      <path id="排除_3" data-name="排除 3" d="M3.031,6A3.019,3.019,0,0,1,0,3,3.03,3.03,0,0,1,6.06,3,3.018,3.018,0,0,1,3.031,6ZM1.847,3.3h0l-.37.468a2.133,2.133,0,0,0,.681.532l-.188.425.448.2.205-.465a1.363,1.363,0,0,0,.337.045A.882.882,0,0,0,3.8,3.988c.186-.411.077-.753-.374-1.181-.344-.319-.442-.481-.379-.622a.25.25,0,0,1,.244-.147.656.656,0,0,1,.261.064,1.512,1.512,0,0,1,.567.428l.015.017L4.5,2.1A1.853,1.853,0,0,0,3.9,1.661l.178-.4-.445-.193L3.441,1.5a1.346,1.346,0,0,0-.309-.037.844.844,0,0,0-.813.5c-.172.381-.035.747.444,1.185.3.274.383.438.308.606A.273.273,0,0,1,2.8,3.9a.745.745,0,0,1-.293-.072A1.7,1.7,0,0,1,1.847,3.3Z" transform="translate(3.404)" fill="#fff"/>
    </g>
  </g>
</svg>
