<svg xmlns="http://www.w3.org/2000/svg" xmlns:xlink="http://www.w3.org/1999/xlink" width="26" height="26" viewBox="0 0 26 26">
  <defs>
    <linearGradient id="linear-gradient" x1="0.058" x2="0.845" y2="0.883" gradientUnits="objectBoundingBox">
      <stop offset="0" stop-color="#1ff7fd"/>
      <stop offset="0.491" stop-color="#b33bf6"/>
      <stop offset="0.846" stop-color="#ff844c"/>
      <stop offset="1" stop-color="#ff844b"/>
    </linearGradient>
  </defs>
  <g id="组_24814" data-name="组 24814" transform="translate(-825 -133)">
    <rect id="矩形_3470" data-name="矩形 3470" width="26" height="26" transform="translate(825 133)" fill="rgba(255,255,255,0)"/>
    <g id="组_24150" data-name="组 24150" transform="translate(826.829 135.51)">
      <g id="组_24149" data-name="组 24149">
        <path id="排除_6" data-name="排除 6" d="M-5531.665,3758.47a1.751,1.751,0,0,1-1.313-.6l-9.417-10.757a1.752,1.752,0,0,1-.208-2.013l3.8-6.725a1.751,1.751,0,0,1,1.523-.889h11.254a1.753,1.753,0,0,1,1.523.89l3.807,6.755a1.75,1.75,0,0,1-.211,2.014l-9.438,10.727A1.752,1.752,0,0,1-5531.665,3758.47Zm-4.8-14.858v.875a.875.875,0,0,0,.874.875h7.872a.876.876,0,0,0,.875-.875v-.875Z" transform="translate(5542.829 -3737.49)" fill="url(#linear-gradient)"/>
      </g>
    </g>
  </g>
</svg>
