<svg xmlns="http://www.w3.org/2000/svg" xmlns:xlink="http://www.w3.org/1999/xlink" width="26" height="26" viewBox="0 0 26 26">
  <defs>
    <clipPath id="clip-path">
      <rect id="矩形_3468" data-name="矩形 3468" width="26" height="26" transform="translate(128.25 423)" fill="rgba(255,255,255,0)"/>
    </clipPath>
    <linearGradient id="linear-gradient" x1="0.346" x2="0.567" y2="0.967" gradientUnits="objectBoundingBox">
      <stop offset="0" stop-color="#1ff7fd"/>
      <stop offset="0.491" stop-color="#b33bf6"/>
      <stop offset="0.846" stop-color="#ff844c"/>
      <stop offset="1" stop-color="#ff844b"/>
    </linearGradient>
  </defs>
  <g id="蒙版组_732" data-name="蒙版组 732" transform="translate(-128.25 -423)" clip-path="url(#clip-path)">
    <path id="chart-square-bar" d="M6.425,3.6A2.825,2.825,0,0,0,3.6,6.425V20.551a2.825,2.825,0,0,0,2.825,2.825H20.551a2.825,2.825,0,0,0,2.825-2.825V6.425A2.825,2.825,0,0,0,20.551,3.6Zm12.714,5.65a1.413,1.413,0,1,0-2.825,0v8.476a1.413,1.413,0,0,0,2.825,0ZM14.9,12.076a1.413,1.413,0,0,0-2.825,0v5.651a1.413,1.413,0,0,0,2.825,0Zm-4.238,4.238a1.413,1.413,0,0,0-2.825,0v1.413a1.413,1.413,0,0,0,2.825,0Z" transform="translate(127.761 422.511)" fill-rule="evenodd" fill="url(#linear-gradient)"/>
  </g>
</svg>
