<svg id="组_24164" data-name="组 24164" xmlns="http://www.w3.org/2000/svg" xmlns:xlink="http://www.w3.org/1999/xlink" width="26" height="26" viewBox="0 0 26 26">
  <defs>
    <linearGradient id="linear-gradient" x1="0.346" x2="0.567" y2="0.967" gradientUnits="objectBoundingBox">
      <stop offset="0" stop-color="#1ff7fd"/>
      <stop offset="0.491" stop-color="#b33bf6"/>
      <stop offset="0.846" stop-color="#ff844c"/>
      <stop offset="1" stop-color="#ff844b"/>
    </linearGradient>
  </defs>
  <rect id="矩形_3468" data-name="矩形 3468" width="26" height="26" fill="rgba(255,255,255,0)"/>
  <g id="组_24145" data-name="组 24145" transform="translate(1.939 1.908)">
    <path id="路径_60165" data-name="路径 60165" d="M42.122,25.43h0a2.241,2.241,0,0,0,.232-.961V23.083c0-2.3-3.725-4.16-8.319-4.16s-8.319,1.863-8.319,4.16a2.143,2.143,0,0,1,.034-.336c-1.718.761-2.807,1.871-2.807,3.109v1.387c0,1.286,1.17,2.436,3,3.2h0a2.241,2.241,0,0,0-.232.961v1.387a2.385,2.385,0,0,0,.485,1.387,2.385,2.385,0,0,0-.485,1.387v1.387c0,2.3,3.725,4.16,8.319,4.16s8.319-1.863,8.319-4.16V35.562a2.4,2.4,0,0,0-.5-1.408l-.008.009a2.542,2.542,0,0,0,.474-1.039c1.718-.762,2.807-1.871,2.807-3.109V28.629C45.127,27.343,43.957,26.192,42.122,25.43Zm-8.088-5.813c4.494,0,7.626,1.827,7.626,3.466s-3.132,3.466-7.626,3.466-7.626-1.828-7.626-3.466c0-1,1.162-2.067,3.384-2.85A13.4,13.4,0,0,1,34.034,19.617Zm-10.4,6.239c0-.81.768-1.661,2.08-2.319v.933c0,2.3,3.725,4.16,8.319,4.16a16.248,16.248,0,0,0,1.988-.125,13.351,13.351,0,0,1-4.761.818C26.767,29.323,23.635,27.495,23.635,25.856ZM41.66,35.562c0,1.638-3.132,3.466-7.626,3.466s-7.626-1.828-7.626-3.466a1.651,1.651,0,0,1,.28-.822.029.029,0,0,1-.005-.007c1.4,1.317,4.164,2.215,7.351,2.215s5.946-.9,7.339-2.225l0,0A1.644,1.644,0,0,1,41.66,35.562ZM38.8,34.051a13.337,13.337,0,0,1-4.764.818c-4.494,0-7.626-1.828-7.626-3.466a1.555,1.555,0,0,1,.2-.71,13.143,13.143,0,0,0,2.234.529c1.034,1.709,4.206,2.953,7.96,2.953a16.115,16.115,0,0,0,2-.126ZM36.807,32.1a13.576,13.576,0,0,1-4.574-.741c3.909-.23,7-1.8,7.313-3.776a5.9,5.9,0,0,0,2.185-1.533h0c1.679.682,2.7,1.657,2.7,2.584C44.433,30.268,41.3,32.1,36.807,32.1Z" transform="translate(-22.942 -18.924)" stroke="rgba(0,0,0,0)" stroke-miterlimit="10" stroke-width="1" fill="url(#linear-gradient)"/>
    <g id="组_24144" data-name="组 24144" transform="translate(3.061 0.092)">
      <path id="排除_4" data-name="排除 4" d="M-5351,3746c-4.411,0-8-1.794-8-4s3.589-4,8-4,8,1.794,8,4S-5346.588,3746-5351,3746Zm-1.812-3.112-2.031.217c.409.743,1.482,1.156,3.192,1.227v.639h1.314v-.642a6.575,6.575,0,0,0,2.364-.443c.542-.249.818-.565.818-.939a.783.783,0,0,0-.4-.64,3.117,3.117,0,0,0-1.064-.429c-.441-.1-1.058-.214-1.834-.331a10.659,10.659,0,0,1-1.389-.268c-.218-.073-.324-.175-.324-.312s.113-.247.336-.338a2.323,2.323,0,0,1,.893-.141,2.039,2.039,0,0,1,1.637.625l1.809-.3c-.428-.6-1.386-.948-2.85-1.022v-.495h-1.314v.495a5.213,5.213,0,0,0-2.137.461c-.451.25-.679.537-.679.85a.779.779,0,0,0,.38.631,2.919,2.919,0,0,0,.99.42c.4.1.956.2,1.692.3a12.19,12.19,0,0,1,1.555.289c.232.075.35.188.35.334s-.114.261-.35.363a2.982,2.982,0,0,1-1.092.149c-1.053,0-1.682-.236-1.869-.7Z" transform="translate(5358.999 -3738)" stroke="rgba(0,0,0,0)" stroke-miterlimit="10" stroke-width="1" fill="url(#linear-gradient)"/>
    </g>
  </g>
</svg>
