<svg xmlns="http://www.w3.org/2000/svg" xmlns:xlink="http://www.w3.org/1999/xlink" width="26" height="26" viewBox="0 0 26 26">
  <defs>
    <linearGradient id="linear-gradient" x1="0.346" x2="0.567" y2="0.967" gradientUnits="objectBoundingBox">
      <stop offset="0" stop-color="#1ff7fd"/>
      <stop offset="0.491" stop-color="#b33bf6"/>
      <stop offset="0.846" stop-color="#ff844c"/>
      <stop offset="1" stop-color="#ff844b"/>
    </linearGradient>
  </defs>
  <g id="组_24199" data-name="组 24199" transform="translate(18723 4161)">
    <g id="组_24155" data-name="组 24155" transform="translate(-97 -503)">
      <rect id="矩形_3463" data-name="矩形 3463" width="26" height="26" transform="translate(-18626 -3658)" fill="rgba(255,255,255,0)"/>
      <g id="组_24142" data-name="组 24142" transform="translate(-18848.504 -3913.227)">
        <path id="路径_60146" data-name="路径 60146" d="M433.8,332.865s6.524-5.34,6.524-3.529v17.593h-15c-2.092,0,9.172-8.247,8.476-14.064" transform="translate(-193.169 -68.475)" fill="url(#linear-gradient)"/>
        <path id="路径_60147" data-name="路径 60147" d="M318.664,258s6.952,4.518,10.4,10.642c0,0,1.39-2.7.4-3.69s-4.332-6.364-10.8-6.952" transform="translate(-90.783)" fill="url(#linear-gradient)"/>
        <path id="路径_60148" data-name="路径 60148" d="M494.76,526.781v2.831s-3.873-3.152,0-2.831" transform="translate(-258.612 -258.715)" fill="url(#linear-gradient)"/>
        <path id="路径_60149" data-name="路径 60149" d="M408.61,575.956c-.439.782-.324,2.3,0,2.475s2.461-.841,2.677-1.057-.838-2.007-1.1-2.147A1.4,1.4,0,0,0,408.61,575.956Z" transform="translate(-176.891 -304.292)" fill="url(#linear-gradient)"/>
        <path id="路径_60150" data-name="路径 60150" d="M237.126,328.169,225.97,339.562a.574.574,0,0,1-.808.008l-.9-.884a.573.573,0,0,1-.008-.808l11.157-11.392a.572.572,0,0,1,.808-.008l.9.884a.573.573,0,0,1,.008.808" transform="translate(0 -65.575)" fill="url(#linear-gradient)"/>
      </g>
    </g>
  </g>
</svg>
