<svg xmlns="http://www.w3.org/2000/svg" width="15.861" height="15.861" viewBox="0 0 15.861 15.861">
  <path id="路径_60180" data-name="路径 60180" d="M7.931,0A7.931,7.931,0,1,1,0,7.931,7.931,7.931,0,0,1,7.931,0ZM2.025,6.343c-.073.073-.073.073,0,.145a.654.654,0,0,1-.915.165A6.941,6.941,0,0,0,6.874,14.79l-.006,0-.119-.059a2.607,2.607,0,0,1,.739-.071,6.911,6.911,0,0,1-.073-1.229s-1.7-1.227-1.7-1.951.221-1.084,0-1.084c-.37,0-.813.289-.886,0a1.419,1.419,0,0,0-.886-.939c-1.016,0-1.162-1.094-1.18-2.223V6.922c0-.363-.443-.363-.739-.579ZM8.35,1l.085.023c1.124.343,1.157,1.477.234,1.338A7.32,7.32,0,0,1,8.6,3.593c-.074.724-.961.508-1.182.868s.443.723,1.182.578c.221,0,0-.218.149-.289a2.173,2.173,0,0,1,.959,0A15.488,15.488,0,0,1,8.669,6.63c-.149.216,0,.65,0,.939,0,2.17-1.034-.506-1.182-.433-.148.145-.811-.145-1.106-.145s-.149.578-.443.578c-.591,0-.443-.145-.443.071,0,.289.072.868.072,1.736,0,.289.591-.071.96-.071.443,0,.739.361,1.034.506.515.218,1.033.941,1.4,1.011s.073.651.515.579a.651.651,0,0,1,.664.289.612.612,0,0,1-.221.868,3.485,3.485,0,0,0-.811,1.951c.121-.04.264.061.382.183a6.949,6.949,0,0,0,4.928-4.3c-.561.6-1.209.641-1.017.137a4.44,4.44,0,0,0-.886-1.157c-.665-.578-1.256-1.663.812-3.182-.32-.815.473-1.576.976-1.005A6.939,6.939,0,0,0,8.351,1Z" fill="#2873ff"/>
</svg>
