<svg xmlns="http://www.w3.org/2000/svg" width="16" height="16" viewBox="0 0 16 16">
  <g id="组_24349" data-name="组 24349" transform="translate(-34)">
    <circle id="椭圆_236" data-name="椭圆 236" cx="8" cy="8" r="8" transform="translate(34)" fill="#2873ff"/>
    <path id="路径_60131" data-name="路径 60131" d="M74.4,71.546h-.5V70.2a.671.671,0,0,0-.671-.671H71.881v-.5a.839.839,0,1,0-1.677,0v.5H68.862a.668.668,0,0,0-.668.671l0,1.275h.5a.906.906,0,0,1,0,1.812h-.5l0,1.275a.671.671,0,0,0,.671.671h1.275v-.5a.906.906,0,0,1,1.812,0v.5h1.275a.671.671,0,0,0,.671-.671V73.223h.5a.839.839,0,0,0,0-1.677Z" transform="translate(-29.191 -63.94)" fill="#fff"/>
  </g>
</svg>
