<svg xmlns="http://www.w3.org/2000/svg" xmlns:xlink="http://www.w3.org/1999/xlink" width="26" height="26" viewBox="0 0 26 26">
  <defs>
    <linearGradient id="linear-gradient" x1="0.131" y1="0.089" x2="0.917" y2="1" gradientUnits="objectBoundingBox">
      <stop offset="0" stop-color="#1ff7fd"/>
      <stop offset="0.491" stop-color="#b33bf6"/>
      <stop offset="0.846" stop-color="#ff844c"/>
      <stop offset="1" stop-color="#ff844b"/>
    </linearGradient>
    <linearGradient id="linear-gradient-2" x1="0.045" y1="0.129" x2="0.889" y2="1.138" xlink:href="#linear-gradient"/>
  </defs>
  <g id="组_24813" data-name="组 24813" transform="translate(-731 -133)">
    <rect id="矩形_3469" data-name="矩形 3469" width="26" height="26" transform="translate(731 133)" fill="rgba(255,255,255,0)"/>
    <g id="组_24812" data-name="组 24812">
      <g id="组_24147" data-name="组 24147" transform="translate(739.966 134.908)">
        <path id="排除_5" data-name="排除 5" d="M-5449.584,3750.947a6.515,6.515,0,0,1-5.96-4.114,6.858,6.858,0,0,1-.422-2.321,6.407,6.407,0,0,1,1.753-4.392,6.331,6.331,0,0,1,4.253-2.018c.125-.007.252-.011.378-.011a6.542,6.542,0,0,1,4.9,2.225,6.142,6.142,0,0,1,1.524,4.815,6.672,6.672,0,0,1-1.962,4.04,6.438,6.438,0,0,1-4.068,1.761C-5449.319,3750.943-5449.453,3750.947-5449.584,3750.947Zm-1.875-5.781a.207.207,0,0,0-.207.207,2.186,2.186,0,0,0,.117.741,1.553,1.553,0,0,0,.442.635,1.8,1.8,0,0,0,.54.348,2.092,2.092,0,0,0,.477.127l0,1.006a.183.183,0,0,0,.184.182l.736,0a.182.182,0,0,0,.182-.182l0-1a2.347,2.347,0,0,0,.843-.293,1.465,1.465,0,0,0,.731-1.333,1.436,1.436,0,0,0-.373-1.021,1.757,1.757,0,0,0-.882-.47l-1.379-.316a.742.742,0,0,1-.31-.137.32.32,0,0,1-.1-.274.53.53,0,0,1,.288-.516,1.3,1.3,0,0,1,.608-.123,1.242,1.242,0,0,1,.693.179.652.652,0,0,1,.3.594.207.207,0,0,0,.207.207h.612a.207.207,0,0,0,.207-.207,1.683,1.683,0,0,0-.356-1.1,1.785,1.785,0,0,0-1.1-.593l0-1.017a.183.183,0,0,0-.184-.182h-.736a.183.183,0,0,0-.182.184l0,1a1.716,1.716,0,0,0-.952.487,1.625,1.625,0,0,0-.448,1.172,1.236,1.236,0,0,0,.477,1.026,1.863,1.863,0,0,0,.709.313l.99.227a1.925,1.925,0,0,1,.734.271.463.463,0,0,1,.136.381.465.465,0,0,1-.2.4,1.465,1.465,0,0,1-.858.2,1.381,1.381,0,0,1-.785-.2.812.812,0,0,1-.339-.724.207.207,0,0,0-.207-.207Z" transform="translate(5455.966 -3738.092)" fill="url(#linear-gradient)"/>
      </g>
      <path id="路径_60244" data-name="路径 60244" d="M-5437.259,3733.98a8.628,8.628,0,0,1-2.277-.363,18.738,18.738,0,0,0-4.979-.88c-.215,0-.431.007-.643.021-.036,0-.071,0-.105,0-.684,0-1.085-.457-1.1-1.253-.01-.545-.007-1.094,0-1.624q0-.406,0-.813c0-.271,0-.544,0-.818v-.039c0-.525-.007-1.067,0-1.58a1.183,1.183,0,0,1,1.107-1.314c.431-.085.873-.153,1.3-.218h.008c.258-.039.551-.084.835-.133a2.184,2.184,0,0,1,.33-.025,2.18,2.18,0,0,1,1,.245c.782.363,1.58.731,2.352,1.086l.094.043.079.037c1.229.565,2.5,1.15,3.742,1.735a1.231,1.231,0,0,0,.533.142,1.02,1.02,0,0,0,.559-.183c.833-.528,1.692-1.044,2.521-1.543l.07-.042c.459-.276.934-.562,1.4-.846a3.027,3.027,0,0,1,1.547-.481,2.105,2.105,0,0,1,2.046,1.787,1.9,1.9,0,0,1-.909,2.161c-2.651,1.694-5.1,3.136-7.479,4.412A4.188,4.188,0,0,1-5437.259,3733.98Zm-3.108-6.575a.5.5,0,0,0-.449.281.5.5,0,0,0,.23.669l3.6,1.753a.492.492,0,0,0,.219.051.5.5,0,0,0,.449-.281.5.5,0,0,0-.229-.669l-3.6-1.753A.494.494,0,0,0-5440.367,3727.405Zm-8,5.534c-.45,0-.669-.3-.669-.919.011-1.856.011-3.738,0-5.594,0-.407.072-.877.637-.892h.029c.584,0,.659.485.659.908v2.765q0,.408,0,.816v.078c0,.635,0,1.291.005,1.935.006.405-.1.891-.64.9Z" transform="translate(6182.069 -3576.888)" fill="url(#linear-gradient-2)"/>
    </g>
  </g>
</svg>
