<svg xmlns="http://www.w3.org/2000/svg" xmlns:xlink="http://www.w3.org/1999/xlink" width="26" height="26" viewBox="0 0 26 26">
  <defs>
    <linearGradient id="linear-gradient" x1="0.346" x2="0.567" y2="0.967" gradientUnits="objectBoundingBox">
      <stop offset="0" stop-color="#1ff7fd"/>
      <stop offset="0.491" stop-color="#b33bf6"/>
      <stop offset="0.846" stop-color="#ff844c"/>
      <stop offset="1" stop-color="#ff844b"/>
    </linearGradient>
  </defs>
  <g id="组_24816" data-name="组 24816" transform="translate(-792 -465)">
    <rect id="矩形_3463" data-name="矩形 3463" width="26" height="26" transform="translate(792 465)" fill="rgba(255,255,255,0)"/>
    <path id="路径_60245" data-name="路径 60245" d="M-4699.742,3893.228a1,1,0,0,1-1-1v-9a1,1,0,0,1,1-1h3a1,1,0,0,1,1,1v9a1,1,0,0,1-1,1Zm-7,0a1,1,0,0,1-1-1v-6a1,1,0,0,1,1-1h3a1,1,0,0,1,1,1v6a1,1,0,0,1-1,1Zm-7,0a1,1,0,0,1-1-1v-4a1,1,0,0,1,1-1h3a1,1,0,0,1,1,1v4a1,1,0,0,1-1,1Zm-1.983-7.438a.922.922,0,0,1-.024-1.288l6.041-6.378a.889.889,0,0,1,.637-.278h.008a.889.889,0,0,1,.633.266l3.585,3.642,5.77-6.094c.013-.015.028-.028.042-.042l-1.229-1.177,4.779-1.442-1,5.061-1.253-1.2c-.017.021-.034.042-.053.062l-6.4,6.763a.89.89,0,0,1-.635.281h-.01a.889.889,0,0,1-.633-.267l-3.585-3.643-5.408,5.709a.883.883,0,0,1-.645.279A.884.884,0,0,1-4715.726,3885.791Z" transform="translate(5511 -3405)" fill="url(#linear-gradient)"/>
  </g>
</svg>
