<svg xmlns="http://www.w3.org/2000/svg" xmlns:xlink="http://www.w3.org/1999/xlink" width="26" height="26" viewBox="0 0 26 26">
  <defs>
    <linearGradient id="linear-gradient" x1="0.346" x2="0.567" y2="0.967" gradientUnits="objectBoundingBox">
      <stop offset="0" stop-color="#1ff7fd"/>
      <stop offset="0.491" stop-color="#b33bf6"/>
      <stop offset="0.846" stop-color="#ff844c"/>
      <stop offset="1" stop-color="#ff844b"/>
    </linearGradient>
  </defs>
  <g id="组_24818" data-name="组 24818" transform="translate(-636 -465)">
    <rect id="矩形_3463" data-name="矩形 3463" width="26" height="26" transform="translate(636 465)" fill="rgba(255,255,255,0)"/>
    <path id="路径_60247" data-name="路径 60247" d="M-4703.773,3894.455A10.239,10.239,0,0,1-4714,3884.227,10.239,10.239,0,0,1-4703.773,3874a10.239,10.239,0,0,1,10.228,10.228A10.239,10.239,0,0,1-4703.773,3894.455Zm2.6-15.643-2.337.014-1.861.01v2.573l-2.689.007v9.125l2.689.02v-2.732l1.485.006,2.713.011v-2.584l2.73,0v-3.88l-2.73.011v3.866l-2.713,0h-1.485v-3.847l2.706-.011,1.492-.006v-2.583Z" transform="translate(5352.893 -3406.228)" fill="url(#linear-gradient)"/>
  </g>
</svg>
