<svg id="组_24161" data-name="组 24161" xmlns="http://www.w3.org/2000/svg" xmlns:xlink="http://www.w3.org/1999/xlink" width="26" height="26" viewBox="0 0 26 26">
  <defs>
    <linearGradient id="linear-gradient" x1="0.346" x2="0.567" y2="0.967" gradientUnits="objectBoundingBox">
      <stop offset="0" stop-color="#1ff7fd"/>
      <stop offset="0.491" stop-color="#b33bf6"/>
      <stop offset="0.846" stop-color="#ff844c"/>
      <stop offset="1" stop-color="#ff844b"/>
    </linearGradient>
    <linearGradient id="linear-gradient-2" x1="0.27" y1="0.133" x2="0.605" y2="1" xlink:href="#linear-gradient"/>
  </defs>
  <rect id="矩形_3465" data-name="矩形 3465" width="26" height="26" fill="rgba(255,255,255,0)"/>
  <g id="组_24141" data-name="组 24141" transform="translate(6.002 0)">
    <g id="组_24020" data-name="组 24020">
      <path id="路径_60128" data-name="路径 60128" d="M344.828,341.333h9.565v3.152H343.676Zm-2.217,5h10v3.153h-10Z" transform="translate(-341.503 -332.986)" fill="url(#linear-gradient)"/>
      <path id="路径_60129" data-name="路径 60129" d="M315.937,164.222a9.907,9.907,0,0,1-.963-2.239,10.772,10.772,0,0,1-.249-1.126,14.889,14.889,0,0,1-.172-2.2l.076-.636a1.27,1.27,0,0,1,.06-.258,9.554,9.554,0,0,1,.59-1.68l.325-.672a18.2,18.2,0,0,1,1.124-1.938l.443-.672c.458-.687.933-1.327,1.39-1.955l.477-.672.384-.52a6.606,6.606,0,0,0,.517-.792c1.124-1.862,1.42-3.817,0-5.466a6.207,6.207,0,0,0-1.39-1.175,7.192,7.192,0,0,1,.093,1.7,7.577,7.577,0,0,1-.616,2.479c-.543,1.314-.976,1.774-3.1,5.063a13.986,13.986,0,0,0-1.1,1.908,12.306,12.306,0,0,0-.873,2.65,10.476,10.476,0,0,0,.027,2.267,10.046,10.046,0,0,0,1.22,3.764,9.207,9.207,0,0,0,1.744,2.173Zm7.918-18a9.978,9.978,0,0,1,.963,2.239,10.783,10.783,0,0,1,.249,1.126,14.885,14.885,0,0,1,.172,2.2l-.076.636a1.331,1.331,0,0,1-.06.258,9.48,9.48,0,0,1-.59,1.68l-.325.672a18.219,18.219,0,0,1-1.124,1.938l-.443.672c-.458.687-.933,1.327-1.39,1.955l-.477.672-.384.52a6.577,6.577,0,0,0-.517.792c-1.124,1.862-1.42,3.817,0,5.466a6.171,6.171,0,0,0,1.39,1.175,7.18,7.18,0,0,1-.093-1.7,7.579,7.579,0,0,1,.616-2.479c.543-1.314.976-1.774,3.1-5.063a13.9,13.9,0,0,0,1.1-1.908,12.3,12.3,0,0,0,.873-2.65,10.476,10.476,0,0,0-.027-2.267,10.058,10.058,0,0,0-1.22-3.764,9.2,9.2,0,0,0-1.744-2.173Z" transform="translate(-312.896 -142.222)" fill="url(#linear-gradient-2)"/>
    </g>
  </g>
</svg>
