<svg xmlns="http://www.w3.org/2000/svg" xmlns:xlink="http://www.w3.org/1999/xlink" width="26" height="26" viewBox="0 0 26 26">
  <defs>
    <linearGradient id="linear-gradient" x1="0.346" x2="0.567" y2="0.967" gradientUnits="objectBoundingBox">
      <stop offset="0" stop-color="#1ff7fd"/>
      <stop offset="0.491" stop-color="#b33bf6"/>
      <stop offset="0.846" stop-color="#ff844c"/>
      <stop offset="1" stop-color="#ff844b"/>
    </linearGradient>
  </defs>
  <g id="组_24160" data-name="组 24160" transform="translate(18587 3658)">
    <rect id="矩形_3464" data-name="矩形 3464" width="26" height="26" transform="translate(-18587 -3658)" fill="rgba(255,255,255,0)"/>
    <path id="路径_60145" data-name="路径 60145" d="M145.313,64.284H129.46a1.46,1.46,0,0,0-1.46,1.46V84.713a1.46,1.46,0,0,0,1.46,1.46h15.853a1.46,1.46,0,0,0,1.46-1.46V65.745A1.46,1.46,0,0,0,145.313,64.284Zm-15.255,6.745a.777.777,0,0,1,.779-.779h5.284a.779.779,0,1,1,0,1.558h-5.284A.777.777,0,0,1,130.058,71.029ZM141.2,83.378H133.59a.193.193,0,0,1-.195-.209v-.417a.2.2,0,0,1,.195-.209H141.2a.194.194,0,0,1,.195.209v.417A.2.2,0,0,1,141.2,83.378Zm.584-2.128a.419.419,0,0,1-.4.431H133.4a.428.428,0,0,1-.4-.431V79.568a.4.4,0,0,1,.4-.431h1.544a.814.814,0,0,0,.751-.528l.5-1.252a.493.493,0,0,0-.125-.542,2.187,2.187,0,0,1-.681-1.585,1.991,1.991,0,0,1,3.949-.459,2.166,2.166,0,0,1-.612,2.03.472.472,0,0,0-.111.528l.515,1.265a.812.812,0,0,0,.765.528h1.5a.418.418,0,0,1,.4.431v1.7Zm.25-13.642a.777.777,0,0,1-.779.779H130.837a.779.779,0,0,1,0-1.558h10.416A.769.769,0,0,1,142.032,67.608Z" transform="translate(-18711.387 -3720.229)" fill="url(#linear-gradient)"/>
  </g>
</svg>
