<svg id="组_23924" data-name="组 23924" xmlns="http://www.w3.org/2000/svg" width="16" height="16" viewBox="0 0 16 16">
  <rect id="矩形_3424" data-name="矩形 3424" width="16" height="16" fill="rgba(255,255,255,0)"/>
  <path id="路径_60113" data-name="路径 60113" d="M147.734,169.1v-2.608H137.056V169.1h3.937v1.7c-3.2.144-5.61.775-5.61,1.532s2.41,1.388,5.61,1.532v5.468h2.8v-5.47c3.188-.146,5.585-.776,5.585-1.53s-2.4-1.385-5.585-1.53V169.1h3.937Zm.443,3.081c0,.5-1.863.915-4.38,1.031l-.163.007h-.018l-.152.006h-.016l-.344.01H143.1l-.156,0H142.9l-.123,0h-.779l-.122,0h-.042l-.145,0h-.016q-.259-.006-.51-.016h0l-.167-.007c-2.529-.114-4.4-.533-4.4-1.033s1.876-.918,4.4-1.033v1.582c.439.023.906.035,1.39.035s.968-.013,1.415-.037v-1.576c2.519.116,4.382.533,4.382,1.031Zm0,0" transform="translate(-134.383 -164.916)" fill="#2873ff" stroke="rgba(0,0,0,0)" stroke-miterlimit="10" stroke-width="1"/>
</svg>
