<svg id="组_23925" data-name="组 23925" xmlns="http://www.w3.org/2000/svg" width="16" height="16" viewBox="0 0 16 16">
  <rect id="矩形_3424" data-name="矩形 3424" width="16" height="16" fill="rgba(255,255,255,0)"/>
  <g id="组_23926" data-name="组 23926" transform="translate(2.479 1.578)">
    <path id="路径_2" data-name="路径 2" d="M5.714,9.809a.256.256,0,0,0,.256.256H16.5a.257.257,0,0,0,.257-.256V8.84a.257.257,0,0,0-.257-.256H11.917a3.744,3.744,0,0,1-2.072-.869c-.665-.465-3.66-3.429-3.66-3.429a.256.256,0,0,0-.215.4l2.468,3.9H5.971a.257.257,0,0,0-.256.256Z" transform="translate(-5.714 -4.286)" fill="#2873ff" fill-rule="evenodd"/>
    <path id="路径_3" data-name="路径 3" d="M16.758,16.685a.256.256,0,0,0-.256-.256H5.971a.257.257,0,0,0-.257.256v.969a.257.257,0,0,0,.257.256h4.583a3.744,3.744,0,0,1,2.072.869c.665.465,3.66,3.429,3.66,3.429a.256.256,0,0,0,.215-.4l-2.468-3.9H16.5a.256.256,0,0,0,.256-.256Z" transform="translate(-5.714 -9.365)" fill="#2873ff" fill-rule="evenodd"/>
  </g>
</svg>
