<svg xmlns="http://www.w3.org/2000/svg" xmlns:xlink="http://www.w3.org/1999/xlink" width="26" height="26" viewBox="0 0 26 26">
  <defs>
    <clipPath id="clip-path">
      <rect id="矩形_2592" data-name="矩形 2592" width="26" height="26" transform="translate(0.455 0.456)" fill="#2873ff" stroke="#707070" stroke-width="1"/>
    </clipPath>
    <linearGradient id="linear-gradient" x1="0.346" x2="0.567" y2="0.967" gradientUnits="objectBoundingBox">
      <stop offset="0" stop-color="#1ff7fd"/>
      <stop offset="0.491" stop-color="#b33bf6"/>
      <stop offset="0.846" stop-color="#ff844c"/>
      <stop offset="1" stop-color="#ff844b"/>
    </linearGradient>
  </defs>
  <g id="组_24199" data-name="组 24199" transform="translate(18723 4161)">
    <g id="组_24155" data-name="组 24155" transform="translate(-97 -503)">
      <rect id="矩形_3463" data-name="矩形 3463" width="26" height="26" transform="translate(-18626 -3658)" fill="rgba(255,255,255,0)"/>
      <g id="蒙版组_447" data-name="蒙版组 447" transform="translate(-18626.455 -3658.456)" clip-path="url(#clip-path)">
        <path id="路径_60138" data-name="路径 60138" d="M176.335,3.195l-2.048-.356c-.134-4.63-5.075-8.815-5.3-8.993a.873.873,0,0,0-1.113,0c-.223.178-5.209,4.318-5.3,8.993l-2.048.356a.906.906,0,0,0-.757.89V9.116a.947.947,0,0,0,.312.668.8.8,0,0,0,.712.178l3.829-.668a5.062,5.062,0,0,0,3.784,1.825,4.914,4.914,0,0,0,3.784-1.825l3.829.668a.959.959,0,0,0,.712-.178.8.8,0,0,0,.312-.668V4.085a.874.874,0,0,0-.712-.89Zm-5.075,8.77h-5.7a.893.893,0,0,0-.89.89v3.072a.913.913,0,0,0,.579.846.894.894,0,0,0,.979-.267l.445-.534.89,2.36a.908.908,0,0,0,1.692,0l.89-2.36.445.534a.826.826,0,0,0,.979.267.871.871,0,0,0,.579-.846V12.856A.893.893,0,0,0,171.259,11.965Z" transform="translate(-154.803 7.328)" fill="url(#linear-gradient)"/>
        <path id="路径_60143" data-name="路径 60143" d="M1.522,0A1.522,1.522,0,0,1,3.043,1.522c0,.84-.681,3.06-1.522,3.06S0,2.362,0,1.522A1.522,1.522,0,0,1,1.522,0Z" transform="translate(12.085 7.519)" fill="#fff"/>
      </g>
    </g>
  </g>
</svg>
