<svg width="160" height="33" viewBox="0 0 160 33" fill="none" xmlns="http://www.w3.org/2000/svg">
<path d="M2.44988 30.2299L0 20.8137L2.95059 17.8289L12.2604 20.3096L14.7088 29.7226V29.7236H14.7079L11.7573 32.7072L2.44988 30.2299ZM14.4636 18.0803L5.15568 15.6005L6.85791 13.8767L16.1648 16.355L18.6147 25.7701V25.771H18.6138L16.9116 27.4939L14.4636 18.0803ZM157.125 26.5332L152.516 19.4213L147.779 26.5332H144.986L151.108 17.6671L145.37 9.23707H148.268L152.632 15.8545L156.962 9.23707H159.721L153.983 17.6671L160 26.5332H157.125ZM135.446 26.5332V9.23652H137.786V26.5332H135.446ZM116.898 26.5332V9.23652H119.215V24.4727H127.874V26.5333L116.898 26.5332ZM96.4531 26.5332V9.23652H108.919V11.356H98.7108V16.6074H108.15V18.6091H98.7108V24.4727H109.093V26.5333L96.4531 26.5332ZM85.5402 26.5332V18.4441H76.6479V26.5332H74.3085V9.23652H76.6479V16.3836H85.5402V9.23652H87.8796V26.5332H85.5402ZM63.3839 26.5332V9.23652H65.7233V26.5332H63.3839ZM42.1356 26.5332V9.23652H49.4799C51.4819 9.23652 52.9057 9.84098 53.7514 11.0499C54.251 11.774 54.5117 12.6394 54.4962 13.5223C54.4962 14.6135 54.1897 15.5083 53.5767 16.2069C53.1868 16.6299 52.7206 16.9737 52.2032 17.2199C53.08 17.5576 53.7357 17.9383 54.1702 18.362C54.9385 19.1156 55.3226 20.1557 55.3226 21.4822C55.328 22.5807 54.9626 23.6483 54.2867 24.5081C53.2547 25.8582 51.6137 26.5335 49.3635 26.5342L42.1356 26.5332ZM44.4052 24.5313H49.3983C50.8182 24.5313 51.8308 24.1152 52.4362 23.2831C52.8257 22.7266 53.0259 22.0572 53.0064 21.3756C53.0064 20.1197 52.4517 19.2641 51.3421 18.809C50.7525 18.5656 49.9727 18.4439 49.0028 18.4439H44.4054L44.4052 24.5313ZM44.4052 16.5482H48.6185C49.596 16.5482 50.3565 16.4109 50.8999 16.1361C51.7534 15.7044 52.1801 14.9273 52.1801 13.8049C52.1801 12.6745 51.7261 11.913 50.8182 11.5206C50.3056 11.3007 49.5451 11.1908 48.5369 11.1908H44.405L44.4052 16.5482ZM16.1657 16.3536L13.7158 6.93743L20.5755 0L29.8824 2.47836L32.3322 11.8945L25.4747 18.8327L16.1657 16.3536ZM16.0239 7.56878L17.8624 14.6363L24.8495 16.497L30.0233 11.2619L28.1848 4.19351L21.1976 2.33365L16.0239 7.56878Z" fill="#c99450"/>
</svg>
