<?xml version="1.0" encoding="UTF-8"?>
<svg width="40px" height="40px" viewBox="0 0 40 40" version="1.1" xmlns="http://www.w3.org/2000/svg" xmlns:xlink="http://www.w3.org/1999/xlink">
    <title>icon/Loan@2x</title>
    <g id="icon/Loan" stroke="none" stroke-width="1" fill="none" fill-rule="evenodd">
        <g id="编组" transform="translate(8.000000, 9.000000)" fill-rule="nonzero">
            <path d="M17.5999709,23 C21.1343365,23 24,20.1916407 24,16.7272873 C24,13.262934 21.1343365,10.4545479 17.5999709,10.4545479 C14.0656052,10.4545479 11.1999964,13.2629607 11.1999964,16.7273141 C11.1999964,20.1916675 14.0656052,23 17.5999709,23 Z" id="路径" fill="#FFED62"></path>
            <path d="M6.95986646,18.3434484 C2.1510502,18.3434484 0,16.2191101 0,16.2191101 L0,18.2954521 C0,20.3164365 3.10415013,21.9545479 6.93331938,21.9545479 C8.47703704,21.9545479 9.90309546,21.688333 11.0551892,21.2378156 C10.391649,20.3141344 9.92601006,19.2436535 9.71975132,18.085639 C8.92394007,18.2428516 8.00571728,18.3434484 6.95986646,18.3434484 Z" id="路径" fill="#3B2E7E"></path>
            <path d="M6.95986646,16.6866792 C7.97029387,16.6866792 8.84686617,16.6116465 9.60362157,16.490411 C9.64685616,15.061845 10.0802125,13.7292717 10.8020361,12.5914408 C9.79215494,12.8931242 8.51819594,13.1162146 6.95986648,13.1162146 C2.15105023,13.1162146 2.66898041e-08,10.9918495 2.66898041e-08,10.9918495 L2.66898041e-08,14.6363831 C2.66898041e-08,14.6363563 1.67656228,16.6866792 6.95986646,16.6866792 Z" id="路径" fill="#3B2E7E"></path>
            <path d="M6.95986646,7.84524076 C6.95986646,7.84524076 2.82185537,8.04434646 0,5.7209024 L0,5.76456216 L0,9.40909577 C0,9.40909577 1.67656226,11.4594186 6.95986646,11.4594186 C12.242679,11.4594186 13.8666115,9.40909577 13.8666115,9.40909577 L13.8666115,5.83678417 C13.8666115,5.83678417 11.4525759,7.84524076 6.95986646,7.84524076 Z" id="路径" fill="#3B2E7E"></path>
            <path d="M6.93334671,0 C3.10417747,0 2.73303192e-05,1.63811144 2.73303192e-05,3.65906901 L2.73303192e-05,4.13814868 C2.73303192e-05,4.13814868 1.71927794,6.18847154 6.95989379,6.18847154 C6.95989379,6.18847154 11.3994545,6.40337076 13.8666388,4.13814868 L13.8666388,3.65906901 C13.8666388,1.63811144 10.7624613,0 6.93334671,0 Z" id="路径" fill="#3B2E7E"></path>
        </g>
    </g>
</svg>