<?xml version="1.0" encoding="UTF-8"?>
<svg width="40px" height="40px" viewBox="0 0 40 40" version="1.1" xmlns="http://www.w3.org/2000/svg" xmlns:xlink="http://www.w3.org/1999/xlink">
    <title>icon/Next@2x</title>
    <g id="icon/Next" stroke="none" stroke-width="1" fill="none" fill-rule="evenodd">
        <g id="前进" transform="translate(13.000000, 8.000000)" fill="#B4B4CC" fill-rule="nonzero">
            <path d="M0.713839686,4.18289485 L0.713839686,4.18289485 C0.476140525,3.94483833 0.297350751,3.67698353 0.178789801,3.37933041 C0.0595966002,3.08203465 0,2.77566748 0,2.46127344 C0,2.14654953 0.0595966002,1.83616893 0.178789801,1.53013161 C0.297983001,1.22409429 0.476113044,0.952253541 0.713839686,0.714169538 C1.19063994,0.238056522 1.75983141,0 2.42344831,0 C3.08571823,0 3.65625667,0.238056522 4.13170995,0.714169538 L13.5937691,10.2528961 C13.8321555,10.4571409 14.0022312,10.7162816 14.1040512,11.031033 C14.2065035,11.3454546 14.2486994,11.672906 14.2312713,12.0127275 C14.2152176,12.3529064 14.1381928,12.6884122 14.0022587,13.019877 C13.8663246,13.3520291 13.679508,13.6366523 13.4410941,13.8743514 L4.13170995,23.2600456 C3.65559694,23.7535593 3.08571823,24 2.42344831,24 C1.75980393,24 1.19061246,23.7535593 0.713839686,23.2600456 C0.476140525,23.022319 0.297350751,22.7544366 0.178789801,22.4571409 C0.0595966002,22.1598177 0,21.8530931 0,21.5390565 C0,21.2243325 0.0595966002,20.9136221 0.178789801,20.608272 C0.297350751,20.3022347 0.476113044,20.0297067 0.713839686,19.7912928 L8.41675469,11.9872451 L0.713839686,4.18289485 L0.713839686,4.18289485 Z" id="路径"></path>
        </g>
    </g>
</svg>