<svg xmlns="http://www.w3.org/2000/svg" xmlns:xlink="http://www.w3.org/1999/xlink" width="21.622" height="21.622" viewBox="0 0 21.622 21.622">
  <defs>
    <clipPath id="clip-path">
      <rect id="矩形_3234" data-name="矩形 3234" width="21.622" height="21.622" fill="#fff" stroke="#707070" stroke-width="1"/>
    </clipPath>
  </defs>
  <g id="蒙版组_93" data-name="蒙版组 93" clip-path="url(#clip-path)" style="isolation: isolate">
    <g id="组_25106" data-name="组 25106" transform="translate(-3289.914 -915.099)">
      <path id="路径_59761" data-name="路径 59761" d="M-766.847,126.187H-772.7v-4.594h5.853c.048,0,.1,0,.144,0a.335.335,0,0,0,.137-.121.332.332,0,0,0,.053-.18.334.334,0,0,0-.333-.333H-772.7V119h5.853a2.282,2.282,0,0,1,.894.181,2.289,2.289,0,0,1,.73.492,2.289,2.289,0,0,1,.492.73,2.282,2.282,0,0,1,.181.894,2.284,2.284,0,0,1-.4,1.3,2.284,2.284,0,0,1,.4,1.3,2.282,2.282,0,0,1-.181.894,2.289,2.289,0,0,1-.492.73,2.289,2.289,0,0,1-.73.492A2.282,2.282,0,0,1-766.847,126.187Zm-4.034-2.746v.957h4.031a.479.479,0,0,0,.478-.478.479.479,0,0,0-.478-.478Zm-2.449,2.746h-1.964V119h1.964Zm-4.816,0H-784v-4.594h5.853c.047,0,.1,0,.144,0a.335.335,0,0,0,.137-.121.332.332,0,0,0,.053-.18.334.334,0,0,0-.333-.333h-3.631V119h3.631a2.282,2.282,0,0,1,.894.181,2.289,2.289,0,0,1,.73.492,2.289,2.289,0,0,1,.492.73,2.283,2.283,0,0,1,.18.894,2.283,2.283,0,0,1-.4,1.3,2.283,2.283,0,0,1,.4,1.3,2.283,2.283,0,0,1-.18.894,2.289,2.289,0,0,1-.492.73,2.289,2.289,0,0,1-.73.492A2.283,2.283,0,0,1-778.147,126.187Zm-3.94-2.746h0v.957h4.031a.479.479,0,0,0,.478-.478.479.479,0,0,0-.478-.478h-4.031Z" transform="translate(4075 804)" fill="#521306"/>
      <g id="组_25104" data-name="组 25104" transform="translate(3291 923)">
        <path id="路径_59760" data-name="路径 59760" d="M82.383,158l-1.676,1.963H68L69.676,158Z" transform="translate(-68 -158)" fill="#521306"/>
      </g>
    </g>
  </g>
</svg>
