<svg xmlns="http://www.w3.org/2000/svg" xmlns:xlink="http://www.w3.org/1999/xlink" width="16" height="16" viewBox="0 0 16 16">
  <defs>
    <clipPath id="clip-path">
      <rect id="矩形_3234" data-name="矩形 3234" width="16" height="16" transform="translate(142 556)" fill="#fff" stroke="#707070" stroke-width="1"/>
    </clipPath>
  </defs>
  <g id="蒙版组_93" data-name="蒙版组 93" transform="translate(-142 -556)" clip-path="url(#clip-path)">
    <path id="路径_606" data-name="路径 606" d="M348.412,258.36h-1.18V256h-2.359v2.36h-3.539V267.8h3.539v2.359h2.359V267.8h1.18a2.949,2.949,0,0,0,2.36-4.719,2.949,2.949,0,0,0-2.36-4.719Zm0,7.079h-4.719v-1.18h4.719a.59.59,0,0,1,0,1.18Zm0-3.539h-4.719v-1.18h4.719a.59.59,0,0,1,0,1.18Z" transform="matrix(0.914, 0.407, -0.407, 0.914, -59.4, 183.3)" fill="#521306"/>
  </g>
</svg>
