<svg xmlns="http://www.w3.org/2000/svg" xmlns:xlink="http://www.w3.org/1999/xlink" width="26" height="26" viewBox="0 0 26 26">
  <defs>
    <clipPath id="clip-path">
      <rect id="矩形_3163" data-name="矩形 3163" width="26" height="26" transform="translate(-112 5212.248)" fill="#fff" stroke="#707070" stroke-width="1"/>
    </clipPath>
    <filter id="路径_572" x="-0.876" y="0.124" width="27.752" height="27.752" filterUnits="userSpaceOnUse">
      <feOffset dy="1" input="SourceAlpha"/>
      <feGaussianBlur stdDeviation="0.5" result="blur"/>
      <feFlood flood-color="#fff"/>
      <feComposite operator="in" in2="blur"/>
      <feComposite in="SourceGraphic"/>
    </filter>
    <filter id="路径_572-2" x="-0.876" y="0.124" width="27.752" height="27.752" filterUnits="userSpaceOnUse">
      <feOffset dy="1" input="SourceAlpha"/>
      <feGaussianBlur result="blur-2"/>
      <feFlood flood-color="#b48300" result="color"/>
      <feComposite operator="out" in="SourceGraphic" in2="blur-2"/>
      <feComposite operator="in" in="color"/>
      <feComposite operator="in" in2="SourceGraphic"/>
    </filter>
  </defs>
  <g id="蒙版组_56" data-name="蒙版组 56" transform="translate(112 -5212.248)" clip-path="url(#clip-path)">
    <g data-type="innerShadowGroup">
      <g transform="matrix(1, 0, 0, 1, -112, 5212.25)" filter="url(#路径_572)" style="mix-blend-mode: multiply;isolation: isolate">
        <path id="路径_572-3" data-name="路径 572" d="M4.729,17.1,7.51,14.324l4.866,4.866,4.91-4.91,2.781,2.781-7.69,7.69Zm4.648-4.729,3-3,3,3-3,3ZM0,12.376,2.883,9.492l2.781,2.781-.1.1.056.056L2.837,15.213Zm19.177.012.013-.012-.032-.032,2.781-2.781,2.813,2.813-2.793,2.793Zm-6.8-6.827L7.556,10.381,4.775,7.6l7.6-7.6,7.671,7.671-2.781,2.781Z" transform="translate(0.62 0.62)" fill="#ff9500"/>
      </g>
      <g transform="matrix(1, 0, 0, 1, -112, 5212.25)" filter="url(#路径_572-2)" style="mix-blend-mode: multiply;isolation: isolate">
        <path id="路径_572-4" data-name="路径 572" d="M4.729,17.1,7.51,14.324l4.866,4.866,4.91-4.91,2.781,2.781-7.69,7.69Zm4.648-4.729,3-3,3,3-3,3ZM0,12.376,2.883,9.492l2.781,2.781-.1.1.056.056L2.837,15.213Zm19.177.012.013-.012-.032-.032,2.781-2.781,2.813,2.813-2.793,2.793Zm-6.8-6.827L7.556,10.381,4.775,7.6l7.6-7.6,7.671,7.671-2.781,2.781Z" transform="translate(0.62 0.62)" fill="#fff"/>
      </g>
    </g>
  </g>
</svg>
