<svg xmlns="http://www.w3.org/2000/svg" width="15" height="15" viewBox="0 0 15 15">
  <g id="组_24771" data-name="组 24771" transform="translate(-4.9)">
    <path id="路径_604" data-name="路径 604" d="M19.9,7.5A7.5,7.5,0,1,1,12.4,0a7.5,7.5,0,0,1,7.5,7.5" fill="#212121"/>
    <path id="路径_605" data-name="路径 605" d="M-4053.318-3842.554l1.048-1.048,1.834,1.834,1.85-1.85,1.048,1.048-2.9,2.9Zm1.752-1.782,1.13-1.13,1.13,1.13-1.13,1.13Zm-3.534,0,1.087-1.087,1.048,1.048-.039.039.021.021-1.048,1.048Zm7.228,0,0,0-.012-.012,1.048-1.048,1.06,1.06-1.053,1.053Zm-2.563-2.573-1.816,1.816-1.048-1.048,2.864-2.865,2.891,2.891-1.048,1.048Z" transform="translate(4062.836 3851.836)" fill="#f4bb0b"/>
  </g>
</svg>
