<svg xmlns="http://www.w3.org/2000/svg" width="221" height="65" viewBox="0 0 221 65">
    <defs>
        <filter id="pev5mreppb" x="38.069" y="-.5" width="144.804" height="60" filterUnits="userSpaceOnUse">
            <feOffset dy="1"/>
            <feGaussianBlur stdDeviation=".5" result="blur"/>
            <feFlood flood-color="#710e00"/>
            <feComposite operator="in" in2="blur"/>
            <feComposite in="SourceGraphic"/>
        </filter>
        <filter id="5abirvtkod" x="53.917" y="12.842" width="111.983" height="30.29" filterUnits="userSpaceOnUse">
            <feOffset dy="2"/>
            <feGaussianBlur stdDeviation="1" result="blur-2"/>
            <feFlood flood-color="#8d1300"/>
            <feComposite operator="in" in2="blur-2"/>
            <feComposite in="SourceGraphic"/>
        </filter>
        <linearGradient id="gie2k0pi7c" y1=".619" x2="1" y2=".592" gradientUnits="objectBoundingBox">
            <stop offset="0" stop-color="#ed8b00"/>
            <stop offset=".511" stop-color="#ffcb34"/>
            <stop offset="1" stop-color="#ed8b00"/>
        </linearGradient>
        <clipPath id="c87gdbkqga">
            <path data-name="矩形 3682" transform="translate(10476 3385)" style="stroke:#707070;fill:#fff" d="M0 0h221v65H0z"/>
        </clipPath>
    </defs>
    <g data-name="蒙版组 646" transform="translate(-10476 -3385)" style="clip-path:url(#c87gdbkqga)">
        <g data-name="组 25278">
            <g data-name="组 25273">
                <g style="filter:url(#pev5mreppb)" transform="translate(10475.999 3385)">
                    <path data-name="路径 56435" d="M4.451 0S37.31-12 70.535-12s66.817 12 66.817 12c2.458 0 4.451 3.134 4.451 7v31c0 3.866-1.993 7-4.451 7 0 0-33-12-66.226-12S4.451 45 4.451 45C1.993 45 0 41.866 0 38V7c0-3.866 1.993-7 4.451-7z" transform="translate(39.57 12)" style="fill:url(#gie2k0pi7c)"/>
                </g>
                <g style="filter:url(#5abirvtkod)" transform="translate(10475.999 3385)">
                    <path data-name="路径 60649" d="M16.65-11.3a3.853 3.853 0 0 1-.525-.625 1.367 1.367 0 0 1-.212-.525.874.874 0 0 1 .087-.512 3.37 3.37 0 0 1 .375-.588 1.488 1.488 0 0 1 1.138-.562 1.878 1.878 0 0 1 1.262.687q.725.775 1.325 1.438t1.125 1.3q.525.638 1.038 1.313T23.325-7.9a2.289 2.289 0 0 1 .575 1.525 1.512 1.512 0 0 1-.825.975 1.55 1.55 0 0 1-1.225.25q-.575-.15-1.175-1.175l-.375-.6-3.725.125V.15a2.208 2.208 0 0 0 .05.537.569.569 0 0 0 .163.288.535.535 0 0 0 .288.125q.175.025.4.05.6.05 1.25.05t1.3-.025a6.008 6.008 0 0 0 .7-.075.731.731 0 0 0 .438-.238 1.105 1.105 0 0 0 .225-.537 5.865 5.865 0 0 0 .061-.975v-.8a1.889 1.889 0 0 1 .363-1.238A1.459 1.459 0 0 1 23-3.125a1.455 1.455 0 0 1 1.113.388 1.9 1.9 0 0 1 .362 1.313 16.839 16.839 0 0 1-.212 2.624 4.064 4.064 0 0 1-.65 1.687 2.671 2.671 0 0 1-1.275.937 7.385 7.385 0 0 1-2.088.376 13.173 13.173 0 0 1-1.45.025q-.85-.025-1.775-.075a6.546 6.546 0 0 1-1.725-.275 2.34 2.34 0 0 1-1.062-.675 2.642 2.642 0 0 1-.55-1.138 7.2 7.2 0 0 1-.163-1.637V-6.7l-3 .1A14.271 14.271 0 0 1 8.475.262 9.82 9.82 0 0 1 3.4 4.225a3.755 3.755 0 0 1-1.925.275 1.219 1.219 0 0 1-.95-.975 1.68 1.68 0 0 1 .1-1.3A2.639 2.639 0 0 1 2 1.325a7.81 7.81 0 0 0 3.813-2.813A10.164 10.164 0 0 0 7.5-6.5l-3.1.1a2.475 2.475 0 0 1-1.338-.275 1.438 1.438 0 0 1-.675-.775 1.627 1.627 0 0 1 .026-1.05A2.391 2.391 0 0 1 3.2-9.575Q4.5-10.7 5.75-11.85t2.45-2.425H2.55a1.237 1.237 0 0 1-1.1-.412 1.88 1.88 0 0 1-.275-1.063 1.957 1.957 0 0 1 .275-1.062 1.2 1.2 0 0 1 1.1-.437h8.5a.219.219 0 0 1-.025-.062.219.219 0 0 0-.025-.064 1.683 1.683 0 0 1-.1-1.312 1.42 1.42 0 0 1 1-.763 1.86 1.86 0 0 1 1.3.063 1.684 1.684 0 0 1 .85 1.063q.05.2.125.462t.15.613h8.325a1.2 1.2 0 0 1 1.1.438 1.957 1.957 0 0 1 .275 1.063 1.88 1.88 0 0 1-.275 1.063 1.237 1.237 0 0 1-1.1.412h-10.3q-1.35 1.35-2.412 2.45T7.875-9.875q-.25.2-.2.3t.5.075l9.95-.25-.687-.738q-.363-.387-.788-.812zM38-18.175a1.378 1.378 0 0 1 .412-1.175 1.9 1.9 0 0 1 1.138-.3 1.663 1.663 0 0 1 1.088.337 1.392 1.392 0 0 1 .412 1.138v1.925h5.45a2.535 2.535 0 0 1 1.963.612A2.938 2.938 0 0 1 49-13.675v9.3a3.045 3.045 0 0 1-.537 1.987 2.474 2.474 0 0 1-1.963.638h-5.45v1.475a1.535 1.535 0 0 0 .225.937.725.725 0 0 0 .5.313q1.7.1 3.112.112T47.875 1a.867.867 0 0 0 .775-.537 4.193 4.193 0 0 0 .2-1.813 1.775 1.775 0 0 1 .35-1.362 1.564 1.564 0 0 1 1.175-.413 1.522 1.522 0 0 1 1.175.388 2.22 2.22 0 0 1 .4 1.362q.15 4.825-3.7 5.25-.55.05-1.412.075t-1.8.025q-.937 0-1.85-.012T41.625 3.9a7.975 7.975 0 0 1-1.8-.338 2.4 2.4 0 0 1-1.112-.737 2.869 2.869 0 0 1-.562-1.35A12.91 12.91 0 0 1 38-.7v-1.05h-5.625a2.432 2.432 0 0 1-1.95-.638 3.1 3.1 0 0 1-.525-1.987v-9.3a2.988 2.988 0 0 1 .525-1.963 2.492 2.492 0 0 1 1.95-.612H38zm-5.075 12.7q0 .65.225.825a1.648 1.648 0 0 0 .925.175H38V-7.7h-5.075zm0-4.85H38v-3.2h-4.075a1.441 1.441 0 0 0-.825.15q-.175.15-.175.725zM41.05-7.7v3.225h3.925a1.114 1.114 0 0 0 .787-.213 1.255 1.255 0 0 0 .213-.863V-7.7zm4.925-5.025a.745.745 0 0 0-.225-.637 1.434 1.434 0 0 0-.8-.163h-3.9v3.2h4.925zm23.75-5.4q.075.575.162 1.113t.188 1.087h3.5q-.425-.25-.862-.488t-.813-.437a1.918 1.918 0 0 1-.975-.988 1.432 1.432 0 0 1 .3-1.187 1.206 1.206 0 0 1 .863-.625 2.75 2.75 0 0 1 1.213.225 8.012 8.012 0 0 1 1.15.563q.625.363 1.25.813a1.761 1.761 0 0 1 .838 1.075 1.4 1.4 0 0 1-.262 1.05h1.273a1.516 1.516 0 0 1 1.112.325 1.607 1.607 0 0 1 .313 1.125 1.628 1.628 0 0 1-.312 1.088 1.415 1.415 0 0 1-1.112.362h-6.976q.35 1.825.8 3.638t1.075 3.611a13.743 13.743 0 0 0 1.125-2.575 19.785 19.785 0 0 0 .65-2.9 1.969 1.969 0 0 1 .488-1.2 1.662 1.662 0 0 1 1.313-.2 1.221 1.221 0 0 1 1.012.512 2.681 2.681 0 0 1 .063 1.463A19.59 19.59 0 0 1 73.825-2.3a10.1 10.1 0 0 0 .813 1.337A10.745 10.745 0 0 0 75.5.075a.682.682 0 0 0 .613.263q.287-.063.337-.488.075-.5.113-1.025t.088-1.25a1.39 1.39 0 0 1 .511-1.075 1.641 1.641 0 0 1 1.013-.35 1.5 1.5 0 0 1 .575.112 1.471 1.471 0 0 1 .488.325 1.471 1.471 0 0 1 .325.487 1.228 1.228 0 0 1 .088.575Q79.55-.9 79.363.563A12.634 12.634 0 0 1 78.8 3.1a2.085 2.085 0 0 1-.725 1.013 1.939 1.939 0 0 1-1.062.362 2.884 2.884 0 0 1-1.225-.238A3.831 3.831 0 0 1 74.6 3.45q-.575-.575-1.312-1.462A17.148 17.148 0 0 1 71.9.05a20.866 20.866 0 0 1-2.6 2.425 16.866 16.866 0 0 1-2.95 1.85 2.126 2.126 0 0 1-1.463.263 1.308 1.308 0 0 1-.862-.862q-.55-1.375 1.175-2.2a14.544 14.544 0 0 0 5.225-4.3 39.024 39.024 0 0 1-1.6-4.5 57.557 57.557 0 0 1-1.325-5.75h-6.575a.871.871 0 0 0-.475.113.482.482 0 0 0-.175.438v1.325h4.875a2.643 2.643 0 0 1 1.775.488 2.326 2.326 0 0 1 .55 1.787q0 .975-.025 1.95t-.075 1.85A12.1 12.1 0 0 1 66.25 0a3.081 3.081 0 0 1-2.875 1.625 6 6 0 0 1-1.5-.2A10.445 10.445 0 0 1 60.3.875a2.327 2.327 0 0 1-.9-.65q-.2.75-.425 1.475t-.5 1.425a2.087 2.087 0 0 1-.987 1.2 1.361 1.361 0 0 1-1.212-.075q-.775-.35-.85-.862a3.109 3.109 0 0 1 .3-1.463 25.09 25.09 0 0 0 1.113-4A24.294 24.294 0 0 0 57.25-6.7v-6.55a2.961 2.961 0 0 1 .588-2.013 2.586 2.586 0 0 1 2.012-.663h7.175q-.05-.45-.125-.912t-.125-.963a1.916 1.916 0 0 1 .2-1.387 1.411 1.411 0 0 1 1.2-.437 1.559 1.559 0 0 1 1.137.325 2.06 2.06 0 0 1 .413 1.175zm-9.45 11.55q0 1.2-.1 2.35t-.3 2.275a1.676 1.676 0 0 1 1.525.1 3.511 3.511 0 0 0 1.325.4.9.9 0 0 0 .513-.113 1.285 1.285 0 0 0 .487-.562 5.387 5.387 0 0 0 .412-1.163 12.214 12.214 0 0 0 .288-1.912q.075-.875.112-1.45t.037-1q0-.375-.162-.488a.756.756 0 0 0-.438-.112h-3.7zM103.1-15a5.986 5.986 0 0 1 1.563.175 2.15 2.15 0 0 1 1.025.587 2.463 2.463 0 0 1 .563 1.113 7.362 7.362 0 0 1 .175 1.75q.025 3.45-.187 6.038a41.431 41.431 0 0 1-.639 4.712 7.112 7.112 0 0 1-1.612 3.612 4.205 4.205 0 0 1-3.188 1.188q-.45 0-.788-.012t-.7-.062a4.731 4.731 0 0 1-.762-.175q-.4-.125-.95-.325a1.517 1.517 0 0 1-.925-.825 1.488 1.488 0 0 1 .15-1.375A1.507 1.507 0 0 1 97.6.662 2.053 2.053 0 0 1 98.825.8a6.613 6.613 0 0 0 1.05.3 5.331 5.331 0 0 0 .925.075 1.379 1.379 0 0 0 1.162-.587 5.481 5.481 0 0 0 .762-1.862 26.987 26.987 0 0 0 .513-3.488q.188-2.062.188-4.487 0-.6-.013-1.187t-.037-1.238q0-.325-.35-.325H99.6a34.267 34.267 0 0 1-.562 5.375 21.18 21.18 0 0 1-1.287 4.3 15.832 15.832 0 0 1-2.026 3.474 19.09 19.09 0 0 1-2.8 2.9 1.517 1.517 0 0 1-1.263.45 1.8 1.8 0 0 1-.987-.625 1.161 1.161 0 0 1-.238-1.087 2.417 2.417 0 0 1 .787-1.138A16.514 16.514 0 0 0 93.7-.975a12.758 12.758 0 0 0 1.663-3.013 18.026 18.026 0 0 0 .962-3.6 33.444 33.444 0 0 0 .4-4.412h-2.45a1.559 1.559 0 0 1-1.2-.387 1.565 1.565 0 0 1-.35-1.087 1.686 1.686 0 0 1 .35-1.088 1.454 1.454 0 0 1 1.2-.438h2.475v-3.025a1.753 1.753 0 0 1 .325-1.2 1.53 1.53 0 0 1 1.15-.35 1.426 1.426 0 0 1 1.05.35 1.665 1.665 0 0 1 .35 1.2V-15zm-18.425.675a1.291 1.291 0 0 1-1.125-.425 1.82 1.82 0 0 1-.3-1.075 1.722 1.722 0 0 1 .3-1.112 1.41 1.41 0 0 1 1.125-.362H90.9a1.41 1.41 0 0 1 1.125.362 1.722 1.722 0 0 1 .3 1.112 1.82 1.82 0 0 1-.3 1.075 1.291 1.291 0 0 1-1.125.425h-1.5v11.55q.525-.25 1.125-.6.3-.15.588-.262a1.508 1.508 0 0 1 .55-.113 1.05 1.05 0 0 1 .525.15 1.693 1.693 0 0 1 .512.5 1.774 1.774 0 0 1 .275 1.225 1.648 1.648 0 0 1-.95 1.075Q91-.25 90.175.15t-1.612.712q-.788.313-1.6.562t-1.787.5a2.4 2.4 0 0 1-1.525.05q-.475-.225-.6-1.125a1.363 1.363 0 0 1 .287-1.188 2.667 2.667 0 0 1 1.137-.611q.5-.125.988-.263T86.4-1.5v-12.825z" transform="translate(56.47 33.5)" style="fill:#fff"/>
                </g>
            </g>
            <g data-name="组 25276">
                <path data-name="路径 60291" d="M182.643 38.181h-31.972a4.394 4.394 0 0 0-3.835 6.537l7.871 14.645a2.473 2.473 0 0 1-2.176 3.643h-7.384a2.764 2.764 0 0 0-1.8 4.864l38.48 33.036a3.394 3.394 0 0 0 5.513-3.362l-5.3-22.28a2.378 2.378 0 0 1 2.353-2.722h4.145a2.373 2.373 0 0 0 2.373-2.56l-1.935-25.918a6.35 6.35 0 0 0-6.333-5.883z" transform="translate(10334.315 3347.518)" style="fill:#feac33"/>
                <path data-name="路径 60292" d="M171.645 44.718a4.386 4.386 0 0 1 3.835-6.537h7.576a31.849 31.849 0 0 0-11.352 6.65l-.064-.113zm35.807-6.537a6.35 6.35 0 0 1 6.335 5.883l.01.123a31.7 31.7 0 0 0-10.613-6.006zm-.817 62.724-2.939-2.52a31.948 31.948 0 0 0 7.709-3.977l.748 3.131a3.3 3.3 0 0 1-.315 2.422c-.95.63-1.925 1.221-2.934 1.772a3.259 3.259 0 0 1-2.264-.827z" transform="translate(10309.506 3347.519)" style="fill:#feac33"/>
                <path data-name="路径 60293" d="M190.011 39.426a27.37 27.37 0 0 0-20.67 9.383l-2.141-3.978a31.781 31.781 0 0 1 11.347-6.65h20.134a31.851 31.851 0 0 1 10.619 6.005l.251 3.416a27.39 27.39 0 0 0-19.54-8.176zm4.089 54.592a27.3 27.3 0 0 0 11.608-4.637l1.2 5.031a31.8 31.8 0 0 1-7.709 3.977l-5.1-4.376z" transform="translate(10314.01 3347.519)" style="fill:#feb133"/>
                <path data-name="路径 60294" d="M191.684 59.769a23.038 23.038 0 0 0-19.656 10.987l-2.407-4.48a27.462 27.462 0 0 1 40.208-1.2l.29 3.909a23.008 23.008 0 0 0-18.435-9.215zm-21.778 30.693-5.976-5.129a2.767 2.767 0 0 1 1.8-4.868h3a23.028 23.028 0 0 0 1.176 9.997zm17.525 15.048a22.945 22.945 0 0 0 17.362-3.692l1.2 5.026a27.279 27.279 0 0 1-11.608 4.632l-6.956-5.966z" transform="translate(10313.73 3330.055)" style="fill:#feb633"/>
                <path data-name="路径 60295" d="M185.264 127.028a2.373 2.373 0 0 1-1.831 2.491 18.8 18.8 0 0 0 1.674-4.627zm-18.425-24.81a18.711 18.711 0 0 0-18.027 13.739l-3.023-5.622a23.063 23.063 0 0 1 38.1-1.782l.423 5.71a18.681 18.681 0 0 0-17.471-12.041zm-5.646 42.871-17.52-15.048a23 23 0 0 1-1.167-9.993h4.376a2.464 2.464 0 0 0 1.314-.384 18.691 18.691 0 0 0 29.167 16.688l1.2 5.041a22.981 22.981 0 0 1-13.109 4.086 23.223 23.223 0 0 1-4.258-.384z" transform="translate(10339.965 3290.476)" style="fill:#ffbc34"/>
                <path data-name="路径 60296" d="M144.823 161.146c0-.413.02-.827.039-1.231a2.466 2.466 0 0 0 .861-3.264l-.236-.448a18.7 18.7 0 0 1 35.493-1.703l.8 10.638a18.679 18.679 0 0 1-1.674 4.627 2.461 2.461 0 0 1-.541.064h-4.145a2.205 2.205 0 0 0-.512.054 14.31 14.31 0 1 0-1.684 1.413 2.412 2.412 0 0 0-.153 1.25l.96 4.051a18.686 18.686 0 0 1-29.211-15.447z" transform="translate(10343.289 3250.239)" style="fill:#ffc134"/>
                <path data-name="路径 60297" d="M183 199.2a14.31 14.31 0 1 1 24.323 10.229 2.4 2.4 0 0 0-1.7 1.428A14.315 14.315 0 0 1 183 199.2zm25.652-1.5a9.936 9.936 0 1 0-9.936 9.936 9.936 9.936 0 0 0 9.934-9.936z" transform="translate(10310.883 3210.68)" style="fill:#ffc634"/>
                <path data-name="路径 60298" d="M246.947 240.551a9.939 9.939 0 1 1-9.936-9.718 9.939 9.939 0 0 1 9.936 9.718z" transform="translate(10272.586 3167.831)" style="fill:#ffcb34"/>
                <path data-name="路径 60299" d="M174.208 92.748a4.12 4.12 0 0 0 3.982-5.056l-5.29-22.25a1.693 1.693 0 0 1 1.674-1.9h4.155a3.1 3.1 0 0 0 3.067-3.3l-1.93-25.923a7.034 7.034 0 0 0-7.034-6.527h-31.975a5.079 5.079 0 0 0-4.43 7.561L144.268 50a1.773 1.773 0 0 1-1.56 2.619h-7.384a3.454 3.454 0 0 0-2.245 6.084l38.475 33.046a4.061 4.061 0 0 0 2.653 1zm-1.393-63.561a5.656 5.656 0 0 1 5.646 5.238l1.925 25.927a1.674 1.674 0 0 1-1.684 1.807h-4.145a3.062 3.062 0 0 0-3.042 3.515l.015.064 5.3 22.28a2.705 2.705 0 0 1-4.391 2.678L133.96 57.66a2.071 2.071 0 0 1 1.344-3.648h7.384a3.159 3.159 0 0 0 2.786-4.662l-7.866-14.66a3.695 3.695 0 0 1 3.224-5.5z" transform="translate(10344.143 3357.206)" style="fill:#ffa820"/>
                <path data-name="路径 60300" d="m428.6 308.432 2.939 5.666a.788.788 0 0 1-.7 1.157h-4.814a1.052 1.052 0 0 0-.738 1.807l10.81 10.667a.515.515 0 0 0 .847-.542l-2.107-5.661a.758.758 0 0 1 .709-1.019h3.923a1.762 1.762 0 0 0 1.728-2.082l-1.905-10.21a2.683 2.683 0 0 0-2.648-2.186l-6.606.025a1.624 1.624 0 0 0-1.437 2.378z" transform="translate(10064.992 3097.696)" style="fill:#ffe3b4"/>
                <path data-name="路径 60301" d="M213.063 125.484c1-.049 1.752-.7 1.693-1.477l-.827-9.52a1.724 1.724 0 0 0-1.929-1.295c-1 .049-1.752.709-1.688 1.477l.822 9.525a1.718 1.718 0 0 0 1.935 1.29zm.468 5.346c1-.049 1.757-.709 1.693-1.477l-.069-.807a1.721 1.721 0 0 0-1.935-1.29c-1 .049-1.752.7-1.693 1.477l.074.807a1.725 1.725 0 0 0 1.93 1.29z" transform="translate(10305.436 3277.558)" style="fill:#fff"/>
            </g>
            <g data-name="组 25277">
                <path data-name="路径 60291" d="M150.65 38.181h31.973a4.394 4.394 0 0 1 3.835 6.537l-7.871 14.645a2.473 2.473 0 0 0 2.176 3.643h7.384a2.764 2.764 0 0 1 1.8 4.864l-38.48 33.03a3.394 3.394 0 0 1-5.513-3.362l5.3-22.28a2.378 2.378 0 0 0-2.353-2.722h-4.145a2.373 2.373 0 0 1-2.373-2.56l1.935-25.918a6.35 6.35 0 0 1 6.332-5.877z" transform="translate(10505.335 3347.518)" style="fill:#feac33"/>
                <path data-name="路径 60292" d="M213.234 44.718a4.386 4.386 0 0 0-3.834-6.538h-7.576a31.849 31.849 0 0 1 11.352 6.65l.064-.113zm-35.808-6.538a6.35 6.35 0 0 0-6.335 5.883l-.01.123a31.7 31.7 0 0 1 10.613-6.006zm.817 62.724 2.939-2.52a31.948 31.948 0 0 1-7.709-3.977l-.748 3.131a3.3 3.3 0 0 0 .315 2.422c.95.63 1.925 1.221 2.934 1.772a3.259 3.259 0 0 0 2.264-.827z" transform="translate(10478.559 3347.519)" style="fill:#feac33"/>
                <path data-name="路径 60293" d="M186.747 39.426a27.37 27.37 0 0 1 20.67 9.383l2.136-3.977a31.781 31.781 0 0 0-11.347-6.65h-20.132a31.851 31.851 0 0 0-10.618 6.006L167.2 47.6a27.39 27.39 0 0 1 19.547-8.174zm-4.091 54.592a27.3 27.3 0 0 1-11.608-4.637l-1.2 5.031a31.8 31.8 0 0 0 7.709 3.977l5.1-4.376z" transform="translate(10482.174 3347.519)" style="fill:#feb133"/>
                <path data-name="路径 60294" d="M181.4 59.769a23.038 23.038 0 0 1 19.656 10.987l2.407-4.48a27.462 27.462 0 0 0-40.208-1.2l-.29 3.909a23.008 23.008 0 0 1 18.435-9.216zm21.778 30.693 5.976-5.129a2.767 2.767 0 0 0-1.8-4.868h-3a23.028 23.028 0 0 1-1.179 9.997zm-17.525 15.048a22.944 22.944 0 0 1-17.362-3.692l-1.2 5.026a27.279 27.279 0 0 0 11.608 4.632l6.956-5.966z" transform="translate(10486.131 3330.055)" style="fill:#feb633"/>
                <path data-name="路径 60295" d="M142.387 127.028a2.373 2.373 0 0 0 1.831 2.491 18.8 18.8 0 0 1-1.674-4.627zm18.425-24.81a18.711 18.711 0 0 1 18.027 13.739l3.022-5.622a23.063 23.063 0 0 0-38.1-1.782l-.423 5.71a18.681 18.681 0 0 1 17.47-12.041zm5.646 42.871 17.52-15.048a23 23 0 0 0 1.167-9.993h-4.376a2.464 2.464 0 0 1-1.314-.384 18.691 18.691 0 0 1-29.167 16.688l-1.2 5.041a22.981 22.981 0 0 0 13.109 4.086 23.223 23.223 0 0 0 4.258-.384z" transform="translate(10505.328 3290.476)" style="fill:#ffbc34"/>
                <path data-name="路径 60296" d="M181.782 161.146c0-.413-.02-.827-.039-1.231a2.466 2.466 0 0 1-.861-3.264l.236-.448a18.7 18.7 0 0 0-35.492-1.708l-.8 10.638a18.679 18.679 0 0 0 1.674 4.627 2.461 2.461 0 0 0 .541.064h4.145a2.205 2.205 0 0 1 .512.054 14.31 14.31 0 1 1 1.684 1.413 2.412 2.412 0 0 1 .153 1.25l-.96 4.051a18.686 18.686 0 0 0 29.211-15.447z" transform="translate(10503.05 3250.239)" style="fill:#ffc134"/>
                <path data-name="路径 60297" d="M211.618 199.2a14.31 14.31 0 1 0-24.318 10.229 2.4 2.4 0 0 1 1.7 1.428 14.315 14.315 0 0 0 22.62-11.652zm-25.652-1.5a9.936 9.936 0 1 1 9.936 9.936 9.936 9.936 0 0 1-9.935-9.936z" transform="translate(10467.444 3210.68)" style="fill:#ffc634"/>
                <path data-name="路径 60298" d="M227.074 240.551a9.939 9.939 0 1 0 9.936-9.718 9.939 9.939 0 0 0-9.936 9.718z" transform="translate(10426.336 3167.831)" style="fill:#ffcb34"/>
                <path data-name="路径 60299" d="M139.449 92.748a4.12 4.12 0 0 1-3.982-5.056l5.292-22.25a1.693 1.693 0 0 0-1.674-1.9h-4.155a3.1 3.1 0 0 1-3.067-3.3l1.93-25.923a7.034 7.034 0 0 1 7.034-6.527H172.8a5.079 5.079 0 0 1 4.43 7.561L169.388 50a1.773 1.773 0 0 0 1.56 2.619h7.384a3.454 3.454 0 0 1 2.245 6.084L142.1 91.744a4.061 4.061 0 0 1-2.653 1zm1.393-63.561a5.656 5.656 0 0 0-5.646 5.238l-1.925 25.928a1.674 1.674 0 0 0 1.684 1.807h4.145a3.062 3.062 0 0 1 3.042 3.515l-.015.064-5.3 22.28a2.705 2.705 0 0 0 4.391 2.678L179.7 57.66a2.071 2.071 0 0 0-1.344-3.648h-7.384a3.159 3.159 0 0 1-2.786-4.662l7.866-14.66a3.695 3.695 0 0 0-3.224-5.5z" transform="translate(10515.143 3357.206)" style="fill:#ffa820"/>
                <path data-name="路径 60300" d="m437.59 308.432-2.939 5.666a.788.788 0 0 0 .7 1.157h4.814a1.052 1.052 0 0 1 .738 1.807l-10.81 10.667a.515.515 0 0 1-.847-.542l2.107-5.661a.758.758 0 0 0-.709-1.019h-3.924a1.762 1.762 0 0 1-1.728-2.082l1.905-10.21a2.683 2.683 0 0 1 2.648-2.186l6.606.025a1.624 1.624 0 0 1 1.437 2.378z" transform="translate(10241.763 3097.696)" style="fill:#ffe3b4"/>
                <path data-name="路径 60301" d="M212.468 125.484c-1-.049-1.752-.7-1.693-1.477l.827-9.52a1.724 1.724 0 0 1 1.935-1.295c1 .049 1.752.709 1.688 1.477l-.822 9.525a1.718 1.718 0 0 1-1.935 1.29zM212 130.83c-1-.049-1.757-.709-1.693-1.477l.069-.807a1.721 1.721 0 0 1 1.935-1.29c1 .049 1.752.7 1.693 1.477l-.074.807a1.725 1.725 0 0 1-1.93 1.29z" transform="translate(10441.977 3277.558)" style="fill:#fff"/>
            </g>
        </g>
    </g>
</svg>
