<svg xmlns="http://www.w3.org/2000/svg" xmlns:xlink="http://www.w3.org/1999/xlink" width="38" height="38" viewBox="0 0 38 38">
  <defs>
    <linearGradient id="linear-gradient" x1="0.5" x2="0.5" y2="1" gradientUnits="objectBoundingBox">
      <stop offset="0" stop-color="#e7b090"/>
      <stop offset="1" stop-color="#de6544"/>
    </linearGradient>
    <filter id="椭圆_15">
      <feOffset input="SourceAlpha"/>
      <feGaussianBlur stdDeviation="5" result="blur"/>
      <feFlood flood-color="#ffede3" result="color"/>
      <feComposite operator="out" in="SourceGraphic" in2="blur"/>
      <feComposite operator="in" in="color"/>
      <feComposite operator="in" in2="SourceGraphic"/>
    </filter>
    <filter id="路径_600">
      <feOffset dy="-2" input="SourceAlpha"/>
      <feGaussianBlur stdDeviation="2" result="blur-2"/>
      <feFlood flood-color="#ffc058" result="color-2"/>
      <feComposite operator="out" in="SourceGraphic" in2="blur-2"/>
      <feComposite operator="in" in="color-2"/>
      <feComposite operator="in" in2="SourceGraphic"/>
    </filter>
  </defs>
  <g id="组_24751" data-name="组 24751" transform="translate(827 -4771)">
    <g data-type="innerShadowGroup">
      <circle id="椭圆_15-2" data-name="椭圆 15" cx="19" cy="19" r="19" transform="translate(-827 4771)" fill="url(#linear-gradient)"/>
      <g transform="matrix(1, 0, 0, 1, -827, 4771)" filter="url(#椭圆_15)">
        <circle id="椭圆_15-3" data-name="椭圆 15" cx="19" cy="19" r="19" fill="#fff"/>
      </g>
      <g id="椭圆_15-4" data-name="椭圆 15" transform="translate(-827 4771)" fill="none" stroke="#d86742" stroke-width="1">
        <circle cx="19" cy="19" r="19" stroke="none"/>
        <circle cx="19" cy="19" r="18.5" fill="none"/>
      </g>
    </g>
    <circle id="椭圆_16" data-name="椭圆 16" cx="1.5" cy="1.5" r="1.5" transform="translate(-817 4775)" fill="#fff" opacity="0.78"/>
    <g data-type="innerShadowGroup">
      <g id="路径_600-2" data-name="路径 600" transform="translate(-820.707 4777.293)" fill="#fefbec">
        <path d="M16.928,22.586l-4.221-4.222L8.485,22.586a4,4,0,0,1-5.656-5.657L7.05,12.707,2.829,8.485A4,4,0,0,1,8.485,2.829L12.707,7.05l4.221-4.221a4,4,0,0,1,5.657,5.656l-4.222,4.222,4.222,4.221a4,4,0,0,1-5.657,5.657Z" stroke="none"/>
        <path d="M 19.75680160522461 22.75662994384766 C 20.55825996398926 22.75662994384766 21.31180000305176 22.44466018676758 21.8781909942627 21.87860107421875 C 23.04748153686523 20.70863151550293 23.04748153686523 18.80496978759766 21.87841033935547 17.63523101806641 L 16.94968032836914 12.70680046081543 L 21.8781909942627 7.778300762176514 C 23.04757118225098 6.608250617980957 23.04766082763672 4.705070495605469 21.87839126586914 3.535810708999634 C 21.31162071228027 2.969040632247925 20.55816078186035 2.656900644302368 19.75680160522461 2.656900644302368 C 18.95544052124023 2.656900644302368 18.20198059082031 2.969040632247925 17.63521003723145 3.535810708999634 L 12.70680046081543 8.464210510253906 L 7.778090953826904 3.535810708999634 C 7.211320877075195 2.969040632247925 6.457900524139404 2.656900644302368 5.65661096572876 2.656900644302368 C 4.855430603027344 2.656900644302368 4.102320671081543 2.968960762023926 3.535600662231445 3.5360107421875 C 2.968960762023926 4.102320671081543 2.656900644302368 4.855440616607666 2.656900644302368 5.65661096572876 C 2.656900644302368 6.457900524139404 2.969040632247925 7.211320877075195 3.535830736160278 7.778110504150391 L 8.464210510253906 12.70680046081543 L 3.535810708999634 17.63521003723145 C 2.365960836410522 18.80506134033203 2.365960836410522 20.70853996276855 3.535810708999634 21.87839126586914 C 4.102150917053223 22.44473075866699 4.855330944061279 22.75662994384766 5.65661096572876 22.75662994384766 C 6.458000659942627 22.75662994384766 7.211500644683838 22.44466018676758 7.778090953826904 21.87839126586914 L 12.70680046081543 16.94968032836914 L 17.63500022888184 21.8781909942627 C 18.20180130004883 22.44466018676758 18.95534133911133 22.75662994384766 19.75680160522461 22.75662994384766 M 19.75680160522461 23.75662994384766 C 18.73305130004883 23.75662994384766 17.70930099487305 23.36625099182129 16.9281005859375 22.58550071716309 L 12.70678043365479 18.36392021179199 L 8.485200881958008 22.58550071716309 C 6.922800540924072 24.14700126647949 4.390200614929199 24.14700126647949 2.82870078086853 22.58550071716309 C 1.266300678253174 21.02309989929199 1.266300678253174 18.49050140380859 2.82870078086853 16.9281005859375 L 7.050020694732666 12.70678043365479 L 2.82870078086853 8.485200881958008 C 1.266300678253174 6.922800540924072 1.266300678253174 4.390200614929199 2.82870078086853 2.82870078086853 C 4.390200614929199 1.266301274299622 6.922800540924072 1.266300559043884 8.485200881958008 2.82870078086853 L 12.70678043365479 7.050020694732666 L 16.9281005859375 2.82870078086853 C 18.49049949645996 1.266302347183228 21.02309989929199 1.266299486160278 22.58550071716309 2.82870078086853 C 24.14700126647949 4.390200614929199 24.14700126647949 6.922800540924072 22.58550071716309 8.485200881958008 L 18.36392021179199 12.70678043365479 L 22.58550071716309 16.9281005859375 C 24.14700126647949 18.49050140380859 24.14700126647949 21.02309989929199 22.58550071716309 22.58550071716309 C 21.80430030822754 23.36625099182129 20.78055000305176 23.75662994384766 19.75680160522461 23.75662994384766 Z" stroke="none"/>
      </g>
      <g transform="matrix(1, 0, 0, 1, -827, 4771)" filter="url(#路径_600)">
        <g id="路径_600-3" data-name="路径 600" transform="translate(6.29 6.29)" fill="#fff">
          <path d="M16.928,22.586l-4.221-4.222L8.485,22.586a4,4,0,0,1-5.656-5.657L7.05,12.707,2.829,8.485A4,4,0,0,1,8.485,2.829L12.707,7.05l4.221-4.221a4,4,0,0,1,5.657,5.656l-4.222,4.222,4.222,4.221a4,4,0,0,1-5.657,5.657Z" stroke="none"/>
          <path d="M 19.75680160522461 22.75662994384766 C 20.55825996398926 22.75662994384766 21.31180000305176 22.44466018676758 21.8781909942627 21.87860107421875 C 23.04748153686523 20.70863151550293 23.04748153686523 18.80496978759766 21.87841033935547 17.63523101806641 L 16.94968032836914 12.70680046081543 L 21.8781909942627 7.778300762176514 C 23.04757118225098 6.608250617980957 23.04766082763672 4.705070495605469 21.87839126586914 3.535810708999634 C 21.31162071228027 2.969040632247925 20.55816078186035 2.656900644302368 19.75680160522461 2.656900644302368 C 18.95544052124023 2.656900644302368 18.20198059082031 2.969040632247925 17.63521003723145 3.535810708999634 L 12.70680046081543 8.464210510253906 L 7.778090953826904 3.535810708999634 C 7.211320877075195 2.969040632247925 6.457900524139404 2.656900644302368 5.65661096572876 2.656900644302368 C 4.855430603027344 2.656900644302368 4.102320671081543 2.968960762023926 3.535600662231445 3.5360107421875 C 2.968960762023926 4.102320671081543 2.656900644302368 4.855440616607666 2.656900644302368 5.65661096572876 C 2.656900644302368 6.457900524139404 2.969040632247925 7.211320877075195 3.535830736160278 7.778110504150391 L 8.464210510253906 12.70680046081543 L 3.535810708999634 17.63521003723145 C 2.365960836410522 18.80506134033203 2.365960836410522 20.70853996276855 3.535810708999634 21.87839126586914 C 4.102150917053223 22.44473075866699 4.855330944061279 22.75662994384766 5.65661096572876 22.75662994384766 C 6.458000659942627 22.75662994384766 7.211500644683838 22.44466018676758 7.778090953826904 21.87839126586914 L 12.70680046081543 16.94968032836914 L 17.63500022888184 21.8781909942627 C 18.20180130004883 22.44466018676758 18.95534133911133 22.75662994384766 19.75680160522461 22.75662994384766 M 19.75680160522461 23.75662994384766 C 18.73305130004883 23.75662994384766 17.70930099487305 23.36625099182129 16.9281005859375 22.58550071716309 L 12.70678043365479 18.36392021179199 L 8.485200881958008 22.58550071716309 C 6.922800540924072 24.14700126647949 4.390200614929199 24.14700126647949 2.82870078086853 22.58550071716309 C 1.266300678253174 21.02309989929199 1.266300678253174 18.49050140380859 2.82870078086853 16.9281005859375 L 7.050020694732666 12.70678043365479 L 2.82870078086853 8.485200881958008 C 1.266300678253174 6.922800540924072 1.266300678253174 4.390200614929199 2.82870078086853 2.82870078086853 C 4.390200614929199 1.266301274299622 6.922800540924072 1.266300559043884 8.485200881958008 2.82870078086853 L 12.70678043365479 7.050020694732666 L 16.9281005859375 2.82870078086853 C 18.49049949645996 1.266302347183228 21.02309989929199 1.266299486160278 22.58550071716309 2.82870078086853 C 24.14700126647949 4.390200614929199 24.14700126647949 6.922800540924072 22.58550071716309 8.485200881958008 L 18.36392021179199 12.70678043365479 L 22.58550071716309 16.9281005859375 C 24.14700126647949 18.49050140380859 24.14700126647949 21.02309989929199 22.58550071716309 22.58550071716309 C 21.80430030822754 23.36625099182129 20.78055000305176 23.75662994384766 19.75680160522461 23.75662994384766 Z" stroke="none"/>
        </g>
      </g>
      <g id="路径_600-4" data-name="路径 600" transform="translate(-820.707 4777.293)" fill="none">
        <path d="M16.928,22.586l-4.221-4.222L8.485,22.586a4,4,0,0,1-5.656-5.657L7.05,12.707,2.829,8.485A4,4,0,0,1,8.485,2.829L12.707,7.05l4.221-4.221a4,4,0,0,1,5.657,5.656l-4.222,4.222,4.222,4.221a4,4,0,0,1-5.657,5.657Z" stroke="none"/>
        <path d="M 19.75680160522461 22.75662994384766 C 20.55825996398926 22.75662994384766 21.31180000305176 22.44466018676758 21.8781909942627 21.87860107421875 C 23.04748153686523 20.70863151550293 23.04748153686523 18.80496978759766 21.87841033935547 17.63523101806641 L 16.94968032836914 12.70680046081543 L 21.8781909942627 7.778300762176514 C 23.04757118225098 6.608250617980957 23.04766082763672 4.705070495605469 21.87839126586914 3.535810708999634 C 21.31162071228027 2.969040632247925 20.55816078186035 2.656900644302368 19.75680160522461 2.656900644302368 C 18.95544052124023 2.656900644302368 18.20198059082031 2.969040632247925 17.63521003723145 3.535810708999634 L 12.70680046081543 8.464210510253906 L 7.778090953826904 3.535810708999634 C 7.211320877075195 2.969040632247925 6.457900524139404 2.656900644302368 5.65661096572876 2.656900644302368 C 4.855430603027344 2.656900644302368 4.102320671081543 2.968960762023926 3.535600662231445 3.5360107421875 C 2.968960762023926 4.102320671081543 2.656900644302368 4.855440616607666 2.656900644302368 5.65661096572876 C 2.656900644302368 6.457900524139404 2.969040632247925 7.211320877075195 3.535830736160278 7.778110504150391 L 8.464210510253906 12.70680046081543 L 3.535810708999634 17.63521003723145 C 2.365960836410522 18.80506134033203 2.365960836410522 20.70853996276855 3.535810708999634 21.87839126586914 C 4.102150917053223 22.44473075866699 4.855330944061279 22.75662994384766 5.65661096572876 22.75662994384766 C 6.458000659942627 22.75662994384766 7.211500644683838 22.44466018676758 7.778090953826904 21.87839126586914 L 12.70680046081543 16.94968032836914 L 17.63500022888184 21.8781909942627 C 18.20180130004883 22.44466018676758 18.95534133911133 22.75662994384766 19.75680160522461 22.75662994384766 M 19.75680160522461 23.75662994384766 C 18.73305130004883 23.75662994384766 17.70930099487305 23.36625099182129 16.9281005859375 22.58550071716309 L 12.70678043365479 18.36392021179199 L 8.485200881958008 22.58550071716309 C 6.922800540924072 24.14700126647949 4.390200614929199 24.14700126647949 2.82870078086853 22.58550071716309 C 1.266300678253174 21.02309989929199 1.266300678253174 18.49050140380859 2.82870078086853 16.9281005859375 L 7.050020694732666 12.70678043365479 L 2.82870078086853 8.485200881958008 C 1.266300678253174 6.922800540924072 1.266300678253174 4.390200614929199 2.82870078086853 2.82870078086853 C 4.390200614929199 1.266301274299622 6.922800540924072 1.266300559043884 8.485200881958008 2.82870078086853 L 12.70678043365479 7.050020694732666 L 16.9281005859375 2.82870078086853 C 18.49049949645996 1.266302347183228 21.02309989929199 1.266299486160278 22.58550071716309 2.82870078086853 C 24.14700126647949 4.390200614929199 24.14700126647949 6.922800540924072 22.58550071716309 8.485200881958008 L 18.36392021179199 12.70678043365479 L 22.58550071716309 16.9281005859375 C 24.14700126647949 18.49050140380859 24.14700126647949 21.02309989929199 22.58550071716309 22.58550071716309 C 21.80430030822754 23.36625099182129 20.78055000305176 23.75662994384766 19.75680160522461 23.75662994384766 Z" stroke="none" fill="rgba(220,59,42,0.5)"/>
      </g>
    </g>
  </g>
</svg>
