<svg xmlns="http://www.w3.org/2000/svg" xmlns:xlink="http://www.w3.org/1999/xlink" width="289" height="59.548" viewBox="0 0 289 59.548">
  <defs>
    <linearGradient id="linear-gradient" x1="0.491" y1="1" x2="0.486" gradientUnits="objectBoundingBox">
      <stop offset="0" stop-color="#004003"/>
      <stop offset="1" stop-color="#1a7920"/>
    </linearGradient>
    <clipPath id="clip-path">
      <rect id="矩形_3632" data-name="矩形 3632" width="275" height="50" rx="7" transform="translate(5493 4817)" fill="url(#linear-gradient)"/>
    </clipPath>
  </defs>
  <g id="组_25286" data-name="组 25286" transform="translate(-5479 -4807.452)">
    <rect id="矩形_3631" data-name="矩形 3631" width="275" height="50" rx="7" transform="translate(5493 4817)" fill="url(#linear-gradient)"/>
    <g id="蒙版组_618" data-name="蒙版组 618" clip-path="url(#clip-path)">
      <path id="路径_60308" data-name="路径 60308" d="M.228,221.587v3.86c5.638.473,9.5,3.349,16.233,1.249a20.236,20.236,0,0,1,5-5.108c-7.312,3.366-15.5,1.816-21.228,0Zm13.4,10.2a10.215,10.215,0,0,0,2.876,3.027C7.342,236.25,4.844,233.374.228,233.3v-3.633C5.308,230.328,10.077,232.348,13.624,231.785Zm16.2-8.892a4.227,4.227,0,0,1,.454,3.784c10.028,1.7,11.125-3.406,22.137-.341.829-1.041,1.589-2.384,2.686-2.459C43.328,219.222,39.165,225.466,29.819,222.892ZM49.3,230.158c-.526.536.043,1.779,2.129,4-6.906-2.526-10.425.407-16.347.652-4.39.284-7.851-2.157-11.75-1.618L26.9,229.9C37.377,233.989,43,228.4,49.3,230.158Zm16.318-7.492c1.129.391,1.232,1.628.909,3.216,6.272-2.649,12.09,1.17,16.233,1.152,4.541.006,6.471-2.1,11.125-1.927,2.809,0,6.546,1.934,11.466,1.927,5.222.015,6.4-1.719,13.225-3.46v-3.406c-5.24,1.589-9.749,3.432-13.225,3.8-3.935.4-7.252-1.973-11.693-2.441-3.595-.379-6.546,1.741-10.784,2.071C77.384,224.1,73.07,219.411,65.615,222.665Zm52.957,5.307V232c-1.7-.234-7.1,3.146-13.036,3.074-6.121,0-7.851-2.025-12.3-2.157-4.21.047-6.026,2.346-10.671,1.93-5.973-.1-5.906-1.476-11.655-1.93-4.134-.038-4.361,2.545-13.661,2.157a10.537,10.537,0,0,0,3.481-3.552c3.86.26,5.79-2.426,10.255-2.086,3.747.209,7.265,2.611,11.617,2.086,2.838-.308,6.358-2.351,10.746-1.9,4.068.322,7.54,2.4,12.26,2.233,6.054-.68,7.927-3.342,12.96-3.887ZM75.265,192.149m-3.917,0a3.917,3.917,0,1,0,3.917-3.917A3.917,3.917,0,0,0,71.348,192.149Zm-32.064.247-3.917,0a3.917,3.917,0,1,0,3.917-3.917A3.917,3.917,0,0,0,35.367,192.4Zm81.825-7.041c-3.633,5.184-29.97-7.341-24.5-12.695-7.51.928-4.112,5.827,1.672,8.889a.166.166,0,0,1-.056.311c-5.607.758-1.923,4.581-1.446,9.73.548-1.713,2.592-1.75,2.242.114-3.4,1.466-.388,4.513.085,7.635-.042-3.023,3.42-1.816,1.93-.284-.837.412-1.633,2.271.132,6.546.577-1.325,2.052-2.375,2.573-1.136.085,2.079-2.166,4.124-4.635,4.711H78.728l6.7-7.228h.454a2.044,2.044,0,0,0,2.043-2.043v-.312a1.845,1.845,0,0,0-1.845-1.845H72.958a.711.711,0,0,1-.514-.22l-2-2.107c-2.217-1.139-3.917-.852-5.96.227l-9.819,8.287c-1.272,1.477-1.112,3.216-.852,5.24H43.328a1.122,1.122,0,0,0,0-.832l6.224-6.168h.17a2.157,2.157,0,0,0,2.157-2.157,1.816,1.816,0,0,0-1.816-1.816H37.008l-2.327-2.781a5.1,5.1,0,0,0-6.017.284l-9.535,8.061c-1.532,1.561-1.541,2.969-1.419,5.165H0v8.287c4.806-.189,7.681,2.233,12.109,1.93,7.19-.482,10.879-4.03,18.2-.511l-3.633,2.952a2.637,2.637,0,0,0-3.264.321l-7.593,7.345a1.821,1.821,0,0,0-.006,2.61l2.341,2.288a1.526,1.526,0,0,0,2.154-.021l7.944-8.08a2.184,2.184,0,0,0,.295-2.688l-.222-.357,4.219-4.163c8.817.341,8.5-2.043,12.563-1.816,5.563.341,8.434,2.5,12.979,2.157,4.5-.379,7.114-2.006,8.741-1.552L62.4,221.756l-.1-.1a1.939,1.939,0,0,0-2.685-.019L51.925,228.9a1.869,1.869,0,0,0-.063,2.653l1.977,2.057a2.043,2.043,0,0,0,2.921.026l7.263-7.291a2.29,2.29,0,0,0,0-3.236l-.029-.029,6.168-6.017c5.6-.416,6.585,1.325,12.752,1.741,4.465.3,5.865-1.627,9.422-1.779,7.492.075,14.039,5.3,17.936.87,3.317-7.366,2.1-15.407-3.486-24.1a.975.975,0,0,1,.531-1.463c2.135-.637,6.449-.009,5.868,2.1,2.283-.123,3.789-.7,3.822-2.12l-16.838-3.784c-1.059-.757-.53-2.838,1.438-2.459l15.59,3.557c2.422-.831,1.1-4.69,0-4.274Zm-87.75,23.2,3.746-3.089a.778.778,0,0,1,1.106.119l2.192,2.785a.365.365,0,0,1-.288.592h-6.61A.23.23,0,0,1,29.442,208.551Zm8.546-6.49h8.1a.256.256,0,0,1,.191.427l-4.366,4.866a.53.53,0,0,1-.829-.049l-3.351-4.747A.315.315,0,0,1,37.988,202.061Zm27.572,6.355,3.393-3.079a.788.788,0,0,1,1.135.078l2.537,3.031a.311.311,0,0,1-.239.511H65.769A.311.311,0,0,1,65.559,208.416Zm8.128-6.355h8.237a.208.208,0,0,1,.15.354l-4.3,4.443a.775.775,0,0,1-1.176-.074l-3.16-4.214a.317.317,0,0,1,.254-.508Z" transform="translate(5493 4644.34)" opacity="0.15"/>
    </g>
    <g id="组_25283" data-name="组 25283" transform="translate(5415 4708.077)">
      <path id="路径_60302" data-name="路径 60302" d="M64,802.81c0,1.552,7.046,2.81,15.738,2.81s15.738-1.258,15.738-2.81S88.431,800,79.738,800,64,801.258,64,802.81Z" transform="translate(0 -672.198)" fill="#286432" opacity="0.5"/>
      <path id="路径_60303" data-name="路径 60303" d="M85.21,407.259c-3.695,6.257-6.561,13.4-5.381,15.438,2.225,3.854,27.609,3.805,29.831,0a5.017,5.017,0,0,0,0-3.3C103.549,419.108,89.784,412.007,85.21,407.259Z" transform="translate(-15.013 -293.254)" fill="#419646"/>
      <path id="路径_60304" data-name="路径 60304" d="M522.889,415.3a42.462,42.462,0,0,1-9.637,6.379c5.355,2.912,11.363,5.31,14.86,5.473A48.412,48.412,0,0,0,522.889,415.3Z" transform="translate(-433.47 -301.007)" fill="#419646"/>
      <path id="路径_60305" data-name="路径 60305" d="M249.927,111.328c-2.336,0-6.26,4.852-9.534,10.4a43.013,43.013,0,0,0,9.586,6.661,42.461,42.461,0,0,0,9.637-6.379C256.312,116.346,252.3,111.328,249.927,111.328Z" transform="translate(-170.196 -7.719)" fill="#419646"/>
      <path id="路径_60306" data-name="路径 60306" d="M102.316,126.438h0l-.083-.361-.048-.208h0a48.693,48.693,0,0,0-5.1-11.535h0l-.11-.188-.183-.314h0a50.173,50.173,0,0,0-5.04-7.192c-1.919-2.2-3.5-3.313-4.707-3.313-1.187,0-2.744,1.081-4.626,3.214a48.214,48.214,0,0,0-4.962,7h0l-.188.318-.109.184h0a58.876,58.876,0,0,0-4.432,9.161,20.479,20.479,0,0,0-1.053,3.8,4.107,4.107,0,0,0,.211,2.577c1.27,2.2,8.826,3,14.91,3.012h.186a59.227,59.227,0,0,0,9.642-.712c3.126-.54,5-1.313,5.579-2.3A4.738,4.738,0,0,0,102.316,126.438Zm-13.3-5.083-.11-.056-.139-.071-.1-.05-.161-.083-.074-.038-.2-.1-.037-.019-.5-.263.026-.014.324-.171.033-.018.334-.178.007,0,.332-.18.022-.012.317-.174.041-.023.3-.168.05-.028.295-.166.049-.028.294-.169.04-.023.3-.174.021-.012.294-.173.024-.014.287-.172.043-.026.272-.165.051-.031.264-.163.051-.032.261-.163.046-.029.263-.167.03-.019.255-.165.024-.016.255-.167.042-.028.29-.193q.256-.173.51-.349l.043-.03.229-.161.03-.022.224-.161.017-.012.225-.164.034-.025.211-.157.04-.03.242-.184.2-.153.034-.027.2-.156.023-.018.2-.161,0,0,.195-.162.021-.018.18-.153.027-.023.17-.149.027-.024.165-.148.023-.021.162-.15,0,0q.646,1.119,1.251,2.262l-.049.059a5.889,5.889,0,0,1-.425.461,9.638,9.638,0,0,1-.956.815l-.252.187-.257.181-.26.177c-.087.058-.176.114-.264.172-.176.114-.354.225-.534.332l-.134.081-.136.079c-.09.053-.181.106-.273.156-.364.206-.748.38-1.129.549q-.285.127-.564.267c-.092.048-.184.094-.275.144l-.272.151q-.544.31-1.081.633l-.545.33c-.091.059-.184.112-.277.171l-.018.011-.5-.244h0l-.47-.235-.112-.056Zm10.788-.495q-.069.1-.142.188a6.666,6.666,0,0,1-.474.531l-.125.126-.128.124c-.086.082-.172.163-.26.242s-.175.159-.264.236-.178.154-.269.229a5.55,5.55,0,0,1-.58.4q-.146.094-.281.2-.066.054-.13.112t-.124.119c-.161.164-.316.336-.468.521l-.114.141-.115.147c-.038.052-.077.1-.117.155l-.06.081-.028.04c-1.638-.582-3.425-1.326-5.273-2.2.052,0,.1-.011.156-.016.112-.012.223-.029.334-.049a7.068,7.068,0,0,0,1.284-.36l.154-.061c.051-.021.1-.044.152-.066.1-.045.2-.091.3-.143a6.284,6.284,0,0,0,.569-.336c.368-.244.718-.511,1.075-.765a14.616,14.616,0,0,0,2-1.7l.225-.241c.073-.082.145-.165.218-.247l.209-.254c.067-.088.134-.175.2-.264.117-.167.23-.337.33-.514.652,1.244,1.241,2.463,1.752,3.624Zm-3.174,3.772.036,0c.034,0,.068-.01.1-.015.069-.01.135-.026.2-.043a2.95,2.95,0,0,0,.736-.305q.085-.048.165-.1a1.868,1.868,0,0,0,.154-.118,2.411,2.411,0,0,0,.274-.273c.168-.2.319-.407.481-.6.08-.1.16-.2.236-.3q.058-.075.113-.153c.037-.052.075-.1.11-.155q.107-.157.208-.319l.1-.163.095-.166a6.151,6.151,0,0,0,.324-.683,31.968,31.968,0,0,1,1.635,4.6A22.574,22.574,0,0,1,96.63,124.633ZM87.052,103.89c1.021,0,2.5,1.079,4.283,3.121a49.88,49.88,0,0,1,5.052,7.229l-.013.012-.041.039-.051.048-.041.039-.052.049-.042.039-.054.049-.043.039-.056.05-.043.038-.1.089-.059.052-.105.091-.044.038-.216.182-.068.057-.043.036-.071.058-.042.034-.2.157-.037.029-.086.068-.034.026-.094.073-.028.021-.108.083-.016.012q-.325.247-.657.486h0l-.133.1-.018.013-.12.085-.026.018-.114.08-.029.02-.112.078-.034.024-.108.075-.038.026-.106.073-.041.028-.106.072-.041.028-.107.072-.043.029-.107.071-.044.029-.108.071-.044.029-.109.071-.045.029-.111.072-.045.029-.158.1-.113.072-.045.028-.116.073-.044.027-.12.075-.042.026-.125.077-.038.024-.165.1-.137.083-.03.018-.145.088-.023.014-.166.1h0q-.348.208-.7.412l-.008,0-.167.1-.031.018-.191.11-.132.075-.054.03-.125.071-.062.035-.118.066-.182.1-.071.039-.187.1-.187.1-.295.16-.08.043-.19.1-.107.057-.084.044-.1.055-.087.046-.3.155-.088.046-.034.018-.185-.1-.013-.007-.169-.093a43.1,43.1,0,0,1-8.809-6.122l-.01-.01-.052-.052c.665-1.119,1.348-2.19,2.026-3.186.026.075.056.148.087.221a4.083,4.083,0,0,0,.288.532,4.924,4.924,0,0,0,.354.479q.1.114.194.224c.066.073.136.14.206.21s.141.136.214.2.15.123.227.182a4.355,4.355,0,0,0,.483.323c.168.1.338.189.506.283s.341.177.508.271c.084.046.166.094.251.139l.254.131.51.258c.346.159.691.317,1.039.466l.528.211.263.105c.088.035.175.071.265.1l.534.189c.179.061.356.124.535.183l.047-.1c-.16-.1-.32-.2-.48-.3l-.481-.29c-.318-.2-.633-.4-.948-.6-.08-.048-.156-.1-.233-.153l-.232-.155c-.154-.1-.31-.2-.463-.308l-.455-.318-.228-.157c-.075-.053-.148-.109-.222-.164-.148-.109-.292-.224-.435-.339l-.413-.361c-.07-.059-.14-.116-.208-.176s-.139-.116-.21-.171-.145-.107-.218-.16-.145-.106-.218-.157l-.225-.151q-.11-.078-.223-.152l-.114-.074c-.039-.024-.074-.051-.112-.076-.074-.051-.151-.1-.229-.149-.15-.1-.306-.2-.46-.3l-.06-.038-.058-.039c-.039-.026-.078-.053-.119-.079l-.048-.033c.785-1.135,1.562-2.166,2.3-3.047q.1.11.2.217.138.142.28.279c.047.046.1.09.143.135s.1.09.145.133a15.124,15.124,0,0,0,1.213.982A10.22,10.22,0,0,0,85.7,110l.346.179.349.174.347.176.345.18c.915.487,1.848.941,2.792,1.369s1.906.818,2.882,1.161l.046-.1c-.224-.128-.449-.253-.673-.38s-.447-.255-.669-.385l-.333-.194-.167-.1-.165-.1-.658-.4c-.219-.133-.436-.272-.654-.407l-.327-.2-.324-.208c-.216-.138-.434-.273-.649-.412l-.646-.418c-.216-.138-.425-.287-.635-.434s-.418-.3-.626-.448-.422-.291-.637-.428-.438-.264-.662-.389q-.677-.373-1.379-.7c-.312-.141-.626-.278-.952-.4l.194-.223c1.746-1.978,3.2-3.024,4.2-3.024ZM86.8,132.034c-7.575-.019-13.507-1.142-14.424-2.731-.5-.871-.189-2.967.883-5.9l.089-.24a7.3,7.3,0,0,0,.385.805l.086.156c.03.052.056.106.088.156.062.1.126.2.19.3l.1.151c.032.05.068.1.1.146.069.1.138.195.208.291a13.274,13.274,0,0,0,1.946,2.09l.272.231.137.115c.046.038.094.073.14.11.094.073.189.144.283.217l.142.107.146.1c.388.274.79.527,1.2.763l.31.173.155.086c.052.028.1.055.157.082l.315.163c.1.054.21.109.316.159l.319.154c.106.051.212.1.319.152l.321.148.16.074q.08.038.161.072a26.565,26.565,0,0,0,2.631,1.01,27.04,27.04,0,0,0,2.719.712q.383.077.768.143Zm9.731-.7a52.82,52.82,0,0,1-6.815.652,25.3,25.3,0,0,1-2.927-.64,26.4,26.4,0,0,1-2.6-.87,25.743,25.743,0,0,1-2.494-1.117q-.076-.038-.151-.079l-.15-.081-.3-.162c-.1-.052-.2-.112-.3-.169l-.294-.172q-.581-.352-1.144-.734t-1.111-.773l-.138-.1-.136-.1c-.091-.066-.181-.133-.273-.2-.046-.033-.092-.065-.137-.1l-.134-.1-.27-.2a22.81,22.81,0,0,1-2.061-1.743c-.159-.159-.328-.312-.482-.478l-.237-.245c-.079-.082-.152-.168-.229-.253l-.116-.127-.058-.063-.055-.065c-.074-.087-.147-.175-.222-.263-.037-.044-.076-.087-.112-.132l-.107-.136-.021-.026c.541-1.411,1.222-2.939,2.006-4.511q.047.139.1.276l.095.222c.034.073.07.144.106.217.018.036.035.073.054.108l.059.105c.039.07.078.141.119.21a10.565,10.565,0,0,0,1.145,1.545l.161.178c.054.059.107.119.163.176.111.115.221.231.335.342s.226.225.344.332l.175.163.178.159.179.159.182.154.182.154.185.151.186.149.188.146.188.146.19.143a23.974,23.974,0,0,0,3.217,2.006c1.12.581,2.263,1.11,3.417,1.609q.865.373,1.744.714t1.771.642c1.191.4,2.4.748,3.621,1.033.612.141,1.227.266,1.846.37s1.241.19,1.867.245a18.079,18.079,0,0,0,1.881.074c.409-.008.817-.032,1.223-.077A15.945,15.945,0,0,1,96.535,131.331Zm5.19-2.029a2.19,2.19,0,0,1-.816.72,12.633,12.633,0,0,1-1.552.016,17.916,17.916,0,0,1-1.843-.186,28.074,28.074,0,0,1-3.614-.809c-1.188-.34-2.357-.742-3.507-1.192q-.864-.333-1.714-.7t-1.683-.77c-.138-.068-.278-.134-.415-.2l-.413-.207c-.137-.07-.273-.143-.41-.214s-.271-.146-.407-.219q-.81-.442-1.6-.918l-.4-.236c-.131-.08-.261-.161-.393-.24l-.392-.241-.39-.243c-.519-.325-1.035-.655-1.543-.993a27.948,27.948,0,0,1-2.921-2.195,13.584,13.584,0,0,1-1.289-1.282c-.05-.057-.1-.116-.145-.174l-.073-.088-.069-.09c-.046-.06-.093-.12-.138-.181l-.13-.187q-.133-.2-.253-.407c.6-1.187,1.258-2.4,1.958-3.6a43.575,43.575,0,0,0,8.93,6.2h0l.467.254.131.071h0l.384.206.016.009.476.251.075.039.409.212.121.062.355.181c1.7.858,3.386,1.63,5,2.283l.107.044.292.117.43.168.24.092.126.048.122.046.069.026.355.13.1.035.255.091.088.031a22.586,22.586,0,0,0,5.618,1.352C102.108,128.138,101.938,128.936,101.725,129.3Z" transform="translate(-7.321)" fill="#286432"/>
      <path id="路径_60307" data-name="路径 60307" d="M165.366,552.119a.281.281,0,0,0-.391-.069A22.248,22.248,0,0,1,161.287,554q-.792.335-1.6.617a2.673,2.673,0,0,0-.544-1.128,3.03,3.03,0,0,0-2.435-.922,4.8,4.8,0,0,0-2.956,1.044,3.786,3.786,0,0,0-1.033,1.21.255.255,0,1,1-.507-.005.255.255,0,1,1-.507.005,3.786,3.786,0,0,0-1.033-1.21,4.8,4.8,0,0,0-2.956-1.044,3.03,3.03,0,0,0-2.435.922,2.673,2.673,0,0,0-.544,1.128q-.812-.282-1.6-.617a22.243,22.243,0,0,1-3.687-1.945.281.281,0,1,0-.322.461,22.328,22.328,0,0,0,3.775,2q.862.365,1.747.669-.022.238-.022.478a3.27,3.27,0,0,0,.657,2.169,3.03,3.03,0,0,0,2.435.922,4.8,4.8,0,0,0,2.956-1.044,4.167,4.167,0,0,0,.75-.76.281.281,0,0,0,.471-.023,12.574,12.574,0,0,0-.243,2.459,7.728,7.728,0,0,0,1.467,4.883.281.281,0,0,0,.439-.351,7.321,7.321,0,0,1-1.344-4.518q0-.25.01-.5a10.858,10.858,0,0,0,2.019,4.245.281.281,0,1,0,.439-.351,10.725,10.725,0,0,1-2.187-6.007.281.281,0,0,0,.509.164,4.167,4.167,0,0,0,.75.76,4.8,4.8,0,0,0,2.956,1.044,3.03,3.03,0,0,0,2.435-.922,3.27,3.27,0,0,0,.657-2.169q0-.249-.022-.478.885-.3,1.747-.669a22.328,22.328,0,0,0,3.775-2,.281.281,0,0,0,.069-.391Zm-11.27,1.927a4.259,4.259,0,0,1,2.608-.923c1.407,0,2.2.534,2.446,1.667a23.2,23.2,0,0,1-6.063,1.124,1.026,1.026,0,0,1-.037-.261A2.417,2.417,0,0,1,154.1,554.047Zm-6.385-.923a4.259,4.259,0,0,1,2.608.923,2.417,2.417,0,0,1,1.046,1.606,1.026,1.026,0,0,1-.037.261,23.2,23.2,0,0,1-6.063-1.124C145.51,553.658,146.3,553.124,147.711,553.124Zm2.608,4.136a4.259,4.259,0,0,1-2.608.923,2.205,2.205,0,0,1-2.529-2.529c0-.1,0-.2.009-.3a23.832,23.832,0,0,0,5.878,1.107A3.515,3.515,0,0,1,150.319,557.259Zm8.915-1.606a2.205,2.205,0,0,1-2.529,2.529,4.259,4.259,0,0,1-2.608-.923,3.517,3.517,0,0,1-.749-.8,23.833,23.833,0,0,0,5.878-1.107C159.231,555.452,159.234,555.551,159.234,555.653Z" transform="translate(-72.364 -432.909)" fill="#ffa000"/>
    </g>
    <g id="组_25284" data-name="组 25284" transform="translate(5444.723 4403.594)">
      <path id="矩形_3619" data-name="矩形 3619" d="M9.5,0H56.327a10.45,10.45,0,0,1,10.45,10.45V19a0,0,0,0,1,0,0H9.5A9.5,9.5,0,0,1,0,9.5v0A9.5,9.5,0,0,1,9.5,0Z" transform="translate(256.5 403.859)" fill="red"/>
      <text id="限时五折" transform="translate(290.389 416.858)" fill="#fff" font-size="12" font-family="STYuanti-SC-Bold, Yuanti SC" font-weight="700" letter-spacing="0.1em"><tspan x="-25.8" y="0">限时五折</tspan></text>
    </g>
  </g>
</svg>
