<svg xmlns="http://www.w3.org/2000/svg" xmlns:xlink="http://www.w3.org/1999/xlink" width="26" height="26" viewBox="0 0 26 26">
  <defs>
    <clipPath id="clip-path">
      <rect id="矩形_3165" data-name="矩形 3165" width="26" height="26" transform="translate(-1814.486 3307)" fill="#fff" stroke="#707070" stroke-width="1"/>
    </clipPath>
  </defs>
  <g id="蒙版组_58" data-name="蒙版组 58" transform="translate(1814.486 -3307)" clip-path="url(#clip-path)">
    <g id="组_24507" data-name="组 24507" transform="translate(-1940.667 3183.228) rotate(22)">
      <path id="路径_530" data-name="路径 530" d="M385,92.446V89.868a.869.869,0,0,1,.868-.868h4.561a.869.869,0,0,1,.868.868v2.578Z" transform="translate(-207.72 -24.38)" fill="#8f8d94"/>
      <path id="路径_531" data-name="路径 531" d="M366.048,65.239a.249.249,0,0,1,.248.248v1.958h-5.057V65.487a.249.249,0,0,1,.248-.248h4.561m0-1.239h-4.561A1.488,1.488,0,0,0,360,65.487v3.2h7.536v-3.2A1.488,1.488,0,0,0,366.048,64Z" transform="translate(-183.34 0)" fill="#f6f7e5"/>
      <path id="路径_532" data-name="路径 532" d="M410,139h5.044v.521H410Z" transform="translate(-232.1 -73.141)" fill="#6f6d75"/>
      <path id="路径_533" data-name="路径 533" d="M198.611,203.591A1.614,1.614,0,0,1,197,201.98V186.611A1.614,1.614,0,0,1,198.611,185h12.394a1.614,1.614,0,0,1,1.611,1.611V201.98a1.614,1.614,0,0,1-1.611,1.611Z" transform="translate(-24.38 -118.001)" fill="#8bef99"/>
      <path id="路径_534" data-name="路径 534" d="M186.625,161.239a1,1,0,0,1,.992.992V177.6a1,1,0,0,1-.992.992H174.231a1,1,0,0,1-.992-.992V162.231a1,1,0,0,1,.992-.992h12.394m0-1.239H174.231A2.238,2.238,0,0,0,172,162.231V177.6a2.238,2.238,0,0,0,2.231,2.231h12.394a2.238,2.238,0,0,0,2.231-2.231V162.231A2.238,2.238,0,0,0,186.625,160Z" transform="translate(0 -93.62)" fill="#f6f7e5"/>
      <path id="路径_535" data-name="路径 535" d="M235.386,210h-.654v11.418a3.474,3.474,0,0,1-3.47,3.47h-1.353l3.753-5.937-4.115-1.066-1.4-4.373-3.493,6.742,3.4,1.624.526,3.012H222v1.47a.991.991,0,0,0,.992.992h12.394a.991.991,0,0,0,.992-.992V210.992A.991.991,0,0,0,235.386,210Z" transform="translate(-48.761 -142.381)" fill="#6dc674"/>
      <path id="路径_536" data-name="路径 536" d="M365.167,381.683l-3.867-1.341L364,374.7l.885,4.1,3.817,1.019-3.572,5.6Z" transform="translate(-184.607 -302.998)" fill="#ffce00"/>
      <path id="路径_537" data-name="路径 537" d="M343.579,330.885l.607,2.814.1.444.439.117,3.108.828-2.6,4.083.022-2.171,0-.535-.506-.176-3.222-1.118,2.052-4.283m.268-2.285-3.346,7,4.008,1.391-.052,4.772L349,334.633l-4.09-1.091Z" transform="translate(-164.323 -258.041)" fill="#504d59"/>
      <path id="路径_538" data-name="路径 538" d="M197,187.082v-.471A1.614,1.614,0,0,1,198.611,185h12.394a1.614,1.614,0,0,1,1.611,1.611v.471Z" transform="translate(-24.38 -118.001)" fill="#a9b7aa"/>
      <path id="路径_539" data-name="路径 539" d="M186.625,161.239a1,1,0,0,1,.979.843H173.252a1,1,0,0,1,.28-.55.983.983,0,0,1,.7-.293h12.394m0-1.239H174.231A2.238,2.238,0,0,0,172,162.231v1.091h16.856v-1.091A2.238,2.238,0,0,0,186.625,160Z" transform="translate(0 -93.62)" fill="#f6f7e5"/>
    </g>
  </g>
</svg>
