<svg xmlns="http://www.w3.org/2000/svg" xmlns:xlink="http://www.w3.org/1999/xlink" width="22" height="22" viewBox="0 0 22 22">
  <defs>
    <clipPath id="clip-path">
      <rect id="矩形_3237" data-name="矩形 3237" width="22" height="22" transform="translate(-0.794 -2.5)" fill="#fff" stroke="#707070" stroke-width="1"/>
    </clipPath>
  </defs>
  <g id="蒙版组_96" data-name="蒙版组 96" transform="translate(0.794 2.5)" clip-path="url(#clip-path)">
    <path id="路径_594" data-name="路径 594" d="M39.529,164.348a4.822,4.822,0,0,1,4.921-3.586,5.132,5.132,0,0,1,3.977,2.069c0,.944,0,1.889-.046,2.833.458-.259.911-.527,1.369-.789-.292,2.04-.882,4.022-1.34,6.026l.333-.038a8.6,8.6,0,0,1,.861-.537c.192,2.04-.283,4.046-.326,6.077a6.935,6.935,0,0,1-1.474-1.038c-1.529-1.354-3.128-2.625-4.667-3.967a12.285,12.285,0,0,1-3.143-3.282A5.083,5.083,0,0,1,39.529,164.348ZM51.6,162.673a4.937,4.937,0,0,1,8.689,3.816,6.828,6.828,0,0,1-2.524,3.938c-2.014,1.685-4.113,3.26-6.165,4.9a15.882,15.882,0,0,1-2.011,1.424c.216-2.117,1.285-4.058,1.537-6.182-.422.1-.844.2-1.261.312.676-1.925,1.656-3.723,2.452-5.6-.527.12-1.04.285-1.563.424.343-.992.467-2.052.846-3.03m3.449.542a4.912,4.912,0,0,1,2.323,1.143,4.794,4.794,0,0,1,.873,2.565c.326-.019.652-.043.976-.072a4.747,4.747,0,0,0-.259-2.184,4.011,4.011,0,0,0-3.8-2.392C55.117,162.589,55.079,162.9,55.045,163.215Z" transform="translate(-39.344 -159.749)" fill="#db4100"/>
  </g>
</svg>
