<svg xmlns="http://www.w3.org/2000/svg" xmlns:xlink="http://www.w3.org/1999/xlink" width="184.772" height="121.212" viewBox="0 0 184.772 121.212">
  <defs>
    <linearGradient id="linear-gradient" x1="0.5" x2="0.5" y2="1" gradientUnits="objectBoundingBox">
      <stop offset="0" stop-color="#f9e74c"/>
      <stop offset="1" stop-color="#eb9c37"/>
    </linearGradient>
    <filter id="路径_56493">
      <feOffset dy="3" input="SourceAlpha"/>
      <feGaussianBlur stdDeviation="1" result="blur"/>
      <feFlood flood-color="#f2c340" result="color"/>
      <feComposite operator="out" in="SourceGraphic" in2="blur"/>
      <feComposite operator="in" in="color"/>
      <feComposite operator="in" in2="SourceGraphic"/>
    </filter>
  </defs>
  <g id="组_24958" data-name="组 24958" transform="translate(-95.454 -343.61)">
    <g id="组_24957" data-name="组 24957" transform="translate(0 -12.5)">
      <g id="组_24956" data-name="组 24956" transform="translate(-2215.5 -1613.89)">
        <g id="组_24955" data-name="组 24955" transform="translate(2363 1970)">
          <g data-type="innerShadowGroup">
            <g id="路径_56493-2" data-name="路径 56493" transform="translate(-97.317 -100.961)" opacity="0.2" fill="url(#linear-gradient)">
              <path d="M 146.5184783935547 179.9577484130859 C 146.5181579589844 179.9577484130859 146.5178833007812 179.9577484130859 146.5175628662109 179.9577484130859 C 144.4380493164062 179.9576568603516 142.3552856445312 179.6805419921875 140.3271484375 179.1340942382812 L 115.4417114257812 172.4756622314453 C 112.3416595458984 171.6564483642578 109.4978790283203 170.2518157958984 106.9878540039062 168.3003845214844 C 104.5662994384766 166.4177398681641 102.5554885864258 164.1081695556641 101.0112686157227 161.4358367919922 C 99.46192169189453 158.754638671875 98.46201324462891 155.8469085693359 98.03931427001953 152.7934265136719 C 97.60195922851562 149.6340637207031 97.80570983886719 146.4609985351562 98.64492034912109 143.3623657226562 L 105.1020431518555 119.1484680175781 C 105.7902755737305 116.5439224243164 106.8996658325195 114.1034774780273 108.3997039794922 111.8938217163086 C 109.8492660522461 109.7585220336914 111.6331100463867 107.8809967041016 113.7016906738281 106.3134231567383 C 115.74951171875 104.761589050293 118.0204315185547 103.5552673339844 120.4513549804688 102.7279891967773 C 122.9209899902344 101.8875350952148 125.4903259277344 101.4613876342773 128.0879974365234 101.4613876342773 C 130.1701965332031 101.4613876342773 132.2545166015625 101.7385101318359 134.2830352783203 102.2850646972656 L 159.1683807373047 108.9434967041016 C 162.2844848632812 109.7669372558594 165.1431732177734 111.1806411743164 167.6665496826172 113.1457672119141 C 170.1030426025391 115.0432434082031 172.1219940185547 117.3688812255859 173.6672821044922 120.0580596923828 C 175.2050323486328 122.7340927124023 176.1934661865234 125.6309814453125 176.6051483154297 128.6682586669922 C 177.0316467285156 131.81494140625 176.8166046142578 134.9729156494141 175.9659729003906 138.0544281005859 L 169.5081634521484 162.2706909179688 C 168.8065490722656 164.8747406005859 167.6881561279297 167.3157958984375 166.1844177246094 169.5248260498047 C 164.7300109863281 171.6613311767578 162.9452362060547 173.5391082763672 160.8796539306641 175.1060028076172 C 158.8334045410156 176.6582336425781 156.566162109375 177.8645324707031 154.1408843994141 178.6914215087891 C 151.6763153076172 179.5316925048828 149.1117401123047 179.9577484130859 146.5184783935547 179.9577484130859 Z" stroke="none"/>
              <path d="M 128.0868682861328 101.9613800048828 C 125.5443267822266 101.9613800048828 123.0293426513672 102.3785858154297 120.61181640625 103.2014007568359 C 118.2317962646484 104.0114440917969 116.0083923339844 105.1926422119141 114.0033569335938 106.712158203125 C 111.9783477783203 108.2468109130859 110.2321319580078 110.0847625732422 108.8132476806641 112.1749267578125 C 107.3450775146484 114.3377075195312 106.2591857910156 116.7265625 105.5851593017578 119.2773132324219 L 99.12754821777344 143.4930725097656 C 98.30599975585938 146.5264587402344 98.10650634765625 149.6324768066406 98.53459167480469 152.7248687744141 C 98.94839477539062 155.7140502929688 99.92732238769531 158.5606842041016 101.4441833496094 161.1856689453125 C 102.9559631347656 163.8018798828125 104.9243774414062 166.0628051757812 107.2947387695312 167.9056396484375 C 109.7513275146484 169.8155212402344 112.5348358154297 171.1903228759766 115.5709381103516 171.9926452636719 L 140.4572143554688 178.6513214111328 C 142.4432830810547 179.1864166259766 144.4822692871094 179.4577331542969 146.5175323486328 179.4577331542969 C 149.05615234375 179.4577331542969 151.5667114257812 179.0406188964844 153.9795074462891 178.2179718017578 C 156.3540649414062 177.4083557128906 158.5739440917969 176.2272644042969 160.5774841308594 174.7074584960938 C 162.5998382568359 173.1733703613281 164.3472290039062 171.3349914550781 165.7710876464844 169.2433776855469 C 167.2433166503906 167.0806884765625 168.3383331298828 164.6905670166016 169.0250396728516 162.141845703125 L 175.4839935302734 137.92138671875 C 176.3165283203125 134.9053649902344 176.5270385742188 131.8147583007812 176.1096649169922 128.7353973388672 C 175.7067260742188 125.7624969482422 174.7391204833984 122.9268188476562 173.2337646484375 120.30712890625 C 171.7209167480469 117.6744079589844 169.7444610595703 115.3976898193359 167.3593444824219 113.5402221679688 C 164.9231262207031 111.6429595947266 162.1672210693359 110.2707366943359 159.1664733886719 109.4604797363281 L 159.1661376953125 109.4604797363281 L 134.1529693603516 102.7678375244141 C 132.1672058105469 102.2328033447266 130.1266479492188 101.9614715576172 128.08740234375 101.9613800048828 L 128.0868682861328 101.9613800048828 M 128.0880279541016 100.9613800048828 C 130.1769409179688 100.9614868164062 132.3009490966797 101.2331848144531 134.4131164550781 101.8022766113281 L 159.2976989746094 108.4604797363281 C 172.2781219482422 111.8905639648438 180.012451171875 125.2744445800781 176.4479370117188 138.1874694824219 L 169.9912719726562 162.3995208740234 C 166.4939575195312 175.3798217773438 153.1774597167969 183.1141052246094 140.1970672607422 179.6168823242188 L 115.3124694824219 172.9586791992188 C 102.3321533203125 169.5284881591797 94.6650390625 156.1446990966797 98.16232299804688 143.2316589355469 L 104.6189270019531 119.0196380615234 C 107.4907989501953 108.1513977050781 117.3394775390625 100.9608612060547 128.0880279541016 100.9613800048828 Z" stroke="none"/>
            </g>
            <g transform="matrix(1, 0, 0, 1, -52.05, 0)" filter="url(#路径_56493)">
              <g id="路径_56493-3" data-name="路径 56493" transform="translate(-45.27 -100.96)" fill="#fff" opacity="0.2">
                <path d="M 146.5184783935547 179.9577484130859 C 146.5181579589844 179.9577484130859 146.5178833007812 179.9577484130859 146.5175628662109 179.9577484130859 C 144.4380493164062 179.9576568603516 142.3552856445312 179.6805419921875 140.3271484375 179.1340942382812 L 115.4417114257812 172.4756622314453 C 112.3416595458984 171.6564483642578 109.4978790283203 170.2518157958984 106.9878540039062 168.3003845214844 C 104.5662994384766 166.4177398681641 102.5554885864258 164.1081695556641 101.0112686157227 161.4358367919922 C 99.46192169189453 158.754638671875 98.46201324462891 155.8469085693359 98.03931427001953 152.7934265136719 C 97.60195922851562 149.6340637207031 97.80570983886719 146.4609985351562 98.64492034912109 143.3623657226562 L 105.1020431518555 119.1484680175781 C 105.7902755737305 116.5439224243164 106.8996658325195 114.1034774780273 108.3997039794922 111.8938217163086 C 109.8492660522461 109.7585220336914 111.6331100463867 107.8809967041016 113.7016906738281 106.3134231567383 C 115.74951171875 104.761589050293 118.0204315185547 103.5552673339844 120.4513549804688 102.7279891967773 C 122.9209899902344 101.8875350952148 125.4903259277344 101.4613876342773 128.0879974365234 101.4613876342773 C 130.1701965332031 101.4613876342773 132.2545166015625 101.7385101318359 134.2830352783203 102.2850646972656 L 159.1683807373047 108.9434967041016 C 162.2844848632812 109.7669372558594 165.1431732177734 111.1806411743164 167.6665496826172 113.1457672119141 C 170.1030426025391 115.0432434082031 172.1219940185547 117.3688812255859 173.6672821044922 120.0580596923828 C 175.2050323486328 122.7340927124023 176.1934661865234 125.6309814453125 176.6051483154297 128.6682586669922 C 177.0316467285156 131.81494140625 176.8166046142578 134.9729156494141 175.9659729003906 138.0544281005859 L 169.5081634521484 162.2706909179688 C 168.8065490722656 164.8747406005859 167.6881561279297 167.3157958984375 166.1844177246094 169.5248260498047 C 164.7300109863281 171.6613311767578 162.9452362060547 173.5391082763672 160.8796539306641 175.1060028076172 C 158.8334045410156 176.6582336425781 156.566162109375 177.8645324707031 154.1408843994141 178.6914215087891 C 151.6763153076172 179.5316925048828 149.1117401123047 179.9577484130859 146.5184783935547 179.9577484130859 Z" stroke="none"/>
                <path d="M 128.0868682861328 101.9613800048828 C 125.5443267822266 101.9613800048828 123.0293426513672 102.3785858154297 120.61181640625 103.2014007568359 C 118.2317962646484 104.0114440917969 116.0083923339844 105.1926422119141 114.0033569335938 106.712158203125 C 111.9783477783203 108.2468109130859 110.2321319580078 110.0847625732422 108.8132476806641 112.1749267578125 C 107.3450775146484 114.3377075195312 106.2591857910156 116.7265625 105.5851593017578 119.2773132324219 L 99.12754821777344 143.4930725097656 C 98.30599975585938 146.5264587402344 98.10650634765625 149.6324768066406 98.53459167480469 152.7248687744141 C 98.94839477539062 155.7140502929688 99.92732238769531 158.5606842041016 101.4441833496094 161.1856689453125 C 102.9559631347656 163.8018798828125 104.9243774414062 166.0628051757812 107.2947387695312 167.9056396484375 C 109.7513275146484 169.8155212402344 112.5348358154297 171.1903228759766 115.5709381103516 171.9926452636719 L 140.4572143554688 178.6513214111328 C 142.4432830810547 179.1864166259766 144.4822692871094 179.4577331542969 146.5175323486328 179.4577331542969 C 149.05615234375 179.4577331542969 151.5667114257812 179.0406188964844 153.9795074462891 178.2179718017578 C 156.3540649414062 177.4083557128906 158.5739440917969 176.2272644042969 160.5774841308594 174.7074584960938 C 162.5998382568359 173.1733703613281 164.3472290039062 171.3349914550781 165.7710876464844 169.2433776855469 C 167.2433166503906 167.0806884765625 168.3383331298828 164.6905670166016 169.0250396728516 162.141845703125 L 175.4839935302734 137.92138671875 C 176.3165283203125 134.9053649902344 176.5270385742188 131.8147583007812 176.1096649169922 128.7353973388672 C 175.7067260742188 125.7624969482422 174.7391204833984 122.9268188476562 173.2337646484375 120.30712890625 C 171.7209167480469 117.6744079589844 169.7444610595703 115.3976898193359 167.3593444824219 113.5402221679688 C 164.9231262207031 111.6429595947266 162.1672210693359 110.2707366943359 159.1664733886719 109.4604797363281 L 159.1661376953125 109.4604797363281 L 134.1529693603516 102.7678375244141 C 132.1672058105469 102.2328033447266 130.1266479492188 101.9614715576172 128.08740234375 101.9613800048828 L 128.0868682861328 101.9613800048828 M 128.0880279541016 100.9613800048828 C 130.1769409179688 100.9614868164062 132.3009490966797 101.2331848144531 134.4131164550781 101.8022766113281 L 159.2976989746094 108.4604797363281 C 172.2781219482422 111.8905639648438 180.012451171875 125.2744445800781 176.4479370117188 138.1874694824219 L 169.9912719726562 162.3995208740234 C 166.4939575195312 175.3798217773438 153.1774597167969 183.1141052246094 140.1970672607422 179.6168823242188 L 115.3124694824219 172.9586791992188 C 102.3321533203125 169.5284881591797 94.6650390625 156.1446990966797 98.16232299804688 143.2316589355469 L 104.6189270019531 119.0196380615234 C 107.4907989501953 108.1513977050781 117.3394775390625 100.9608612060547 128.0880279541016 100.9613800048828 Z" stroke="none"/>
              </g>
            </g>
            <g id="路径_56493-4" data-name="路径 56493" transform="translate(-97.317 -100.961)" fill="none" opacity="0.2">
              <path d="M 146.5184783935547 179.9577484130859 C 146.5181579589844 179.9577484130859 146.5178833007812 179.9577484130859 146.5175628662109 179.9577484130859 C 144.4380493164062 179.9576568603516 142.3552856445312 179.6805419921875 140.3271484375 179.1340942382812 L 115.4417114257812 172.4756622314453 C 112.3416595458984 171.6564483642578 109.4978790283203 170.2518157958984 106.9878540039062 168.3003845214844 C 104.5662994384766 166.4177398681641 102.5554885864258 164.1081695556641 101.0112686157227 161.4358367919922 C 99.46192169189453 158.754638671875 98.46201324462891 155.8469085693359 98.03931427001953 152.7934265136719 C 97.60195922851562 149.6340637207031 97.80570983886719 146.4609985351562 98.64492034912109 143.3623657226562 L 105.1020431518555 119.1484680175781 C 105.7902755737305 116.5439224243164 106.8996658325195 114.1034774780273 108.3997039794922 111.8938217163086 C 109.8492660522461 109.7585220336914 111.6331100463867 107.8809967041016 113.7016906738281 106.3134231567383 C 115.74951171875 104.761589050293 118.0204315185547 103.5552673339844 120.4513549804688 102.7279891967773 C 122.9209899902344 101.8875350952148 125.4903259277344 101.4613876342773 128.0879974365234 101.4613876342773 C 130.1701965332031 101.4613876342773 132.2545166015625 101.7385101318359 134.2830352783203 102.2850646972656 L 159.1683807373047 108.9434967041016 C 162.2844848632812 109.7669372558594 165.1431732177734 111.1806411743164 167.6665496826172 113.1457672119141 C 170.1030426025391 115.0432434082031 172.1219940185547 117.3688812255859 173.6672821044922 120.0580596923828 C 175.2050323486328 122.7340927124023 176.1934661865234 125.6309814453125 176.6051483154297 128.6682586669922 C 177.0316467285156 131.81494140625 176.8166046142578 134.9729156494141 175.9659729003906 138.0544281005859 L 169.5081634521484 162.2706909179688 C 168.8065490722656 164.8747406005859 167.6881561279297 167.3157958984375 166.1844177246094 169.5248260498047 C 164.7300109863281 171.6613311767578 162.9452362060547 173.5391082763672 160.8796539306641 175.1060028076172 C 158.8334045410156 176.6582336425781 156.566162109375 177.8645324707031 154.1408843994141 178.6914215087891 C 151.6763153076172 179.5316925048828 149.1117401123047 179.9577484130859 146.5184783935547 179.9577484130859 Z" stroke="none"/>
              <path d="M 128.0868682861328 101.9613800048828 C 125.5443267822266 101.9613800048828 123.0293426513672 102.3785858154297 120.61181640625 103.2014007568359 C 118.2317962646484 104.0114440917969 116.0083923339844 105.1926422119141 114.0033569335938 106.712158203125 C 111.9783477783203 108.2468109130859 110.2321319580078 110.0847625732422 108.8132476806641 112.1749267578125 C 107.3450775146484 114.3377075195312 106.2591857910156 116.7265625 105.5851593017578 119.2773132324219 L 99.12754821777344 143.4930725097656 C 98.30599975585938 146.5264587402344 98.10650634765625 149.6324768066406 98.53459167480469 152.7248687744141 C 98.94839477539062 155.7140502929688 99.92732238769531 158.5606842041016 101.4441833496094 161.1856689453125 C 102.9559631347656 163.8018798828125 104.9243774414062 166.0628051757812 107.2947387695312 167.9056396484375 C 109.7513275146484 169.8155212402344 112.5348358154297 171.1903228759766 115.5709381103516 171.9926452636719 L 140.4572143554688 178.6513214111328 C 142.4432830810547 179.1864166259766 144.4822692871094 179.4577331542969 146.5175323486328 179.4577331542969 C 149.05615234375 179.4577331542969 151.5667114257812 179.0406188964844 153.9795074462891 178.2179718017578 C 156.3540649414062 177.4083557128906 158.5739440917969 176.2272644042969 160.5774841308594 174.7074584960938 C 162.5998382568359 173.1733703613281 164.3472290039062 171.3349914550781 165.7710876464844 169.2433776855469 C 167.2433166503906 167.0806884765625 168.3383331298828 164.6905670166016 169.0250396728516 162.141845703125 L 175.4839935302734 137.92138671875 C 176.3165283203125 134.9053649902344 176.5270385742188 131.8147583007812 176.1096649169922 128.7353973388672 C 175.7067260742188 125.7624969482422 174.7391204833984 122.9268188476562 173.2337646484375 120.30712890625 C 171.7209167480469 117.6744079589844 169.7444610595703 115.3976898193359 167.3593444824219 113.5402221679688 C 164.9231262207031 111.6429595947266 162.1672210693359 110.2707366943359 159.1664733886719 109.4604797363281 L 159.1661376953125 109.4604797363281 L 134.1529693603516 102.7678375244141 C 132.1672058105469 102.2328033447266 130.1266479492188 101.9614715576172 128.08740234375 101.9613800048828 L 128.0868682861328 101.9613800048828 M 128.0880279541016 100.9613800048828 C 130.1769409179688 100.9614868164062 132.3009490966797 101.2331848144531 134.4131164550781 101.8022766113281 L 159.2976989746094 108.4604797363281 C 172.2781219482422 111.8905639648438 180.012451171875 125.2744445800781 176.4479370117188 138.1874694824219 L 169.9912719726562 162.3995208740234 C 166.4939575195312 175.3798217773438 153.1774597167969 183.1141052246094 140.1970672607422 179.6168823242188 L 115.3124694824219 172.9586791992188 C 102.3321533203125 169.5284881591797 94.6650390625 156.1446990966797 98.16232299804688 143.2316589355469 L 104.6189270019531 119.0196380615234 C 107.4907989501953 108.1513977050781 117.3394775390625 100.9608612060547 128.0880279541016 100.9613800048828 Z" stroke="none" fill="#fff041"/>
            </g>
          </g>
          <path id="路径_56494" data-name="路径 56494" d="M205.889,153.78H181.677a22.848,22.848,0,0,0-22.867,22.867v23.54a22.848,22.848,0,0,0,22.867,22.867h24.212a22.848,22.848,0,0,0,22.867-22.867V176.647A22.848,22.848,0,0,0,205.889,153.78Z" transform="translate(-153.055 -148.837)" fill="url(#linear-gradient)"/>
          <path id="路径_56495" data-name="路径 56495" d="M241.431,224H209.967a1.967,1.967,0,1,0,0,3.933h31.464a1.967,1.967,0,1,0,0-3.933Zm1.967,7.866H215.866a1.967,1.967,0,1,0,0,3.933H243.4a1.967,1.967,0,0,0,0-3.933Zm-10.816,7.866H211.933a1.967,1.967,0,1,0,0,3.933h20.648a1.967,1.967,0,1,0,0-3.933Zm-4.916,7.866h-11.8a1.967,1.967,0,1,0,0,3.933h11.8a1.967,1.967,0,1,0,0-3.933Zm0,7.866h-4.916a1.967,1.967,0,1,0,0,3.933h4.916a1.967,1.967,0,1,0,0-3.933Z" transform="translate(-185.954 -201.95)" fill="#fff"/>
        </g>
      </g>
      <path id="路径_56496" data-name="路径 56496" d="M13.115-12.424a1.545,1.545,0,0,1,.374-.969,1.709,1.709,0,0,1,1.4-.471,1.882,1.882,0,0,1,1.4.443,1.4,1.4,0,0,1,.429,1V4.548a1.4,1.4,0,0,1-.4.983,1.9,1.9,0,0,1-1.37.457,1.713,1.713,0,0,1-1.4-.457,1.484,1.484,0,0,1-.429-.983v-7.2H4.7v7.2a1.4,1.4,0,0,1-.4.983,1.9,1.9,0,0,1-1.37.457,1.713,1.713,0,0,1-1.4-.457A1.484,1.484,0,0,1,1.1,4.548V-12.424a1.436,1.436,0,0,1,.429-.969,1.813,1.813,0,0,1,1.4-.471,1.783,1.783,0,0,1,1.37.443,1.446,1.446,0,0,1,.4,1v6.672h8.416Zm12.182,0a1.459,1.459,0,0,1,.415-.969,1.766,1.766,0,0,1,1.384-.471,1.832,1.832,0,0,1,1.384.443,1.421,1.421,0,0,1,.415,1V-2.18a10.469,10.469,0,0,0,.194,2.1,4.351,4.351,0,0,0,.651,1.606,2.97,2.97,0,0,0,1.246,1.024,4.852,4.852,0,0,0,2.007.36,4.84,4.84,0,0,0,1.966-.346,2.927,2.927,0,0,0,1.232-1A3.918,3.918,0,0,0,36.814-.02,12.529,12.529,0,0,0,36.98-2.18V-12.424a1.513,1.513,0,0,1,.388-.969,1.754,1.754,0,0,1,1.412-.471,1.832,1.832,0,0,1,1.384.443,1.421,1.421,0,0,1,.415,1V-.463a6.11,6.11,0,0,1-.651,2.893,6.322,6.322,0,0,1-1.716,2.063,7.225,7.225,0,0,1-2.436,1.232,9.945,9.945,0,0,1-2.81.4,9.849,9.849,0,0,1-2.782-.4,7.529,7.529,0,0,1-2.45-1.218,6.408,6.408,0,0,1-1.758-2.049A5.966,5.966,0,0,1,25.3-.463Zm23.533.664a3.729,3.729,0,0,1,.1-.941,1.007,1.007,0,0,1,.346-.554,1.509,1.509,0,0,1,.706-.263,8.128,8.128,0,0,1,1.177-.069h4.18a14.253,14.253,0,0,1,2.893.263,5.215,5.215,0,0,1,2.1.9,3.906,3.906,0,0,1,1.274,1.7,7.111,7.111,0,0,1,.429,2.644,5.5,5.5,0,0,1-1.094,3.682,5.275,5.275,0,0,1-2.948,1.689L57.44-2.6a5.508,5.508,0,0,1-.581.083l5.426,5.343A1.857,1.857,0,0,1,62.866,4.1a1.654,1.654,0,0,1-.526,1.274,2.028,2.028,0,0,1-1.329.609,1.52,1.52,0,0,1-1.246-.415L52.429-2.152v6.7a1.377,1.377,0,0,1-.443,1,1.933,1.933,0,0,1-1.412.443,1.675,1.675,0,0,1-1.357-.471,1.513,1.513,0,0,1-.388-.969Zm3.6,6.229h2.907a4.469,4.469,0,0,0,2.312-.484,2.216,2.216,0,0,0,.789-2.035,2.529,2.529,0,0,0-.249-1.19,1.862,1.862,0,0,0-.678-.734,2.784,2.784,0,0,0-1-.36,6.982,6.982,0,0,0-1.177-.1H52.429Zm17.885-6.229a3.729,3.729,0,0,1,.1-.941,1.007,1.007,0,0,1,.346-.554,1.509,1.509,0,0,1,.706-.263,8.129,8.129,0,0,1,1.177-.069h4.18a14.253,14.253,0,0,1,2.893.263,5.215,5.215,0,0,1,2.1.9,3.906,3.906,0,0,1,1.274,1.7,7.112,7.112,0,0,1,.429,2.644,5.5,5.5,0,0,1-1.094,3.682,5.275,5.275,0,0,1-2.948,1.689l-.554.111a5.508,5.508,0,0,1-.581.083l5.426,5.343A1.857,1.857,0,0,1,84.35,4.1a1.654,1.654,0,0,1-.526,1.274,2.028,2.028,0,0,1-1.329.609,1.52,1.52,0,0,1-1.246-.415L73.913-2.152v6.7a1.377,1.377,0,0,1-.443,1,1.933,1.933,0,0,1-1.412.443A1.675,1.675,0,0,1,70.7,5.517a1.513,1.513,0,0,1-.388-.969Zm3.6,6.229h2.907a4.47,4.47,0,0,0,2.312-.484,2.216,2.216,0,0,0,.789-2.035,2.53,2.53,0,0,0-.249-1.19,1.862,1.862,0,0,0-.678-.734,2.784,2.784,0,0,0-1-.36,6.982,6.982,0,0,0-1.177-.1H73.913ZM95.4,4.215a1.841,1.841,0,0,1-.429,1.329,1.882,1.882,0,0,1-1.4.443,1.783,1.783,0,0,1-1.37-.443,1.878,1.878,0,0,1-.4-1.3V-12.091a1.566,1.566,0,0,1,1.772-1.772,2.085,2.085,0,0,1,1.357.388,1.675,1.675,0,0,1,.471,1.357Zm17.691,2.049a10.6,10.6,0,0,1-3.862-.692,8.628,8.628,0,0,1-3.087-2.021A9.217,9.217,0,0,1,104.117.326a11.683,11.683,0,0,1-.692-4.305,12.582,12.582,0,0,1,.734-4.291,9.57,9.57,0,0,1,1.91-3.184,8.132,8.132,0,0,1,2.852-1.993,9.09,9.09,0,0,1,3.558-.692,8.514,8.514,0,0,1,2.492.346,8.406,8.406,0,0,1,1.966.858,5.254,5.254,0,0,1,1.3,1.08,2.1,2.1,0,0,1,.526.983,1.181,1.181,0,0,1-.042.609q-.1.249-.152.36a1.545,1.545,0,0,1-.3.332,1.641,1.641,0,0,1-.526.3,1.056,1.056,0,0,1-.969-.028q-.471-.249-1.052-.623a9.882,9.882,0,0,0-1.37-.72,4.861,4.861,0,0,0-1.952-.346,4.469,4.469,0,0,0-2.312.6,5.362,5.362,0,0,0-1.689,1.564A7.155,7.155,0,0,0,107.37-6.6a9.832,9.832,0,0,0-.346,2.616,9.122,9.122,0,0,0,.388,2.644A7.092,7.092,0,0,0,108.561.949a5.664,5.664,0,0,0,1.9,1.592,5.363,5.363,0,0,0,2.63.568,6.278,6.278,0,0,0,1.357-.18,5.288,5.288,0,0,0,1.024-.374,5.609,5.609,0,0,0,.8-.484q.36-.263.72-.54a1.283,1.283,0,0,1,1.357-.194,1.517,1.517,0,0,1,.858.692,1.589,1.589,0,0,1,.166.914,2.294,2.294,0,0,1-.5.9,5.35,5.35,0,0,1-1.246,1.107,8.171,8.171,0,0,1-1.952.927A8.072,8.072,0,0,1,113.087,6.264Zm18.438-4.928L130.308,4.52a2.674,2.674,0,0,1-.692,1.066,1.878,1.878,0,0,1-1.3.4,1.946,1.946,0,0,1-1.37-.471q-.512-.471-.125-1.606l5.7-16.639a1.6,1.6,0,0,1,.6-.789,1.992,1.992,0,0,1,1.232-.346,1.992,1.992,0,0,1,1.232.346,1.6,1.6,0,0,1,.6.789l5.759,16.694a1.411,1.411,0,0,1-.18,1.537,1.912,1.912,0,0,1-1.37.484,1.689,1.689,0,0,1-1.274-.374,2.712,2.712,0,0,1-.637-.955l-1.329-3.322Zm4.956-3.128L134.35-8.658l-2.132,6.866Zm16.777,6.34a1.421,1.421,0,0,1-.415,1,1.832,1.832,0,0,1-1.384.443,1.766,1.766,0,0,1-1.384-.471,1.459,1.459,0,0,1-.415-.969v-17.11a1.548,1.548,0,0,1,.277-.9q.277-.4,1.274-.4a1.245,1.245,0,0,1,.9.332,5.516,5.516,0,0,1,.6.664L161.454-1.1V-12.424a1.459,1.459,0,0,1,.415-.969,1.766,1.766,0,0,1,1.384-.471,1.832,1.832,0,0,1,1.384.443,1.421,1.421,0,0,1,.415,1V4.741a1.443,1.443,0,0,1-.277.858q-.277.388-1.246.388a1.345,1.345,0,0,1-.927-.332,4.564,4.564,0,0,1-.623-.664L153.259-6.388ZM177.234,2.61h6.7a2.555,2.555,0,0,1,1.5.332,1.438,1.438,0,0,1,.443,1.218,1.438,1.438,0,0,1-.443,1.218,2.555,2.555,0,0,1-1.5.332h-8.527a2.3,2.3,0,0,1-1.3-.318,1.355,1.355,0,0,1-.471-1.2V-12.064a1.4,1.4,0,0,1,.443-1.19,2.2,2.2,0,0,1,1.329-.332h8.555a1.8,1.8,0,0,1,1.2.346,1.6,1.6,0,0,1,.429,1.2,1.383,1.383,0,0,1-.415,1.2,1.981,1.981,0,0,1-1.246.346h-6.7v4.679h6.423a1.8,1.8,0,0,1,1.274.374,1.614,1.614,0,0,1,.388,1.2,1.516,1.516,0,0,1-.388,1.177,1.894,1.894,0,0,1-1.274.346h-6.423Z" transform="translate(94.354 471.058)" fill="#7f4823"/>
    </g>
  </g>
</svg>
