<svg xmlns="http://www.w3.org/2000/svg" xmlns:xlink="http://www.w3.org/1999/xlink" width="184.772" height="121.212" viewBox="0 0 184.772 121.212">
  <defs>
    <linearGradient id="linear-gradient" x1="0.5" x2="0.5" y2="1" gradientUnits="objectBoundingBox">
      <stop offset="0" stop-color="#f9e74c"/>
      <stop offset="1" stop-color="#eb9c37"/>
    </linearGradient>
    <filter id="路径_56493">
      <feOffset dy="3" input="SourceAlpha"/>
      <feGaussianBlur stdDeviation="1" result="blur"/>
      <feFlood flood-color="#f2c340" result="color"/>
      <feComposite operator="out" in="SourceGraphic" in2="blur"/>
      <feComposite operator="in" in="color"/>
      <feComposite operator="in" in2="SourceGraphic"/>
    </filter>
  </defs>
  <g id="组_24958" data-name="组 24958" transform="translate(-95.454 -343.61)">
    <g id="组_24957" data-name="组 24957" transform="translate(0 -12.5)">
      <path id="路径_56496" data-name="路径 56496" d="M13.115-12.424a1.545,1.545,0,0,1,.374-.969,1.709,1.709,0,0,1,1.4-.471,1.882,1.882,0,0,1,1.4.443,1.4,1.4,0,0,1,.429,1V4.548a1.4,1.4,0,0,1-.4.983,1.9,1.9,0,0,1-1.37.457,1.713,1.713,0,0,1-1.4-.457,1.484,1.484,0,0,1-.429-.983v-7.2H4.7v7.2a1.4,1.4,0,0,1-.4.983,1.9,1.9,0,0,1-1.37.457,1.713,1.713,0,0,1-1.4-.457A1.484,1.484,0,0,1,1.1,4.548V-12.424a1.436,1.436,0,0,1,.429-.969,1.813,1.813,0,0,1,1.4-.471,1.783,1.783,0,0,1,1.37.443,1.446,1.446,0,0,1,.4,1v6.672h8.416Zm12.182,0a1.459,1.459,0,0,1,.415-.969,1.766,1.766,0,0,1,1.384-.471,1.832,1.832,0,0,1,1.384.443,1.421,1.421,0,0,1,.415,1V-2.18a10.469,10.469,0,0,0,.194,2.1,4.351,4.351,0,0,0,.651,1.606,2.97,2.97,0,0,0,1.246,1.024,4.852,4.852,0,0,0,2.007.36,4.84,4.84,0,0,0,1.966-.346,2.927,2.927,0,0,0,1.232-1A3.918,3.918,0,0,0,36.814-.02,12.529,12.529,0,0,0,36.98-2.18V-12.424a1.513,1.513,0,0,1,.388-.969,1.754,1.754,0,0,1,1.412-.471,1.832,1.832,0,0,1,1.384.443,1.421,1.421,0,0,1,.415,1V-.463a6.11,6.11,0,0,1-.651,2.893,6.322,6.322,0,0,1-1.716,2.063,7.225,7.225,0,0,1-2.436,1.232,9.945,9.945,0,0,1-2.81.4,9.849,9.849,0,0,1-2.782-.4,7.529,7.529,0,0,1-2.45-1.218,6.408,6.408,0,0,1-1.758-2.049A5.966,5.966,0,0,1,25.3-.463Zm23.533.664a3.729,3.729,0,0,1,.1-.941,1.007,1.007,0,0,1,.346-.554,1.509,1.509,0,0,1,.706-.263,8.128,8.128,0,0,1,1.177-.069h4.18a14.253,14.253,0,0,1,2.893.263,5.215,5.215,0,0,1,2.1.9,3.906,3.906,0,0,1,1.274,1.7,7.111,7.111,0,0,1,.429,2.644,5.5,5.5,0,0,1-1.094,3.682,5.275,5.275,0,0,1-2.948,1.689L57.44-2.6a5.508,5.508,0,0,1-.581.083l5.426,5.343A1.857,1.857,0,0,1,62.866,4.1a1.654,1.654,0,0,1-.526,1.274,2.028,2.028,0,0,1-1.329.609,1.52,1.52,0,0,1-1.246-.415L52.429-2.152v6.7a1.377,1.377,0,0,1-.443,1,1.933,1.933,0,0,1-1.412.443,1.675,1.675,0,0,1-1.357-.471,1.513,1.513,0,0,1-.388-.969Zm3.6,6.229h2.907a4.469,4.469,0,0,0,2.312-.484,2.216,2.216,0,0,0,.789-2.035,2.529,2.529,0,0,0-.249-1.19,1.862,1.862,0,0,0-.678-.734,2.784,2.784,0,0,0-1-.36,6.982,6.982,0,0,0-1.177-.1H52.429Zm17.885-6.229a3.729,3.729,0,0,1,.1-.941,1.007,1.007,0,0,1,.346-.554,1.509,1.509,0,0,1,.706-.263,8.129,8.129,0,0,1,1.177-.069h4.18a14.253,14.253,0,0,1,2.893.263,5.215,5.215,0,0,1,2.1.9,3.906,3.906,0,0,1,1.274,1.7,7.112,7.112,0,0,1,.429,2.644,5.5,5.5,0,0,1-1.094,3.682,5.275,5.275,0,0,1-2.948,1.689l-.554.111a5.508,5.508,0,0,1-.581.083l5.426,5.343A1.857,1.857,0,0,1,84.35,4.1a1.654,1.654,0,0,1-.526,1.274,2.028,2.028,0,0,1-1.329.609,1.52,1.52,0,0,1-1.246-.415L73.913-2.152v6.7a1.377,1.377,0,0,1-.443,1,1.933,1.933,0,0,1-1.412.443A1.675,1.675,0,0,1,70.7,5.517a1.513,1.513,0,0,1-.388-.969Zm3.6,6.229h2.907a4.47,4.47,0,0,0,2.312-.484,2.216,2.216,0,0,0,.789-2.035,2.53,2.53,0,0,0-.249-1.19,1.862,1.862,0,0,0-.678-.734,2.784,2.784,0,0,0-1-.36,6.982,6.982,0,0,0-1.177-.1H73.913ZM95.4,4.215a1.841,1.841,0,0,1-.429,1.329,1.882,1.882,0,0,1-1.4.443,1.783,1.783,0,0,1-1.37-.443,1.878,1.878,0,0,1-.4-1.3V-12.091a1.566,1.566,0,0,1,1.772-1.772,2.085,2.085,0,0,1,1.357.388,1.675,1.675,0,0,1,.471,1.357Zm17.691,2.049a10.6,10.6,0,0,1-3.862-.692,8.628,8.628,0,0,1-3.087-2.021A9.217,9.217,0,0,1,104.117.326a11.683,11.683,0,0,1-.692-4.305,12.582,12.582,0,0,1,.734-4.291,9.57,9.57,0,0,1,1.91-3.184,8.132,8.132,0,0,1,2.852-1.993,9.09,9.09,0,0,1,3.558-.692,8.514,8.514,0,0,1,2.492.346,8.406,8.406,0,0,1,1.966.858,5.254,5.254,0,0,1,1.3,1.08,2.1,2.1,0,0,1,.526.983,1.181,1.181,0,0,1-.042.609q-.1.249-.152.36a1.545,1.545,0,0,1-.3.332,1.641,1.641,0,0,1-.526.3,1.056,1.056,0,0,1-.969-.028q-.471-.249-1.052-.623a9.882,9.882,0,0,0-1.37-.72,4.861,4.861,0,0,0-1.952-.346,4.469,4.469,0,0,0-2.312.6,5.362,5.362,0,0,0-1.689,1.564A7.155,7.155,0,0,0,107.37-6.6a9.832,9.832,0,0,0-.346,2.616,9.122,9.122,0,0,0,.388,2.644A7.092,7.092,0,0,0,108.561.949a5.664,5.664,0,0,0,1.9,1.592,5.363,5.363,0,0,0,2.63.568,6.278,6.278,0,0,0,1.357-.18,5.288,5.288,0,0,0,1.024-.374,5.609,5.609,0,0,0,.8-.484q.36-.263.72-.54a1.283,1.283,0,0,1,1.357-.194,1.517,1.517,0,0,1,.858.692,1.589,1.589,0,0,1,.166.914,2.294,2.294,0,0,1-.5.9,5.35,5.35,0,0,1-1.246,1.107,8.171,8.171,0,0,1-1.952.927A8.072,8.072,0,0,1,113.087,6.264Zm18.438-4.928L130.308,4.52a2.674,2.674,0,0,1-.692,1.066,1.878,1.878,0,0,1-1.3.4,1.946,1.946,0,0,1-1.37-.471q-.512-.471-.125-1.606l5.7-16.639a1.6,1.6,0,0,1,.6-.789,1.992,1.992,0,0,1,1.232-.346,1.992,1.992,0,0,1,1.232.346,1.6,1.6,0,0,1,.6.789l5.759,16.694a1.411,1.411,0,0,1-.18,1.537,1.912,1.912,0,0,1-1.37.484,1.689,1.689,0,0,1-1.274-.374,2.712,2.712,0,0,1-.637-.955l-1.329-3.322Zm4.956-3.128L134.35-8.658l-2.132,6.866Zm16.777,6.34a1.421,1.421,0,0,1-.415,1,1.832,1.832,0,0,1-1.384.443,1.766,1.766,0,0,1-1.384-.471,1.459,1.459,0,0,1-.415-.969v-17.11a1.548,1.548,0,0,1,.277-.9q.277-.4,1.274-.4a1.245,1.245,0,0,1,.9.332,5.516,5.516,0,0,1,.6.664L161.454-1.1V-12.424a1.459,1.459,0,0,1,.415-.969,1.766,1.766,0,0,1,1.384-.471,1.832,1.832,0,0,1,1.384.443,1.421,1.421,0,0,1,.415,1V4.741a1.443,1.443,0,0,1-.277.858q-.277.388-1.246.388a1.345,1.345,0,0,1-.927-.332,4.564,4.564,0,0,1-.623-.664L153.259-6.388ZM177.234,2.61h6.7a2.555,2.555,0,0,1,1.5.332,1.438,1.438,0,0,1,.443,1.218,1.438,1.438,0,0,1-.443,1.218,2.555,2.555,0,0,1-1.5.332h-8.527a2.3,2.3,0,0,1-1.3-.318,1.355,1.355,0,0,1-.471-1.2V-12.064a1.4,1.4,0,0,1,.443-1.19,2.2,2.2,0,0,1,1.329-.332h8.555a1.8,1.8,0,0,1,1.2.346,1.6,1.6,0,0,1,.429,1.2,1.383,1.383,0,0,1-.415,1.2,1.981,1.981,0,0,1-1.246.346h-6.7v4.679h6.423a1.8,1.8,0,0,1,1.274.374,1.614,1.614,0,0,1,.388,1.2,1.516,1.516,0,0,1-.388,1.177,1.894,1.894,0,0,1-1.274.346h-6.423Z" transform="translate(94.354 471.058)" fill="#7f4823"/>
      <g id="组_25113" data-name="组 25113" transform="translate(-4137.803 -3560.819)">
        <g data-type="innerShadowGroup">
          <g id="路径_56493-2" data-name="路径 56493" transform="translate(4187.986 3815.967)" opacity="0.2" fill="url(#linear-gradient)">
            <path d="M 146.5185699462891 179.9577484130859 C 146.5180969238281 179.9577484130859 146.5180358886719 179.9577484130859 146.5175628662109 179.9577484130859 C 144.4380340576172 179.9576721191406 142.3552703857422 179.6805572509766 140.3271331787109 179.1341094970703 L 115.4417114257812 172.4756927490234 C 112.3416519165039 171.6564636230469 109.4978713989258 170.2518310546875 106.9878540039062 168.3004150390625 C 104.5662994384766 166.4177856445312 102.5554885864258 164.1082000732422 101.0112609863281 161.4358673095703 C 99.46192169189453 158.7546691894531 98.46200561523438 155.8469390869141 98.039306640625 152.7934265136719 C 97.60195159912109 149.6340789794922 97.80570983886719 146.4609985351562 98.64492034912109 143.3623657226562 L 105.1020278930664 119.1484680175781 C 105.7902603149414 116.5439224243164 106.8996505737305 114.1034774780273 108.3996887207031 111.8938217163086 C 109.849250793457 109.7585220336914 111.6331100463867 107.8809967041016 113.7016830444336 106.3134231567383 C 115.7495040893555 104.761589050293 118.0204162597656 103.5552673339844 120.4513549804688 102.7279891967773 C 122.9209823608398 101.8875350952148 125.4903182983398 101.4613876342773 128.0880126953125 101.4613876342773 C 130.1702117919922 101.4613876342773 132.2545166015625 101.7385101318359 134.2830352783203 102.2850646972656 L 159.1683807373047 108.9435119628906 L 159.2318725585938 108.9605026245117 L 159.232421875 108.9605026245117 C 162.3226776123047 109.7858734130859 165.1601715087891 111.1938247680664 167.6665802001953 113.1457595825195 C 170.1030578613281 115.0432205200195 172.1219940185547 117.3688354492188 173.6672821044922 120.0580139160156 C 175.2050323486328 122.7340469360352 176.1934814453125 125.6309356689453 176.6051483154297 128.6682281494141 C 177.0316467285156 131.8149261474609 176.8166198730469 134.972900390625 175.9660034179688 138.0544281005859 L 169.5081481933594 162.2707061767578 C 168.8065338134766 164.874755859375 167.6881561279297 167.3158264160156 166.1844024658203 169.5248413085938 C 164.7300262451172 171.6613464355469 162.9452362060547 173.5391235351562 160.8796691894531 175.1060180664062 C 158.8334197998047 176.6582489013672 156.566162109375 177.8645629882812 154.1408843994141 178.6914367675781 C 151.6764678955078 179.5316619873047 149.1116943359375 179.9577484130859 146.5185699462891 179.9577484130859 Z" stroke="none"/>
            <path d="M 128.0868377685547 101.9613800048828 C 125.5442962646484 101.9613800048828 123.0293121337891 102.3785858154297 120.6117858886719 103.2014007568359 C 118.2317504882812 104.0114440917969 116.0083465576172 105.1926422119141 114.0033264160156 106.712158203125 C 111.9783020019531 108.2468109130859 110.2321014404297 110.0847625732422 108.8132171630859 112.1749267578125 C 107.3450469970703 114.3377075195312 106.2591552734375 116.7265625 105.5851440429688 119.2773132324219 L 99.12753295898438 143.4930725097656 C 98.30598449707031 146.5264587402344 98.10649108886719 149.6324920654297 98.53457641601562 152.7248687744141 C 98.94837951660156 155.7140655517578 99.92730712890625 158.5606994628906 101.4441680908203 161.1856994628906 C 102.9559478759766 163.8018951416016 104.9243621826172 166.0628356933594 107.2947235107422 167.9056701660156 C 109.7513122558594 169.8155517578125 112.5348358154297 171.1903686523438 115.5709381103516 171.99267578125 L 140.4571990966797 178.6513366699219 C 142.4432678222656 179.1864318847656 144.4822692871094 179.457763671875 146.5175476074219 179.457763671875 C 149.0561828613281 179.457763671875 151.5667419433594 179.0406494140625 153.9795379638672 178.2179870605469 C 156.3540954589844 177.4083862304688 158.573974609375 176.2272644042969 160.5774841308594 174.7074890136719 C 162.599853515625 173.1734008789062 164.3472290039062 171.3350219726562 165.7710876464844 169.243408203125 C 167.2433319091797 167.0807189941406 168.3383331298828 164.6905822753906 169.0250244140625 162.1418609619141 L 175.4840087890625 137.92138671875 C 176.3165588378906 134.9053649902344 176.5270385742188 131.8147430419922 176.1096801757812 128.7353973388672 C 175.7067260742188 125.7624969482422 174.7391357421875 122.9268188476562 173.2337646484375 120.30712890625 C 171.7209167480469 117.6744232177734 169.7444763183594 115.397705078125 167.3593444824219 113.5402374267578 C 164.9231262207031 111.6429901123047 162.167236328125 110.270751953125 159.1664886474609 109.4604949951172 L 159.1661376953125 109.4604949951172 L 159.0391387939453 109.4265289306641 L 134.1529693603516 102.7678527832031 C 132.1672058105469 102.2328186035156 130.1266326904297 101.9614868164062 128.0873718261719 101.9613800048828 L 128.0868377685547 101.9613800048828 M 128.0879974365234 100.9613800048828 C 130.1769104003906 100.9614868164062 132.3009490966797 101.2332000732422 134.4131164550781 101.8022918701172 L 159.2977294921875 108.4604949951172 C 172.2781372070312 111.8905792236328 180.012451171875 125.2744445800781 176.4479675292969 138.1874694824219 L 169.9912719726562 162.3995361328125 C 166.4939880371094 175.3798217773438 153.1774597167969 183.1141662597656 140.1970520019531 179.6168975830078 L 115.3124694824219 172.9587097167969 C 102.3321533203125 169.5285186767578 94.66500854492188 156.1447143554688 98.16230773925781 143.2316589355469 L 104.6189117431641 119.0196380615234 C 107.4907531738281 108.1513977050781 117.3394470214844 100.9608612060547 128.0879974365234 100.9613800048828 Z" stroke="none"/>
          </g>
          <g transform="matrix(1, 0, 0, 1, 4233.26, 3916.93)" filter="url(#路径_56493)">
            <g id="路径_56493-3" data-name="路径 56493" transform="translate(-45.27 -100.96)" fill="#fff" opacity="0.2">
              <path d="M 146.5185699462891 179.9577484130859 C 146.5180969238281 179.9577484130859 146.5180358886719 179.9577484130859 146.5175628662109 179.9577484130859 C 144.4380340576172 179.9576721191406 142.3552703857422 179.6805572509766 140.3271331787109 179.1341094970703 L 115.4417114257812 172.4756927490234 C 112.3416519165039 171.6564636230469 109.4978713989258 170.2518310546875 106.9878540039062 168.3004150390625 C 104.5662994384766 166.4177856445312 102.5554885864258 164.1082000732422 101.0112609863281 161.4358673095703 C 99.46192169189453 158.7546691894531 98.46200561523438 155.8469390869141 98.039306640625 152.7934265136719 C 97.60195159912109 149.6340789794922 97.80570983886719 146.4609985351562 98.64492034912109 143.3623657226562 L 105.1020278930664 119.1484680175781 C 105.7902603149414 116.5439224243164 106.8996505737305 114.1034774780273 108.3996887207031 111.8938217163086 C 109.849250793457 109.7585220336914 111.6331100463867 107.8809967041016 113.7016830444336 106.3134231567383 C 115.7495040893555 104.761589050293 118.0204162597656 103.5552673339844 120.4513549804688 102.7279891967773 C 122.9209823608398 101.8875350952148 125.4903182983398 101.4613876342773 128.0880126953125 101.4613876342773 C 130.1702117919922 101.4613876342773 132.2545166015625 101.7385101318359 134.2830352783203 102.2850646972656 L 159.1683807373047 108.9435119628906 L 159.2318725585938 108.9605026245117 L 159.232421875 108.9605026245117 C 162.3226776123047 109.7858734130859 165.1601715087891 111.1938247680664 167.6665802001953 113.1457595825195 C 170.1030578613281 115.0432205200195 172.1219940185547 117.3688354492188 173.6672821044922 120.0580139160156 C 175.2050323486328 122.7340469360352 176.1934814453125 125.6309356689453 176.6051483154297 128.6682281494141 C 177.0316467285156 131.8149261474609 176.8166198730469 134.972900390625 175.9660034179688 138.0544281005859 L 169.5081481933594 162.2707061767578 C 168.8065338134766 164.874755859375 167.6881561279297 167.3158264160156 166.1844024658203 169.5248413085938 C 164.7300262451172 171.6613464355469 162.9452362060547 173.5391235351562 160.8796691894531 175.1060180664062 C 158.8334197998047 176.6582489013672 156.566162109375 177.8645629882812 154.1408843994141 178.6914367675781 C 151.6764678955078 179.5316619873047 149.1116943359375 179.9577484130859 146.5185699462891 179.9577484130859 Z" stroke="none"/>
              <path d="M 128.0868377685547 101.9613800048828 C 125.5442962646484 101.9613800048828 123.0293121337891 102.3785858154297 120.6117858886719 103.2014007568359 C 118.2317504882812 104.0114440917969 116.0083465576172 105.1926422119141 114.0033264160156 106.712158203125 C 111.9783020019531 108.2468109130859 110.2321014404297 110.0847625732422 108.8132171630859 112.1749267578125 C 107.3450469970703 114.3377075195312 106.2591552734375 116.7265625 105.5851440429688 119.2773132324219 L 99.12753295898438 143.4930725097656 C 98.30598449707031 146.5264587402344 98.10649108886719 149.6324920654297 98.53457641601562 152.7248687744141 C 98.94837951660156 155.7140655517578 99.92730712890625 158.5606994628906 101.4441680908203 161.1856994628906 C 102.9559478759766 163.8018951416016 104.9243621826172 166.0628356933594 107.2947235107422 167.9056701660156 C 109.7513122558594 169.8155517578125 112.5348358154297 171.1903686523438 115.5709381103516 171.99267578125 L 140.4571990966797 178.6513366699219 C 142.4432678222656 179.1864318847656 144.4822692871094 179.457763671875 146.5175476074219 179.457763671875 C 149.0561828613281 179.457763671875 151.5667419433594 179.0406494140625 153.9795379638672 178.2179870605469 C 156.3540954589844 177.4083862304688 158.573974609375 176.2272644042969 160.5774841308594 174.7074890136719 C 162.599853515625 173.1734008789062 164.3472290039062 171.3350219726562 165.7710876464844 169.243408203125 C 167.2433319091797 167.0807189941406 168.3383331298828 164.6905822753906 169.0250244140625 162.1418609619141 L 175.4840087890625 137.92138671875 C 176.3165588378906 134.9053649902344 176.5270385742188 131.8147430419922 176.1096801757812 128.7353973388672 C 175.7067260742188 125.7624969482422 174.7391357421875 122.9268188476562 173.2337646484375 120.30712890625 C 171.7209167480469 117.6744232177734 169.7444763183594 115.397705078125 167.3593444824219 113.5402374267578 C 164.9231262207031 111.6429901123047 162.167236328125 110.270751953125 159.1664886474609 109.4604949951172 L 159.1661376953125 109.4604949951172 L 159.0391387939453 109.4265289306641 L 134.1529693603516 102.7678527832031 C 132.1672058105469 102.2328186035156 130.1266326904297 101.9614868164062 128.0873718261719 101.9613800048828 L 128.0868377685547 101.9613800048828 M 128.0879974365234 100.9613800048828 C 130.1769104003906 100.9614868164062 132.3009490966797 101.2332000732422 134.4131164550781 101.8022918701172 L 159.2977294921875 108.4604949951172 C 172.2781372070312 111.8905792236328 180.012451171875 125.2744445800781 176.4479675292969 138.1874694824219 L 169.9912719726562 162.3995361328125 C 166.4939880371094 175.3798217773438 153.1774597167969 183.1141662597656 140.1970520019531 179.6168975830078 L 115.3124694824219 172.9587097167969 C 102.3321533203125 169.5285186767578 94.66500854492188 156.1447143554688 98.16230773925781 143.2316589355469 L 104.6189117431641 119.0196380615234 C 107.4907531738281 108.1513977050781 117.3394470214844 100.9608612060547 128.0879974365234 100.9613800048828 Z" stroke="none"/>
            </g>
          </g>
          <g id="路径_56493-4" data-name="路径 56493" transform="translate(4187.986 3815.967)" fill="none" opacity="0.2">
            <path d="M 146.5185699462891 179.9577484130859 C 146.5180969238281 179.9577484130859 146.5180358886719 179.9577484130859 146.5175628662109 179.9577484130859 C 144.4380340576172 179.9576721191406 142.3552703857422 179.6805572509766 140.3271331787109 179.1341094970703 L 115.4417114257812 172.4756927490234 C 112.3416519165039 171.6564636230469 109.4978713989258 170.2518310546875 106.9878540039062 168.3004150390625 C 104.5662994384766 166.4177856445312 102.5554885864258 164.1082000732422 101.0112609863281 161.4358673095703 C 99.46192169189453 158.7546691894531 98.46200561523438 155.8469390869141 98.039306640625 152.7934265136719 C 97.60195159912109 149.6340789794922 97.80570983886719 146.4609985351562 98.64492034912109 143.3623657226562 L 105.1020278930664 119.1484680175781 C 105.7902603149414 116.5439224243164 106.8996505737305 114.1034774780273 108.3996887207031 111.8938217163086 C 109.849250793457 109.7585220336914 111.6331100463867 107.8809967041016 113.7016830444336 106.3134231567383 C 115.7495040893555 104.761589050293 118.0204162597656 103.5552673339844 120.4513549804688 102.7279891967773 C 122.9209823608398 101.8875350952148 125.4903182983398 101.4613876342773 128.0880126953125 101.4613876342773 C 130.1702117919922 101.4613876342773 132.2545166015625 101.7385101318359 134.2830352783203 102.2850646972656 L 159.1683807373047 108.9435119628906 L 159.2318725585938 108.9605026245117 L 159.232421875 108.9605026245117 C 162.3226776123047 109.7858734130859 165.1601715087891 111.1938247680664 167.6665802001953 113.1457595825195 C 170.1030578613281 115.0432205200195 172.1219940185547 117.3688354492188 173.6672821044922 120.0580139160156 C 175.2050323486328 122.7340469360352 176.1934814453125 125.6309356689453 176.6051483154297 128.6682281494141 C 177.0316467285156 131.8149261474609 176.8166198730469 134.972900390625 175.9660034179688 138.0544281005859 L 169.5081481933594 162.2707061767578 C 168.8065338134766 164.874755859375 167.6881561279297 167.3158264160156 166.1844024658203 169.5248413085938 C 164.7300262451172 171.6613464355469 162.9452362060547 173.5391235351562 160.8796691894531 175.1060180664062 C 158.8334197998047 176.6582489013672 156.566162109375 177.8645629882812 154.1408843994141 178.6914367675781 C 151.6764678955078 179.5316619873047 149.1116943359375 179.9577484130859 146.5185699462891 179.9577484130859 Z" stroke="none"/>
            <path d="M 128.0868377685547 101.9613800048828 C 125.5442962646484 101.9613800048828 123.0293121337891 102.3785858154297 120.6117858886719 103.2014007568359 C 118.2317504882812 104.0114440917969 116.0083465576172 105.1926422119141 114.0033264160156 106.712158203125 C 111.9783020019531 108.2468109130859 110.2321014404297 110.0847625732422 108.8132171630859 112.1749267578125 C 107.3450469970703 114.3377075195312 106.2591552734375 116.7265625 105.5851440429688 119.2773132324219 L 99.12753295898438 143.4930725097656 C 98.30598449707031 146.5264587402344 98.10649108886719 149.6324920654297 98.53457641601562 152.7248687744141 C 98.94837951660156 155.7140655517578 99.92730712890625 158.5606994628906 101.4441680908203 161.1856994628906 C 102.9559478759766 163.8018951416016 104.9243621826172 166.0628356933594 107.2947235107422 167.9056701660156 C 109.7513122558594 169.8155517578125 112.5348358154297 171.1903686523438 115.5709381103516 171.99267578125 L 140.4571990966797 178.6513366699219 C 142.4432678222656 179.1864318847656 144.4822692871094 179.457763671875 146.5175476074219 179.457763671875 C 149.0561828613281 179.457763671875 151.5667419433594 179.0406494140625 153.9795379638672 178.2179870605469 C 156.3540954589844 177.4083862304688 158.573974609375 176.2272644042969 160.5774841308594 174.7074890136719 C 162.599853515625 173.1734008789062 164.3472290039062 171.3350219726562 165.7710876464844 169.243408203125 C 167.2433319091797 167.0807189941406 168.3383331298828 164.6905822753906 169.0250244140625 162.1418609619141 L 175.4840087890625 137.92138671875 C 176.3165588378906 134.9053649902344 176.5270385742188 131.8147430419922 176.1096801757812 128.7353973388672 C 175.7067260742188 125.7624969482422 174.7391357421875 122.9268188476562 173.2337646484375 120.30712890625 C 171.7209167480469 117.6744232177734 169.7444763183594 115.397705078125 167.3593444824219 113.5402374267578 C 164.9231262207031 111.6429901123047 162.167236328125 110.270751953125 159.1664886474609 109.4604949951172 L 159.1661376953125 109.4604949951172 L 159.0391387939453 109.4265289306641 L 134.1529693603516 102.7678527832031 C 132.1672058105469 102.2328186035156 130.1266326904297 101.9614868164062 128.0873718261719 101.9613800048828 L 128.0868377685547 101.9613800048828 M 128.0879974365234 100.9613800048828 C 130.1769104003906 100.9614868164062 132.3009490966797 101.2332000732422 134.4131164550781 101.8022918701172 L 159.2977294921875 108.4604949951172 C 172.2781372070312 111.8905792236328 180.012451171875 125.2744445800781 176.4479675292969 138.1874694824219 L 169.9912719726562 162.3995361328125 C 166.4939880371094 175.3798217773438 153.1774597167969 183.1141662597656 140.1970520019531 179.6168975830078 L 115.3124694824219 172.9587097167969 C 102.3321533203125 169.5285186767578 94.66500854492188 156.1447143554688 98.16230773925781 143.2316589355469 L 104.6189117431641 119.0196380615234 C 107.4907531738281 108.1513977050781 117.3394470214844 100.9608612060547 128.0879974365234 100.9613800048828 Z" stroke="none" fill="#fff041"/>
          </g>
        </g>
        <path id="路径_56494" data-name="路径 56494" d="M205.889,153.78H181.677a22.848,22.848,0,0,0-22.867,22.867v23.54a22.848,22.848,0,0,0,22.867,22.867h24.212a22.848,22.848,0,0,0,22.867-22.867V176.647A22.848,22.848,0,0,0,205.889,153.78Z" transform="translate(4132.248 3768.092)" fill="url(#linear-gradient)"/>
        <path id="路径_59764" data-name="路径 59764" d="M106.88,105.072a26.4,26.4,0,0,1-4.4,3.583A25.373,25.373,0,0,1,97.4,111.2a26.173,26.173,0,0,1-11.216,1.514,25.45,25.45,0,0,1-2.831-.4,25.983,25.983,0,0,1-12.624-6.375c-.087-.082-.178-.159-.265-.241l-.26-.251c-.174-.164-.342-.338-.511-.506-.333-.347-.661-.7-.969-1.071a21.844,21.844,0,0,1-1.712-2.324,21.2,21.2,0,0,1-.366-22.057l.188-.313c.063-.106.13-.207.193-.309.125-.207.265-.405.4-.608.068-.1.14-.2.207-.3l.106-.149c.034-.048.072-.1.106-.145l.217-.294.227-.285.111-.145.116-.14.231-.28.241-.275.121-.135.121-.135.246-.27.251-.26.125-.13.13-.125.265-.256a16.847,16.847,0,0,1,4.87-3.26,17.158,17.158,0,0,1,2.787-.964,17.968,17.968,0,0,1,2.913-.468,17.24,17.24,0,0,1,8.637,1.582l.333.164.169.082c.058.029.111.053.164.082l.651.357c.212.125.424.26.632.386.053.034.106.063.159.1l.154.106.3.212a18.26,18.26,0,0,1,2.281,1.9,14.084,14.084,0,0,1,4.022,7.942,14.327,14.327,0,0,1-.4,6,14.164,14.164,0,0,1-2.864,5.3l-.125.145a.836.836,0,0,1-.063.072l-.063.068-.26.275c-.169.188-.362.362-.545.545-.043.043-.1.087-.145.13l-.145.125-.145.125c-.024.019-.048.043-.072.063l-.077.058-.3.241c-.024.019-.053.039-.077.058l-.077.058-.159.111a11.559,11.559,0,0,1-2.749,1.432,11.7,11.7,0,0,1-3.033.646c-.26.024-.516.029-.776.039-.063,0-.13,0-.193,0l-.193,0-.193,0c-.063,0-.13-.01-.193-.01l-.391-.024-.386-.043c-.063-.01-.13-.014-.193-.024l-.193-.029c-.13-.019-.256-.039-.386-.063-.256-.053-.511-.1-.762-.174l-.188-.048-.1-.024-.092-.029-.371-.116a12.149,12.149,0,0,1-1.447-.593l-.174-.087c-.058-.029-.116-.063-.174-.092l-.338-.188-.333-.2-.169-.1c-.053-.034-.106-.072-.164-.111L79.3,96.46c-.106-.077-.207-.159-.313-.236L78.83,96.1a1.87,1.87,0,0,1-.149-.125l-.3-.251c-.1-.087-.193-.178-.285-.265s-.188-.178-.285-.275-.188-.193-.275-.289l-.265-.3a9.916,9.916,0,0,1-.921-1.316l-.1-.174c-.034-.058-.068-.116-.1-.178l-.178-.362c-.058-.121-.111-.246-.164-.366-.029-.063-.053-.125-.077-.188l-.072-.188a10.115,10.115,0,0,1-.439-1.548,9.4,9.4,0,0,1-.174-1.6,10.026,10.026,0,0,1,.092-1.611,9.83,9.83,0,0,1,.979-3.067,10.374,10.374,0,0,1,.863-1.369l.125-.159.063-.082.063-.077.26-.309.275-.294a1.021,1.021,0,0,1,.072-.072l.077-.072.149-.145a8.058,8.058,0,0,1,9.374-1.162,8.079,8.079,0,0,1,1.384.964c.111.092.207.188.313.285l.077.072.077.077.154.159c.053.053.1.111.145.164s.1.111.14.169c.092.116.183.231.265.352a6.291,6.291,0,0,1,.463.752c.068.13.135.26.193.4.029.068.063.135.087.2l.077.207c.029.068.048.14.072.207s.048.14.068.212c.039.14.082.285.111.429a6.711,6.711,0,0,1,.14.873,6.813,6.813,0,0,1-.588,3.453l-.1.2-.048.1-.053.1-.106.193-.116.188-.058.1-.063.092-.125.183-.135.178-.068.087-.072.087-.145.169c-.048.058-.1.106-.149.164-.1.106-.212.217-.323.323a5.712,5.712,0,0,1-.743.569,5.433,5.433,0,0,1-.825.444,5.839,5.839,0,0,1-.887.3,5.986,5.986,0,0,1-.926.154,5.513,5.513,0,0,1-.936,0,5.45,5.45,0,0,1-.926-.149,5.384,5.384,0,0,1-.892-.3,5.844,5.844,0,0,1-1.582-1.008l-.169-.159c-.029-.024-.058-.058-.087-.087L81,91.068a4.763,4.763,0,0,1-.844-1.239,4.944,4.944,0,0,1-.473-1.943,4.927,4.927,0,0,1,1.427-3.655l.01-.01a1.511,1.511,0,1,1,2.146,2.127l-.019.019a1.939,1.939,0,0,0-.583,1.427,1.936,1.936,0,0,0,.174.772,1.641,1.641,0,0,0,.2.342,1.947,1.947,0,0,0,.125.154l.034.039a.291.291,0,0,0,.039.039l.082.082a2.9,2.9,0,0,0,.767.506,2.624,2.624,0,0,0,.439.154,2.941,2.941,0,0,0,.458.082,2.527,2.527,0,0,0,.468,0,3.063,3.063,0,0,0,.463-.068,2.977,2.977,0,0,0,.444-.145,2.583,2.583,0,0,0,.415-.212,3.452,3.452,0,0,0,.376-.28c.058-.053.116-.106.174-.169.029-.034.063-.063.092-.092l.087-.1c.014-.014.029-.034.043-.048l.039-.053.082-.1.072-.106.039-.053.034-.053.068-.111.063-.111.034-.058.029-.058.058-.116a4,4,0,0,0-.313-3.964c-.048-.072-.1-.14-.154-.212-.024-.034-.058-.068-.082-.1s-.053-.068-.087-.1l-.092-.1a.454.454,0,0,0-.048-.048l-.053-.048c-.068-.063-.135-.135-.207-.193a5.2,5.2,0,0,0-.907-.651,5.317,5.317,0,0,0-2.127-.675,5.452,5.452,0,0,0-2.228.246,5.284,5.284,0,0,0-1.939,1.133l-.106.1-.053.048-.053.053-.207.212-.2.227c-.014.019-.034.039-.048.058l-.048.058-.092.116a8,8,0,0,0-.651.993,7.172,7.172,0,0,0-.839,3.443,7.016,7.016,0,0,0,.111,1.191,7.309,7.309,0,0,0,.309,1.157l.053.14c.019.048.034.1.053.14l.116.275.13.27c.019.043.048.087.072.13l.072.13a7.662,7.662,0,0,0,.675.993l.193.231c.068.077.135.149.2.222s.145.145.217.217.149.145.227.217a9.328,9.328,0,0,0,4.393,2.237l.309.058.154.029c.053.01.1.014.154.019l.309.039.313.024c.053,0,.106.01.154.01l.154,0,.154,0c.053,0,.106,0,.154,0,.207,0,.42,0,.627-.019a9.514,9.514,0,0,0,2.454-.487,9.287,9.287,0,0,0,2.237-1.128l.13-.087.063-.043.063-.048.251-.193.063-.048a.709.709,0,0,1,.063-.048l.121-.1.121-.1c.039-.034.082-.068.121-.106.154-.145.309-.28.458-.444l.227-.231.058-.058a.72.72,0,0,0,.053-.063l.106-.121a12.1,12.1,0,0,0,2.5-4.475,12.141,12.141,0,0,0-1.35-9.982,12.165,12.165,0,0,0-1.615-2.04,16.266,16.266,0,0,0-2.011-1.722l-.27-.193-.135-.1c-.043-.034-.092-.058-.14-.092-.188-.116-.371-.236-.559-.352l-.579-.328c-.048-.029-.1-.053-.145-.077l-.149-.072-.294-.149a15.555,15.555,0,0,0-7.744-1.529,15.273,15.273,0,0,0-5.169,1.225A15.548,15.548,0,0,0,73.4,74.422,15.792,15.792,0,0,0,71.3,76.072l-.246.231-.121.116-.121.121-.236.241-.231.246-.116.125-.111.125-.227.251-.217.26-.111.13-.106.13-.212.265-.207.27c-.034.043-.068.092-.1.135l-.1.135c-.068.092-.135.183-.2.275-.125.188-.26.371-.381.559-.063.1-.125.188-.183.285l-.178.289a19.736,19.736,0,0,0-2.141,4.967,20,20,0,0,0-.718,5.372,19.885,19.885,0,0,0,2.946,10.363,20.5,20.5,0,0,0,1.591,2.223c.289.352.593.694.907,1.027.159.164.313.328.477.492l.246.241c.082.082.169.159.251.236a24.995,24.995,0,0,0,9.4,5.589,26.483,26.483,0,0,0,2.667.714,24.867,24.867,0,0,0,2.729.42,25.3,25.3,0,0,0,10.913-1.326,25.81,25.81,0,0,0,2.561-1.066,24.869,24.869,0,0,0,2.43-1.345,25.58,25.58,0,0,0,4.35-3.443.255.255,0,0,1,.366,0,.231.231,0,0,1,.01.342Z" transform="translate(4240.689 3865.177)" fill="#fff"/>
      </g>
    </g>
  </g>
</svg>
