<svg xmlns="http://www.w3.org/2000/svg" xmlns:xlink="http://www.w3.org/1999/xlink" width="26" height="26" viewBox="0 0 26 26">
  <defs>
    <clipPath id="clip-path">
      <rect id="矩形_3464" data-name="矩形 3464" width="26" height="26" transform="translate(8 8)" fill="rgba(255,255,255,0)"/>
    </clipPath>
    <linearGradient id="linear-gradient" x1="0.346" x2="0.567" y2="0.967" gradientUnits="objectBoundingBox">
      <stop offset="0" stop-color="#1ff7fd"/>
      <stop offset="0.491" stop-color="#b33bf6"/>
      <stop offset="0.846" stop-color="#ff844c"/>
      <stop offset="1" stop-color="#ff844b"/>
    </linearGradient>
  </defs>
  <g id="蒙版组_576" data-name="蒙版组 576" transform="translate(-8 -8)" clip-path="url(#clip-path)">
    <path id="路径_60309" data-name="路径 60309" d="M87.959,89.779a14.822,14.822,0,0,1-2.469,2.012,14.247,14.247,0,0,1-2.854,1.427,14.7,14.7,0,0,1-6.3.85,14.289,14.289,0,0,1-1.589-.222,14.589,14.589,0,0,1-7.088-3.579c-.049-.046-.1-.089-.149-.135l-.146-.141c-.1-.092-.192-.19-.287-.284-.187-.195-.371-.393-.544-.6a12.265,12.265,0,0,1-.961-1.305,11.9,11.9,0,0,1-.206-12.384l.106-.176c.035-.06.073-.116.108-.173.07-.116.149-.227.225-.341.038-.057.079-.111.116-.168l.06-.084c.019-.027.041-.054.06-.081l.122-.165.127-.16.062-.081.065-.079.13-.157.135-.154.068-.076.068-.076.138-.152.141-.146.07-.073.073-.07.149-.144a9.46,9.46,0,0,1,2.735-1.83,9.634,9.634,0,0,1,1.565-.542,10.088,10.088,0,0,1,1.635-.263,9.68,9.68,0,0,1,4.849.888l.187.092.095.046c.032.016.062.03.092.046l.366.2c.119.07.238.146.355.217l.089.054.087.06.171.119A10.251,10.251,0,0,1,80.9,73.014a7.908,7.908,0,0,1,2.258,4.459,8.045,8.045,0,0,1-.222,3.368,7.953,7.953,0,0,1-1.608,2.978l-.07.081a.472.472,0,0,1-.035.041l-.035.038-.146.154c-.095.106-.2.2-.306.306-.024.024-.054.049-.081.073l-.081.07-.081.07-.041.035-.043.032-.171.135-.043.033-.043.032-.089.062a6.49,6.49,0,0,1-1.543.8,6.57,6.57,0,0,1-1.7.363c-.146.014-.29.016-.436.022-.035,0-.073,0-.108,0l-.108,0-.108,0c-.035,0-.073-.005-.108-.005l-.219-.014-.217-.024c-.035-.005-.073-.008-.108-.014l-.108-.016c-.073-.011-.144-.022-.217-.035-.144-.03-.287-.057-.428-.1l-.106-.027-.054-.014-.051-.016-.208-.065a6.821,6.821,0,0,1-.812-.333l-.1-.049-.1-.051-.19-.106-.187-.114-.095-.057c-.03-.019-.06-.041-.092-.062l-.181-.125c-.06-.043-.116-.089-.176-.133l-.087-.068a1.049,1.049,0,0,1-.084-.07l-.168-.141c-.054-.049-.108-.1-.16-.149s-.106-.1-.16-.154-.106-.108-.154-.162l-.149-.171a5.568,5.568,0,0,1-.517-.739l-.057-.1c-.019-.032-.038-.065-.054-.1l-.1-.2c-.032-.068-.062-.138-.092-.206-.016-.035-.03-.07-.043-.106l-.041-.106a5.678,5.678,0,0,1-.246-.869,5.278,5.278,0,0,1-.1-.9,5.629,5.629,0,0,1,.051-.9,5.519,5.519,0,0,1,.55-1.722,5.825,5.825,0,0,1,.485-.769l.07-.089.035-.046L71.313,77l.146-.173.154-.165a.568.568,0,0,1,.041-.041l.043-.041.084-.081a4.524,4.524,0,0,1,5.263-.653,4.537,4.537,0,0,1,.777.542c.062.051.116.106.176.16l.043.041.043.043.087.089c.03.03.054.062.081.092s.054.062.079.095c.051.065.1.13.149.2a3.531,3.531,0,0,1,.26.422c.038.073.076.146.108.225.016.038.035.076.049.114l.043.116c.016.038.027.079.041.116s.027.079.038.119c.022.079.046.16.062.241a3.767,3.767,0,0,1,.079.49,3.826,3.826,0,0,1-.33,1.939L78.775,81l-.027.057-.03.054-.06.108-.065.106-.032.054-.035.051-.07.1-.076.1-.038.049-.041.049-.081.095c-.027.032-.057.06-.084.092-.054.06-.119.122-.181.181a3.207,3.207,0,0,1-.417.319,3.051,3.051,0,0,1-.463.249,3.278,3.278,0,0,1-.5.171,3.361,3.361,0,0,1-.52.087,3.1,3.1,0,0,1-.525,0,3.059,3.059,0,0,1-.52-.084,3.023,3.023,0,0,1-.5-.168,3.281,3.281,0,0,1-.888-.566l-.095-.089c-.016-.014-.032-.032-.049-.049l-.049-.051a2.674,2.674,0,0,1-.474-.7,2.776,2.776,0,0,1-.265-1.091,2.767,2.767,0,0,1,.8-2.052l.005-.005a.848.848,0,1,1,1.2,1.194l-.011.011a1.089,1.089,0,0,0-.328.8,1.087,1.087,0,0,0,.1.433.921.921,0,0,0,.114.192,1.088,1.088,0,0,0,.07.087l.019.022a.163.163,0,0,0,.022.022l.046.046a1.629,1.629,0,0,0,.43.284,1.473,1.473,0,0,0,.246.087,1.653,1.653,0,0,0,.257.046,1.42,1.42,0,0,0,.263,0,1.72,1.72,0,0,0,.26-.038,1.672,1.672,0,0,0,.249-.081,1.451,1.451,0,0,0,.233-.119,1.936,1.936,0,0,0,.211-.157c.033-.03.065-.06.1-.095.016-.019.035-.035.051-.051l.049-.054.024-.027.022-.03.046-.057.041-.06.022-.03.019-.03.038-.062.035-.062.019-.033.016-.032.032-.065a2.245,2.245,0,0,0-.176-2.226c-.027-.041-.057-.079-.087-.119-.014-.019-.032-.038-.046-.057s-.03-.038-.049-.057l-.051-.054a.255.255,0,0,0-.027-.027l-.03-.027c-.038-.035-.076-.076-.116-.108a2.917,2.917,0,0,0-.509-.366,2.985,2.985,0,0,0-1.194-.379,3.061,3.061,0,0,0-1.251.138,2.967,2.967,0,0,0-1.088.636l-.06.054-.03.027-.03.03-.116.119-.111.127c-.008.011-.019.022-.027.032l-.027.032-.051.065a4.491,4.491,0,0,0-.366.558,4.027,4.027,0,0,0-.471,1.933,3.939,3.939,0,0,0,.062.669,4.1,4.1,0,0,0,.173.65l.03.079c.011.027.019.054.03.079l.065.154.073.152c.011.024.027.049.041.073l.041.073a4.3,4.3,0,0,0,.379.558l.108.13c.038.043.076.084.114.125s.081.081.122.122l.127.122a5.237,5.237,0,0,0,2.467,1.256l.173.032.087.016c.03.005.057.008.087.011l.173.022.176.014c.03,0,.06.005.087.005l.087,0,.087,0,.087,0c.116,0,.236,0,.352-.011a5.342,5.342,0,0,0,1.378-.273,5.214,5.214,0,0,0,1.256-.634l.073-.049.035-.024.035-.027.141-.108.035-.027a.4.4,0,0,1,.035-.027l.068-.057.068-.057c.022-.019.046-.038.068-.06.087-.081.173-.157.257-.249l.127-.13.032-.032a.4.4,0,0,0,.03-.035l.06-.068a6.792,6.792,0,0,0,1.4-2.513,6.817,6.817,0,0,0-.758-5.6,6.83,6.83,0,0,0-.907-1.145,9.132,9.132,0,0,0-1.129-.967l-.152-.108-.076-.054c-.024-.019-.051-.032-.079-.051-.106-.065-.208-.133-.314-.2l-.325-.184c-.027-.016-.054-.03-.081-.043L77.9,72.12l-.165-.084a8.733,8.733,0,0,0-4.348-.858,8.575,8.575,0,0,0-2.9.688,8.731,8.731,0,0,0-1.324.7,8.867,8.867,0,0,0-1.183.926l-.138.13-.068.065-.068.068-.133.135-.13.138-.065.07-.062.07-.127.141-.122.146-.062.073-.06.073-.119.149-.116.152-.057.076-.057.076c-.038.051-.076.1-.111.154-.07.106-.146.208-.214.314-.035.054-.07.106-.1.16l-.1.162a11.081,11.081,0,0,0-1.2,2.789,11.232,11.232,0,0,0-.4,3.016,11.165,11.165,0,0,0,1.654,5.819,11.514,11.514,0,0,0,.893,1.248c.162.2.333.39.509.577.089.092.176.184.268.276l.138.135c.046.046.095.089.141.133a14.034,14.034,0,0,0,5.28,3.138,14.87,14.87,0,0,0,1.5.4,13.959,13.959,0,0,0,1.532.236,14.205,14.205,0,0,0,6.127-.745,14.492,14.492,0,0,0,1.438-.6,13.963,13.963,0,0,0,1.365-.755,14.364,14.364,0,0,0,2.442-1.933.143.143,0,0,1,.206,0,.129.129,0,0,1,.005.192Z" transform="translate(-54.866 -61.158)" fill="url(#linear-gradient)"/>
  </g>
</svg>
