<svg xmlns="http://www.w3.org/2000/svg" xmlns:xlink="http://www.w3.org/1999/xlink" width="19" height="19" viewBox="0 0 19 19">
  <defs>
    <clipPath id="clip-path">
      <rect id="矩形_3686" data-name="矩形 3686" width="19" height="19" transform="translate(7224 1475)" fill="#fff" stroke="#707070" stroke-width="1"/>
    </clipPath>
  </defs>
  <g id="蒙版组_650" data-name="蒙版组 650" transform="translate(-7224 -1475)" clip-path="url(#clip-path)">
    <g id="组_25533" data-name="组 25533">
      <path id="路径_60677" data-name="路径 60677" d="M18,9A9,9,0,1,1,9,0,9,9,0,0,1,18,9Z" transform="translate(7224.5 1475.321)" fill="#1296db"/>
      <g id="组_25532" data-name="组 25532" transform="translate(7148.994 1413.966)">
        <path id="路径_60678" data-name="路径 60678" d="M420.984,685.666a1.575,1.575,0,0,0,1.5-1.091.089.089,0,0,0-.162-.073s-.242.392-1.18.519a3.01,3.01,0,0,1-.406.028,1.535,1.535,0,0,1-.952-.25.092.092,0,0,0-.118,0,.091.091,0,0,0-.018.117A1.6,1.6,0,0,0,420.984,685.666Z" transform="translate(-336.421 -611.414)" fill="#fff"/>
        <path id="路径_60679" data-name="路径 60679" d="M88.689,69.017a4.55,4.55,0,0,0-8.541-.023,1.1,1.1,0,0,0-.107-.107,4.436,4.436,0,0,1,8.749-.031A.962.962,0,0,0,88.689,69.017Zm.911-.571h-.024a5.286,5.286,0,0,0-10.364.2.994.994,0,0,0-.813.981v1.967a.993.993,0,0,0,.988,1,.977.977,0,0,0,.76-.368A4.584,4.584,0,0,0,82.6,74.8a.583.583,0,0,1,.049-.08c.018-.023.038-.042.055-.042a.084.084,0,0,1,.048.016,4.447,4.447,0,0,1-1.406-2.581,1.2,1.2,0,0,1,.9-1.313c.857-.159,1.71-.341,2.567-.5a1.476,1.476,0,0,0,1.145-.9,2.311,2.311,0,0,0,.166-.691.1.1,0,0,1,.189-.045l.024-.014a6.1,6.1,0,0,1,1.1,2.722A3.239,3.239,0,0,1,86.49,74.5l0,0a.084.084,0,0,0-.023.056.079.079,0,0,0,.037.066l.025.011.02,0a.039.039,0,0,0,.018,0l.042-.024A4.584,4.584,0,0,0,88.755,72a1.019,1.019,0,0,0,.637.426,4.476,4.476,0,0,1-4.279,3.322.874.874,0,0,0-.812-.543.853.853,0,1,0,.828,1.112,5.033,5.033,0,0,0,4.861-3.948,1,1,0,0,0,.622-.929V69.454A1.007,1.007,0,0,0,89.6,68.446Z" fill="#fff"/>
      </g>
    </g>
  </g>
</svg>
