<svg xmlns="http://www.w3.org/2000/svg" xmlns:xlink="http://www.w3.org/1999/xlink" width="32" height="32" viewBox="0 0 32 32">
  <defs>
    <clipPath id="clip-path">
      <rect id="矩形_3688" data-name="矩形 3688" width="32" height="32" transform="translate(6459.05 4401.283)" fill="#fff" stroke="#707070" stroke-width="1"/>
    </clipPath>
  </defs>
  <g id="蒙版组_651" data-name="蒙版组 651" transform="translate(-6459.05 -4401.283)" clip-path="url(#clip-path)">
    <g id="组_25250" data-name="组 25250" transform="translate(6461.05 4401.283)">
      <path id="路径_60282" data-name="路径 60282" d="M143.393,79.246c0,4.6-6.109,9.309-12.874,12.409a2.653,2.653,0,0,1-2.166.016c-5.616-2.49-12.845-7.837-12.845-12.425V66.116a2.456,2.456,0,0,1,2.38-2.393,20.43,20.43,0,0,0,10.1-3.385,2.7,2.7,0,0,1,2.923-.027,22.5,22.5,0,0,0,10.168,3.31,2.455,2.455,0,0,1,2.317,2.389V79.246Z" transform="translate(-115.507 -59.894)" fill="#4058e2"/>
      <path id="路径_60283" data-name="路径 60283" d="M188.859,118.147c0,4.038-5.357,8.166-11.29,10.882a2.333,2.333,0,0,1-1.9.014c-4.926-2.184-11.265-6.873-11.265-10.9V106.632a2.154,2.154,0,0,1,2.087-2.1,17.906,17.906,0,0,0,8.854-2.97,2.361,2.361,0,0,1,2.564-.023,19.713,19.713,0,0,0,8.917,2.9,2.154,2.154,0,0,1,2.033,2.094Z" transform="translate(-162.686 -99.724)" fill="#5565e9"/>
      <path id="路径_60284" data-name="路径 60284" d="M220.325,154.766c0,3.517-4.836,7.11-10.194,9.476a2.17,2.17,0,0,1-1.715.013c-4.446-1.9-10.17-5.985-10.17-9.489V144.738a1.912,1.912,0,0,1,1.884-1.828,16.584,16.584,0,0,0,7.995-2.585,2.2,2.2,0,0,1,2.316-.02,18.28,18.28,0,0,0,8.051,2.528,1.907,1.907,0,0,1,1.836,1.825v10.109Z" transform="translate(-195.341 -137.172)" fill="#6675fe"/>
      <path id="路径_60285" data-name="路径 60285" d="M248.983,186.8c0,3.013-4.362,6.091-9.194,8.119a2.059,2.059,0,0,1-1.548.011c-4.011-1.629-9.172-5.127-9.172-8.13v-8.59a1.683,1.683,0,0,1,1.7-1.566,15.524,15.524,0,0,0,7.209-2.215,2.073,2.073,0,0,1,2.087-.018,17.1,17.1,0,0,0,7.261,2.165,1.677,1.677,0,0,1,1.656,1.562V186.8Z" transform="translate(-225.081 -170.129)" fill="#7084fc"/>
      <path id="路径_60286" data-name="路径 60286" d="M347.5,234.719a6.1,6.1,0,1,0-6.771.813v5.419a2.787,2.787,0,1,0,5.573,0v-.674h.9a2.787,2.787,0,0,0,.3-5.557Zm-3.986-5.147a.53.53,0,1,1-.53.53A.53.53,0,0,1,343.51,229.571Z" transform="translate(-329.616 -218.238)" fill="#4058e2"/>
      <path id="路径_60287" data-name="路径 60287" d="M374.315,262.813h-1.886v-.8a5.115,5.115,0,1,0-3.6,0v6.059a1.8,1.8,0,1,0,3.6,0v-1.663h1.886a1.8,1.8,0,1,0,0-3.594Zm-3.684-7.109a1.519,1.519,0,1,1-1.519,1.519A1.521,1.521,0,0,1,370.632,255.7Z" transform="translate(-356.738 -245.359)" fill="#f9b900"/>
      <path id="路径_60288" data-name="路径 60288" d="M394.076,283.342h-2.6V281.3a4.4,4.4,0,1,0-2.157,0v6.585a1.079,1.079,0,0,0,2.157,0V285.5h2.6a1.079,1.079,0,1,0,0-2.157Zm-5.922-6.309a2.238,2.238,0,1,1,2.238,2.238A2.241,2.241,0,0,1,388.154,277.034Z" transform="translate(-376.499 -265.17)" fill="#f9c633"/>
      <path id="路径_60289" data-name="路径 60289" d="M411.367,301.213h-3.234v-3.2a3.766,3.766,0,1,0-.9,0v7.109a.449.449,0,1,0,.9,0V302.11h3.234a.449.449,0,1,0,0-.9Zm-6.551-6.938a2.868,2.868,0,1,1,2.867,2.868A2.871,2.871,0,0,1,404.816,294.275Z" transform="translate(-393.79 -282.411)" fill="#ffd68d"/>
    </g>
  </g>
</svg>
