<svg xmlns="http://www.w3.org/2000/svg" xmlns:xlink="http://www.w3.org/1999/xlink" width="60" height="60" viewBox="0 0 60 60">
  <defs>
    <clipPath id="clip-path">
      <rect id="矩形_3183" data-name="矩形 3183" width="60" height="60" transform="translate(212 2230)" fill="#fff" stroke="#707070" stroke-width="1"/>
    </clipPath>
    <clipPath id="clip-path-2">
      <rect id="矩形_3182" data-name="矩形 3182" width="39.423" height="39.423" transform="translate(27.876 0) rotate(45)" fill="#262424"/>
    </clipPath>
    <linearGradient id="linear-gradient" x1="0.5" x2="0.5" y2="1" gradientUnits="objectBoundingBox">
      <stop offset="0" stop-color="#23d0fa"/>
      <stop offset="1" stop-color="#12377d"/>
    </linearGradient>
  </defs>
  <g id="蒙版组_68" data-name="蒙版组 68" transform="translate(-212 -2230)" clip-path="url(#clip-path)">
    <g id="组_24887" data-name="组 24887" transform="translate(213.111 2231.111)">
      <rect id="矩形_3179" data-name="矩形 3179" width="39.423" height="39.423" transform="translate(28.848 0.972) rotate(45)" fill="#032650"/>
      <g id="蒙版组_67" data-name="蒙版组 67" transform="translate(0.971 0.972)" clip-path="url(#clip-path-2)">
        <g id="组_24886" data-name="组 24886" transform="translate(3.313 13.87)">
          <g id="矩形_3180" data-name="矩形 3180" transform="translate(24.563) rotate(45)" fill="#1c2d61" stroke="#354c91" stroke-width="5">
            <rect width="34.737" height="34.737" stroke="none"/>
            <rect x="2.5" y="2.5" width="29.737" height="29.737" fill="none"/>
          </g>
          <rect id="矩形_3181" data-name="矩形 3181" width="14.717" height="14.717" transform="translate(24.563 14.156) rotate(45)" fill="#354c91"/>
        </g>
      </g>
      <path id="路径_56446" data-name="路径 56446" d="M28.848,57.7,23.68,52.527l-1.063.354-7.75-7.75.354-1.063L0,28.848,28.848,0,57.7,28.848,42.764,43.779l.451,1.353-7.751,7.751-1.353-.451L28.848,57.7h0ZM3.444,28.848l25.4,21.75,25.4-21.75-7.694-7.694-2.021.674-7.75-7.75.674-2.021L28.848,3.444l-8.324,8.324.769,2.309-7.75,7.75-2.309-.77Z" fill="url(#linear-gradient)"/>
      <text id="LV5" transform="translate(27.804 35.64)" fill="#fff" font-size="12" font-family="PangMenZhengDao"><tspan x="-14.26" y="0">LV</tspan><tspan y="0" font-size="20">5</tspan></text>
    </g>
  </g>
</svg>
