<svg xmlns="http://www.w3.org/2000/svg" xmlns:xlink="http://www.w3.org/1999/xlink" width="20" height="20" viewBox="0 0 20 20">
  <defs>
    <linearGradient id="linear-gradient" x1="0.5" x2="0.5" y2="1" gradientUnits="objectBoundingBox">
      <stop offset="0" stop-color="#e7b595"/>
      <stop offset="1" stop-color="#df6442"/>
    </linearGradient>
  </defs>
  <g id="组_24952" data-name="组 24952" transform="translate(1171 -5085)">
    <rect id="矩形_92" data-name="矩形 92" width="20" height="20" rx="3" transform="translate(-1171 5085)" fill="url(#linear-gradient)"/>
    <g id="路径_565" data-name="路径 565" transform="translate(-1166.941 5089.355)" fill="#fef9e9">
      <path d="M 5.941355228424072 11.03857707977295 C 5.185535430908203 11.03857707977295 4.570635318756104 10.46043682098389 4.570635318756104 9.749807357788086 L 4.570635318756104 7.183977127075195 L 4.570635318756104 6.933977127075195 L 4.320635318756104 6.933977127075195 L 1.620725274085999 6.933977127075195 C 0.8649052381515503 6.933977127075195 0.2500052154064178 6.355427265167236 0.2500052154064178 5.644287109375 C 0.2500052154064178 4.933146953582764 0.8649052381515503 4.354597091674805 1.620725274085999 4.354597091674805 L 4.320635318756104 4.354597091674805 L 4.570635318756104 4.354597091674805 L 4.570635318756104 4.104597091674805 L 4.570635318756104 1.539687156677246 C 4.570635318756104 0.8285471200942993 5.185535430908203 0.2499971091747284 5.941355228424072 0.2499971091747284 C 6.697175025939941 0.2499971091747284 7.312075138092041 0.8285471200942993 7.312075138092041 1.539687156677246 L 7.312075138092041 4.104597091674805 L 7.312075138092041 4.354597091674805 L 7.562075138092041 4.354597091674805 L 10.26295566558838 4.354597091674805 C 11.01824569702148 4.354597091674805 11.63271522521973 4.933146953582764 11.63271522521973 5.644287109375 C 11.63271522521973 6.355427265167236 11.01824569702148 6.933977127075195 10.26295566558838 6.933977127075195 L 7.562075138092041 6.933977127075195 L 7.312075138092041 6.933977127075195 L 7.312075138092041 7.183977127075195 L 7.312075138092041 9.749807357788086 C 7.312075138092041 10.46043682098389 6.697175025939941 11.03857707977295 5.941355228424072 11.03857707977295 Z" stroke="none"/>
      <path d="M 5.941355228424072 10.78857707977295 C 6.559325218200684 10.78857707977295 7.062075138092041 10.32258701324463 7.062075138092041 9.749807357788086 L 7.062075138092041 6.683977127075195 L 10.26295566558838 6.683977127075195 C 10.88039493560791 6.683977127075195 11.38271522521973 6.21757698059082 11.38271522521973 5.644287109375 C 11.38271522521973 5.07099723815918 10.88039493560791 4.604597091674805 10.26295566558838 4.604597091674805 L 7.062075138092041 4.604597091674805 L 7.062075138092041 1.539687156677246 C 7.062075138092041 0.9663971066474915 6.559325218200684 0.4999971091747284 5.941355228424072 0.4999971091747284 C 5.323385238647461 0.4999971091747284 4.820635318756104 0.9663971066474915 4.820635318756104 1.539687156677246 L 4.820635318756104 4.604597091674805 L 1.620725274085999 4.604597091674805 C 1.002755284309387 4.604597091674805 0.5000052452087402 5.07099723815918 0.5000052452087402 5.644287109375 C 0.5000052452087402 6.21757698059082 1.002755284309387 6.683977127075195 1.620725274085999 6.683977127075195 L 4.820635318756104 6.683977127075195 L 4.820635318756104 9.749807357788086 C 4.820635318756104 10.32258701324463 5.323385238647461 10.78857707977295 5.941355228424072 10.78857707977295 M 5.941355228424072 11.28857707977295 C 5.046895027160645 11.28857707977295 4.320635318756104 10.59954738616943 4.320635318756104 9.749807357788086 L 4.320635318756104 7.183977127075195 L 1.620725274085999 7.183977127075195 C 0.7252952456474304 7.183977127075195 5.228424015513156e-06 6.494946956634521 5.228424015513156e-06 5.644287109375 C 5.228424015513156e-06 4.794547080993652 0.7252952456474304 4.104597091674805 1.620725274085999 4.104597091674805 L 4.320635318756104 4.104597091674805 L 4.320635318756104 1.539687156677246 C 4.320635318756104 0.6890271306037903 5.046895027160645 -2.89062495539838e-06 5.941355228424072 -2.89062495539838e-06 C 6.836785316467285 -2.89062495539838e-06 7.562075138092041 0.6890271306037903 7.562075138092041 1.539687156677246 L 7.562075138092041 4.104597091674805 L 10.26295566558838 4.104597091674805 C 11.15742492675781 4.104597091674805 11.88271522521973 4.794547080993652 11.88271522521973 5.644287109375 C 11.88271522521973 6.494946956634521 11.15742492675781 7.183977127075195 10.26295566558838 7.183977127075195 L 7.562075138092041 7.183977127075195 L 7.562075138092041 9.749807357788086 C 7.562075138092041 10.59954738616943 6.836785316467285 11.28857707977295 5.941355228424072 11.28857707977295 Z" stroke="none" fill="#d86f56"/>
    </g>
  </g>
</svg>
