<svg xmlns="http://www.w3.org/2000/svg" width="69.907" height="25.833" viewBox="0 0 69.907 25.833">
  <g id="组_25111" data-name="组 25111" transform="translate(-3291 -923)">
    <path id="路径_59761" data-name="路径 59761" d="M-722.349,144.832h-21.039V128.321h21.039c.171,0,.345.005.518.016a1.2,1.2,0,0,0,.492-.434,1.2,1.2,0,0,0,.189-.647,1.2,1.2,0,0,0-1.2-1.2h-21.039V119h21.039a8.2,8.2,0,0,1,3.214.649,8.229,8.229,0,0,1,2.624,1.769,8.229,8.229,0,0,1,1.769,2.624,8.2,8.2,0,0,1,.649,3.213,8.21,8.21,0,0,1-1.44,4.661,8.211,8.211,0,0,1,1.44,4.66,8.2,8.2,0,0,1-.649,3.214,8.229,8.229,0,0,1-1.769,2.624,8.228,8.228,0,0,1-2.624,1.769A8.2,8.2,0,0,1-722.349,144.832Zm-14.5-9.87V138.4h14.49a1.721,1.721,0,0,0,1.719-1.719,1.721,1.721,0,0,0-1.719-1.719Zm-8.8,9.87h-7.057V119h7.057Zm-17.31,0H-784V128.321h21.039c.171,0,.345.005.517.016a1.2,1.2,0,0,0,.491-.434,1.194,1.194,0,0,0,.19-.647,1.2,1.2,0,0,0-1.2-1.2h-13.049V119h13.049a8.2,8.2,0,0,1,3.214.649,8.228,8.228,0,0,1,2.624,1.769,8.229,8.229,0,0,1,1.769,2.624,8.2,8.2,0,0,1,.649,3.213,8.207,8.207,0,0,1-1.44,4.661,8.208,8.208,0,0,1,1.44,4.66,8.2,8.2,0,0,1-.649,3.214,8.229,8.229,0,0,1-1.769,2.624,8.228,8.228,0,0,1-2.624,1.769A8.2,8.2,0,0,1-762.961,144.832Zm-14.163-9.87h0V138.4h14.49a1.721,1.721,0,0,0,1.719-1.719,1.721,1.721,0,0,0-1.719-1.719Z" transform="translate(4075 804)" fill="#fff"/>
    <g id="组_25104" data-name="组 25104" transform="translate(3291 923)">
      <path id="路径_59760" data-name="路径 59760" d="M119.7,158l-6.023,7.057H68L74.023,158Z" transform="translate(-68 -158)" fill="#b2b2b2"/>
    </g>
  </g>
</svg>
