<svg xmlns="http://www.w3.org/2000/svg" xmlns:xlink="http://www.w3.org/1999/xlink" width="64" height="64" viewBox="0 0 64 64">
  <defs>
    <clipPath id="clip-path">
      <rect id="矩形_3167" data-name="矩形 3167" width="64" height="64" transform="translate(48 525)" fill="#fff" stroke="#707070" stroke-width="1"/>
    </clipPath>
  </defs>
  <g id="蒙版组_60" data-name="蒙版组 60" transform="translate(-48 -525)" clip-path="url(#clip-path)">
    <g id="组_24692" data-name="组 24692" transform="translate(2682.257 -4941.223)">
      <path id="路径_581" data-name="路径 581" d="M132.856,478.735V459.147a3.372,3.372,0,0,0-1.357-.293c-2.254,0-4.086,2.314-4.086,5.16a6.315,6.315,0,0,0,.459,2.38c-.048.093-.09.193-.132.293a3.39,3.39,0,0,0-1.594-.407c-2.091,0-3.812,1.98-4.055,4.534a3.313,3.313,0,0,0-1.251-.247,3.621,3.621,0,0,0-2.656,1.24,3.473,3.473,0,0,0-5.417.12,3.653,3.653,0,0,0-2.761-1.36,3.368,3.368,0,0,0-1.7.467,3.585,3.585,0,0,0-6.288-.113,3.52,3.52,0,0,0-2.365-.953,3.759,3.759,0,0,0-.549.047,4.03,4.03,0,0,0-3.537-2.574,3.3,3.3,0,0,0-.681.073,5.175,5.175,0,0,0-1.753-2.8,7.134,7.134,0,0,0,.042-.76c0-2.76-1.716-5.014-3.875-5.154v19.935Z" transform="translate(-2710.65 5052.428)" fill="#f1ba38"/>
      <path id="路径_582" data-name="路径 582" d="M77.97,515.656h-.215s-4.651,1.1-2.772,5.2h46.036V506.163a3.141,3.141,0,0,0-.794-.1,4.058,4.058,0,0,0-3.59,2.735,3.362,3.362,0,0,0-1.587-.407c-2.081,0-3.795,1.981-4.036,4.536a3.285,3.285,0,0,0-1.246-.247,3.6,3.6,0,0,0-2.644,1.241,3.447,3.447,0,0,0-5.392.12,3.63,3.63,0,0,0-2.749-1.361,3.34,3.34,0,0,0-1.692.467,3.56,3.56,0,0,0-6.259-.113,3.494,3.494,0,0,0-2.355-.954,3.709,3.709,0,0,0-.547.047,4.013,4.013,0,0,0-3.521-2.575,3.264,3.264,0,0,0-.678.073,5.181,5.181,0,0,0-1.745-2.8,7.174,7.174,0,0,0,.042-.76c0-2.848-1.824-5.163-4.068-5.163a2.772,2.772,0,0,0-.41.027s-8.783,5.872,0,14.549.221.18.221.18Z" transform="translate(-2701.102 5010.319)" fill="#f8f1d8"/>
      <path id="路径_584" data-name="路径 584" d="M476.8,527.3h11.348v15.507H476.8Z" transform="translate(-3082.744 4978.389)" fill="#f1ba38"/>
      <path id="路径_585" data-name="路径 585" d="M444.038,527.3s-1.145,11.839-6.095,15.75,25.9,1.2,25.9,1.2-8.452-7.636-8.452-16.948" transform="translate(-3049.983 4978.389)" fill="#f1ba38"/>
      <path id="路径_586" data-name="路径 586" d="M463.419,527.214s-.842,19.048-4.462,23.221,18.942,1.277,18.942,1.277S471.72,537.15,471.72,527.2" transform="translate(-3067.579 4978.472)" fill="#f8f1d8"/>
      <ellipse id="椭圆_14" data-name="椭圆 14" cx="8" cy="7.5" rx="8" ry="7.5" transform="translate(-2608.441 5475.171)" fill="#cd564a"/>
      <path id="路径_587" data-name="路径 587" d="M440.848,443.717c5.287.64,10.068,10.271,10.068,10.271a.512.512,0,0,0,.875-.354V442.673a4.423,4.423,0,0,0-2.307-3.872l-7.711-4.159a.632.632,0,0,0-.926.556Zm-7,0c-5.287.64-10.068,10.271-10.068,10.271a.512.512,0,0,1-.875-.354V442.673a4.423,4.423,0,0,1,2.307-3.872l7.711-4.159a.632.632,0,0,1,.926.556Z" transform="translate(-3037.92 5055.507)" fill="#d75655"/>
      <path id="路径_588" data-name="路径 588" d="M475.6,339.7H462.47a46.4,46.4,0,0,0-1.97,13.958,43.305,43.305,0,0,0,2.61,15.709h11.853a43.236,43.236,0,0,0,2.61-15.709A45.353,45.353,0,0,0,475.6,339.7Zm-6.617,11.6a3.115,3.115,0,1,1,3.115-3.115A3.119,3.119,0,0,1,468.986,351.3Z" transform="translate(-3069.189 5134.403)" fill="#f1f4f1"/>
      <path id="路径_589" data-name="路径 589" d="M478.866,292.9c-2.643,0-5,3.064-6.566,7.88h13.133C483.85,295.964,481.493,292.9,478.866,292.9Z" transform="translate(-3079.002 5173.323)" fill="#cd564a"/>
      <path id="路径_590" data-name="路径 590" d="M507.615,485.863h-1.3a.223.223,0,0,1-.219-.219V466.619a.223.223,0,0,1,.219-.219h1.3a.223.223,0,0,1,.219.219v19.026A.2.2,0,0,1,507.615,485.863Z" transform="translate(-3107.111 5029.035)" fill="#d75655"/>
      <path id="路径_591" data-name="路径 591" d="M463.883,300.78c1.431-4.411,3.536-7.341,5.91-7.812a2.9,2.9,0,0,0-.657-.067c-2.643,0-5,3.064-6.566,7.88a46.394,46.394,0,0,0-1.97,13.958,43.3,43.3,0,0,0,2.61,15.709h1.313a43.236,43.236,0,0,1-2.61-15.709A46.394,46.394,0,0,1,463.883,300.78Z" transform="translate(-3069.272 5173.323)" fill="#f1ba38"/>
      <path id="路径_592" data-name="路径 592" d="M514.523,300.78c-1.566-4.815-3.923-7.88-6.566-7.88a4.346,4.346,0,0,0-.657.067c2.374.455,4.479,3.4,5.91,7.812a46.4,46.4,0,0,1,1.97,13.958,43.3,43.3,0,0,1-2.61,15.709h1.313a43.236,43.236,0,0,0,2.61-15.709A45.353,45.353,0,0,0,514.523,300.78Z" transform="translate(-3108.109 5173.323)" fill="#f1ba38"/>
    </g>
  </g>
</svg>
