<svg xmlns="http://www.w3.org/2000/svg" width="168" height="168" viewBox="0 0 168 168">
    <defs>
        <clipPath id="253wsdb2ta">
            <path data-name="矩形 3679" transform="translate(104 128)" style="fill:#fff;stroke:#707070" d="M0 0h168v168H0z"/>
        </clipPath>
    </defs>
    <g data-name="蒙版组 641" transform="translate(-104 -128)" style="clip-path:url(#253wsdb2ta)">
        <g data-name="组 25506">
            <path data-name="路径 60582" d="M51.2 140.12a83.8 83.8 0 1 0 83.8-83.8 83.8 83.8 0 0 0-83.8 83.8z" transform="translate(52.5 72.08)" style="fill:#f9d67a;opacity:.2"/>
            <g data-name="组 25505">
                <path data-name="路径 60637" d="M364.243 210.756c0 24.478 57.5 44.356-3.286 44.356s-3.286-19.878-3.286-44.356-57.5-44.356 3.286-44.356 3.286 19.878 3.286 44.356z" transform="translate(-172.635 1.444)" style="fill:#f7e6a3"/>
                <path data-name="路径 60638" d="M349.232 245.6c-18.892 0-27.271-1.807-29.078-6.243-1.807-4.271 2.957-9.2 9.2-15.607 6.571-6.736 14.95-15.443 14.95-24.15s-8.378-17.414-15.114-24.314c-6.078-6.243-11.007-11.171-9.2-15.607 1.971-4.271 10.35-6.078 29.242-6.078s27.271 1.807 29.078 6.243c1.807 4.271-2.957 9.2-9.2 15.607-6.571 6.736-14.95 15.443-14.95 24.149s8.378 17.414 15.114 24.314c6.078 6.243 11.007 11.171 9.2 15.607-1.974 4.27-10.349 6.079-29.242 6.079zm0-88.712c-20.207 0-25.3 2.3-26.121 4.271-.986 2.3 3.779 7.228 8.378 11.993 7.064 7.393 16.1 16.428 16.1 26.614s-8.871 19.221-16.1 26.614c-4.6 4.764-9.364 9.693-8.378 11.993.821 1.643 5.914 3.943 26.121 3.943s25.3-2.3 26.121-4.271c.986-2.3-3.778-7.228-8.378-11.993-7.228-7.228-16.1-16.264-16.1-26.449s8.871-19.221 16.1-26.614c4.6-4.764 9.364-9.693 8.378-11.993-.821-1.81-5.914-4.11-26.121-4.11z" transform="translate(-160.911 12.601)" style="fill:#231c1c"/>
                <path data-name="路径 60639" d="M339.441 120.128a3.3 3.3 0 0 1-3.286 3.286h-64.07a3.3 3.3 0 0 1-3.286-3.286v-1.643a3.3 3.3 0 0 1 3.286-3.286h64.07a3.3 3.3 0 0 1 3.286 3.286z" transform="translate(-116.62 46.073)" style="fill:#1399ab"/>
                <path data-name="路径 60640" d="M325 113.9h-64.07a4.841 4.841 0 0 1-4.93-4.929v-1.643a4.841 4.841 0 0 1 4.928-4.928H325a4.841 4.841 0 0 1 4.928 4.928v1.643A4.841 4.841 0 0 1 325 113.9zm-64.07-8.214a1.552 1.552 0 0 0-1.643 1.643v1.643a1.552 1.552 0 0 0 1.643 1.643H325a1.552 1.552 0 0 0 1.643-1.643v-1.643a1.552 1.552 0 0 0-1.643-1.643z" transform="translate(-105.463 57.23)" style="fill:#231c1c"/>
                <path data-name="路径 60641" d="M339.441 849.729a3.3 3.3 0 0 1-3.286 3.286h-64.07a3.3 3.3 0 0 1-3.286-3.286v-1.643a3.3 3.3 0 0 1 3.286-3.286h64.07a3.3 3.3 0 0 1 3.286 3.286z" transform="translate(-116.62 -589.886)" style="fill:#1399ab"/>
                <path data-name="路径 60642" d="M325 843.5h-64.07a4.84 4.84 0 0 1-4.93-4.929v-1.643a4.841 4.841 0 0 1 4.928-4.928H325a4.841 4.841 0 0 1 4.928 4.928v1.643A4.84 4.84 0 0 1 325 843.5zm-64.07-8.214a1.552 1.552 0 0 0-1.643 1.643v1.643a1.552 1.552 0 0 0 1.643 1.643H325a1.552 1.552 0 0 0 1.643-1.643v-1.643a1.552 1.552 0 0 0-1.643-1.643z" transform="translate(-105.463 -578.729)" style="fill:#231c1c"/>
                <path data-name="路径 60643" d="M307.2 179.2h3.286v85.427H307.2z" transform="translate(-150.092 -9.713)" style="fill:#231c1c"/>
                <path data-name="路径 60644" d="M768 179.2h3.286v85.427H768z" transform="translate(-551.75 -9.713)" style="fill:#231c1c"/>
            </g>
        </g>
    </g>
</svg>
