<svg xmlns="http://www.w3.org/2000/svg" width="168" height="168" viewBox="0 0 168 168">
    <defs>
        <clipPath id="jlt62yydna">
            <path data-name="矩形 3679" transform="translate(104 128)" style="fill:#fff;stroke:#707070" d="M0 0h168v168H0z"/>
        </clipPath>
    </defs>
    <g data-name="蒙版组 638" transform="translate(-104 -128)" style="clip-path:url(#jlt62yydna)">
        <path data-name="路径 60582" d="M51.2 140.12a83.8 83.8 0 1 0 83.8-83.8 83.8 83.8 0 0 0-83.8 83.8z" transform="translate(52.5 72.08)" style="fill:#f9d67a;opacity:.2"/>
        <g data-name="组 25481">
            <path data-name="路径 60614" d="m156.106 196.912 81.821-20.4a5.7 5.7 0 0 1 6.875 4.057l14.426 57.7a5.7 5.7 0 0 1-4.057 6.875l-81.933 20.4a5.7 5.7 0 0 1-6.875-4.057l-14.426-57.816a5.708 5.708 0 0 1 4.17-6.762z" transform="translate(-15.49 -12.379)" style="fill:#ff7400"/>
            <path data-name="路径 60615" d="M160.976 256.278a7.8 7.8 0 0 1-3.832-1.014 7.416 7.416 0 0 1-3.381-4.621l-14.313-57.815a7.559 7.559 0 0 1 .789-5.635 7.131 7.131 0 0 1 4.621-3.381l81.821-20.4a7.478 7.478 0 0 1 9.016 5.41l14.426 57.7a7.559 7.559 0 0 1-.789 5.635 7.416 7.416 0 0 1-4.621 3.381l-81.821 20.4a5.724 5.724 0 0 1-1.916.338zm-15.215-68.973a3.93 3.93 0 0 0-2.818 4.621l14.426 57.7A4.048 4.048 0 0 0 159.06 252a3.826 3.826 0 0 0 2.93.451l81.821-20.4a4.048 4.048 0 0 0 2.367-1.691 3.826 3.826 0 0 0 .451-2.93l-14.426-57.7a3.93 3.93 0 0 0-4.621-2.818z" transform="translate(-4.694 -1.082)" style="fill:#333"/>
            <path data-name="路径 60616" d="m121.6 248.649 60.633 11.721L189 226.109 133.772 215.4a5.708 5.708 0 0 0-6.649 4.508z" transform="translate(10.451 -45.859)" style="fill:#ff7400"/>
            <path data-name="路径 60617" d="M174.887 254.552 112 242.267l5.86-29.866a6.688 6.688 0 0 1 7.889-5.3l56.238 10.932zM114.7 240.577l58.5 11.383 6.2-32.12-54.1-10.481a4.509 4.509 0 0 0-5.3 3.606l-5.3 27.612z" transform="translate(18.699 -38.688)" style="fill:#333"/>
            <path data-name="路径 60618" d="m119.086 247.312 81.821-20.4a5.7 5.7 0 0 1 6.875 4.057l14.426 57.7a5.7 5.7 0 0 1-4.057 6.875l-81.821 20.4a5.7 5.7 0 0 1-6.875-4.057l-14.538-57.7a5.681 5.681 0 0 1 4.169-6.875z" transform="translate(16.347 -55.679)" style="fill:#ffb900"/>
            <path data-name="路径 60619" d="M124.176 306.678a7.8 7.8 0 0 1-3.832-1.014 7.416 7.416 0 0 1-3.381-4.621l-14.313-57.815a7.559 7.559 0 0 1 .789-5.635 7.416 7.416 0 0 1 4.621-3.381l81.821-20.4a7.478 7.478 0 0 1 9.016 5.41l14.313 57.815a7.478 7.478 0 0 1-5.41 9.016l-81.821 20.4a8.757 8.757 0 0 1-1.803.225zm67.4-89.484a2.482 2.482 0 0 0-.9.113l-81.821 20.4a3.93 3.93 0 0 0-2.818 4.621l14.426 57.7a4.048 4.048 0 0 0 1.691 2.367 3.826 3.826 0 0 0 2.93.451l81.821-20.4a3.93 3.93 0 0 0 2.818-4.621l-14.426-57.7a3.762 3.762 0 0 0-3.726-2.931z" transform="translate(26.922 -44.382)" style="fill:#333"/>
            <path data-name="路径 60620" d="M178.832 354.41a7.746 7.746 0 0 1-2.7-.563l.9-2.029a4.343 4.343 0 0 0 2.93.225l.789-.225.563 2.141-.789.225a4.381 4.381 0 0 1-1.691.225zm6.762-1.465-.564-2.141 4.4-1.127.563 2.141zm8.791-2.141-.564-2.141 4.4-1.127.564 2.141zm-21.864-.789c-.113-.225-.113-.451-.225-.676l-.9-3.719 2.141-.563.9 3.719c0 .113.113.338.113.451zm30.542-1.465-.564-2.141 4.4-1.127.564 2.141zm8.791-2.141-.563-2.141 4.4-1.127.563 2.141zm8.678-2.141-.564-2.141 4.4-1.127.563 2.141zm8.791-2.254-.563-2.141 4.4-1.127.564 2.141zm-59.055-.789-1.127-4.4 2.141-.564 1.127 4.4zm67.846-1.352-.563-2.141 4.4-1.127.564 2.141zm8.678-2.141-.451-2.254 3.606-.9a.861.861 0 0 0 .564-.225l.9 2.141c-.338.113-.564.225-.9.338l-3.719.9zm8.227-4.959-2.141-.9a4.523 4.523 0 0 0 .338-1.691 3.834 3.834 0 0 0-.113-1.127l-.225-.9 2.141-.564.225.9a8.7 8.7 0 0 1 .225 1.69 5.065 5.065 0 0 1-.451 2.59zm-87-.338-1.127-4.4 2.141-.564 1.127 4.4zm83.849-8.565-1.127-4.4 2.141-.563L254 323.3zm-85.991-.225-1.127-4.4 2.141-.564 1.127 4.4zm83.737-8.565-1.127-4.4 2.141-.564 1.127 4.4zm-85.991-.113-1.127-4.4 2.141-.564 1.127 4.4zm83.849-8.678-1.127-4.4 2.141-.564 1.127 4.4zm-85.991-.113-.451-1.691a8.7 8.7 0 0 1-.225-1.69 6.65 6.65 0 0 1 .225-1.578l2.141.564a3.474 3.474 0 0 0-.113 1.127 3.835 3.835 0 0 0 .113 1.127l.451 1.69zm3.832-7.213-1.127-1.916a4.98 4.98 0 0 1 1.8-.676l4.4-1.127.564 2.141-4.4 1.127a5.493 5.493 0 0 0-1.242.449zm80.017-1.352-1.127-4.4 2.141-.564 1.127 4.4zm-70.1-1.352-.563-2.141 4.4-1.127.564 2.141zm8.791-2.141-.564-2.141 4.4-1.127.563 2.141zm8.791-2.141-.564-2.254 4.4-1.127.564 2.141zm8.678-2.254-.563-2.141 4.4-1.127.564 2.141zm41.587-.9-1.127-4.4 2.141-.564 1.127 4.4zm-32.8-1.24-.563-2.141 4.4-1.127.564 2.141zm8.791-2.141-.568-2.142 4.4-1.127.563 2.141zm8.678-2.254-.564-2.141 4.4-1.127.564 2.141-4.4 1.127zm12.284-1.578a4.681 4.681 0 0 0-3.494-.564l-.563-2.254a6.943 6.943 0 0 1 5.184.789z" transform="translate(-23.226 -100.228)" style="fill:#333"/>
            <path data-name="路径 60621" d="m708.1 385.829-4.053-16.229-17.919 4.508a8.364 8.364 0 1 0 4.057 16.229z" transform="translate(-469.1 -178.418)" style="fill:#ffb900"/>
            <path data-name="路径 60622" d="M677.51 379.307a9.519 9.519 0 0 1-5.184-1.465 9.9 9.9 0 0 1-4.621-6.2 10.112 10.112 0 0 1 1.127-7.664 10.308 10.308 0 0 1 6.2-4.621l19.723-4.959 4.959 19.723-19.723 4.959a20.246 20.246 0 0 1-2.479.225zm14.538-20.624-16.116 4.057a6.742 6.742 0 0 0-4.057 2.93 6.907 6.907 0 0 0-.789 4.959 6.742 6.742 0 0 0 2.93 4.057 6.907 6.907 0 0 0 4.959.789l16.229-4.057z" transform="translate(-458.454 -165.359)" style="fill:#333"/>
            <path data-name="路径 60623" d="M723.2 445.454a2.254 2.254 0 1 0 2.254-2.254 2.254 2.254 0 0 0-2.254 2.254z" transform="translate(-506.398 -241.649)" style="fill:#ff7400"/>
        </g>
    </g>
</svg>
