<svg xmlns="http://www.w3.org/2000/svg" width="168" height="168" viewBox="0 0 168 168">
    <defs>
        <clipPath id="a5byan9lja">
            <path data-name="矩形 3679" transform="translate(104 128)" style="stroke:#707070;fill:#fff" d="M0 0h168v168H0z"/>
        </clipPath>
    </defs>
    <g data-name="蒙版组 640" transform="translate(-104 -128)" style="clip-path:url(#a5byan9lja)">
        <g data-name="组 25477">
            <path data-name="路径 60582" d="M51.2 140.12a83.8 83.8 0 1 0 83.8-83.8 83.8 83.8 0 0 0-83.8 83.8z" transform="translate(52.5 72.08)" style="fill:#f9d67a;opacity:.2"/>
            <path data-name="路径 60583" d="M513.073 617.385h-8.65a1.951 1.951 0 0 1-1.946-1.946v-44.1a1.951 1.951 0 0 1 1.946-1.946h8.65a1.951 1.951 0 0 1 1.946 1.946v44.1a1.951 1.951 0 0 1-1.946 1.946z" transform="translate(-316.709 -347.689)" style="fill:#6295cc"/>
            <path data-name="路径 60584" d="M508.884 614.127h-8.65a2.879 2.879 0 0 1-2.877-2.877v-44.1a2.879 2.879 0 0 1 2.877-2.877h8.65a2.879 2.879 0 0 1 2.877 2.877v44.1a2.885 2.885 0 0 1-2.877 2.877zm-8.65-47.989a1.017 1.017 0 0 0-1.015 1.015v44.1a1.017 1.017 0 0 0 1.015 1.015h8.65a1.017 1.017 0 0 0 1.015-1.015v-44.1a1.017 1.017 0 0 0-1.015-1.015z" transform="translate(-312.52 -343.5)" style="fill:#413d2c"/>
            <path data-name="路径 60585" d="M241.176 271a26.116 26.116 0 0 0-26.136 26.08v42.775h52.26v-42.773A26.1 26.1 0 0 0 241.176 271z" transform="translate(-81.544 -103.56)" style="fill:#f48433"/>
            <path data-name="路径 60586" d="M263.994 336.59h-54.125v-43.7a27.073 27.073 0 0 1 46.23-19.069 26.768 26.768 0 0 1 7.886 19.069v43.7zm-52.263-1.862h50.4v-41.835a25.146 25.146 0 0 0-25.186-25.149 25.206 25.206 0 0 0-25.205 25.149v41.835z" transform="translate(-77.314 -99.371)" style="fill:#413d2c"/>
            <path data-name="路径 60591" d="M418.884 271h-54.34v.056a26.084 26.084 0 0 1 25.084 26.044v42.775h52.263a6.267 6.267 0 0 0 6.276-6.248V300.21A29.261 29.261 0 0 0 418.884 271z" transform="translate(-203.86 -103.56)" style="fill:#fff"/>
            <path data-name="路径 60592" d="M437.693 336.609h-53.185v-43.7a25.08 25.08 0 0 0-24.19-25.112l-.894-.037v-1.825l.931-.056h54.34a30.207 30.207 0 0 1 30.205 30.152v33.408a7.2 7.2 0 0 1-7.207 7.17zm-51.323-1.862h51.33a5.339 5.339 0 0 0 5.345-5.317v-33.408a28.351 28.351 0 0 0-28.345-28.287h-45.55a26.9 26.9 0 0 1 17.22 25.165z" transform="translate(-199.671 -99.371)" style="fill:#413d2c"/>
            <path data-name="路径 60593" d="M640.377 190.669h-20.922a2.088 2.088 0 0 0-2.086 2.086v42.775a3.138 3.138 0 1 0 6.276 0v-34.423h16.732a2.088 2.088 0 0 0 2.086-2.086v-6.276a2.086 2.086 0 0 0-2.086-2.076z" transform="translate(-410.708 -37.836)" style="fill:#f48433"/>
            <path data-name="路径 60594" d="M616.319 235.358a4.073 4.073 0 0 1-4.069-4.069v-42.775a3.017 3.017 0 0 1 3.017-3.017h20.922a3.017 3.017 0 0 1 3.017 3.017v6.276a3.017 3.017 0 0 1-3.017 3.017h-15.8v33.483a4.073 4.073 0 0 1-4.07 4.068zm-1.052-47.989a1.16 1.16 0 0 0-1.155 1.155V231.3a2.207 2.207 0 0 0 4.414 0v-35.355h17.663a1.16 1.16 0 0 0 1.155-1.155v-6.276a1.16 1.16 0 0 0-1.155-1.155h-20.923z" transform="translate(-406.519 -33.606)" style="fill:#413d2c"/>
            <path data-name="路径 60595" d="M750.291 577.645h-4.46a1.951 1.951 0 0 1-1.946-1.946v-4.46a1.951 1.951 0 0 1 1.946-1.946h4.46a1.951 1.951 0 0 1 1.946 1.946v4.46a1.939 1.939 0 0 1-1.946 1.946z" transform="translate(-514.215 -347.605)" style="fill:#f48433"/>
            <path data-name="路径 60596" d="M746.1 574.387h-4.46a2.879 2.879 0 0 1-2.877-2.877v-4.46a2.879 2.879 0 0 1 2.877-2.877h4.46a2.879 2.879 0 0 1 2.877 2.877v4.46a2.879 2.879 0 0 1-2.877 2.877zm-4.46-8.361a1.017 1.017 0 0 0-1.015 1.015v4.46a1.017 1.017 0 0 0 1.015 1.015h4.46a1 1 0 0 0 1.015-1.015v-4.46a1.017 1.017 0 0 0-1.015-1.015z" transform="translate(-510.026 -343.416)" style="fill:#413d2c"/>
            <path data-name="路径 60597" d="m200.338 649.677-3.082 16.695c-1.229 6.918 3.408 12.523 10.326 12.523h27.17a15.616 15.616 0 0 0 14.767-12.523l2.942-16.695z" transform="translate(-66.833 -413.371)" style="fill:#fff"/>
            <path data-name="路径 60598" d="M230.554 675.637h-27.179a11.311 11.311 0 0 1-8.883-3.948 11.633 11.633 0 0 1-2.365-9.674l3.082-16.695a.936.936 0 0 1 .912-.764h52.123a.924.924 0 0 1 .717.335.947.947 0 0 1 .2.763l-2.933 16.695c-1.297 7.329-8.328 13.288-15.674 13.288zm-33.641-29.218-2.942 15.931a9.792 9.792 0 0 0 1.955 8.147 9.482 9.482 0 0 0 7.449 3.278h27.17a14.661 14.661 0 0 0 13.846-11.76l2.747-15.6z" transform="translate(-62.626 -409.182)" style="fill:#413d2c"/>
        </g>
        <g data-name="组 25495">
            <path data-name="路径 60634" d="M17.338 34.675a17.338 17.338 0 1 1 17.337-17.337 17.389 17.389 0 0 1-17.337 17.337z" transform="translate(143.001 189.725)" style="fill:#6295cc"/>
            <path data-name="路径 60633" d="M21.122 42.245a21.122 21.122 0 1 1 21.123-21.123 21.185 21.185 0 0 1-21.123 21.123zm11.829-28.938c-1.056-1.056-1.479-1.056-2.535 0l-12.673 10.35-4.643-4.224a2.677 2.677 0 0 0-3.8 0 2.2 2.2 0 0 0 0 3.38l6.548 5.914a2.58 2.58 0 0 0 1.9.845 2.949 2.949 0 0 0 1.9-.634l13.303-13.307c1.056-1.056 1.056-1.268 0-2.324z" transform="translate(139.578 185.578)" style="stroke:#413d2c;stroke-width:1.5px;fill:#fff"/>
        </g>
    </g>
</svg>
