<svg xmlns="http://www.w3.org/2000/svg" width="18" height="18" viewBox="0 0 18 18">
  <g id="组_24922" data-name="组 24922" transform="translate(-120.5 -745.5)">
    <path id="路径_56457" data-name="路径 56457" d="M18,9A9,9,0,1,1,9,0,9,9,0,0,1,18,9Z" transform="translate(120.5 745.5)" fill="#fff"/>
    <path id="路径_56456" data-name="路径 56456" d="M11.943,13.128,13.42,6.168c.131-.613-.221-.854-.623-.7L4.118,8.809c-.593.231-.582.563-.1.713l2.22.693,5.153-3.244c.241-.161.462-.07.282.091L7.5,10.828l-.161,2.291A.564.564,0,0,0,7.8,12.9L8.88,11.852l2.25,1.657c.412.231.7.111.814-.382ZM18,9A9,9,0,1,1,9,0,9,9,0,0,1,18,9Z" transform="translate(120.5 745.5)" fill="#1296db"/>
  </g>
</svg>
