<svg xmlns="http://www.w3.org/2000/svg" width="26" height="26" viewBox="0 0 26 26">
    <defs>
        <clipPath id="xb5426xowa">
            <path data-name="矩形 3633" transform="translate(6416 3043.178)" style="fill:#fff;stroke:#707070" d="M0 0h26v26H0z"/>
        </clipPath>
    </defs>
    <g data-name="蒙版组 619" transform="translate(-6416 -3043.178)" style="clip-path:url(#xb5426xowa)">
        <g data-name="组 25283">
            <path data-name="路径 60302" d="M64 802.282c0 1.26 5.722 2.282 12.782 2.282s12.782-1.022 12.782-2.282S83.841 800 76.782 800 64 801.022 64 802.282z" transform="translate(6352.219 2263.834)" style="opacity:.5;fill:#286432"/>
            <path data-name="路径 60303" d="M84.149 407.259c-3 5.081-5.328 10.878-4.37 12.538 1.807 3.13 22.422 3.09 24.226 0a4.075 4.075 0 0 0 0-2.683c-4.963-.232-16.142-5.999-19.856-9.855z" transform="translate(6337.103 2645.37)" style="fill:#419646"/>
            <path data-name="路径 60304" d="M521.079 415.3a34.483 34.483 0 0 1-7.827 5.181c4.349 2.365 9.228 4.312 12.068 4.445a39.314 39.314 0 0 0-4.241-9.626z" transform="translate(5915.784 2637.563)" style="fill:#419646"/>
            <path data-name="路径 60305" d="M248.136 111.328c-1.9 0-5.084 3.94-7.743 8.443a34.932 34.932 0 0 0 7.785 5.41A34.483 34.483 0 0 0 256 120c-2.679-4.6-5.937-8.672-7.864-8.672z" transform="translate(6180.859 2932.858)" style="fill:#419646"/>
            <path data-name="路径 60306" d="m96.542 122.1-.068-.293-.039-.169a39.544 39.544 0 0 0-4.138-9.368l-.089-.152-.149-.255a40.747 40.747 0 0 0-4.093-5.841c-1.558-1.785-2.844-2.691-3.823-2.691s-2.228.878-3.757 2.61a39.156 39.156 0 0 0-4.029 5.687l-.153.259-.088.149a47.815 47.815 0 0 0-3.6 7.44 16.632 16.632 0 0 0-.855 3.085 3.335 3.335 0 0 0 .171 2.093c1.031 1.786 7.167 2.434 12.109 2.446h.159a48.1 48.1 0 0 0 7.83-.578c2.539-.438 4.063-1.067 4.531-1.868a3.848 3.848 0 0 0 .081-2.554zm-10.8-4.128-.09-.046-.113-.058-.079-.04-.131-.068-.06-.031-.16-.084-.03-.016-.4-.213.021-.011.263-.139.027-.014.271-.145h.006l.27-.146.018-.01.257-.142.033-.018.246-.137.041-.023.239-.135.04-.023.239-.137.032-.019.243-.141.017-.01.238-.141.019-.011.233-.139.035-.021.221-.134.041-.025.215-.132.042-.026.212-.132.038-.024.213-.135.024-.016.207-.134.02-.013.207-.136.034-.022.235-.157q.208-.14.414-.283l.035-.024.186-.131.025-.018.182-.13.014-.01.183-.133.027-.02.171-.127.032-.024.2-.149.16-.124.028-.022.16-.127.018-.015.161-.131.158-.131.017-.014.146-.125.022-.019.138-.121.022-.02.134-.121.019-.017.131-.122q.525.909 1.016 1.837l-.04.048a4.783 4.783 0 0 1-.345.375 7.826 7.826 0 0 1-.776.662l-.2.152-.209.147-.211.143-.214.139c-.143.092-.287.183-.433.27l-.109.066-.11.064a9.702 9.702 0 0 1-.221.127c-.3.168-.607.308-.917.446q-.231.1-.458.217c-.075.039-.15.077-.224.117l-.221.122q-.442.252-.878.514l-.443.268c-.074.048-.149.091-.225.139l-.014.009-.4-.2-.382-.191-.091-.046zm8.761-.4q-.056.078-.115.153a5.414 5.414 0 0 1-.385.432l-.1.1-.1.1-.211.2c-.071.068-.142.129-.215.191s-.145.125-.219.186a4.508 4.508 0 0 1-.471.327q-.118.076-.229.164-.054.044-.106.091t-.1.1a6.228 6.228 0 0 0-.38.423l-.093.115-.093.119-.095.126-.049.066-.023.032a46.782 46.782 0 0 1-4.282-1.787l.126-.013c.091-.01.182-.023.271-.04a5.74 5.74 0 0 0 1.043-.293l.125-.049c.042-.017.082-.036.123-.054.082-.037.163-.074.242-.116a5.1 5.1 0 0 0 .462-.273c.3-.2.583-.415.873-.621a11.87 11.87 0 0 0 1.623-1.383l.182-.2c.06-.066.118-.134.177-.2l.17-.207c.054-.071.109-.142.161-.214a5.09 5.09 0 0 0 .268-.417c.529 1.01 1.008 2 1.423 2.943zm-2.578 3.063h.029l.083-.013c.056-.009.11-.021.164-.035a2.4 2.4 0 0 0 .6-.248q.069-.039.134-.085a1.516 1.516 0 0 0 .125-.1 1.957 1.957 0 0 0 .223-.222c.137-.16.259-.33.391-.489.065-.08.13-.161.192-.243q.047-.061.092-.124c.03-.042.061-.083.09-.126q.087-.128.169-.259l.08-.133.077-.134a5 5 0 0 0 .263-.554 25.962 25.962 0 0 1 1.328 3.738 18.332 18.332 0 0 1-4.04-.978zm-7.779-16.845c.829 0 2.032.876 3.479 2.534a40.509 40.509 0 0 1 4.1 5.871l-.01.01-.033.031-.041.039-.034.031-.043.04-.034.031-.044.04-.035.032-.045.041-.035.031-.082.073-.048.042-.085.074-.036.031-.176.148-.056.046-.035.029-.053.036-.034.028-.159.127-.03.024-.07.055-.027.021-.076.059-.022.017-.088.067-.013.01q-.264.2-.533.395l-.108.078-.014.01-.1.069-.021.015-.093.065-.024.016-.091.063-.028.019-.088.061-.031.021-.086.059-.033.022-.086.058-.034.023-.087.058-.035.023-.087.058-.036.024-.088.058-.036.024-.089.058-.037.024-.09.058-.036.023-.128.082-.092.059-.036.023-.095.06-.035.022-.1.061-.034.021-.1.063-.031.019-.134.082-.111.068-.024.015-.118.071-.019.011-.135.081q-.283.169-.568.335h-.007l-.136.078-.025.014-.155.089-.107.061-.044.025-.1.057-.05.028-.1.054-.148.082-.058.032-.151.083-.152.083-.239.13-.065.035-.154.082-.087.046-.068.036-.085.045-.071.037-.242.126-.071.037-.028.014-.15-.082-.011-.006-.137-.076a35.005 35.005 0 0 1-7.154-4.972l-.008-.008-.042-.042a49.111 49.111 0 0 1 1.646-2.587c.021.061.045.121.071.18a3.316 3.316 0 0 0 .234.432 4 4 0 0 0 .287.389q.077.092.157.182c.054.059.111.114.167.17s.115.11.174.163.122.1.185.148a3.537 3.537 0 0 0 .394.272c.137.078.274.154.411.23s.277.144.413.22l.2.113.207.106.414.21c.281.129.561.257.844.378l.428.171.214.086c.071.028.142.058.215.082l.434.154.435.149.038-.083c-.13-.082-.26-.161-.39-.241l-.391-.236c-.258-.161-.514-.324-.77-.486-.065-.039-.127-.083-.19-.125l-.188-.126c-.125-.084-.252-.165-.376-.25l-.369-.258-.185-.128c-.061-.043-.12-.089-.18-.133a11.89 11.89 0 0 1-.353-.275l-.336-.294c-.057-.048-.114-.095-.169-.143s-.113-.094-.171-.139-.118-.087-.177-.13-.117-.086-.177-.128l-.183-.123q-.09-.063-.181-.124l-.093-.06-.091-.062a6.634 6.634 0 0 0-.186-.121c-.122-.083-.249-.163-.374-.247l-.048-.031-.047-.032c-.032-.021-.063-.043-.1-.064l-.039-.027a33.313 33.313 0 0 1 1.869-2.474q.081.089.164.176.112.115.227.227l.116.109.117.108a12.281 12.281 0 0 0 .985.8 8.3 8.3 0 0 0 1.073.664l.281.145.283.141.282.143.28.146c.743.4 1.5.764 2.267 1.112s1.548.664 2.341.943l.037-.083c-.182-.1-.365-.206-.547-.309s-.363-.207-.543-.313l-.27-.158-.135-.078-.134-.081-.535-.325c-.178-.108-.354-.221-.531-.331l-.265-.165-.263-.169c-.176-.112-.352-.222-.527-.335l-.524-.339c-.175-.112-.345-.233-.516-.353s-.339-.242-.508-.364-.343-.236-.518-.348-.356-.215-.538-.316q-.55-.3-1.12-.566a12.331 12.331 0 0 0-.773-.325l.158-.181c1.428-1.6 2.608-2.45 3.424-2.45zm-.2 22.857c-6.152-.015-10.969-.927-11.714-2.218-.408-.707-.153-2.409.717-4.793l.072-.195a5.924 5.924 0 0 0 .312.654l.07.127c.024.042.046.086.072.126.051.082.1.163.154.246l.078.123c.026.041.055.079.083.119l.169.236a10.781 10.781 0 0 0 1.581 1.7l.221.188.111.093c.037.031.076.06.114.09.076.06.153.117.23.176l.116.087.118.083c.315.223.642.428.976.619l.252.14.126.07.128.067.256.132c.085.044.17.088.257.129l.259.125c.086.042.172.084.259.124l.261.12.13.06q.065.031.131.058a21.576 21.576 0 0 0 2.137.82 21.96 21.96 0 0 0 2.208.578q.311.063.624.116zm7.9-.571a42.9 42.9 0 0 1-5.534.53 20.55 20.55 0 0 1-2.377-.52 21.438 21.438 0 0 1-2.112-.707 20.906 20.906 0 0 1-2.026-.907q-.062-.031-.123-.064l-.122-.066-.244-.131c-.082-.042-.16-.091-.24-.137l-.238-.14q-.472-.286-.929-.6T77 122.7l-.112-.079-.11-.081c-.074-.054-.147-.108-.222-.161-.037-.027-.075-.052-.111-.08l-.109-.083-.219-.164a18.525 18.525 0 0 1-1.673-1.416c-.129-.129-.267-.253-.391-.388l-.193-.2c-.064-.067-.123-.137-.186-.205l-.094-.1-.047-.052-.045-.053-.18-.213c-.03-.036-.062-.071-.091-.107l-.087-.11-.017-.021a41.933 41.933 0 0 1 1.629-3.664q.038.113.083.224l.077.18.086.176.044.088.048.085c.032.057.063.115.1.171a8.58 8.58 0 0 0 .93 1.255l.131.144c.044.048.087.1.132.143.09.093.179.188.272.278s.184.183.279.27l.142.132.144.13.145.129.148.125.148.125.15.122.151.121.153.118.153.118.155.116a19.469 19.469 0 0 0 2.612 1.629c.91.472 1.838.9 2.775 1.306q.7.3 1.417.58t1.438.521c.967.324 1.947.608 2.94.839.5.114 1 .216 1.5.3s1.008.154 1.516.2a14.684 14.684 0 0 0 1.528.06c.332-.006.663-.026.993-.063a12.95 12.95 0 0 1-3.284.925zm4.215-1.648a1.779 1.779 0 0 1-.663.585 10.26 10.26 0 0 1-1.261.013 14.55 14.55 0 0 1-1.5-.151 22.8 22.8 0 0 1-2.935-.657c-.964-.276-1.914-.6-2.848-.968q-.7-.271-1.392-.569t-1.367-.625c-.112-.055-.226-.109-.337-.165l-.336-.168-.333-.174c-.111-.058-.22-.119-.331-.178q-.658-.359-1.3-.745l-.321-.192c-.106-.065-.212-.131-.319-.195l-.318-.2-.317-.2c-.422-.264-.84-.532-1.253-.807a22.7 22.7 0 0 1-2.372-1.782 11.033 11.033 0 0 1-1.047-1.042c-.04-.046-.079-.094-.118-.142l-.059-.071-.056-.073-.112-.147-.106-.152q-.108-.162-.205-.33a54.836 54.836 0 0 1 1.59-2.921A35.389 35.389 0 0 0 83.7 117.4l.379.206.106.058.312.167.013.007.386.2.061.032.332.172.1.051.288.147c1.378.7 2.75 1.323 4.061 1.854l.087.035.237.095.349.137.195.075.1.039.1.037.056.021.288.106.079.029.207.074.071.025a18.342 18.342 0 0 0 4.562 1.1 3.473 3.473 0 0 1-.007 2.355z" transform="translate(6344.848 2940.63)" style="fill:#286432"/>
            <path data-name="路径 60307" d="M160.412 552.1a.228.228 0 0 0-.318-.056 18.069 18.069 0 0 1-2.994 1.58q-.643.272-1.3.5a2.171 2.171 0 0 0-.442-.916 2.46 2.46 0 0 0-1.977-.749 3.9 3.9 0 0 0-2.4.848 3.075 3.075 0 0 0-.839.982.207.207 0 1 1-.412 0 .207.207 0 1 1-.412 0 3.075 3.075 0 0 0-.839-.982 3.9 3.9 0 0 0-2.4-.848 2.461 2.461 0 0 0-1.977.749 2.171 2.171 0 0 0-.442.916q-.66-.229-1.3-.5a18.066 18.066 0 0 1-2.994-1.579.228.228 0 1 0-.262.374 18.132 18.132 0 0 0 3.066 1.621q.7.3 1.419.543-.018.194-.017.388a2.656 2.656 0 0 0 .534 1.761 2.461 2.461 0 0 0 1.977.749 3.9 3.9 0 0 0 2.4-.848 3.382 3.382 0 0 0 .609-.617.228.228 0 0 0 .383-.018 10.212 10.212 0 0 0-.2 2 6.276 6.276 0 0 0 1.191 3.966.228.228 0 0 0 .356-.285 5.946 5.946 0 0 1-1.096-3.679q0-.2.008-.406a8.818 8.818 0 0 0 1.639 3.447.228.228 0 1 0 .357-.285 8.71 8.71 0 0 1-1.776-4.879.228.228 0 0 0 .414.133 3.382 3.382 0 0 0 .609.617 3.9 3.9 0 0 0 2.4.848 2.46 2.46 0 0 0 1.977-.749 2.656 2.656 0 0 0 .534-1.761q0-.2-.017-.388.719-.246 1.419-.543a18.132 18.132 0 0 0 3.066-1.621.228.228 0 0 0 .056-.318zm-9.152 1.565a3.459 3.459 0 0 1 2.118-.75c1.142 0 1.787.434 1.987 1.353a18.842 18.842 0 0 1-4.924.913.834.834 0 0 1-.03-.212 1.963 1.963 0 0 1 .849-1.307zm-5.186-.75a3.459 3.459 0 0 1 2.118.75 1.963 1.963 0 0 1 .849 1.3.834.834 0 0 1-.03.212 18.839 18.839 0 0 1-4.924-.913c.2-.918.844-1.352 1.987-1.352zm2.118 3.359a3.459 3.459 0 0 1-2.118.75 1.791 1.791 0 0 1-2.054-2.054c0-.083 0-.163.007-.241a19.355 19.355 0 0 0 4.773.9 2.853 2.853 0 0 1-.608.642zm7.24-1.3a1.791 1.791 0 0 1-2.054 2.054 3.459 3.459 0 0 1-2.118-.75 2.854 2.854 0 0 1-.608-.646 19.355 19.355 0 0 0 4.773-.9c.004.068.007.152.007.235z" transform="translate(6279.36 2504.759)" style="fill:#ffa000"/>
        </g>
    </g>
</svg>
