<?xml version="1.0" encoding="UTF-8"?>
<svg width="153px" height="24px" viewBox="0 0 153 24" version="1.1" xmlns="http://www.w3.org/2000/svg" xmlns:xlink="http://www.w3.org/1999/xlink">
    <title>logo+name</title>
    <defs>
        <path d="M5.9765552,0 C2.68967997,0 0,2.68967997 0,5.9765552 L0,5.9765552 L0,18.0228695 C0,21.31032 2.68967997,24 5.9765552,24 L5.9765552,24 L18.0234448,24 C21.31032,24 24,21.31032 24,18.0228695 L24,18.0228695 L24,5.9765552 C24,2.68967997 21.31032,0 18.0234448,0 L18.0234448,0 L5.9765552,0 Z" id="path-1"></path>
        <filter x="0.0%" y="0.0%" width="100.0%" height="100.0%" filterUnits="objectBoundingBox" id="filter-3">
            <feGaussianBlur stdDeviation="0" in="SourceGraphic"></feGaussianBlur>
        </filter>
        <filter x="0.0%" y="0.0%" width="100.0%" height="100.0%" filterUnits="objectBoundingBox" id="filter-4">
            <feGaussianBlur stdDeviation="0" in="SourceGraphic"></feGaussianBlur>
        </filter>
    </defs>
    <g id="控件" stroke="none" stroke-width="1" fill="none" fill-rule="evenodd">
        <g id="Header/light" transform="translate(-10.000000, -10.000000)">
            <g id="logo+name" transform="translate(10.000000, 9.000000)">
                <g id="logo" transform="translate(0.000000, 1.000000)">
                    <mask id="mask-2" fill="white">
                        <use xlink:href="#path-1"></use>
                    </mask>
                    <use id="Clip-3" fill="#FFED62" xlink:href="#path-1"></use>
                    <path d="M19.7588571,11.0243481 C19.7588571,11.2192052 19.6011429,11.3769195 19.4062857,11.3769195 L4.92457143,11.3769195 C4.72971429,11.3769195 4.57142857,11.2192052 4.57142857,11.0243481 L4.57142857,9.69177663 C4.57142857,9.49749092 4.72971429,9.33920521 4.92457143,9.33920521 L11.228,9.33920521 C12.2502857,9.33920521 13.1632358,8.78419457 14.0771545,8.14472169 C14.6864336,7.71840643 16.364144,6.14635635 19.1102857,3.42857143 C19.3891429,3.42857143 19.5577143,3.73771429 19.4062857,3.97257143 L16.0125714,9.33920521 L19.4062857,9.33920521 C19.6011429,9.33920521 19.7588571,9.49749092 19.7588571,9.69177663 L19.7588571,11.0243481 Z" id="形状结合" fill="#21206D" filter="url(#filter-3)" mask="url(#mask-2)"></path>
                    <path d="M19.7588571,20.7386338 C19.7588571,20.9334909 19.6011429,21.0912052 19.4062857,21.0912052 L4.92457143,21.0912052 C4.72971429,21.0912052 4.57142857,20.9334909 4.57142857,20.7386338 L4.57142857,19.4060623 C4.57142857,19.2117766 4.72971429,19.0534909 4.92457143,19.0534909 L11.228,19.0534909 C12.2502857,19.0534909 13.1632358,18.4984803 14.0771545,17.8590074 C14.6864336,17.4326921 16.364144,15.8606421 19.1102857,13.1428571 C19.3891429,13.1428571 19.5577143,13.452 19.4062857,13.6868571 L16.0125714,19.0534909 L19.4062857,19.0534909 C19.6011429,19.0534909 19.7588571,19.2117766 19.7588571,19.4060623 L19.7588571,20.7386338 Z" id="形状结合备份" fill="#21206D" filter="url(#filter-4)" mask="url(#mask-2)" transform="translate(12.165143, 17.117031) scale(-1, -1) translate(-12.165143, -17.117031) "></path>
                </g>
                <text id="Palraluni" font-family="ConthraxSb-Regular, Conthrax" font-size="22" font-weight="500" fill="#21206D">
                    <tspan x="29.938" y="20">Palraluni</tspan>
                </text>
            </g>
        </g>
    </g>
</svg>