<?xml version="1.0" encoding="UTF-8"?>
<svg width="42px" height="42px" viewBox="0 0 42 42" version="1.1" xmlns="http://www.w3.org/2000/svg" xmlns:xlink="http://www.w3.org/1999/xlink">
    <title>logo-yellow</title>
    <defs>
        <path d="M10.4589716,0 C4.70693995,0 0,4.70693995 0,10.4589716 L0,10.4589716 L0,31.5400216 C0,37.2930601 4.70693995,42 10.4589716,42 L10.4589716,42 L31.5410284,42 C37.2930601,42 42,37.2930601 42,31.5400216 L42,31.5400216 L42,10.4589716 C42,4.70693995 37.2930601,0 31.5410284,0 L31.5410284,0 L10.4589716,0 Z" id="path-1"></path>
        <filter x="0.0%" y="0.0%" width="100.0%" height="100.0%" filterUnits="objectBoundingBox" id="filter-3">
            <feGaussianBlur stdDeviation="0" in="SourceGraphic"></feGaussianBlur>
        </filter>
        <filter x="0.0%" y="0.0%" width="100.0%" height="100.0%" filterUnits="objectBoundingBox" id="filter-4">
            <feGaussianBlur stdDeviation="0" in="SourceGraphic"></feGaussianBlur>
        </filter>
    </defs>
    <g id="logo-yellow" stroke="none" stroke-width="1" fill="none" fill-rule="evenodd">
        <mask id="mask-2" fill="white">
            <use xlink:href="#path-1"></use>
        </mask>
        <use id="Clip-3" fill="#FFED62" xlink:href="#path-1"></use>
        <path d="M34.578,19.2926091 C34.578,19.6336091 34.302,19.9096091 33.961,19.9096091 L8.618,19.9096091 C8.277,19.9096091 8,19.6336091 8,19.2926091 L8,16.9606091 C8,16.6206091 8.277,16.3436091 8.618,16.3436091 L19.649,16.3436091 C21.438,16.3436091 23.0356626,15.3723405 24.6350204,14.253263 C25.7012589,13.5072113 28.6372521,10.7561236 33.443,6 C33.931,6 34.226,6.541 33.961,6.952 L28.022,16.3436091 L33.961,16.3436091 C34.302,16.3436091 34.578,16.6206091 34.578,16.9606091 L34.578,19.2926091 Z" id="形状结合" fill="#21206D" filter="url(#filter-3)" mask="url(#mask-2)"></path>
        <path d="M34.578,36.2926091 C34.578,36.6336091 34.302,36.9096091 33.961,36.9096091 L8.618,36.9096091 C8.277,36.9096091 8,36.6336091 8,36.2926091 L8,33.9606091 C8,33.6206091 8.277,33.3436091 8.618,33.3436091 L19.649,33.3436091 C21.438,33.3436091 23.0356626,32.3723405 24.6350204,31.253263 C25.7012589,30.5072113 28.6372521,27.7561236 33.443,23 C33.931,23 34.226,23.541 33.961,23.952 L28.022,33.3436091 L33.961,33.3436091 C34.302,33.3436091 34.578,33.6206091 34.578,33.9606091 L34.578,36.2926091 Z" id="形状结合备份" fill="#21206D" filter="url(#filter-4)" mask="url(#mask-2)" transform="translate(21.289000, 29.954805) scale(-1, -1) translate(-21.289000, -29.954805) "></path>
    </g>
</svg>