<svg xmlns="http://www.w3.org/2000/svg" width="18" height="18" viewBox="0 0 18 18">
    <defs>
        <clipPath id="dxt471d3aa">
            <path data-name="矩形 3885" transform="translate(359 302.142)" style="stroke:#707070;fill:#fff" d="M0 0h18v18H0z"/>
        </clipPath>
    </defs>
    <g data-name="蒙版组 743" transform="translate(-359 -302.142)" style="clip-path:url(#dxt471d3aa)">
        <g data-name="组 25989">
            <path data-name="路径 56457" d="M377 311.142a9 9 0 1 1-9-9 9 9 0 0 1 9 9z"/>
            <path data-name="路径 60854" d="m27.167 70.168-.717-.819-2.128-2.432c-.063-.072-.125-.145-.19-.216a.086.086 0 0 0-.055-.028H22.414l3.961 4.527-4.183 5.471h3.445a.1.1 0 0 0 .089-.044q1.175-1.555 2.351-3.108l.034-.044.214.244 2.542 2.908a.114.114 0 0 0 .1.044H32.6l-3.7-4.233 4.36-5.766h-3.348a.117.117 0 0 0-.106.051q-1.294 1.7-2.591 3.388l-.044.057zm4.083-2.48-.055.073-2.978 3.939-3 3.971a.1.1 0 0 1-.089.045H24.173l.048-.063.947-1.238q2.557-3.341 5.112-6.683a.09.09 0 0 1 .081-.04h.826z" transform="translate(340.574 239.929)" style="fill:#fff"/>
        </g>
    </g>
</svg>
