<svg xmlns="http://www.w3.org/2000/svg" xmlns:xlink="http://www.w3.org/1999/xlink" width="24" height="24" viewBox="0 0 24 24">
  <defs>
    <style>
      .cls-1 {
        fill: #fff;
        stroke: #707070;
      }

      .cls-2 {
        clip-path: url(#clip-path);
      }

      .cls-3 {
        fill: rgba(255,255,255,0);
      }

      .cls-3, .cls-4 {
        stroke: #64748b;
      }

      .cls-4 {
        fill: #64748b;
        stroke-width: 0.3px;
      }

      .cls-5 {
        stroke: none;
      }

      .cls-6 {
        fill: none;
      }
    </style>
    <clipPath id="clip-path">
      <rect id="矩形_3586" data-name="矩形 3586" class="cls-1" width="24" height="24" transform="translate(731 1249)"/>
    </clipPath>
  </defs>
  <g id="蒙版组_517" data-name="蒙版组 517" class="cls-2" transform="translate(-731 -1249)">
    <g id="椭圆_256" data-name="椭圆 256" class="cls-3" transform="translate(731 1249)">
      <circle class="cls-5" cx="12" cy="12" r="12"/>
      <circle class="cls-6" cx="12" cy="12" r="11.5"/>
    </g>
    <path id="路径_60273" data-name="路径 60273" class="cls-4" d="M-998.088-3163.31a.914.914,0,0,1-.912-.912v-6.5a.277.277,0,0,1,.277-.277.278.278,0,0,1,.278.277v6.5a.357.357,0,0,0,.356.356h9.514a.277.277,0,0,1,.277.277.278.278,0,0,1-.277.278Zm.3-1.7a.276.276,0,0,1-.109-.376l1.377-2.5a.436.436,0,0,1,.282-.215.434.434,0,0,1,.345.066l.676.466,1-2.319a.591.591,0,0,1,.571-.363.59.59,0,0,1,.537.417l.729,2.264,1.378-.857a.427.427,0,0,1,.348-.048.436.436,0,0,1,.271.23l.989,2a.278.278,0,0,1-.125.373.279.279,0,0,1-.373-.126l-.932-1.887-1.4.867a.426.426,0,0,1-.377.039.436.436,0,0,1-.266-.279l-.775-2.406c-.005-.014-.014-.031-.036-.032a.035.035,0,0,0-.036.028l-1.053,2.452a.434.434,0,0,1-.28.249.426.426,0,0,1-.365-.06l-.687-.473-1.314,2.378a.276.276,0,0,1-.242.144A.27.27,0,0,1-997.787-3165.009Zm6.9-2.987h0Z" transform="translate(1736.5 4428.155)"/>
  </g>
</svg>
