<svg xmlns="http://www.w3.org/2000/svg" width="24" height="24" viewBox="0 0 24 24">
    <defs>
        <clipPath id="gg186vnxza">
            <path data-name="矩形 3585" transform="translate(731 1249)" style="fill:#fff;stroke:#707070" d="M0 0h24v24H0z"/>
        </clipPath>
    </defs>
    <g data-name="蒙版组 516" transform="translate(-731 -1249)" style="clip-path:url(#gg186vnxza)">
        <g data-name="椭圆 230" transform="translate(731 1249)" style="stroke:#2873ff;fill:rgba(40,115,255,.1)">
            <circle cx="12" cy="12" r="12" style="stroke:none"/>
            <circle cx="12" cy="12" r="11.5" style="fill:none"/>
        </g>
        <path data-name="路径 60272" d="M-998.088-3163.31a.914.914 0 0 1-.912-.912v-6.5a.277.277 0 0 1 .277-.277.278.278 0 0 1 .278.277v6.5a.357.357 0 0 0 .356.356h9.514a.277.277 0 0 1 .277.277.278.278 0 0 1-.277.278zm.3-1.7a.276.276 0 0 1-.109-.376l1.377-2.5a.436.436 0 0 1 .282-.215.434.434 0 0 1 .345.066l.676.466 1-2.319a.591.591 0 0 1 .571-.363.59.59 0 0 1 .537.417l.729 2.264 1.378-.857a.427.427 0 0 1 .348-.048.436.436 0 0 1 .271.23l.989 2a.278.278 0 0 1-.125.373.279.279 0 0 1-.373-.126l-.932-1.887-1.4.867a.426.426 0 0 1-.377.039.436.436 0 0 1-.266-.279l-.775-2.406c-.005-.014-.014-.031-.036-.032a.035.035 0 0 0-.036.028l-1.053 2.452a.434.434 0 0 1-.28.249.426.426 0 0 1-.365-.06l-.687-.473-1.314 2.378a.276.276 0 0 1-.242.144.27.27 0 0 1-.132-.031zm6.9-2.987z" transform="translate(1736.5 4428.155)" style="fill:#2873ff;stroke-width:.3px;stroke:#2873ff"/>
    </g>
</svg>
