<svg xmlns="http://www.w3.org/2000/svg" width="24" height="24" viewBox="0 0 24 24">
    <defs>
        <clipPath id="za4mr3uhla">
            <path data-name="矩形 3402" transform="translate(176 373)" style="fill:transparent" d="M0 0h24v24H0z"/>
        </clipPath>
    </defs>
    <g data-name="蒙版组 567" transform="translate(-176 -373)" style="clip-path:url(#za4mr3uhla)">
        <path data-name="路径 60096" d="M11.923 2.723V.751A.669.669 0 0 0 10.91.1L4.59 3.879a.51.51 0 0 0 0 .914l6.32 3.789a.747.747 0 0 0 .666.027.558.558 0 0 0 .347-.489v-1.3a.518.518 0 0 1 .205-.406.708.708 0 0 1 .487-.145c3.511.286 6.411 2.476 7.192 5.43A5.816 5.816 0 0 0 20 10.2c-.025-3.627-3.268-6.637-7.474-6.939a.585.585 0 0 1-.6-.54zM8.077 17.251v2.2a.547.547 0 0 0 .343.483.731.731 0 0 0 .657-.031l6.346-3.8a.508.508 0 0 0 0-.892l-6.346-3.8a.715.715 0 0 0-.658-.045.536.536 0 0 0-.342.486v1.322a.505.505 0 0 1-.2.405.693.693 0 0 1-.483.145C3.882 13.445.975 11.254.192 8.3A5.815 5.815 0 0 0 0 9.794c.053 3.605 3.291 6.583 7.474 6.873a.6.6 0 0 1 .603.584z" transform="rotate(90 -88.5 286.5)" style="fill:#2873ff"/>
    </g>
</svg>
