<svg xmlns="http://www.w3.org/2000/svg" width="14" height="14" viewBox="0 0 14 14">
    <defs>
        <clipPath id="3mllub811a">
            <path data-name="矩形 3406" transform="translate(326 686)" style="fill:transparent" d="M0 0h14v14H0z"/>
        </clipPath>
    </defs>
    <g data-name="蒙版组 592" transform="translate(-326 -686)" style="clip-path:url(#3mllub811a)">
        <path data-name="路径 60098" d="M155.914 171.977a.8.8 0 0 0-.56-.586l-.2-.045a1.944 1.944 0 0 1-1.332-2.317l.061-.184a.8.8 0 0 0-.228-.779 5.43 5.43 0 0 0-.7-.454 5.8 5.8 0 0 0-.741-.379.8.8 0 0 0-.788.191l-.136.146a1.945 1.945 0 0 1-2.672 0l-.132-.141a.8.8 0 0 0-.788-.191 5.685 5.685 0 0 0-.743.379 5.353 5.353 0 0 0-.7.456.8.8 0 0 0-.228.776l.057.186a1.944 1.944 0 0 1-1.338 2.317l-.188.042a.8.8 0 0 0-.56.586 8.21 8.21 0 0 0 0 1.666.8.8 0 0 0 .56.586l.184.042a1.948 1.948 0 0 1 1.341 2.322l-.054.181a.8.8 0 0 0 .228.779 8.16 8.16 0 0 0 1.442.833.8.8 0 0 0 .788-.191l.129-.139a1.947 1.947 0 0 1 2.682 0l.129.139a.8.8 0 0 0 .788.191 5.675 5.675 0 0 0 .743-.379 5.241 5.241 0 0 0 .7-.454.8.8 0 0 0 .228-.779l-.056-.188a1.945 1.945 0 0 1 1.341-2.315l.184-.042a.8.8 0 0 0 .56-.586 5.453 5.453 0 0 0 .042-.833 5.6 5.6 0 0 0-.045-.835zm-5.954 3.223a2.391 2.391 0 1 1 2.392-2.39 2.393 2.393 0 0 1-2.392 2.39z" transform="translate(183.041 520.189)" style="fill:#2873ff"/>
    </g>
</svg>
