<svg width="327" height="100" viewBox="0 0 327 100" fill="none" xmlns="http://www.w3.org/2000/svg">
<g clip-path="url(#clip0_1_590)">
<rect width="327" height="100" fill="black"/>
<rect x="198" y="30.9363" width="10.4181" height="10.4181" fill="#0341FE"/>
<rect x="274.617" y="-7.04669" width="10.4181" height="10.4181" fill="#011E75"/>
<rect x="217.1" y="-9" width="10.4181" height="10.4181" fill="#011E75"/>
<rect x="208.418" y="71.7406" width="10.4181" height="10.4181" fill="#011E75"/>
<rect x="245.967" y="69.3531" width="10.4181" height="10.4181" fill="#011E75"/>
<rect x="284.167" y="12.7044" width="10.4181" height="10.4181" fill="#0341FE"/>
<g opacity="0.51">
<rect x="211.891" y="13.7895" width="10.4181" height="19.7511" fill="#0341FE"/>
<rect x="221.441" y="33.5406" width="10.4181" height="10.4181" fill="#0341FE"/>
<rect x="232.727" y="18.3475" width="10.4181" height="15.1931" fill="#0341FE"/>
<rect opacity="0.46" x="222.309" y="23.1225" width="10.4181" height="10.4181" fill="#0341FE"/>
<rect x="242.277" y="33.5406" width="10.4181" height="10.4181" fill="#0341FE"/>
<rect opacity="0.46" x="231.859" y="33.5406" width="10.4181" height="10.4181" fill="#0341FE"/>
</g>
<rect x="210.372" y="43.959" width="10.4181" height="10.4181" fill="#0341FE"/>
<rect x="219.922" y="54.3771" width="10.4181" height="10.4181" fill="#0341FE"/>
<rect x="231.208" y="43.9591" width="10.4181" height="10.4181" fill="#0341FE"/>
<rect opacity="0.46" x="220.79" y="43.9591" width="10.4181" height="10.4181" fill="#0341FE"/>
<rect x="240.758" y="54.3771" width="10.4181" height="10.4181" fill="#0341FE"/>
<rect opacity="0.46" x="230.34" y="54.3771" width="10.4181" height="10.4181" fill="#0341FE"/>
<rect x="253.346" y="23.1226" width="10.4181" height="10.4181" fill="#0341FE"/>
<rect x="262.896" y="33.5406" width="10.4181" height="10.4181" fill="#0341FE"/>
<rect x="274.183" y="23.1226" width="10.4181" height="10.4181" fill="#0341FE"/>
<g opacity="0.46">
<path d="M263.765 5.75885H274.183V33.5406H263.765V5.75885Z" fill="#0341FE"/>
<path d="M294.295 5.75885H304.713V33.5406H294.295V5.75885Z" fill="#0341FE"/>
</g>
<rect x="283.733" y="33.5406" width="10.4181" height="10.4181" fill="#0341FE"/>
<rect opacity="0.46" x="273.314" y="33.5406" width="10.4181" height="10.4181" fill="#0341FE"/>
<g opacity="0.56">
<rect x="252.912" y="43.7419" width="10.4181" height="10.4181" fill="#0341FE"/>
<rect x="262.462" y="54.16" width="10.4181" height="10.4181" fill="#0341FE"/>
<rect x="273.749" y="43.7419" width="10.4181" height="10.4181" fill="#0341FE"/>
<rect opacity="0.46" x="263.33" y="43.7419" width="10.4181" height="10.4181" fill="#0341FE"/>
<rect x="283.299" y="54.16" width="10.4181" height="10.4181" fill="#0341FE"/>
<rect opacity="0.46" x="272.88" y="54.16" width="10.4181" height="10.4181" fill="#0341FE"/>
</g>
<rect x="198" y="54.1599" width="10.4181" height="10.4181" fill="#0341FE"/>
<rect x="232.727" y="12.7044" width="31.0374" height="10.4181" fill="#0341FE"/>
<rect x="225.131" y="3.37146" width="13.4568" height="10.4181" fill="#0341FE"/>
<rect x="274.617" y="76.9497" width="10.4181" height="10.4181" fill="#0341FE"/>
<rect x="261.811" y="71.7406" width="32.3396" height="10.4181" fill="#0341FE"/>
<rect x="298.492" y="56.7646" width="11.7204" height="10.4181" fill="#0341FE"/>
<rect x="294.151" y="81.5077" width="11.7204" height="10.4181" fill="#0341FE"/>
<rect x="219.922" y="64.7952" width="10.4181" height="27.3476" fill="#0341FE"/>
<rect x="239.238" y="84.3292" width="10.4181" height="11.2863" fill="#0341FE"/>
<path d="M238.993 75.7925C238.993 72.3219 236.138 69.5304 232.643 69.5304C229.149 69.5304 226.294 72.3219 226.294 75.7925C226.294 79.263 229.149 82.0546 232.643 82.0546C236.138 82.0546 238.993 79.263 238.993 75.7925Z" fill="black" stroke="white" stroke-width="1.62246"/>
<path d="M240.19 75.3435C240.19 71.8729 237.335 69.0813 233.841 69.0813C230.346 69.0813 227.491 71.8729 227.491 75.3435C227.491 78.814 230.346 81.6056 233.841 81.6056C237.335 81.6056 240.19 78.814 240.19 75.3435Z" fill="black" stroke="white" stroke-width="1.62246"/>
<path fill-rule="evenodd" clip-rule="evenodd" d="M230.831 74.7176C230.831 74.794 230.896 74.8559 230.975 74.8559H236.872C236.951 74.8559 237.016 74.794 237.016 74.7176V74.1946C237.016 74.1184 236.951 74.0562 236.872 74.0562H234.305C233.889 74.0562 233.517 73.8384 233.145 73.5875C232.773 73.3365 231.095 71.7366 231.095 71.7366C230.982 71.7366 230.913 71.858 230.975 71.9501L232.357 74.0562H230.975C230.896 74.0562 230.831 74.1184 230.831 74.1946V74.7176Z" fill="white"/>
<path fill-rule="evenodd" clip-rule="evenodd" d="M237.016 75.8593C237.016 75.7829 236.951 75.721 236.872 75.721H230.975C230.896 75.721 230.831 75.7829 230.831 75.8593V76.3823C230.831 76.4586 230.896 76.5207 230.975 76.5207H233.542C233.958 76.5207 234.33 76.7385 234.702 76.9894C235.074 77.2404 236.751 78.8403 236.751 78.8403C236.865 78.8403 236.934 78.7189 236.872 78.6268L235.49 76.5207H236.872C236.951 76.5207 237.016 76.4586 237.016 76.3823V75.8593Z" fill="white"/>
<path d="M289.297 32.1453C291.362 30.2925 291.496 27.1068 289.635 25.0321C287.774 22.9574 284.592 22.7465 282.527 24.5993C280.462 26.4521 280.328 29.6378 282.189 31.7125C284.05 33.7872 287.232 33.9981 289.297 32.1453Z" fill="black" stroke="white" stroke-width="1.62246"/>
<path d="M290.169 32.6C292.234 30.7472 292.368 27.5615 290.507 25.4868C288.645 23.4122 285.464 23.2012 283.399 25.054C281.333 26.9069 281.199 30.0925 283.061 32.1672C284.922 34.2419 288.103 34.4528 290.169 32.6Z" fill="black" stroke="white" stroke-width="1.62246"/>
<path fill-rule="evenodd" clip-rule="evenodd" d="M285.597 26.7836C285.553 26.8229 285.551 26.8914 285.591 26.9368L288.619 30.3113C288.659 30.3567 288.728 30.3618 288.772 30.3225L289.071 30.054C289.115 30.0149 289.117 29.9461 289.076 29.9007L287.759 28.4319C287.545 28.1937 287.479 27.8692 287.431 27.5274C287.384 27.1856 287.438 25.4044 287.438 25.4044C287.38 25.3394 287.275 25.3624 287.254 25.445L286.758 27.3171L286.049 26.5263C286.008 26.4809 285.94 26.476 285.896 26.5152L285.597 26.7836Z" fill="white"/>
<path fill-rule="evenodd" clip-rule="evenodd" d="M288.118 30.9088C288.162 30.8695 288.165 30.801 288.124 30.7556L285.096 27.3812C285.056 27.3358 284.987 27.3307 284.943 27.3699L284.644 27.6384C284.601 27.6776 284.598 27.7463 284.639 27.7917L285.957 29.2605C286.17 29.4987 286.236 29.8233 286.284 30.1651C286.331 30.5069 286.277 32.2881 286.277 32.2881C286.335 32.353 286.44 32.33 286.461 32.2474L286.957 30.3754L287.666 31.1662C287.707 31.2116 287.775 31.2164 287.819 31.1773L288.118 30.9088Z" fill="white"/>
<path d="M224.497 51.7992C224.497 46.8282 220.407 42.8236 215.393 42.8236C210.379 42.8236 206.288 46.8282 206.288 51.7992C206.288 56.7703 210.379 60.7748 215.393 60.7748C220.407 60.7748 224.497 56.7703 224.497 51.7992Z" fill="black" stroke="white" stroke-width="1.87383"/>
<path d="M226.263 51.137C226.263 46.166 222.173 42.1614 217.159 42.1614C212.145 42.1614 208.054 46.166 208.054 51.137C208.054 56.1081 212.145 60.1126 217.159 60.1126C222.173 60.1126 226.263 56.1081 226.263 51.137Z" fill="black" stroke="white" stroke-width="1.87383"/>
<path fill-rule="evenodd" clip-rule="evenodd" d="M221.215 45.8641H213.253V47.8671H215.907V51.222H218.561V47.8671H221.215V45.8641Z" fill="white"/>
<path fill-rule="evenodd" clip-rule="evenodd" d="M220.772 50.9022C220.772 50.9022 220.772 50.9028 220.771 50.9039L220.772 50.9022ZM220.649 50.8847C220.687 50.9095 220.713 50.9302 220.732 50.9466C220.713 50.963 220.687 50.9837 220.649 51.0084C220.499 51.107 220.252 51.2131 219.906 51.309C219.222 51.4992 218.25 51.6226 217.159 51.6226C216.068 51.6226 215.096 51.4992 214.412 51.309C214.066 51.2131 213.819 51.107 213.669 51.0084C213.631 50.9837 213.605 50.963 213.586 50.9466C213.605 50.9302 213.631 50.9095 213.669 50.8847C213.819 50.7862 214.066 50.6801 214.412 50.5841C215.096 50.3939 216.068 50.2706 217.159 50.2706C218.25 50.2706 219.222 50.3939 219.906 50.5841C220.252 50.6801 220.499 50.7862 220.649 50.8847ZM213.546 50.9022L213.547 50.9039C213.546 50.9028 213.546 50.9022 213.546 50.9022ZM213.546 50.991C213.546 50.991 213.546 50.9904 213.547 50.9892L213.546 50.991ZM220.771 50.9892C220.772 50.9904 220.772 50.991 220.772 50.991L220.771 50.9892ZM218.555 52.0048C220.107 51.8467 221.215 51.4326 221.215 50.9466C221.215 50.3243 219.399 49.8199 217.159 49.8199C214.919 49.8199 213.103 50.3243 213.103 50.9466C213.103 51.4463 214.274 51.87 215.895 52.0175V56.1034H218.555V52.0048Z" fill="white"/>
<path d="M239.772 31.4825C241.039 29.3748 240.547 26.714 239.141 24.2839C237.715 21.8214 235.245 19.3769 232.092 17.4812C228.939 15.5855 225.621 14.5498 222.778 14.4457C219.972 14.343 217.391 15.1562 216.124 17.2639C214.857 19.3717 215.349 22.0324 216.755 24.4626C218.181 26.9251 220.651 29.3696 223.804 31.2653C226.957 33.161 230.274 34.1967 233.118 34.3008C235.924 34.4035 238.504 33.5903 239.772 31.4825Z" fill="#78EF50" stroke="black" stroke-width="1.87383"/>
<path d="M240.782 29.0411C242.05 26.9333 241.558 24.2726 240.151 21.8425C238.726 19.3799 236.255 16.9354 233.103 15.0397C229.95 13.1441 226.632 12.1083 223.789 12.0042C220.983 11.9015 218.402 12.7147 217.135 14.8225C215.867 16.9302 216.359 19.591 217.766 22.0211C219.191 24.4837 221.662 26.9281 224.815 28.8238C227.967 30.7195 231.285 31.7553 234.128 31.8593C236.934 31.9621 239.515 31.1488 240.782 29.0411Z" fill="#78EF50" stroke="black" stroke-width="1.87383"/>
<path fill-rule="evenodd" clip-rule="evenodd" d="M236.583 22.2359L226.004 15.8753L225.221 17.1772L228.748 19.2974L227.436 21.4781L230.963 23.5983L232.274 21.4176L235.8 23.5378L236.583 22.2359Z" fill="#05312D"/>
<path fill-rule="evenodd" clip-rule="evenodd" d="M234.025 25.1572C234.025 25.1572 234.025 25.1574 234.023 25.1576L234.025 25.1572ZM233.868 25.0473C233.909 25.0935 233.936 25.1282 233.954 25.1537C233.923 25.1495 233.88 25.1417 233.82 25.1277C233.582 25.0719 233.212 24.9435 232.716 24.7299C231.732 24.3066 230.393 23.6107 228.943 22.7389C227.493 21.8671 226.25 21.0107 225.415 20.3402C224.994 20.0018 224.707 19.7356 224.546 19.5517C224.506 19.5055 224.479 19.4708 224.46 19.4453C224.491 19.4495 224.535 19.4572 224.594 19.4712C224.832 19.5271 225.202 19.6554 225.698 19.869C226.682 20.2923 228.021 20.9883 229.471 21.8601C230.921 22.7319 232.164 23.5882 232.999 24.2587C233.421 24.5971 233.707 24.8633 233.868 25.0473ZM224.424 19.3841L224.424 19.3859C224.424 19.3846 224.424 19.384 224.424 19.3841ZM224.389 19.4418C224.389 19.4417 224.39 19.4416 224.391 19.4414L224.389 19.4418ZM233.99 25.213C233.991 25.2143 233.991 25.2149 233.991 25.2149L233.99 25.213ZM230.648 24.1024C232.773 25.2399 234.406 25.8556 234.596 25.5398C234.839 25.1353 232.624 23.3567 229.648 21.5671C226.671 19.7776 224.061 18.6547 223.818 19.0592C223.623 19.384 225.013 20.5949 227.11 21.9861L225.513 24.6417L229.047 26.7664L230.648 24.1024Z" fill="#05312D"/>
<path d="M286.305 7.1071C285.372 5.68122 283.469 5.44114 281.663 5.71088C279.77 5.99375 277.557 6.87996 275.438 8.26562C273.32 9.65128 271.621 11.3239 270.604 12.9454C269.633 14.4916 269.09 16.3321 270.023 17.758C270.956 19.1839 272.86 19.424 274.665 19.1542C276.559 18.8714 278.772 17.9851 280.89 16.5995C283.008 15.2138 284.707 13.5412 285.725 11.9197C286.695 10.3735 287.238 8.53297 286.305 7.1071Z" fill="#78EF50" stroke="black" stroke-width="1.87383"/>
<path d="M285.267 6.00962C284.334 4.58375 282.43 4.34367 280.625 4.6134C278.731 4.89628 276.518 5.78249 274.4 7.16815C272.282 8.55381 270.583 10.2264 269.566 11.8479C268.595 13.3941 268.052 15.2347 268.985 16.6605C269.918 18.0864 271.822 18.3265 273.627 18.0568C275.521 17.7739 277.734 16.8877 279.852 15.502C281.97 14.1163 283.669 12.4437 284.686 10.8222C285.657 9.27602 286.2 7.4355 285.267 6.00962Z" fill="#78EF50" stroke="black" stroke-width="1.87383"/>
<path fill-rule="evenodd" clip-rule="evenodd" d="M279.811 7.08438L272.75 11.7038L273.223 12.4271L275.577 10.8873L276.369 12.0988L278.723 10.559L277.931 9.34748L280.285 7.80768L279.811 7.08438Z" fill="#05312D"/>
<path fill-rule="evenodd" clip-rule="evenodd" d="M280.609 9.16051C280.609 9.16049 280.609 9.16085 280.609 9.16165L280.609 9.16051ZM280.495 9.22577C280.535 9.21285 280.563 9.2049 280.584 9.20003C280.571 9.21674 280.552 9.23965 280.525 9.27044C280.415 9.3931 280.221 9.57466 279.937 9.80977C279.375 10.2757 278.542 10.8839 277.574 11.517C276.606 12.1502 275.716 12.6693 275.064 12.9979C274.734 13.1637 274.49 13.2686 274.334 13.3201C274.295 13.333 274.266 13.341 274.246 13.3458C274.258 13.3291 274.277 13.3062 274.305 13.2754C274.415 13.1528 274.609 12.9712 274.892 12.7361C275.455 12.2702 276.287 11.662 277.255 11.0288C278.223 10.3957 279.114 9.87654 279.766 9.548C280.095 9.3822 280.339 9.27725 280.495 9.22577ZM274.199 13.3533L274.201 13.3534C274.2 13.3534 274.199 13.3533 274.199 13.3533ZM274.22 13.3853C274.22 13.3854 274.22 13.385 274.221 13.3842L274.22 13.3853ZM280.629 9.19247C280.63 9.19248 280.63 9.19254 280.63 9.19257L280.629 9.19247ZM278.903 10.8451C280.242 9.88738 281.127 9.09514 281.012 8.91964C280.865 8.69494 279.135 9.56639 277.149 10.8661C275.162 12.1658 273.67 13.4015 273.817 13.6262C273.935 13.8067 275.074 13.2802 276.547 12.3928L277.512 13.8682L279.871 12.3251L278.903 10.8451Z" fill="#05312D"/>
<path d="M277.147 44.204C277.147 56.7029 267.045 66.8297 254.591 66.8297C242.136 66.8297 232.034 56.7029 232.034 44.204C232.034 31.7051 242.136 21.5783 254.591 21.5783C267.045 21.5783 277.147 31.7051 277.147 44.204Z" fill="black" stroke="white" stroke-width="2.25184"/>
<circle cx="258.745" cy="44.8273" r="22.5564" fill="#E449F1" stroke="white" stroke-width="2.25184"/>
<path d="M269.286 39.8989C266.045 38.9947 259.486 37.1317 259.173 36.9138L256.928 46.3812L266.536 49.217L269.286 39.8989Z" fill="#05322E" stroke="black" stroke-width="2.25184"/>
<path d="M256.438 29.4706L265.559 32.2707L265.708 32.3867L256.744 29.8365L256.438 29.4706Z" fill="#D1FE65" stroke="black" stroke-width="2.25184"/>
<path d="M274.643 42.5012L268.864 40.7954L269.547 38.4839L274.643 42.5012Z" fill="#D1FE65" stroke="black" stroke-width="2.25184"/>
<path d="M266.565 49.3831L256.452 46.3979L260.857 40.7877L266.565 49.3831Z" fill="#05322E" stroke="black" stroke-width="2.25184"/>
<path d="M276.065 41.6026L274.985 41.2839L270.41 39.9333L271.737 35.438L272.056 34.3581L270.976 34.0394L268.953 33.4424L268.953 33.4424L267.874 33.1237L265.321 32.3701L264.241 32.0513L264.241 32.0514L262.219 31.4545L262.218 31.4544L256.493 29.7658L255.413 29.4474L255.095 30.527L246.866 58.4029L246.547 59.4831L247.627 59.8016L253.353 61.4902L254.432 61.8087L254.751 60.7291L256.906 53.4302L257.848 53.7084L258.928 54.0271L261.481 54.7807L262.561 55.0994L264.583 55.6964L265.663 56.0152L265.981 54.9353L267.308 50.4399L271.883 51.7905L272.963 52.1092L273.282 51.0294L275.746 42.6825L276.065 41.6026ZM265.786 47.6427L264.844 47.3645L263.764 47.0458L261.211 46.2922L260.131 45.9734L259.189 45.6953L259.688 44.0034L261.015 39.5081L265.59 40.8586L267.613 41.4555L267.113 43.1474L265.786 47.6427Z" fill="#D1FE65" stroke="black" stroke-width="2.25184"/>
<path d="M246.088 54.6364L253.625 29.5862L254.922 31.1111L247.413 56.5488L246.088 54.6364Z" fill="#D1FE65" stroke="black" stroke-width="2.25184"/>
<rect x="261.008" y="39.7291" width="3.32147" height="3.4721" transform="rotate(16.446 261.008 39.7291)" fill="#E449F1" stroke="black" stroke-width="2.25184"/>
<path d="M286.446 63.2949C285.639 62.2107 284.412 61.6069 283.012 61.3693C281.618 61.1328 279.996 61.2462 278.269 61.6386C274.813 62.4239 270.759 64.3668 266.892 67.2484C263.025 70.1301 260.004 73.4586 258.263 76.5459C257.393 78.0883 256.82 79.6102 256.648 81.0135C256.475 82.4234 256.703 83.7711 257.511 84.8553C258.319 85.9395 259.545 86.5432 260.946 86.7809C262.339 87.0174 263.962 86.9039 265.688 86.5116C269.145 85.7263 273.198 83.7834 277.065 80.9017C280.933 78.0201 283.954 74.6915 285.695 71.6043C286.565 70.0618 287.137 68.54 287.309 67.1366C287.482 65.7267 287.254 64.379 286.446 63.2949Z" fill="#78EF50" stroke="black" stroke-width="1.87383"/>
<path d="M284.363 61.3718C283.556 60.2876 282.329 59.6839 280.929 59.4463C279.535 59.2098 277.913 59.3232 276.186 59.7156C272.73 60.5009 268.676 62.4438 264.809 65.3254C260.942 68.207 257.921 71.5356 256.18 74.6228C255.31 76.1653 254.737 77.6871 254.565 79.0905C254.392 80.5004 254.62 81.8481 255.428 82.9323C256.236 84.0165 257.462 84.6202 258.863 84.8578C260.256 85.0943 261.878 84.9809 263.605 84.5885C267.062 83.8032 271.115 81.8603 274.982 78.9787C278.85 76.097 281.871 72.7685 283.612 69.6813C284.482 68.1388 285.054 66.617 285.226 65.2136C285.399 63.8037 285.171 62.456 284.363 61.3718Z" fill="#78EF50" stroke="black" stroke-width="1.87383"/>
<path fill-rule="evenodd" clip-rule="evenodd" d="M274.695 63.6979L261.529 73.5081L262.497 74.8071L266.886 71.5371L268.507 73.7129L272.896 70.4429L271.274 68.267L275.663 64.9969L274.695 63.6979Z" fill="#05312D"/>
<path fill-rule="evenodd" clip-rule="evenodd" d="M276.397 67.5136C276.398 67.512 276.398 67.5113 276.398 67.5113C276.398 67.5114 276.398 67.5116 276.397 67.512C276.397 67.5124 276.397 67.5129 276.397 67.5136ZM276.185 67.652C276.259 67.6216 276.313 67.6023 276.352 67.59C276.329 67.6236 276.295 67.6698 276.245 67.7322C276.044 67.981 275.687 68.3541 275.162 68.842C274.122 69.8089 272.575 71.086 270.771 72.4306C268.966 73.7752 267.3 74.8923 266.076 75.6125C265.458 75.976 264.999 76.2115 264.703 76.3324C264.629 76.3628 264.575 76.3821 264.536 76.3944C264.559 76.3609 264.593 76.3147 264.643 76.2522C264.844 76.0034 265.201 75.6304 265.726 75.1424C266.766 74.1755 268.313 72.8984 270.117 71.5538C271.922 70.2092 273.588 69.0921 274.812 68.3719C275.43 68.0084 275.889 67.773 276.185 67.652ZM264.448 76.4155C264.448 76.4155 264.449 76.4154 264.45 76.4155C264.448 76.4156 264.448 76.4156 264.448 76.4155ZM264.491 76.4731C264.491 76.4731 264.491 76.4725 264.491 76.4709C264.491 76.4723 264.491 76.4731 264.491 76.4731ZM276.44 67.5689C276.44 67.5688 276.439 67.5688 276.438 67.5689C276.439 67.569 276.44 67.569 276.44 67.569C276.44 67.569 276.441 67.5689 276.441 67.5689C276.441 67.5689 276.44 67.5689 276.44 67.5689ZM273.264 70.9585C275.754 68.9432 277.386 67.3097 277.151 66.9945C276.851 66.591 273.604 68.5014 269.9 71.2615C266.195 74.0217 263.436 76.5864 263.737 76.9899C263.978 77.314 266.12 76.1458 268.872 74.2437L270.846 76.8934L275.244 73.6165L273.264 70.9585Z" fill="#05312D"/>
<path d="M297.976 52.3125C296.823 49.0027 293.174 47.292 289.846 48.4517C286.518 49.6114 284.722 53.2191 285.876 56.5289C287.029 59.8387 290.678 61.5495 294.006 60.3898C297.334 59.2301 299.13 55.6223 297.976 52.3125Z" fill="black" stroke="white" stroke-width="1.87383"/>
<path d="M298.947 51.5045C297.794 48.1947 294.145 46.484 290.817 47.6437C287.489 48.8034 285.693 52.4112 286.847 55.721C288 59.0308 291.649 60.7415 294.977 59.5818C298.305 58.4221 300.101 54.8143 298.947 51.5045Z" fill="black" stroke="white" stroke-width="1.87383"/>
<path d="M293.958 51.899L293.717 51.2049L295.097 50.724L295.825 52.8144L294.445 53.2953L293.958 51.899ZM292.473 50.0724L292.96 51.4687L291.579 51.9496L291.093 50.5533L292.473 50.0724ZM292.066 53.3458L292.308 54.0399L293.688 53.5591L294.174 54.9553L292.794 55.4362L293.311 56.9197L291.931 57.4006L290.199 52.4304L291.579 51.9496L292.066 53.3458ZM293.23 49.8086L293.717 51.2049L292.337 51.6858L291.85 50.2895L293.23 49.8086ZM294.445 53.2953L294.931 54.6915L293.551 55.1724L293.065 53.7761L294.445 53.2953Z" fill="white"/>
<path d="M17.6796 68.386V79H20.9961C19.7767 77.5 19.1726 75.7385 19.1726 73.693C19.1726 71.6475 19.7767 69.8747 20.9961 68.386H17.6796Z" fill="#DBF86E"/>
<path d="M24.7229 71.8179H28.4041C28.3358 72.1816 28.256 72.5339 28.1648 72.8975H25.8512V76.8067H26.6376V73.6475H31.1394V76.7613H31.9258V72.8975H28.9968C29.088 72.5566 29.1677 72.2043 29.2361 71.8179H32.9743V71.0679H29.3615C29.4071 70.7725 29.4527 70.4543 29.4869 70.1361L28.6663 70.0338C28.6321 70.3747 28.5865 70.727 28.5295 71.0679H24.7229V69.9542C27.5836 69.9088 30.1707 69.6929 32.4728 69.3065L32.0626 68.5678C29.6578 68.9997 26.9453 69.2383 23.9366 69.261V72.818C23.8682 75.1135 23.4465 76.9204 22.6715 78.2159L23.2413 78.8182C24.1759 77.3181 24.666 75.3181 24.7229 72.818V71.8179ZM29.5438 76.4999L29.1335 77.1136C30.296 77.5568 31.4357 78.1591 32.5412 78.9091L32.9971 78.2159C31.96 77.5454 30.8089 76.9772 29.5438 76.4999ZM28.7005 74.1021C28.5751 75.2499 28.199 76.1363 27.5608 76.7499C26.9225 77.3636 25.931 77.8295 24.5862 78.1704L25.0307 78.9205C26.4781 78.5113 27.5608 77.9431 28.2674 77.2386C28.9512 76.534 29.3615 75.4999 29.4982 74.1589L28.7005 74.1021Z" fill="#DBF86E"/>
<path d="M36.2566 78.7727C36.9518 78.7727 37.3051 78.4091 37.3051 77.6931V74.4658C37.761 74.2612 38.2169 74.0453 38.65 73.818V72.9884C38.2055 73.2271 37.761 73.443 37.3051 73.6475V71.3747H38.5018V70.5793H37.3051V68.511H36.496V70.5793H35.003V71.3747H36.496V73.9771C35.9261 74.1817 35.3449 74.3635 34.7522 74.4999L34.9574 75.3294C35.4816 75.1703 35.9945 74.9885 36.496 74.7953V77.4886C36.496 77.8522 36.3136 78.0454 35.9717 78.0454C35.6868 78.0454 35.3905 78.0227 35.0713 77.9886L35.2423 78.7727H36.2566ZM41.4992 69.727V71.7498H39.8239V69.727H41.4992ZM39.8239 72.4998H41.4992V74.5339H39.8239V72.4998ZM41.4992 75.2726V78.9091H42.2742V75.2726H44.0179V75.9544H44.7929V68.9656H39.0489V75.9544H39.8239V75.2726H41.4992ZM42.2742 74.5339V72.4998H44.0179V74.5339H42.2742ZM44.0179 71.7498H42.2742V69.727H44.0179V71.7498Z" fill="#DBF86E"/>
<path d="M46.4683 69.6701L49.477 77.7841H50.6281L53.6369 69.6701H52.6112L50.0697 76.7727H50.0355L47.494 69.6701H46.4683Z" fill="#DBF86E"/>
<path d="M58.7504 69.6701L54.6475 75.0567V75.9431H58.739V77.7841H59.6279V75.9431H60.95V75.1817H59.6279V69.6701H58.7504ZM58.7048 70.8861H58.739V75.1817H55.4339L58.7048 70.8861Z" fill="#DBF86E"/>
<path d="M65.4245 69.5111C64.6039 69.5111 63.9315 69.7838 63.4301 70.3293C62.9286 70.8634 62.6665 71.5907 62.6665 72.4998H63.601C63.6124 71.7839 63.7834 71.2384 64.1025 70.8747C64.3988 70.4884 64.8319 70.3065 65.3903 70.3065C65.9146 70.3065 66.3363 70.4429 66.6326 70.7156C66.9289 70.9884 67.0771 71.3634 67.0771 71.8634C67.0771 72.3861 66.8605 72.8748 66.4502 73.318C66.2337 73.5453 65.812 73.8748 65.1738 74.3294C64.3076 74.9203 63.7264 75.409 63.4073 75.7726C62.8602 76.3749 62.5981 77.0454 62.5981 77.7841H68.023V76.9545H63.7492C63.8973 76.409 64.49 75.784 65.5271 75.0908C66.3705 74.5226 66.9289 74.0794 67.2138 73.7839C67.7381 73.2157 68.0116 72.5793 68.0116 71.8748C68.0116 71.1702 67.7609 70.5906 67.2822 70.1588C66.7922 69.727 66.1767 69.5111 65.4245 69.5111Z" fill="#DBF86E"/>
<path d="M70.731 71.9884H73.5575C72.7597 74.5226 71.5402 76.5113 69.8763 77.9659L70.298 78.7159C71.5972 77.659 72.6685 76.2385 73.5005 74.443C73.8766 75.2385 74.5034 75.9772 75.3924 76.659C74.5376 77.2158 73.4777 77.7272 72.2012 78.1932L72.6343 78.9545C74.0133 78.4204 75.1758 77.8295 76.1104 77.1704C77.0677 77.7954 78.2758 78.375 79.7346 78.9091L80.1563 78.1477C78.8342 77.6931 77.7059 77.1931 76.7828 76.6476C77.7173 75.8522 78.3328 74.9658 78.6405 73.9885V73.2839H73.9792C74.1387 72.8748 74.2755 72.443 74.4122 71.9884H79.9625V71.2043H74.6288C74.8339 70.3633 75.0163 69.477 75.1644 68.5224L74.3325 68.4201C74.1957 69.3974 74.0133 70.3179 73.7854 71.2043H71.7909L72.4406 68.9656L71.6314 68.8292L70.731 71.9884ZM74.1159 74.0339H77.8085C77.4894 74.8067 76.9082 75.5226 76.0648 76.1817C75.153 75.5226 74.5034 74.8067 74.1159 74.0339ZM77.0791 68.511L76.5321 69.0451C77.3868 69.727 78.0593 70.3634 78.5379 70.9656L79.1192 70.3861C78.5721 69.7611 77.8997 69.136 77.0791 68.511Z" fill="#DBF86E"/>
<path d="M86.3334 69.227V70.0338H91.7925V69.227H86.3334ZM86.0257 72.1134V72.9203H89.6157V77.6818C89.6157 77.9772 89.422 78.125 89.0573 78.125C88.5558 78.125 88.0429 78.1022 87.4959 78.0682L87.6668 78.875H89.3422C90.0716 78.875 90.4477 78.5454 90.4477 77.8863V72.9203H92.294V72.1134H86.0257ZM84.5327 68.6019C83.997 69.6701 83.1423 70.6247 81.957 71.4657L82.1963 72.2839C83.6095 71.3179 84.6353 70.2043 85.2735 68.9428L84.5327 68.6019ZM85.0684 71.1929C84.4301 72.4543 83.4158 73.568 82.0254 74.5453L82.2647 75.3635C82.8118 74.9885 83.3018 74.5908 83.7577 74.1817V78.9205H84.5669V73.3521C85.0684 72.7839 85.4786 72.1702 85.8092 71.5338L85.0684 71.1929Z" fill="#DBF86E"/>
<path d="M94.391 69.6701V77.7841H95.3256V74.4658H97.7075C99.5766 74.4658 100.523 73.6589 100.523 72.0566C100.523 70.4656 99.588 69.6701 97.7189 69.6701H94.391ZM95.3256 70.477H97.6619C98.3116 70.477 98.7902 70.602 99.1094 70.8747C99.4285 71.1134 99.588 71.5111 99.588 72.0566C99.588 72.6021 99.4285 72.9998 99.1207 73.2612C98.8016 73.5225 98.323 73.6589 97.6619 73.6589H95.3256V70.477Z" fill="#DBF86E"/>
<path d="M102.387 69.6701V74.6703C102.387 75.7272 102.661 76.534 103.208 77.1022C103.755 77.659 104.564 77.9431 105.635 77.9431C106.707 77.9431 107.516 77.659 108.074 77.0908C108.61 76.534 108.883 75.7272 108.883 74.6703V69.6701H107.949V74.6817C107.949 75.4772 107.766 76.0794 107.413 76.4886C107.026 76.909 106.433 77.1249 105.635 77.1249C104.826 77.1249 104.233 76.909 103.857 76.4886C103.493 76.0794 103.322 75.4772 103.322 74.6817V69.6701H102.387Z" fill="#DBF86E"/>
<path d="M113.942 69.5111C113.099 69.5111 112.403 69.6929 111.868 70.0565C111.264 70.4429 110.967 70.9997 110.967 71.7043C110.967 72.3861 111.275 72.9089 111.902 73.2725C112.164 73.4089 112.791 73.6362 113.771 73.9316C114.683 74.193 115.264 74.3862 115.492 74.5226C116.028 74.8067 116.301 75.2044 116.301 75.7158C116.301 76.1476 116.096 76.4886 115.686 76.7386C115.276 76.9886 114.728 77.1136 114.067 77.1136C113.338 77.1136 112.791 76.9545 112.415 76.659C112.005 76.3295 111.754 75.8067 111.674 75.1021H110.751C110.819 76.1022 111.173 76.8408 111.811 77.3295C112.358 77.7386 113.11 77.9431 114.067 77.9431C115.036 77.9431 115.8 77.7386 116.37 77.3409C116.939 76.9317 117.224 76.3636 117.224 75.659C117.224 74.9203 116.882 74.3521 116.21 73.943C115.868 73.7385 115.162 73.4771 114.09 73.1589C113.304 72.9316 112.802 72.7612 112.597 72.6475C112.13 72.3975 111.902 72.068 111.902 71.6588C111.902 71.1929 112.096 70.852 112.483 70.6247C112.825 70.4202 113.292 70.3293 113.896 70.3293C114.558 70.3293 115.07 70.4656 115.435 70.7611C115.788 71.0452 116.016 71.477 116.119 72.068H117.042C116.962 71.2157 116.655 70.5679 116.107 70.1361C115.583 69.7156 114.854 69.5111 113.942 69.5111Z" fill="#DBF86E"/>
<path d="M119.092 69.6701V77.7841H121.918C123.195 77.7841 124.175 77.409 124.858 76.6704C125.508 75.9658 125.839 74.9771 125.839 73.7271C125.839 72.4543 125.531 71.4657 124.927 70.7838C124.266 70.0338 123.297 69.6701 122.009 69.6701H119.092ZM120.026 70.477H121.861C122.932 70.477 123.707 70.7497 124.209 71.3066C124.676 71.8293 124.915 72.6362 124.915 73.7271C124.915 74.784 124.653 75.5908 124.152 76.1363C123.616 76.6931 122.818 76.9772 121.758 76.9772H120.026V70.477Z" fill="#DBF86E"/>
<path d="M127.572 68.386C128.78 69.8747 129.395 71.6475 129.395 73.693C129.395 75.7385 128.78 77.5 127.572 79H130.888V68.386H127.572Z" fill="#DBF86E"/>
<path d="M25.7246 21.6421H30.1104V21.6523C29.8781 22.0269 29.762 22.2177 29.762 22.2245H35.6439C35.6439 22.2381 35.538 22.8988 35.3262 24.2067C35.2579 24.3361 35.1622 24.5302 35.0393 24.7891H36.187C35.6336 28.3039 35.333 30.1942 35.2852 30.4599L33.8199 31.7166H24.9765C24.997 31.6213 25.0995 30.9673 25.2839 29.7548H32.6312V29.7446C32.6312 29.7242 32.6619 29.5301 32.7234 29.1622H25.7553C25.9466 27.9293 26.0422 27.2992 26.0422 27.272H33.0308V27.2618C33.0308 27.2481 33.0581 27.054 33.1128 26.6794H25.7861C25.8885 25.9641 25.9637 25.4941 26.0115 25.2693H25.2532V25.2591L27.2617 22.1734C27.2617 22.1666 27.2582 22.1632 27.2514 22.1632C26.8688 21.9793 26.5136 21.8396 26.1857 21.7443C26.0013 21.6966 25.8475 21.6659 25.7246 21.6523V21.6421ZM25.6528 22.0303V22.0406C25.4342 23.4302 25.3181 24.1522 25.3044 24.2067H25.2942L23.3062 24.3395C23.0945 25.6814 22.9886 26.3694 22.9886 26.4035H25.0278C25.0209 26.4852 24.9014 27.2243 24.6691 28.6207H22.6299L21.1646 37.8881H18.4081C19.344 31.9823 19.8154 28.9885 19.8222 28.9068C19.829 28.9 19.8461 28.8046 19.8734 28.6207H17.8752V28.6105C17.8821 28.5287 18.0016 27.7931 18.2339 26.4035H20.2218C20.42 25.2046 20.519 24.595 20.519 24.5745H20.5088C20.4609 24.5745 19.788 24.6358 18.4901 24.7584C18.6677 23.6277 18.7565 23.0521 18.7565 23.0317H18.7462C18.4593 22.9363 18.1758 22.8682 17.8957 22.8273C17.5951 22.7796 17.2741 22.7388 16.9325 22.7047V22.6945L25.6528 22.0303ZM28.2351 24.7891H32.498C32.539 24.7346 32.6483 24.5405 32.8259 24.2067H28.6245C28.6245 24.2067 28.4947 24.4008 28.2351 24.7891ZM17.701 29.4177H19.525L17.8138 37.04H16V37.0298C17.0794 32.2343 17.6464 29.6969 17.701 29.4177ZM22.6812 29.4177H24.4949L24.4847 29.4381C24.4778 29.6084 24.2422 32.1424 23.7776 37.04H21.9741C21.9878 36.822 22.2235 34.2812 22.6812 29.4177ZM30.4588 32.3603H32.3135C32.3272 32.8372 32.3511 33.8487 32.3852 35.395H30.4895C30.4895 34.8841 30.4793 33.8725 30.4588 32.3603ZM26.9645 32.6464C26.3428 35.991 26.0183 37.7416 25.991 37.8983H24.0645V37.8881C24.5769 35.286 24.9253 33.5388 25.1097 32.6464H26.9645ZM29.8132 32.6464V32.6566L29.2701 36.0795H33.1538L33.1743 36.0898L32.8771 37.8881H27.897C27.7672 37.745 27.4154 37.3295 26.8415 36.6415C26.8279 36.6347 26.8176 36.6313 26.8108 36.6313C27.2275 34.036 27.4427 32.7077 27.4564 32.6464H29.8132ZM33.9736 32.6464H35.7361C35.7292 32.7622 35.5448 34.506 35.1827 37.8778H33.3587C33.3792 37.7484 33.5773 36.008 33.9531 32.6566L33.9736 32.6464Z" fill="white"/>
<path d="M44.3027 21.7136H49.6927C49.6996 21.7136 49.7884 21.9827 49.9592 22.5208C49.966 22.5276 49.9933 22.6162 50.0411 22.7864H56.5686L55.9538 26.71H53.187L53.474 25.0037L53.4535 24.9934H42.489L42.2123 26.71H39.4558L40.0809 22.7864H46.5264C46.4444 22.514 46.3966 22.3777 46.3829 22.3777C46.1506 22.2619 45.792 22.1189 45.3069 21.9486C44.7878 21.7987 44.453 21.7238 44.3027 21.7238V21.7136ZM56.2099 27.3128L55.8718 29.4483H49.1291C48.931 30.6404 48.832 31.25 48.832 31.2773H54.9188L54.5806 33.4025H48.4938C48.2684 34.8126 48.1488 35.5687 48.1352 35.6708H55.1135C55.0793 35.8616 54.9666 36.5768 54.7753 37.8165H42.7656C42.6017 37.6667 41.9971 37.0809 40.9519 36.0591H40.9416L40.2346 37.8983H37.2117V37.8881C39.0972 33.222 40.0501 30.8481 40.0706 30.7664H42.9808V30.7766C42.4207 32.3978 42.1337 33.222 42.1201 33.2493L44.2207 35.6708H45.0508C45.0713 35.6708 45.0883 35.555 45.102 35.3234C45.143 35.1191 45.4607 33.1607 46.055 29.4483H39.2918C39.5105 28.0792 39.6266 27.3673 39.6403 27.3128H56.2099Z" fill="white"/>
<path d="M76.069 21.7851L75.7206 23.9615C71.5124 24.125 69.3229 24.2101 69.1521 24.2169L68.8037 26.4546H75.239V26.4648L73.7839 35.6913C73.7839 35.7321 73.7463 35.7798 73.6712 35.8343C73.5823 35.9093 73.1349 36.2907 72.3288 36.9787C72.3219 36.9991 72.3083 37.0093 72.2878 37.0093H68.2914L68.6295 34.8534H71.0069V34.8432L71.9906 28.6718H68.4553C68.4417 28.6718 68.4109 28.8591 68.3631 29.2338C68.3153 29.4994 67.8542 32.3876 66.9797 37.8983H63.9158L65.3812 28.6718H61.8254C60.9646 34.1212 60.5274 36.8765 60.5138 36.9378H57.6241L57.6036 36.9276C58.3892 32.0368 58.8059 29.4211 58.8537 29.0805C58.8606 29.0669 58.9972 28.1916 59.2636 26.4546H65.7193L66.0677 24.2987L59.4071 24.5541L59.3558 24.5643C59.3558 24.5575 59.3524 24.5541 59.3456 24.5541C59.4959 23.6073 59.571 23.1168 59.571 23.0828C59.3388 22.9465 59.0108 22.8137 58.5873 22.6843C58.1979 22.5957 57.9315 22.5514 57.788 22.5514V22.5412L76.069 21.7851Z" fill="white"/>
<path d="M98.2644 23.0725H109.639C108.901 27.7658 108.508 30.2215 108.46 30.4394C107.483 31.2773 106.992 31.6962 106.985 31.6962H101.964C101.567 34.0871 101.325 35.5891 101.236 36.2022H98.0492V36.1919C98.1039 35.8445 98.5855 32.8542 99.4941 27.2209C99.8561 24.9458 100.037 23.7878 100.037 23.7469C99.8186 23.5902 99.6102 23.4744 99.4121 23.3995C99.2003 23.3109 98.9031 23.2156 98.5206 23.1134C98.3703 23.093 98.2849 23.0828 98.2644 23.0828V23.0725ZM102.968 25.3817C102.64 27.4389 102.432 28.7569 102.343 29.3359H105.458L106.093 25.3817H102.968Z" fill="white"/>
<path d="M110.807 23.0725H115.879C115.804 23.5221 115.285 26.5636 114.322 32.1969L114.107 33.5864H117.355V33.5762L118.718 25.5656C118.909 24.3872 119.005 23.7776 119.005 23.7367C118.854 23.5936 118.513 23.4302 117.98 23.2462C117.679 23.1577 117.433 23.1032 117.242 23.0828V23.0725H122.294C121.317 28.8489 120.818 31.7711 120.798 31.8392C120.702 32.4864 120.538 33.5217 120.306 34.9454L118.83 36.2124H111.77C111.722 36.1443 111.401 35.7696 110.807 35.0884C110.807 35.0748 110.773 35.0271 110.704 34.9454C110.8 34.3323 111.343 31.1308 112.334 25.3408L112.59 23.7265C112.378 23.5902 112.136 23.4676 111.862 23.3586C111.295 23.1747 110.944 23.0828 110.807 23.0828V23.0725Z" fill="white"/>
<path d="M123.298 23.0725H134.427L134.068 25.3817H128.002C127.66 27.3435 127.489 28.3448 127.489 28.3857H133.607L132.51 34.9454C132.381 35.0612 131.889 35.4835 131.035 36.2124H123.001L123.36 33.9032H129.477C129.491 33.9032 129.515 33.767 129.549 33.4945C129.611 33.1267 129.778 32.2071 130.051 30.7357H125.204C125.156 30.6949 124.798 30.2725 124.128 29.4688L125.071 23.7776C124.859 23.5732 124.477 23.3893 123.923 23.2258C123.548 23.1304 123.339 23.0828 123.298 23.0828V23.0725Z" fill="white"/>
<path d="M135.308 23.0725H147V23.0828L145.75 30.4496C145.497 32.0913 145.357 32.9632 145.33 33.0654L142.194 36.2124H136.271C136.271 36.2124 135.919 35.7935 135.216 34.9556C135.209 34.9556 135.205 34.9522 135.205 34.9454C135.205 34.925 135.708 31.9823 136.712 26.1174L137.091 23.6958C136.872 23.5596 136.63 23.4438 136.363 23.3484C136.097 23.2462 135.745 23.1577 135.308 23.0828V23.0725ZM139.858 25.4737C138.997 30.4735 138.512 33.314 138.403 33.9952H140.893C141.036 33.8589 141.538 33.3378 142.399 32.4319C142.426 32.4319 142.447 32.3433 142.46 32.1662L143.721 25.4737H139.858Z" fill="white"/>
<path d="M22.9168 42.7556H28.0199L27.2309 47.752H34.3527L34.0043 49.9693H26.8723L25.8168 56.672H33.451L33.1025 58.8586H16L16.3484 56.672H22.7426C22.8246 56.1611 23.3711 52.7144 24.3822 46.3318L24.8331 43.5117C24.7169 43.3142 24.4471 43.1439 24.0235 43.0008C23.5248 42.8442 23.156 42.7658 22.9168 42.7658V42.7556Z" fill="white"/>
<path d="M49.8977 42.6841C49.9113 42.7182 49.9762 43.4572 50.0924 44.9013H50.1026L55.216 44.5641C55.216 44.5573 55.2194 44.5539 55.2262 44.5539V44.5641C55.0213 45.8924 54.9086 46.6008 54.8881 46.6894C52.3399 46.8733 50.7994 46.9823 50.2666 47.0164C50.2802 47.2071 50.3281 47.7895 50.41 48.7636H50.4203L54.8163 47.8338V47.844C54.6387 49.036 54.526 49.7445 54.4782 49.9693L50.574 50.8582C50.6491 51.8323 50.697 52.4044 50.7175 52.5747C50.8063 52.5543 51.8242 52.1456 53.7711 51.3486V51.3588L53.3817 53.76L50.8917 54.792L51.0351 56.4983H53.3612C53.129 57.9833 53.006 58.7462 52.9923 58.787H48.1557C48.0395 56.9751 47.9815 56.0521 47.9815 56.0181C44.7638 57.36 43.0833 58.0616 42.9398 58.1229L43.36 55.5685L47.8482 53.7498C47.7594 52.3534 47.715 51.6177 47.715 51.5428L47.6945 51.5325C44.9551 52.1592 43.5752 52.4726 43.5547 52.4726V52.4623L43.9236 50.1634C46.3214 49.6525 47.534 49.3903 47.5613 49.3766L47.4384 47.2309L47.4179 47.2207C45.4436 47.3638 44.4291 47.4353 44.3745 47.4353L44.7229 45.2692L47.3154 45.0955V45.0852C47.2334 44.043 47.1924 43.464 47.1924 43.3482C46.5025 42.9872 45.8671 42.7727 45.2865 42.7045V42.6943H46.7928C47.5374 42.6943 48.5724 42.6909 49.8977 42.6841ZM51.0044 42.7556H53.7096L54.0888 44.4415H51.4143C51.141 43.338 51.0044 42.7761 51.0044 42.7556ZM37.4576 42.9804H42.8476C42.8408 43.0145 42.6871 43.2733 42.3865 43.7569L39.8964 47.8338H40.4703L40.7674 47.4046H43.5239V47.4149L40.1526 52.6769C40.098 52.745 40.057 52.8063 40.0296 52.8608L40.0501 52.8506L42.8169 52.6667V52.6769C42.6529 54.012 42.5573 54.7613 42.53 54.9248C41.9971 54.9725 40.1116 55.1325 36.8735 55.405L36.2382 54.1176C36.2655 54.0835 37.1741 52.7008 38.9639 49.9693H37.2424C37.1604 49.8194 36.9008 49.3971 36.4636 48.7023L39.507 43.7365C39.1586 43.5117 38.5985 43.2869 37.8265 43.0622C37.7035 43.0349 37.5806 43.0111 37.4576 42.9906V42.9804ZM42.407 55.8955L42.1201 58.174L35.3877 58.8586C35.5721 57.3668 35.6678 56.6073 35.6746 56.58C35.6883 56.58 37.9324 56.3518 42.407 55.8955Z" fill="white"/>
<path d="M63.8646 42.6739H68.1377V42.6841C67.9259 44.0737 67.7995 44.8639 67.7585 45.0546H68.7115C68.4656 46.6213 68.329 47.4625 68.3016 47.5783H67.3589V47.5886C67.3589 47.6158 67.2496 48.314 67.031 49.6832L68.1889 49.2642V49.2745C67.9157 51.0183 67.7654 51.9447 67.738 52.0536C67.0276 52.3125 66.645 52.4521 66.5903 52.4726C66.0575 55.8171 65.7808 57.5269 65.7603 57.6018C65.7193 57.6359 65.2343 58.0548 64.3052 58.8586H61.641C61.641 58.8449 61.7571 58.1263 61.9894 56.7027H63.5264L64.0593 53.3002C63.1234 53.5931 62.6486 53.7395 62.6349 53.7395C62.6486 53.651 62.7955 52.728 63.0756 50.9706C63.9432 50.6913 64.4214 50.5346 64.5102 50.5006L64.961 47.5783H63.7006L63.6904 47.5681L64.09 45.0546H65.3607C65.3744 45.0546 65.3948 44.9388 65.4222 44.7072C65.5725 43.8149 65.6476 43.3414 65.6476 43.2869H65.6374C65.4256 43.1507 65.0533 43.0008 64.5204 42.8374C64.2745 42.7693 64.0559 42.7182 63.8646 42.6841V42.6739ZM69.767 42.6739H74.122L74.1425 42.6841C74.1425 42.6909 74.1391 42.7216 74.1323 42.7761L74.1015 44.1861V44.2576H76.0075L75.6489 46.4646H68.8755L69.2341 44.2576H71.5397V44.2474C71.5397 44.1997 71.5671 43.8693 71.6217 43.2563C71.3758 43.1269 71.0547 42.9974 70.6585 42.868C70.1939 42.7454 69.8968 42.6841 69.767 42.6841V42.6739ZM56.5276 43.6343H63.5264C63.465 44.0158 62.9526 47.2548 61.9894 53.3513C61.5863 55.8784 61.3779 57.1658 61.3643 57.2135L59.8887 58.4703H57.3166C57.3166 58.4567 56.9614 58.0343 56.2509 57.2033C57.2415 50.9297 57.747 47.7418 57.7675 47.6396L58.3106 44.1861C58.3106 44.1861 58.3072 44.1861 58.3004 44.1861C57.8973 44.0158 57.3986 43.8557 56.8043 43.7059C56.6677 43.6718 56.5754 43.6514 56.5276 43.6446V43.6343ZM60.1141 45.7698L58.6078 55.2722C58.5053 55.8989 58.4473 56.2599 58.4336 56.3553H59.4481C59.4617 56.3553 59.4856 56.2224 59.5198 55.9568C60.0185 52.8438 60.2883 51.1511 60.3293 50.8786C60.343 50.7969 60.6128 49.0939 61.1388 45.7698H60.1141ZM69.1316 47.4659H71.2938L70.6687 55.8444V55.8648H70.679C70.7063 55.7694 71.4885 52.98 73.0256 47.4966C73.0256 47.4762 73.0324 47.4659 73.0461 47.4659H75.3005C75.1912 47.861 74.327 50.9399 72.7079 56.7027H74.2143C73.9888 58.1195 73.8761 58.8381 73.8761 58.8586H66.9183V58.8483C66.9183 58.8279 67.031 58.1127 67.2564 56.7027H70.4228C70.4433 56.7027 70.5116 56.4779 70.6277 56.0283C70.6346 56.0283 70.6414 55.9976 70.6482 55.9363H68.5168C68.51 55.9363 68.5066 55.9295 68.5066 55.9159C68.9233 50.3098 69.1316 47.4932 69.1316 47.4659Z" fill="white"/>
<path d="M83.9081 44.0022C83.4299 46.8835 83.1771 48.3719 83.1498 48.4673C83.1498 48.4877 82.6716 50.2588 81.7152 53.7804H79.635V53.7702C79.9493 50.269 80.1201 48.423 80.1474 48.2323L80.8544 44.0022H83.9081ZM78.9894 54.9963H82.0636L82.0841 55.0065C81.8108 56.3757 81.664 57.0977 81.6435 57.1727H78.5693L78.9894 54.9963Z" fill="white"/>
<path d="M95.76 29.7626C95.76 34.6021 91.8254 38.5252 86.972 38.5252C82.1185 38.5252 78.184 34.6021 78.184 29.7626C78.184 24.9232 82.1185 21 86.972 21C91.8254 21 95.76 24.9232 95.76 29.7626Z" fill="black"/>
<path d="M89.1359 26.8029H91.3372V30.0891H89.1359V26.8029ZM87.9283 24.608V26.8029H85.727V24.608H87.9283ZM85.727 30.0891H87.9283V32.284H85.727V34.6163H83.5257V26.8029H85.727V30.0891ZM89.1359 24.608V26.8029H86.9346V24.608H89.1359ZM89.1359 30.0891V32.284H86.9346V30.0891H89.1359Z" fill="url(#paint0_linear_1_590)"/>
</g>
<defs>
<linearGradient id="paint0_linear_1_590" x1="84.2726" y1="35.8351" x2="90.6812" y2="25.2567" gradientUnits="userSpaceOnUse">
<stop stop-color="#FBFF28"/>
<stop offset="0.09375" stop-color="#58F568"/>
<stop offset="0.291667" stop-color="#1DF7A8"/>
<stop offset="0.395833" stop-color="#58FFE6"/>
<stop offset="0.473958" stop-color="#BCFFE6"/>
<stop offset="0.609375" stop-color="#FFBC97"/>
<stop offset="0.744792" stop-color="#FF4E4E"/>
<stop offset="0.854167" stop-color="#FF22C1"/>
<stop offset="0.989483" stop-color="#8F94FF"/>
</linearGradient>
<clipPath id="clip0_1_590">
<rect width="327" height="100" fill="white"/>
</clipPath>
</defs>
</svg>
