<svg xmlns="http://www.w3.org/2000/svg" width="19.023" height="21.533" viewBox="0 0 19.023 21.533">
  <g id="组_26170" data-name="组 26170" transform="translate(-59.183)">
    <path id="路径_60346" data-name="路径 60346" d="M123.9,485.376h15.2V491.8H123.9Z" transform="translate(-63.36 -475.169)" fill="#fff500"/>
    <path id="路径_60347" data-name="路径 60347" d="M378.368,46.592ZM378.368,46.592Zm2.918,10.821a1.153,1.153,0,0,0-.98.463,1.922,1.922,0,0,0-.355,1.2,1.869,1.869,0,0,0,.355,1.184,1.14,1.14,0,0,0,.958.463,1.159,1.159,0,0,0,.969-.441,1.889,1.889,0,0,0,.345-1.184,2,2,0,0,0-.334-1.227A1.146,1.146,0,0,0,381.286,57.413Z" transform="translate(-312.473 -45.612)" fill="#f24500"/>
    <path id="路径_60348" data-name="路径 60348" d="M78.115,6.826a.9.9,0,0,0-.022-.108,4.161,4.161,0,0,1-1.7,1.895,3.688,3.688,0,0,1-2.487.4.138.138,0,0,1,.011-.075c.108-.366.215-.721.312-1.087a12.8,12.8,0,0,0,.409-3.941A6.729,6.729,0,0,0,73.7.678,7.124,7.124,0,0,0,73.217,0a1.2,1.2,0,0,1-.1.108c-.528.721-1.044,1.464-1.593,2.175a18.324,18.324,0,0,1-3.015,3.112,7.77,7.77,0,0,1-1.938,1.2c-.258.108-.3.086-.474-.129a1.037,1.037,0,0,1-.172-.269,5.379,5.379,0,0,1-.269-.732,6.746,6.746,0,0,1-.086-2.369c.086-.711.2-1.421.312-2.121a31.976,31.976,0,0,0-3.532,4.005,19.655,19.655,0,0,0-1.809,2.982,13.7,13.7,0,0,0-1.131,3.165A7.429,7.429,0,0,0,59.3,14.2a8.531,8.531,0,0,0,4.856,6.288,10.967,10.967,0,0,0,2.53.861,7.962,7.962,0,0,0,6.191-1.217A11.058,11.058,0,0,0,76.5,15.956a13.78,13.78,0,0,0,.8-1.777,15.1,15.1,0,0,0,.549-1.927,18.01,18.01,0,0,0,.269-5.426Zm-12.64,9.12H64.409V13.889H62.288v2.056H61.222V10.961h1.066v2.013h2.121V10.961h1.066Zm5.06-.635a2.536,2.536,0,0,1-3.521.022,2.552,2.552,0,0,1-.668-1.809,2.681,2.681,0,0,1,.678-1.906,2.36,2.36,0,0,1,1.809-.732,2.241,2.241,0,0,1,1.723.711,2.629,2.629,0,0,1,.657,1.83,2.645,2.645,0,0,1-.678,1.884Zm5.007-3.478H74.121v4.113H73.055V11.833H71.634v-.872h3.908Z" fill="#f24500"/>
  </g>
</svg>
