<svg xmlns="http://www.w3.org/2000/svg" xmlns:xlink="http://www.w3.org/1999/xlink" width="20" height="20" viewBox="0 0 20 20">
  <defs>
    <clipPath id="clip-path">
      <rect id="矩形_3700" data-name="矩形 3700" width="20" height="20" transform="translate(0.132)" fill="#fff" stroke="#707070" stroke-width="1"/>
    </clipPath>
  </defs>
  <g id="蒙版组_656" data-name="蒙版组 656" transform="translate(-0.132)" clip-path="url(#clip-path)">
    <path id="路径_60352" data-name="路径 60352" d="M47.391,58.919a7.069,7.069,0,0,0-6.868-7.111h-.55a7.068,7.068,0,0,0-6.868,7.111A2.194,2.194,0,0,0,32,60.816v1.1a2.2,2.2,0,0,0,4.4,0v-1.1a2.2,2.2,0,0,0-2.179-2.2,5.945,5.945,0,0,1,5.753-5.711h.55a5.945,5.945,0,0,1,5.753,5.711,2.2,2.2,0,0,0-2.179,2.2v1.1a2.195,2.195,0,0,0,1.571,2.1,5.8,5.8,0,0,1-3.3,2.139,1.373,1.373,0,1,0-.13,1.158,6.916,6.916,0,0,0,4.782-3.327A2.194,2.194,0,0,0,48.5,61.916v-1.1A2.192,2.192,0,0,0,47.391,58.919ZM35.3,60.816v1.1a1.1,1.1,0,0,1-2.2,0v-1.1a1.1,1.1,0,1,1,2.2,0Zm12.1,1.1a1.1,1.1,0,0,1-1.05,1.095l-.043-.02c0,.009-.01.016-.014.024a1.1,1.1,0,0,1-1.093-1.1v-1.1a1.1,1.1,0,1,1,2.2,0Z" transform="translate(-30.25 -49.887)" fill="#fff" stroke="rgba(0,0,0,0)" stroke-miterlimit="10" stroke-width="1"/>
  </g>
</svg>
