<svg xmlns="http://www.w3.org/2000/svg" xmlns:xlink="http://www.w3.org/1999/xlink" width="20" height="20" viewBox="0 0 20 20">
  <defs>
    <clipPath id="clip-path">
      <rect id="矩形_3699" data-name="矩形 3699" width="20" height="20" transform="translate(0.48)" fill="#fff" stroke="#707070" stroke-width="1"/>
    </clipPath>
  </defs>
  <g id="蒙版组_655" data-name="蒙版组 655" transform="translate(-0.48)" clip-path="url(#clip-path)">
    <g id="组_26016" data-name="组 26016" transform="translate(0.767 1.921)">
      <path id="路径_60348" data-name="路径 60348" d="M9.291,73.149a.731.731,0,0,1-.283-.067L.449,69.164a.655.655,0,0,1,0-1.2l8.559-3.917a.7.7,0,0,1,.566,0l8.559,3.917a.655.655,0,0,1,0,1.2L9.574,73.081A.553.553,0,0,1,9.291,73.149ZM2.336,68.565l6.955,3.185,6.955-3.184L9.291,65.38Z" transform="translate(-0.058 -63.988)" fill="#fff"/>
      <path id="路径_60349" data-name="路径 60349" d="M806.768,585.765a.66.66,0,0,1-.666-.666v-1.9a.666.666,0,1,1,1.332,0v1.9A.668.668,0,0,1,806.768,585.765Z" transform="translate(-791.566 -573.177)" fill="#fff"/>
      <path id="路径_60350" data-name="路径 60350" d="M145.52,389.827a.66.66,0,0,1-.666-.666v-5.5a.666.666,0,0,1,1.332,0v5.516A.665.665,0,0,1,145.52,389.827Z" transform="translate(-142.243 -377.239)" fill="#fff"/>
      <path id="路径_60351" data-name="路径 60351" d="M151.493,696.063a8.413,8.413,0,0,1-4.59-1.412,3.951,3.951,0,0,1-2.031-2.758.677.677,0,1,1,1.354,0c0,.679,2.193,2.838,5.28,2.838s5.28-2.159,5.28-2.838a.677.677,0,1,1,1.354,0,4,4,0,0,1-2.031,2.758A8.492,8.492,0,0,1,151.493,696.063Z" transform="translate(-142.26 -679.905)" fill="#fff"/>
    </g>
  </g>
</svg>
