<?xml version="1.0" encoding="UTF-8"?>
<svg width="40px" height="40px" viewBox="0 0 40 40" version="1.1" xmlns="http://www.w3.org/2000/svg" xmlns:xlink="http://www.w3.org/1999/xlink">
    <title>product/PUC@2x</title>
    <defs>
        <circle id="path-1" cx="16" cy="16" r="16"></circle>
        <filter x="0.0%" y="0.0%" width="100.0%" height="100.0%" filterUnits="objectBoundingBox" id="filter-3">
            <feGaussianBlur stdDeviation="0" in="SourceGraphic"></feGaussianBlur>
        </filter>
        <filter x="0.0%" y="0.0%" width="100.0%" height="100.0%" filterUnits="objectBoundingBox" id="filter-4">
            <feGaussianBlur stdDeviation="0" in="SourceGraphic"></feGaussianBlur>
        </filter>
    </defs>
    <g id="product/PUC" stroke="none" stroke-width="1" fill="none" fill-rule="evenodd">
        <g id="logo-puc" transform="translate(4.000000, 4.000000)">
            <mask id="mask-2" fill="white">
                <use xlink:href="#path-1"></use>
            </mask>
            <use id="椭圆形" fill="#FFED62" xlink:href="#path-1"></use>
            <path d="M26.3451429,14.6991308 C26.3451429,14.9589403 26.1348571,15.169226 25.8750476,15.169226 L6.56609524,15.169226 C6.30628571,15.169226 6.0952381,14.9589403 6.0952381,14.6991308 L6.0952381,12.9223688 C6.0952381,12.6633212 6.30628571,12.4522736 6.56609524,12.4522736 L14.9706667,12.4522736 C16.3337143,12.4522736 17.550981,11.7122594 18.7695393,10.8596289 C19.5819115,10.2912086 21.8188587,8.19514179 25.480381,4.57142857 C25.8521905,4.57142857 26.0769524,4.98361905 25.8750476,5.2967619 L21.3500952,12.4522736 L25.8750476,12.4522736 C26.1348571,12.4522736 26.3451429,12.6633212 26.3451429,12.9223688 L26.3451429,14.6991308 Z" id="形状结合" fill="#21206D" filter="url(#filter-3)" mask="url(#mask-2)"></path>
            <path d="M26.3451429,27.6515117 C26.3451429,27.9113212 26.1348571,28.1216069 25.8750476,28.1216069 L6.56609524,28.1216069 C6.30628571,28.1216069 6.0952381,27.9113212 6.0952381,27.6515117 L6.0952381,25.8747498 C6.0952381,25.6157022 6.30628571,25.4046546 6.56609524,25.4046546 L14.9706667,25.4046546 C16.3337143,25.4046546 17.550981,24.6646404 18.7695393,23.8120099 C19.5819115,23.2435895 21.8188587,21.1475227 25.480381,17.5238095 C25.8521905,17.5238095 26.0769524,17.936 25.8750476,18.2491429 L21.3500952,25.4046546 L25.8750476,25.4046546 C26.1348571,25.4046546 26.3451429,25.6157022 26.3451429,25.8747498 L26.3451429,27.6515117 Z" id="形状结合备份" fill="#21206D" filter="url(#filter-4)" mask="url(#mask-2)" transform="translate(16.220190, 22.822708) scale(-1, -1) translate(-16.220190, -22.822708) "></path>
        </g>
    </g>
</svg>