<?xml version="1.0" encoding="UTF-8"?>
<svg width="36px" height="36px" viewBox="0 0 36 36" version="1.1" xmlns="http://www.w3.org/2000/svg" xmlns:xlink="http://www.w3.org/1999/xlink">
    <title>icon/trade/active@1x</title>
    <g id="控件" stroke="none" stroke-width="1" fill="none" fill-rule="evenodd">
        <g id="icon/trade/active">
            <rect id="矩形备份-3" fill="#FFFFFF" x="0" y="0" width="36" height="36" rx="18"></rect>
            <g id="编组-3" transform="translate(6.000000, 6.000000)" fill-rule="nonzero">
                <path d="M22.982,1.00300203 L23,1.00300203 L23,3.05788685 L22.982,3.05788685 C20.0380697,3.06202251 17.6528049,5.44956724 17.6495,8.3954839 L17.6495,8.44201527 L20.156,8.44201527 L16.7105,11.8838348 L13.2575,8.43901324 L15.599,8.43901324 C15.599,8.42250211 15.599,8.40448999 15.596,8.39398291 C15.5974997,4.31390097 18.9031681,1.00465953 22.982,1.00300203 Z" id="路径" fill="#211F6D" transform="translate(18.128750, 6.443418) scale(-1, 1) translate(-18.128750, -6.443418) "></path>
                <path d="M7.40250001,14.6075181 C7.4025,18.6902731 4.09500359,22 0.0150000029,22 L0,22 L0,19.9451152 L0.0150000029,19.9451152 C2.95951613,19.9418064 5.34569341,17.5540199 5.34900001,14.6075181 L5.34900001,14.5609868 L2.84399999,14.5609868 L6.29400001,11.1161652 L9.744,14.5609868 L7.40250001,14.5609868 L7.40250001,14.6075181 L7.40250001,14.6075181 Z" id="路径" fill="#211F6D" transform="translate(4.872000, 16.558083) scale(-1, 1) translate(-4.872000, -16.558083) "></path>
                <circle id="椭圆形" fill="#211F6D" transform="translate(7.000000, 5.000000) scale(-1, 1) translate(-7.000000, -5.000000) " cx="7" cy="5" r="5"></circle>
                <path d="M18,13 C21.3137085,13 24,15.6862915 24,19 C24,22.3137085 21.3137085,25 18,25 C14.6862915,25 12,22.3137085 12,19 C12,15.6862915 14.6862915,13 18,13 Z M18,15 C15.790861,15 14,16.790861 14,19 C14,21.209139 15.790861,23 18,23 C20.209139,23 22,21.209139 22,19 C22,16.790861 20.209139,15 18,15 Z" id="形状结合" fill="#FFED62"></path>
            </g>
            <text id="交易" font-family="PingFangSC-Medium, PingFang SC" font-size="12" font-weight="400" fill="#21206D">
                <tspan x="6" y="47">交易</tspan>
            </text>
        </g>
    </g>
</svg>