<?xml version="1.0" encoding="UTF-8"?>
<svg width="36px" height="36px" viewBox="0 0 36 36" version="1.1" xmlns="http://www.w3.org/2000/svg" xmlns:xlink="http://www.w3.org/1999/xlink">
    <title>icon/invest/active@1x</title>
    <defs>
        <rect id="path-1" x="0" y="0" width="36" height="36" rx="18"></rect>
        <rect id="path-3" x="12" y="20" width="8" height="8" rx="4"></rect>
    </defs>
    <g id="控件" stroke="none" stroke-width="1" fill="none" fill-rule="evenodd">
        <g id="icon/invest/active">
            <text id="理财" font-family="PingFangSC-Medium, PingFang SC" font-size="12" font-weight="400" fill="#21206D">
                <tspan x="6.5" y="47">理财</tspan>
            </text>
            <mask id="mask-2" fill="white">
                <use xlink:href="#path-1"></use>
            </mask>
            <use id="矩形备份-2" fill="#FFFFFF" xlink:href="#path-1"></use>
            <path d="M29.5702479,22.9008264 C29.5702479,23.5702479 28.8264463,23.8677686 28.3057851,23.4214876 L24.8842975,20 L17,26.768595 C16.107438,27.661157 14.6942149,27.661157 13.8760331,26.768595 L9.11570248,21.338843 L5.2835176,24.3795264 C4.98599694,24.6770471 4.53971595,24.6770471 4.24219529,24.3795264 L3.87029446,24.0076256 C3.5727738,23.7101049 3.5727738,23.2638239 3.87029446,22.9663033 L7.55371901,15.9834711 C8.44628099,15.0909091 9.85950413,15.0909091 10.677686,15.9834711 L15.4380165,20.7438017 L20.2727273,15.1652893 L17.1487603,12.338843 C16.7024793,11.892562 17,11 17.6694215,11 L28.0826446,11 C28.9008264,11 29.4958678,11.7438017 29.4958678,12.5619835 L29.4958678,22.9008264 L29.5702479,22.9008264 Z" id="路径" fill="#211F6D" fill-rule="nonzero" mask="url(#mask-2)"></path>
            <mask id="mask-4" fill="white">
                <use xlink:href="#path-3"></use>
            </mask>
            <use id="矩形备份-2" fill="#FFED62" xlink:href="#path-3"></use>
        </g>
    </g>
</svg>