<svg xmlns="http://www.w3.org/2000/svg" width="26.156" height="42.539" viewBox="0 0 26.156 42.539">
  <path id="路径_60919" data-name="路径 60919" d="M13.688-41.32l.727.141-.445.727a1.08,1.08,0,0,0-.281.3h.422l.445-.3a2.9,2.9,0,0,1-.867,1.758L15-39.281l1.313-1.172a4.487,4.487,0,0,1-.445,1.336,13.986,13.986,0,0,0-1.758,1.734l-.867.75,1.031-.164.867-1.172,1.453-1.453.75.3a6.309,6.309,0,0,1-1.172,1.148l-.3.75a4.021,4.021,0,0,0,1.172-.891A23.2,23.2,0,0,1,18.8-39.867l.586.891-.586-.141a1.05,1.05,0,0,0-.281.422,4.119,4.119,0,0,0-.586,1.172,9.821,9.821,0,0,0-1.336,1.172l.445.3,1.313-1.031a10.47,10.47,0,0,1,1.9-1.758,4.02,4.02,0,0,1,.3.867l-2.625,2.2-.3.867,1.031-.141-.141.141.563-.422,1.477-1.617a7.557,7.557,0,0,1,1.758-1.031l-.3.586-.867.891-.727,1.008L18.8-34.148a2.6,2.6,0,0,0,1.172-.586l1.594-1.031.586-1.031.3.164.727-.3.281.141L20.7-34.148l-.867,1.172,1.594-.75a14.932,14.932,0,0,0,1.758-1.9l.867-.586-.141,1.172v.141a2.121,2.121,0,0,0,.891-.422,4.9,4.9,0,0,1-.586,1.313l1.008-.3.164.586-1.617,2.063-1.9,1.594-.445.891,1.031-.586a6,6,0,0,0,.727-1.172l1.313-1.031a8.374,8.374,0,0,1,1.031-.867l.422.586-.281.281a16.76,16.76,0,0,0-1.453,1.617l-1.9,1.594-.586.75,1.008-.3,1.172-1.453,1.477-1.312-.164.281.164.586-2.344,2.484a6.689,6.689,0,0,0-.891,1.453l.586-.141a3.419,3.419,0,0,0,1.172-1.9,12.972,12.972,0,0,0,1.617-1.312A1.836,1.836,0,0,1,26.7-30.656a2.619,2.619,0,0,1-.3,1.172l.586.586L25.8-27.141l-3.07,3.211-.141.3.141.586,1.172-1.031a8.6,8.6,0,0,0,1.031-1.453l.445-.3A2.647,2.647,0,0,1,27.281-27a12.4,12.4,0,0,1-1.336,1.617l1.336.141L26.7-24.07l.586.445-.586.281a4.726,4.726,0,0,0-.445,1.617,12.806,12.806,0,0,1,1.453-.891,3.278,3.278,0,0,0,.445,1.031.881.881,0,0,0-.445.445A16.529,16.529,0,0,0,26.7-19.1l-1.312,1.9-.75,1.758a6.294,6.294,0,0,0-1.594,1.453l-.586,1.758a3.622,3.622,0,0,0,1.453-1.594A3.906,3.906,0,0,0,25.078-15.3a10.659,10.659,0,0,0,1.031-1.758,3.265,3.265,0,0,1,1.453-.867l.445.445-.727,2.906A2.388,2.388,0,0,0,26.25-13.1l-1.031,1.313.891-.586A14.864,14.864,0,0,1,24.492-11.2,9.543,9.543,0,0,1,23.32-9.164l-.727,1.617.445-.445a10.618,10.618,0,0,1,1.453-1.453l1.9-3.07.891.141-.3.867L26.7-9.445l.586-.3-.164.586L24.8-4.922a8.172,8.172,0,0,0-1.336,1.313l-1.312,1.9a13.571,13.571,0,0,1-2.18,1.477l-2.2.727a8.32,8.32,0,0,0-1.312.281A2.813,2.813,0,0,1,17.484.188l.727-.141-1.9-1.312A2.994,2.994,0,0,1,15.281-.4L13.969-.82a1.958,1.958,0,0,0-.281.727l-.3.445-1.594-.3a.579.579,0,0,0-.445.3l-.727.422a2.066,2.066,0,0,0-.3-1.008L10.758-.4l-.727-1.008A3.4,3.4,0,0,1,9-.984L7.547-1.57A20,20,0,0,1,5.789-3.3,6.192,6.192,0,0,1,4.336-5.2l-.727-2.2L3.445-9.023a3.7,3.7,0,0,0-.727-1.594l.3-.586L2.578-12.68,2.133-13.1l.3-1.172-.445-2.344.141-1.9-.141-.445.141-2.484-.141-.586.141-1.594.727-2.2a4.623,4.623,0,0,1,.586-1.594l.586-1.336-.727.586-.141-.586A8.015,8.015,0,0,1,4.2-30.352l1.148-3.375-.281-.422a10.07,10.07,0,0,1,1.313-1.758,10.636,10.636,0,0,1,1.453-1.758l2.648-2.93a4.936,4.936,0,0,1,1.313.3A6.468,6.468,0,0,0,13.688-41.32Zm-.141,1.172a7.956,7.956,0,0,1-.891,1.031,4.661,4.661,0,0,0-.586,1.148L13.1-39.117l.727-.586ZM9.891-38.531A3.056,3.056,0,0,0,9.3-37.523l.422.141.445-.422Zm-.75,1.148-.562,1.031A1.788,1.788,0,0,0,9.141-37.383Zm6.445.164q.023.164.281.281Q15.844-37.125,15.586-37.219ZM15-36.8l-.141.586.422-.141Zm-2.344.586-.281.586A.778.778,0,0,0,12.656-36.211Zm1.172.727-.281.445A.467.467,0,0,0,13.828-35.484Zm3.656,0v.3A.2.2,0,0,0,17.484-35.484Zm-3.375.586h.3v-.281h-.141Zm9.938-.422h.3l-.141.281Zm-13.875.281-.445.727.445.3.445-.727Zm4.969,0-.281.586.586-.445Zm8.484.141q.023.188.281.3Q23.883-34.734,23.625-34.9Zm-10.078.586h.281l-.141-.281Zm9.773-.281-.586.867-.727.445a2.51,2.51,0,0,0,1.172-.445l.445-.586A.6.6,0,0,0,23.32-34.594Zm-6.867.141-.422.727a2.335,2.335,0,0,0,.867-.422Zm-3.211.141-.586.75a3.659,3.659,0,0,1-.867.586l-.586.141a.782.782,0,0,0,.281.422l.586.164-.445.586-.281.867-.867,1.031.141.727.445.281-.445.75-.727.867L9.3-25.969a1.923,1.923,0,0,0-.445,1.031l-.867.727A2.828,2.828,0,0,0,7.547-23.2L6.094-21.586a1.363,1.363,0,0,0,.281.727L5.93-21l.164.586a3.508,3.508,0,0,0,.727-.445l.422-.867,1.477-1.9-.445-.445.586.141L9-24.211l.586-.727.586-1.031a1.705,1.705,0,0,1,.727-.586l.445.445-.586.586L9.445-23.789l.281.445A1.576,1.576,0,0,0,9-22.758l.586-.141.141.141.164.891-.164-.3-.141.141-.727,1.172a1.116,1.116,0,0,0,.445.727l.281.3a1.286,1.286,0,0,0-.281.867L8.719-17.93l-.3.141.164.445.281-.445.727-.445.3.586-.3.75-.445.727a5.592,5.592,0,0,0-.422,1.008l-.445.75-.586.727.3.445a1.831,1.831,0,0,0-.75.563L6.234-11.062l-.727,1.9.422.141.586-1.148A2.826,2.826,0,0,0,6.961-11.2l.727-.891A4.99,4.99,0,0,1,8.273-13.1l.445-1.172L9.445-15a1.125,1.125,0,0,1,.727.422L9-12.68a2.553,2.553,0,0,0-.281,1.031,2.145,2.145,0,0,0-.586,1.031,2.079,2.079,0,0,0-.586.586L7.1-9.164l-.727.727.141.891a1.971,1.971,0,0,0-.586.727l.164.727L6.82-7.125l.141-.422,1.617-2.93A.785.785,0,0,1,9-11.062a1.536,1.536,0,0,1,.727-.445l.164.445L9.445-9.891l-.586.867L8.414-7.992l-.586.727a.486.486,0,0,1,.3.3l.445-.586L9.727-9.609l.3-.727a1.69,1.69,0,0,1,.727.3l-.586,2.039a7.856,7.856,0,0,0-.586.727l.445-.141.727-.727a1.4,1.4,0,0,1,.445.727L9.141-3.023l.3.586.586-.281,1.594-3.82a2.581,2.581,0,0,1,1.031-.586l-.141,1.336a2.523,2.523,0,0,1,1.031-.75,2.135,2.135,0,0,0,.422,1.031,2.145,2.145,0,0,0,.586-1.031l.891-1.008,1.148-2.625L17.18-11.2a1.214,1.214,0,0,0,.445-.445,5.382,5.382,0,0,1,.586-1.312l.727-1.172a1.188,1.188,0,0,1,.586-.586,3.154,3.154,0,0,0-.445,1.031l.75-.891.281-1.734-.281-.586a.905.905,0,0,0,.422-.445l.164-.727-.164-.3-.141-.586.3-.281-.3-.141.445-.891-.445-.867.141-1.477a1.464,1.464,0,0,0-.281-.727l.281-.586a2.387,2.387,0,0,0-.281-1.008l.141-1.172L18.938-30.07l-.586-1.172a1.341,1.341,0,0,1-.422-1.008,4.473,4.473,0,0,1-.445-1.312,2.96,2.96,0,0,0-1.172.422,6.8,6.8,0,0,1-1.172.445l-.867-.727A7.3,7.3,0,0,0,13.242-34.312Zm-3.8.164A3.438,3.438,0,0,0,9-32.977a7.474,7.474,0,0,0-1.172,1.008L6.82-30.656a2.123,2.123,0,0,0-.445,1.172l2.766-3.492.75-.75Zm1.031.422-.586.75L8.719-30.937l-1.172.867L6.68-29.039l-.445.727A3.614,3.614,0,0,0,5.648-27a1.027,1.027,0,0,0-.445.727l1.172-1.008a1.349,1.349,0,0,1,.445-.727,5.629,5.629,0,0,1,.867-1.031,2.342,2.342,0,0,1,.586-.727l.445-.891a7.36,7.36,0,0,0,.867-1.008L10.9-33.422Zm13.289.164a2.3,2.3,0,0,1-.727.727l-.586.727q.188.023.281.281l.3-.141a1.664,1.664,0,0,1,.727-.586l.445-.727Zm-2.2.422.445.3A.6.6,0,0,0,21.563-33.141Zm-.281.164L21-32.414l.727-.141A.791.791,0,0,0,21.281-32.977Zm-10.523.867v.281l.3-.141Zm11.555,0-.445.586.586.281.281-.586Zm-11.836.281-.3.75.586-.3A.787.787,0,0,0,10.477-31.828Zm11.25.3q.023.188.281.281Q21.984-31.383,21.727-31.523Zm-2.484.445a1.511,1.511,0,0,0,.422.727A1.511,1.511,0,0,0,19.242-31.078ZM9.727-30.8a.532.532,0,0,0,.445.3Zm-.281.3-3.937,5.25.141.586a.6.6,0,0,0,.281-.281l2.2-2.789.727-1.312,1.031-1.172Zm10.523,1.148a1.363,1.363,0,0,0,.281.586A.778.778,0,0,0,19.969-29.344ZM4.2-28.758v-.281H4.031Zm21.914.164v-.3h-.164Zm-16.523,0v.281l.3-.141Zm16.078,0-2.2,2.18-.727,1.031a.427.427,0,0,0,.3.281,1.316,1.316,0,0,1,.586-.586,4.462,4.462,0,0,1,.586-.867l1.008-1.031A2.212,2.212,0,0,0,25.664-28.594Zm-16.219.281a1.427,1.427,0,0,0-.3.727A1.427,1.427,0,0,0,9.445-28.312Zm-.586.727a9.571,9.571,0,0,1-1.031,1.617L6.516-24.516a4.813,4.813,0,0,0,1.758-1.172A5.854,5.854,0,0,0,8.859-27.586Zm16.8,2.648a.491.491,0,0,0,.281.281Q25.922-24.8,25.664-24.937ZM4.2-24.656a.7.7,0,0,0,.281.445A.7.7,0,0,0,4.2-24.656Zm1.148,0-.141.445h.3l.141-.445Zm20.039,0q.023.188.281.3A.569.569,0,0,0,25.383-24.656Zm-.3.3a.5.5,0,0,0,.3.281A.6.6,0,0,0,25.078-24.352ZM6.234-23.93h.281l-.141-.281ZM4.2-24.07l.141.445v-.445Zm1.9.141L5.648-22.9a.805.805,0,0,0-.3.586l1.031-1.031.445-.586-.586.141Zm2.18.3a.428.428,0,0,1-.281-.3Zm-4.828.141a.881.881,0,0,0,.445.445A.7.7,0,0,0,3.445-23.484Zm.891.141-.3.891A1.836,1.836,0,0,0,4.336-23.344Zm19.875,0a.976.976,0,0,0,.281.3l.141-.164Zm-.3.3a3.544,3.544,0,0,0-.727,1.453A3.543,3.543,0,0,0,23.906-23.039ZM3.445-22.9a.771.771,0,0,0,.3.281A.5.5,0,0,0,3.445-22.9Zm-.281.281a2.112,2.112,0,0,0,.445.75A1.333,1.333,0,0,0,3.164-22.617Zm5.414.164-.3.422.141.3.445-.445A.42.42,0,0,0,8.578-22.453Zm-4.687.422v.3l.3-.141Zm-.586.164a.849.849,0,0,0,.586.563A1.209,1.209,0,0,0,3.3-21.867Zm4.828,0-.891,1.734L6.234-19.1a6.8,6.8,0,0,1-.891,1.172l-.867,1.758a9.7,9.7,0,0,0,1.172-1.312A13.412,13.412,0,0,0,6.68-18.961l.867-1.172A4.648,4.648,0,0,0,8.133-21.867Zm13.008.422a.521.521,0,0,0,.281.445Zm4.242,0-1.336,1.617-.727,1.172A10.464,10.464,0,0,0,24.8-19.969,4.011,4.011,0,0,0,25.383-21.445ZM3.75-20.859l.141.445v-.445Zm17.391,0v.3l.281-.164Zm-15.492.141-.727,1.477,1.172-.891Zm-2.2.3.3,1.031a.531.531,0,0,0-.3.422l.3.727.586-1.453A2.431,2.431,0,0,0,3.445-20.414Zm4.688.586q.023.188.281.281Q8.391-19.711,8.133-19.828Zm14.016.586h.3l-.141-.3ZM7.688-19.1l.3.445A.579.579,0,0,0,7.688-19.1Zm-.141.445-.3.586.586-.3Q7.8-18.562,7.547-18.656Zm-4.1.422a.579.579,0,0,0,.3.445L3.3-16.9a1.079,1.079,0,0,0,.445.586l.586-.891A6.787,6.787,0,0,0,3.445-18.234Zm20.016,0a.941.941,0,0,0,.3.3A.486.486,0,0,0,23.461-18.234ZM7.1-18.07,4.617-14.133l-.422.891v.422h.422v-.141L5.2-14.133A2.578,2.578,0,0,1,5.93-15l.586-1.477A3.116,3.116,0,0,0,7.1-18.07Zm16.359.281-1.453,1.313a2.759,2.759,0,0,0-.586,1.172l1.172-1.312A4.957,4.957,0,0,0,23.461-17.789Zm-15.187.445a2.417,2.417,0,0,1-.445.867.569.569,0,0,0,.3.3l.445-.891A.6.6,0,0,0,8.273-17.344Zm-.867.867a3.749,3.749,0,0,0-.445,1.031L6.82-14.414l.727-.75.445-.867Zm-3.07.445q.023.188.281.281Q4.594-15.891,4.336-16.031Zm-.727.445v-.3H3.445Zm3.07.141-.3.586A1.02,1.02,0,0,0,6.68-15.445Zm-.164,1.172-.281.586.445.141.281-.586Zm15.047,0a.428.428,0,0,0,.3.281A.6.6,0,0,0,21.563-14.273Zm-15.469.586L5.063-12.094l-.3.586-.141,1.172.727-.727.445-.867.3-.891.422-.727ZM4.031-12.68l.3.445.141-.445Zm5.7.164a.5.5,0,0,1-.281-.3Zm14.625,0v.281l.281-.141Zm-5.836.281-.164.586.586-.445Zm5.531,0a2.956,2.956,0,0,0-.586,1.172A2.32,2.32,0,0,0,24.047-12.234Zm-17.367.3v.281A.176.176,0,0,0,6.68-11.93Zm14.883,0-.422,1.172a.683.683,0,0,0,.422.281l.586-1.031Zm1.477.867-.727,1.172a4.936,4.936,0,0,0-.75,1.453L22.9-9.891l.727-1.172-.445.141Zm-5.859.891L16.9-8.133l-.445.141a13.863,13.863,0,0,1-1.008,1.758,1.669,1.669,0,0,0,.586.445l1.594-1.172a2.39,2.39,0,0,0,.891-.445l-.586-.141-.3.281.141-.141.445-.727a6.686,6.686,0,0,0-1.312.586l.867-1.172A1.633,1.633,0,0,0,17.18-10.172Zm2.648.867v-.3h-.164Zm-1.172-.141v.281l.281-.141Zm.727.281L18.07-7.547l.727.141.727-.727.3-.891Zm6.422.727.3.164v-.445h-.164Zm-1.453,0-.3.586A1.02,1.02,0,0,0,24.352-8.437Zm-3.937.3-.3.586A1.02,1.02,0,0,0,20.414-8.133Zm-.586.586-1.9,3.656a1.6,1.6,0,0,0-.445.867L19.078-5.2a4.943,4.943,0,0,1,.75-1.336l.281-.727Q20.086-7.453,19.828-7.547Zm-9.8.281-.586.445A.715.715,0,0,0,10.031-7.266Zm13.594,0-.3.586.586-.445Zm-15.633.3a2.106,2.106,0,0,0-.586,1.008l-.445.75.445.281a3.423,3.423,0,0,1,.422-1.031l.3-.727ZM9.3-6.68,9-6.094l.586-.141.141.141A1.153,1.153,0,0,0,9.3-6.68Zm-4.969.445.281.141v-.445H4.477Zm14.016,0-.281.586A.9.9,0,0,0,18.352-6.234Zm4.828.281v-.281h-.141ZM8.859-6.094a12.854,12.854,0,0,0-.586,1.758l-.445.867a.5.5,0,0,0,.445.3L9-4.477l.3-1.312Zm13.594.586.141.3.3-.164v-.422h-.164Zm-10.242.141-.586.75.445.281Zm4.1,0a.483.483,0,0,0,.281.3Q16.57-5.25,16.313-5.367ZM6.82-5.2a.914.914,0,0,0,.422.586ZM9-4.922A.42.42,0,0,1,8.719-5.2Zm4.1-.141q.023.188.281.281Q13.359-4.969,13.1-5.062Zm4.523,0-.141.586.445-.445Zm4.688.141L21-3.164l-.586,1.031.422-.3a4.355,4.355,0,0,0,.727-1.172A3.213,3.213,0,0,0,22.313-4.922Zm-9.352.3-.164.563.586-.141Zm7.594,0a3.971,3.971,0,0,0-.586,1.594A4.153,4.153,0,0,0,20.555-4.617Zm-5.109.141-.586.727L15-3.469h.281v-.141l.445-.727Zm1.734,0a.428.428,0,0,0,.3.281A.428.428,0,0,0,17.18-4.477Zm2.344,0-.445.727A.952.952,0,0,0,19.523-4.477Zm-7.9.141-.281.727.586-.445A.5.5,0,0,0,11.625-4.336Zm3.07.727-.727,1.477A2.6,2.6,0,0,0,14.7-3.609ZM11.2-3.469l-.3.75.727-.586Zm1.313,0-.3.586.164.3.422-.586Q12.773-3.352,12.516-3.469Zm7.008.3a.7.7,0,0,0,.445.281Zm-.281.281-.727,1.477,1.148-1.031Zm-8.344.3.164.445.141-.445Zm3.8,0-.422.727A1.273,1.273,0,0,0,14.7-2.578ZM9.3-2.3l-.164.586.586-.422Zm2.625.164a.491.491,0,0,0,.281.281Q12.188-1.992,11.93-2.133Zm4.1.281h.281l-.141-.281Zm5.109-.281a1.7,1.7,0,0,0-.3.867l.586-.445A.5.5,0,0,0,21.141-2.133Zm-9.516.422-.141.727.445.164A1.733,1.733,0,0,0,11.625-1.711Zm4.406.3v-.3h-.164ZM11.484-.82a.656.656,0,0,0,.3.422A.656.656,0,0,0,11.484-.82Zm7.172.281-.445.445A.7.7,0,0,0,18.656-.539Zm-4.1.141,1.031.3L14.414.047Zm-2.18.891q.164.023.281.281Q12.469.75,12.375.492Zm3.492.141-.422.586A1.124,1.124,0,0,0,15.867.633Z" transform="translate(-1.992 41.32)"/>
</svg>
