<svg xmlns="http://www.w3.org/2000/svg" width="19.219" height="42.305" viewBox="0 0 19.219 42.305">
  <path id="路径_60918" data-name="路径 60918" d="M16.781-40.734l1.359.891-.914.609,1.359-.3,1.477-.75-.141.609-.891.586.727,1.031-1.172.914,1.922-.609a1.892,1.892,0,0,1-1.2,1.2l-1.336,1.055a7.122,7.122,0,0,0-2.227,1.172,2.933,2.933,0,0,1-.445.914,2.881,2.881,0,0,0,1.031-.3l.891-.609-.445-.586.609.445,1.477-1.031.75-.914.75.609a14.137,14.137,0,0,1-1.781,1.2,4.679,4.679,0,0,1-1.2.891,10.786,10.786,0,0,0-1.336,1.336l1.617-.891.914-.75a1.729,1.729,0,0,1,.586.75,3.392,3.392,0,0,1,.891.445,2.106,2.106,0,0,0-.586,1.5,1.913,1.913,0,0,0-.445,1.172l1.031-.727a2.1,2.1,0,0,1,.891.281,9.258,9.258,0,0,0-1.922,1.641,5.058,5.058,0,0,0-1.359,1.2,1.475,1.475,0,0,0-.727.75,9.517,9.517,0,0,0,1.922-1.5,5.587,5.587,0,0,1,1.945-1.336,2.951,2.951,0,0,1-1.2,1.5,7.683,7.683,0,0,1-1.031,1.2l-.609.727a1.657,1.657,0,0,0,.891-.281l1.055-.891.3.445-.164.281-1.2,1.359a3.023,3.023,0,0,0-.891.891,8.253,8.253,0,0,0-1.336.891,6.024,6.024,0,0,0-1.781,1.781,9.339,9.339,0,0,0,1.641-.75l1.781-1.172a3.2,3.2,0,0,0,.75-1.359l.586.164v-.3a.91.91,0,0,1,.609.586L16.5-21.352a7.431,7.431,0,0,1-1.359.727l-.281.914,1.2-.75.891-.891,1.781-1.2,1.031-.891.469.727-1.2,1.055a4.111,4.111,0,0,0-1.055.75l.75-.164a4.637,4.637,0,0,1,1.641-.281l-.445.586-3.281,2.25L14.859-16.9l-.3.914a5.37,5.37,0,0,0,1.031-.75,15.119,15.119,0,0,0,1.641-1.336l1.359-1.055a3.577,3.577,0,0,1,1.172-.75l.164.445-.3.3.141,1.336-3.867,3.281a3.651,3.651,0,0,1-1.336,1.336l-.3,1.055a3.446,3.446,0,0,0,.891-.75l1.5-1.2,1.031-1.2,1.5-1.031a3.618,3.618,0,0,1,1.336-.609l.164.164-.164.445-2.086,1.641a10.1,10.1,0,0,0-.891,1.031l.75-.281,1.945-1.2.727-.164.3.164-1.336,1.031-1.055,1.2.445.164.164-.164a5.161,5.161,0,0,1-1.055,1.641L16.781-9.891a2.094,2.094,0,0,0-.586.75l-1.336,1.5,1.477-.75.891-1.2a7.2,7.2,0,0,0,1.2-1.2.347.347,0,0,0,.3-.3l.586.469-.727,1.172,1.336.75-2.25,2.25a20.517,20.517,0,0,0,1.945-.75,4.672,4.672,0,0,1-.75,2.227,9.591,9.591,0,0,0-1.336,1.055l.891-.3.3.586a.521.521,0,0,0,.445-.281l.445.891-1.336.75a1.254,1.254,0,0,1,1.2,1.031L18.141.516l-1.359.609A4.2,4.2,0,0,1,15.75.68l-1.2.891-2.227-.3a14.763,14.763,0,0,1-.75-2.508l.3-2.531-.164-1.641.164-.445-.164-.3.3-1.2a.636.636,0,0,0-.3-.445,20.653,20.653,0,0,0,.445-2.531l-.141-2.086.586-2.531a1.206,1.206,0,0,0-.586-.445,2.733,2.733,0,0,0,.586-.75l-.281-2.086.445-.445-.3-1.031.586.586.164-.445-.3-1.641.3-1.5-.164-1.031a.674.674,0,0,0-.586.3,1.127,1.127,0,0,1,.586-.75,4.948,4.948,0,0,0-.445-1.641l.3-1.055-.141-1.781a4.547,4.547,0,0,0-1.8.75L9.8-27.023a8.413,8.413,0,0,0-1.641.75l-1.5,1.336A3.875,3.875,0,0,0,5.625-23.6a11.8,11.8,0,0,0-1.359-.727l-1.031.445.141-.445-.75.891.164-.3-.3-.445-.141-1.945-.3-.445.445-1.2A6.851,6.851,0,0,1,2.039-30l4.477-2.7,5.367-5.062a8.817,8.817,0,0,0,1.922-.891Zm1.945,1.945a2.3,2.3,0,0,0-.586,1.031A1.921,1.921,0,0,0,18.727-38.789Zm-1.336.727-2.086,1.2.141.3h.3V-36.7l-.164.445a7.762,7.762,0,0,0-1.172,1.2,1.865,1.865,0,0,1,.891.281l-.445-.141-.164.141a.781.781,0,0,1-.445-.445l-.445-.445-.3.609.164,1.031a5.184,5.184,0,0,0,1.477-.3l2.391-1.477.891-.891a5.984,5.984,0,0,0-1.336.586l-.75.141.75-.727a.666.666,0,0,0-.3-.445A1.311,1.311,0,0,0,17.391-38.062Zm-5.672,3-.3,1.031.3.164.3-.914A.428.428,0,0,0,11.719-35.062Zm1.945,1.2.141.445.609-.3-.445-.3Zm-3.281.586v-.3h-.141Zm.891-.3a.708.708,0,0,0,.3.3A.486.486,0,0,0,11.273-33.586Zm.891,0a.579.579,0,0,0,.3.445Zm2.977.164-.281.445A.616.616,0,0,0,15.141-33.422Zm-5.2.445.3.141-.164-.445Zm1.336-.3-.141.445h.281Zm.75.3-.141.445h.445A.579.579,0,0,0,12.023-32.977Zm6.4,0a.428.428,0,0,0,.3.281A.6.6,0,0,0,18.422-32.977ZM9.8-32.391l.281.141V-32.7H9.938Zm1.336-.3-.164.445h.3V-32.7Zm6.844,0a6.476,6.476,0,0,0-1.336,1.5A5.412,5.412,0,0,0,17.977-32.7ZM9.633-31.5h.3v-.281H9.8Zm8.508,0-1.8,1.5a4.679,4.679,0,0,0-.891,1.2l.609-.445A8.382,8.382,0,0,1,17.531-30.3Zm-2.25.164-.3.586.609-.3A.428.428,0,0,0,15.891-31.336Zm-3.562.586v-.3h-.164Zm-1.641.141v-.281h-.164Zm1.2,0L11.719-30l.445-.3Q12.141-30.492,11.883-30.609Zm6.4.445-1.641,1.5a3.063,3.063,0,0,0-.891,1.055l1.641-1.2A4.108,4.108,0,0,0,18.281-30.164ZM11.414-30v.3l.3-.164Zm-5.2.141.3.445.141-.445Zm4.031.445-.3.445.141.3.3-.445v-.3Zm-2.7.164-.141.445h.3v-.445Zm-1.477.727V-28.8H5.906Zm7.148-.281-.164.445.3-.164V-28.8Zm-7.008.141a2.4,2.4,0,0,0-.445,1.055A2.569,2.569,0,0,0,6.211-28.664Zm-2.672.3v.3l.281-.164Zm-.3.3-.164.586a1.505,1.505,0,0,0,.469.3l-.164-.609.3-.141Zm2.977.281.3-.141-.164-.141Zm1.031.3a1.39,1.39,0,0,0,.3.3Q7.523-27.352,7.242-27.469Zm9.258.3a3.445,3.445,0,0,0-.914,1.031A3.445,3.445,0,0,0,16.5-27.164Zm-13.43.445.164.445v-.445Zm14.461.445h.3v-.3h-.164Zm-.141,0-1.2,1.031L15.3-24.187l.75-.3a6.831,6.831,0,0,1,1.172-.586l.914-1.2-.609.141ZM2.93-25.828h.3v-.3H3.07Zm.75.75-.141.586.445-.3A.428.428,0,0,0,3.68-25.078ZM12.164-23.3a.666.666,0,0,1,.3.445Zm0,.586.75.164-.586.141Zm0,.469a1.034,1.034,0,0,1,.609,1.031Zm5.508,1.336a.428.428,0,0,0,.3.281Q17.953-20.789,17.672-20.906Zm-.281.281-.609.75A1.15,1.15,0,0,0,17.391-20.625Zm-.891.75a1.435,1.435,0,0,0-.445.891A1.615,1.615,0,0,0,16.5-19.875Zm-1.055.891L15-18.516a4.008,4.008,0,0,0,.891-.3Zm3.422.469L17.391-17.18a2.772,2.772,0,0,0-.75,1.2l1.5-1.359A2.533,2.533,0,0,0,18.867-18.516Zm-4.008.141v.3l.281-.164Zm1.2,2.391v.281l.281-.141Zm1.477.141a.486.486,0,0,1,.3.3ZM15-15.4l-.141.445h.281l.445-.445Zm1.5,2.391a.976.976,0,0,0,.281.3Q16.758-12.891,16.5-13.008Zm-.3.3a.6.6,0,0,1-.3.281l.164.3.586-.3A.7.7,0,0,0,16.2-12.7Zm-3.422.586q.023.188.281.3Q13.031-11.977,12.773-12.117Zm2.813,0a3.385,3.385,0,0,0-.727,1.336A2.412,2.412,0,0,0,15.586-12.117Zm3,0-.445.445Q18.586-11.742,18.586-12.117Zm-1.055.75-.445.586A.641.641,0,0,0,17.531-11.367Zm-.75.445v-.3h-.141Zm-4.008,0,.281.586A.778.778,0,0,0,12.773-10.922Zm3.867.445-.445.586A1.079,1.079,0,0,0,16.641-10.477ZM15-10.031l.445.3.3-.164Zm-.141.141-.75.75.445-.141.141.141.609-.445Zm-2.25.164a.428.428,0,0,0,.3.281A.428.428,0,0,0,12.609-9.727Zm.164.445-.164.445h.3v-.445Zm4.9.586L16.336-7.359,15-6.609a4.786,4.786,0,0,1-.891.891l-.141.914.727-.3,2.086-2.25.891-.727-.281.586a3.2,3.2,0,0,0,.586-.75ZM14.555-7.641v-.3h-.141Zm-.75.586h.3l-.141-.3Zm3.586.891v.3L17.672-6Zm-.3.3v.3l.3-.164Zm1.2,0-1.2,1.2-.75.3.445.281,1.359-1.031.727-.75Zm-1.641.3v.445l.445-.3ZM15.75-4.523l-.164.445.3-.141v-.3Zm-2.086.75-.3.75.609-.609Zm2.836.3-.445.75A1.333,1.333,0,0,0,16.5-3.469Zm-2.25.3v.281l.3-.141Zm1.055.445q.023.188.281.281Q15.563-2.578,15.3-2.719Zm-.3.281a.486.486,0,0,0,.3.3A.692.692,0,0,0,15-2.437Zm-2.227.164q.023.188.281.281Q13.031-2.18,12.773-2.273Zm1.781.141-.3.445.609-.3Zm3.727,1.055.141.445.164-.445Z" transform="translate(-2.039 40.734)"/>
</svg>
