<svg xmlns="http://www.w3.org/2000/svg" width="27.914" height="41.953" viewBox="0 0 27.914 41.953">
  <path id="路径_60914" data-name="路径 60914" d="M16.242-40.758,18-40.477l.445-.281a5.575,5.575,0,0,0,1.617.281l1.453.164a2.016,2.016,0,0,1,1.594.867,8.827,8.827,0,0,1-2.32-.727,5.171,5.171,0,0,0-1.031,1.313L18-37.242l-.586.867a1.142,1.142,0,0,0,.727-.586A14.092,14.092,0,0,0,19.9-38.555L20.344-39l.281,1.031-.281-.164-.141.3-1.312,1.594L19.9-36.82l1.758-1.734L22.547-39l1.313.727a13.3,13.3,0,0,0-1.758,1.9,4.786,4.786,0,0,0-.891.891,4.3,4.3,0,0,0,1.031-.75l1.031-.727a1.573,1.573,0,0,0,.422-.727,2,2,0,0,1,.891.445l-3.375,3.352.586-.281a11.684,11.684,0,0,0,1.313-.891l1.031-1.008a1.449,1.449,0,0,0,.3-.75l1.008.445a8.3,8.3,0,0,1-.586,1.758l-.422.727a1.225,1.225,0,0,0,.727-.586l1.453-1.594.727.281.727,2.344a3.087,3.087,0,0,1,.3,1.172l-.3,1.453-1.312,1.453-.141.75.891-.75,1.008-1.312a5.192,5.192,0,0,1,1.172-.727,6.071,6.071,0,0,1-1.172,2.039l-.445,1.031a5.579,5.579,0,0,0-1.148.727L23.7-24.234a9.838,9.838,0,0,0-1.148,2.18l-.164.75h.3v-.164l.586-.422,2.039-2.484a6.9,6.9,0,0,1,1.313-1.477,7.422,7.422,0,0,0,.891-1.758l1.453-1.312a2.808,2.808,0,0,1,1.313-.586L30-28.617l-1.758,3.07.422-.445.164.445a2.737,2.737,0,0,1-.586,1.453l-.3,1.031.891-.586L27.8-21.891a7.53,7.53,0,0,1-1.172,1.313,5.494,5.494,0,0,1-.867,1.453,8.067,8.067,0,0,0-1.312,1.9L22.1-14.742q-.633.773-1.477,1.617l-1.734,1.758a7.013,7.013,0,0,0-1.9,1.594l-2.93,3.516,3.07-.445.586-.141,1.453.141.445-.141A1.4,1.4,0,0,0,20.2-6.7l2.766-.141a15.111,15.111,0,0,1,2.93.727l1.172.3q.023-.187.281-.3l.445-.141,1.453-.3.164.586-.3.164.141.867-.586,1.031a.687.687,0,0,1,.445.586L28.828-2.32l.586-.727A2.956,2.956,0,0,1,30-1.875L29.25-.7a3.071,3.071,0,0,1-1.9,1.172L26.766-.562a9.058,9.058,0,0,1-2.039.445,6.2,6.2,0,0,0-1.617.281l-.141.445L20.484-.117l-.141.727a2.587,2.587,0,0,1-1.617-.727,10.384,10.384,0,0,1-2.484.586l-.727-.891L13.031.469,12.75-.117,11.578.75l-.445-.867a4.635,4.635,0,0,0,.586-1.477l-.727.75A3.006,3.006,0,0,1,9.094.164,1.534,1.534,0,0,0,7.617-.7,2.969,2.969,0,0,1,6.3.164a1.958,1.958,0,0,1-.281-.727,3.209,3.209,0,0,1-1.172.445L4.266.609,2.953.469,2.367-.258,3.4-3.633a5.451,5.451,0,0,0,.727-2.039L4.852-6.7l.727-1.9L6.75-10.5,8.2-11.531l1.477-1.9a2.971,2.971,0,0,1,.727-1.172l-.445.75,1.758-1.172A6.906,6.906,0,0,0,12.891-16.2l.281.141.3-.281a14.76,14.76,0,0,0,1.313-1.172l-.586-.164-.141.164L15.07-18.4l3.656-2.484,1.617-1.594a10.611,10.611,0,0,0,.727-1.9l-.727-1.172.141-1.312L20.2-28.2a12.319,12.319,0,0,0-.727-2.484l-1.617-1.734-.445-1.172a3.708,3.708,0,0,0-.867.281l-.891-.281-.281.141.281.445-.586-.164-1.9,1.313-1.148,2.344a4.438,4.438,0,0,1-1.477,1.477l-2.039.281A5.651,5.651,0,0,0,6.164-28.2l-1.758-.141-.141-.586.141-.281.586-2.344a2.6,2.6,0,0,0-.586-.586L5.133-33a12.534,12.534,0,0,1,.586-1.617A7.244,7.244,0,0,1,7.2-36.656l1.453-1.312a15.239,15.239,0,0,0,2.2-1.172,4.583,4.583,0,0,1,1.734-.3,12.111,12.111,0,0,1,2.063-.586Zm1.477.867v-.281h-.141Zm-2.2.586v-.281h-.141Zm2.2-.141a.976.976,0,0,0,.281.3l.141-.164Zm5.836-.141a3.229,3.229,0,0,1,1.477,1.313A7.619,7.619,0,0,1,23.555-39.586Zm-6.141.281-.727.445a7.112,7.112,0,0,0-.727,1.172l-.727.867.141.3.727-.3,1.313-1.594.445-.727Zm-2.18.3-.3,1.313.891-1.172Zm-1.312.727a4.042,4.042,0,0,0-1.031,1.031l-.141,1.008.867-1.008Zm11.672-.141a3.087,3.087,0,0,1,.3,1.172l-.586-.727Zm-14.016.727-.141,1.453.422-.281a10.918,10.918,0,0,0,.445-1.172l-.586.141Zm2.766.586-.281.445.141.281.445-.586Zm6.281.281v.3l.3-.141Zm-3.352.445a.486.486,0,0,0,.3.3A.569.569,0,0,0,17.273-36.375Zm-2.2.141v.3l.3-.141Zm-4.383.164v.281l.3-.141Zm.586,0a3.991,3.991,0,0,0-.422,1.008l.727-.727A.428.428,0,0,0,11.273-36.07Zm1.172,0,.141.422.164-.281Zm4.547,0-.445.586A.794.794,0,0,0,16.992-36.07Zm-8.039.141q.023.188.281.281Q9.211-35.836,8.953-35.93Zm4.664,0v.281l.3-.141Zm-3.8.141-.445.727a.429.429,0,0,0,.3.3l.422-.727Q10.078-35.672,9.82-35.789Zm9.8,0v.3l.281-.164Zm5.7-.141q.188.023.281.281Zm-11.977.281-.3.586.586-.422Zm7.148.3a.428.428,0,0,0,.3.281A.6.6,0,0,0,20.484-35.344ZM7.477-35.2l-.141.727.445.3Zm8.625,0a.428.428,0,0,0,.3.281A.6.6,0,0,0,16.1-35.2Zm10.828.141-.164.586.586-.281ZM24-34.922a2.9,2.9,0,0,0-.727,1.172A3.452,3.452,0,0,0,24-34.922Zm-14.766.3-.281.727.586-.281A.789.789,0,0,0,9.234-34.617Zm-3.352.141v.3h.141v-.3Zm21.188.3h.281l-.141-.3Zm-6.586-.164a1.3,1.3,0,0,0-.281.75A1.486,1.486,0,0,0,20.484-34.336Zm7.031.164L26.18-32.719a15.773,15.773,0,0,1-1.148,1.172L23.555-29.93l-.867,1.453,1.453-.891,2.93-2.906.727-.586A4.936,4.936,0,0,0,27.516-34.172Zm-18.727.281a.706.706,0,0,0,.3.445Zm1.617,0a5.178,5.178,0,0,0-.867,1.313A5.47,5.47,0,0,0,10.406-33.891Zm13.875,0-.727,1.031-1.172,1.008a4.186,4.186,0,0,0,1.313-.727q.656-.586,1.336-1.312l-.586.141Zm1.617,0v.3l.281-.164Zm-6.141.141a.486.486,0,0,0,.3.3A.486.486,0,0,0,19.758-33.75Zm2.93,0v.3l.281-.141ZM8.648-33.3l-.141.445.445-.445-.445-.141Zm4.383-.141L12.75-33l.586-.3Zm9.516.281v-.281h-.164Zm-12,.3-.141.445h.281l.164-.445Zm7.758,0,.727.727a1.225,1.225,0,0,0-.586-.727Zm-10.969.445a1.562,1.562,0,0,1-.586.563l-.727,1.336L7.2-31.406l.586-.727Zm11.836,0q.117.4.445.422Zm-9.352.563H10.1l-.141-.281Zm1.172,0h.281v-.281h-.141Zm13.289-.281a3.443,3.443,0,0,0-.586.586A.982.982,0,0,0,24.281-32.133Zm-16.359.867.445-.141-.3-.141Zm15.633-.281a.428.428,0,0,0,.3.281A.6.6,0,0,0,23.555-31.547Zm3.656.281a3.873,3.873,0,0,0-.727,1.336A2.6,2.6,0,0,0,27.211-31.266ZM8.648-31.1l-.281.586.586-.164A.784.784,0,0,0,8.648-31.1Zm-.586.586-.141.422.445-.281Zm12,.422v-.281H19.9Zm5.7.3-.3.586.445.141.281-.586Zm-.586.586-.3.586.727-.164A.7.7,0,0,0,25.172-29.2Zm.867.586h.3v-.3H26.18Zm-1.312,0a.5.5,0,0,0,.3.281A.6.6,0,0,0,24.727-28.617Zm1.172,0-2.2,1.9a9.1,9.1,0,0,0-.867,1.313l-.281.586a1.177,1.177,0,0,0,.563-.445l3.656-3.211Zm-1.453.281q.023.188.281.3A.569.569,0,0,0,24.445-28.336ZM21.07-28.2v.3l.3-.141Zm-15.492.3q.188.023.3.281Q5.7-27.633,5.578-27.891Zm.891.281q-.187-.023-.3-.281Zm14.742,0a1.733,1.733,0,0,0,.3.891A2.242,2.242,0,0,0,21.211-27.609Zm-.586,1.031-.141.727.727-.141A1.5,1.5,0,0,0,20.625-26.578ZM20.2-24.961l.141.586-.281.141Zm6.422.867L25.9-22.781l-2.2,2.93-.586,1.594,3.234-4.219.727-1.477Zm-1.031.141a3.03,3.03,0,0,0-.727,1.172A3.278,3.278,0,0,0,25.594-23.953Zm2.063.727-.3.75.586-.445Q27.914-23.062,27.656-23.227Zm-5.859.586a.486.486,0,0,0,.3.3A.486.486,0,0,0,21.8-22.641Zm5.414.164a.5.5,0,0,0,.3.281A.6.6,0,0,0,27.211-22.477Zm-5.7.141-1.031,1.313.141.445.445-.3-.445,1.313A4.63,4.63,0,0,0,21.8-20.742,5.7,5.7,0,0,0,21.516-22.336Zm7.008.445a.428.428,0,0,1-.281-.3Zm-1.594.422v-.281h-.164Zm-.586.3-.3.727A1.69,1.69,0,0,0,26.344-21.164ZM25.9-19.992v-.3h-.141Zm-8.32-.164a.941.941,0,0,0-.3.3A.486.486,0,0,0,17.578-20.156Zm2.32,0A3.1,3.1,0,0,0,18.727-18.4a7.079,7.079,0,0,0-1.312,1.031l-.867,1.453a4.705,4.705,0,0,0-.891,1.031L14.2-13.266a2.626,2.626,0,0,0-.445,1.148l.445-.422.3.422h-.3v.164l-.445.422a1.074,1.074,0,0,0-1.008.891l.867-.727a3.5,3.5,0,0,0-.445.867l.3-.281A5.291,5.291,0,0,0,14.508-12.4,13.731,13.731,0,0,0,15.82-13.57a3.419,3.419,0,0,0,1.172-1.9l.867-.727a1.871,1.871,0,0,1,.727-1.172l.3-1.453A3.334,3.334,0,0,0,19.9-20.156Zm5.7.164-.422.727A1.181,1.181,0,0,0,25.594-19.992Zm-1.008.422v.3l.281-.141Zm-2.625.164a1.464,1.464,0,0,0,.281.727l.3-.445Zm2.906.141-.281.586.586-.3A.5.5,0,0,0,24.867-19.266Zm-1.008.586q.023.188.281.281Q24.117-18.539,23.859-18.68Zm-8.344.141v.281l.3-.141Zm4.547.281v-.281H19.9Zm-.445,0v.3l.281-.141Zm4.828.3v-.3h-.164Zm-3.961-.141-.281.586A.732.732,0,0,0,20.484-18.094Zm2.93.141-.3.586.586-.445Zm.586,0v.281l.281-.141Zm-.3.281v.3l.3-.141Zm-3.8.164L18.727-16.2l-.281.727,1.031-.727A6.43,6.43,0,0,0,19.9-17.508Zm2.93.141-.281.586.563-.3Q23.086-17.25,22.828-17.367Zm.727,0-.281.586A.9.9,0,0,0,23.555-17.367Zm-1.172.586a.428.428,0,0,0,.3.281A.6.6,0,0,0,22.383-16.781Zm-.586.727a1.712,1.712,0,0,1-1.008.445l-.445.422,1.031.445.281-.586.586-.586Zm-7.289.586a.906.906,0,0,0,.281.445Zm3.492,0-.586,1.031-1.008.867a2.342,2.342,0,0,1-.586.727l-.3.586-.727.586-.281.586-1.031.727a.825.825,0,0,0,.445.727l.281-.422.586-.586.281-.586,1.172-1.031a2.342,2.342,0,0,1,.586-.727,5.169,5.169,0,0,1,.586-.586l1.031-1.617Zm-3.8.281a2.281,2.281,0,0,0-.586.75l.445.281.586-.727Zm-3.656.3h.3l-.164.281Zm8.93.586-.586.727q.023.188.281.3A1.782,1.782,0,0,0,19.477-14.3Zm-10.242.445a3.039,3.039,0,0,1-.727,1.008l-.586.586L8.2-12.7Zm3.516.281q-.445.586-.891,1.313l1.758-1.312Zm5.836.445-.141.422.281-.141Zm-.445.422a.486.486,0,0,0,.3.3A.692.692,0,0,0,18.141-12.7Zm-6.422.445-.281.445.586-.141A.569.569,0,0,0,11.719-12.258Zm6.281,0v.3l.3-.164Zm-.422.141a.656.656,0,0,0,.422.3Zm-6,.586.281-.141-.141-.141Zm-4.242-.281.141.445H7.2Zm9.938.281.141.3v-.3Zm-6.867.3-.3.586A.756.756,0,0,0,10.406-11.227Zm.586,0-.3.586.586-.141A.7.7,0,0,0,10.992-11.227Zm5.836,0,.164.445.141-.445Zm-9.773.445-.586.867a.564.564,0,0,0,.281.445l.586-.891A.683.683,0,0,0,7.055-10.781Zm9.492,0-.445.727A1.027,1.027,0,0,0,16.547-10.781Zm-6.586.141v.281A.176.176,0,0,0,9.961-10.641Zm.586,0-.281.727-.891.867a2.3,2.3,0,0,0,1.031-.586l.445-.727Zm2.344.141a.483.483,0,0,0,.281.3Q13.148-10.359,12.891-10.5Zm-.3.3a.543.543,0,0,0,.445.281Zm-2.766.141a.42.42,0,0,0,.281.281Q10.078-9.961,9.82-10.055Zm2.625.281A2.615,2.615,0,0,1,10.992-8.6L9.961-7.289a4.9,4.9,0,0,1-.867,1.172l-.3,1.031.445.445.445-.75a11.518,11.518,0,0,0,1.313-1.594L12.023-8.3A4.39,4.39,0,0,0,12.445-9.773Zm.586.141a.934.934,0,0,0,.586.3Zm0,.445L12.75-8.6l.586-.281A.486.486,0,0,0,13.031-9.187Zm-3.8.3L8.367-7.711l-.891.727.445.586-.586-.3L7.2-6.258l-.445.445.3.141a1.539,1.539,0,0,0,.867-.3L9.539-8.3Zm0,2.039v-.3H9.094Zm2.93.281.141.3v-.3Zm9.938.75-.3.422h.445l.141-.422ZM8.2-5.672l-.281.586A.9.9,0,0,0,8.2-5.672Zm-1.594.141.445.586-.445-.281-.141.281L6.3-3.914l.75-.586.281-.727Zm10.969,0a.976.976,0,0,0,.281.3A.483.483,0,0,0,17.578-5.531Zm1.313,0L18.3-4.5a2.673,2.673,0,0,0-.586,1.313A.679.679,0,0,0,18-3.633l1.758-1.9-.727.3v-.3Zm-1.9.141-.3.445.586-.281Zm-6,.164a5.684,5.684,0,0,1-.727,1.008,1.239,1.239,0,0,0-.3.727l1.031-.867.445-.727Zm10.383,0L19.9-3.492a2.049,2.049,0,0,1-.586.75,3.075,3.075,0,0,0,1.031-.3,1.217,1.217,0,0,1,.867-.867l.445-1.031Q21.633-5.133,21.375-5.227Zm3.211,0,.445.586.422-.586-.586.141ZM7.617-5.086a1.08,1.08,0,0,0,.3.281A.428.428,0,0,0,7.617-5.086Zm6.727,0-1.453.727a.636.636,0,0,1-.3.445,8.065,8.065,0,0,1-.867,1.172l-.867,1.008.422.3A3.37,3.37,0,0,1,12.3-2.156l.867-1.172.75-.75A2.168,2.168,0,0,0,14.344-5.086ZM20.2-4.8h.281l-.141-.281Zm-3.8-.141L15.07-3.633a3.6,3.6,0,0,0-.727,1.313l1.172-1.312A3.5,3.5,0,0,0,16.406-4.945Zm6.281,0a.976.976,0,0,0,.281.3l.141-.164Zm1.9.141A4.189,4.189,0,0,0,24-3.914l.445-.164.141.164.281-.727Zm-12.422.164q.023.164.281.281Q12.422-4.5,12.164-4.641ZM27.8-4.5l-.141.422h.281V-4.5ZM8.063-4.359l.141.586-.141.281.445-.586Zm.586,0,.141.281v-.281Zm-5.555.141.141.727-.281.164ZM22.1-4.078l-.3.586A.934.934,0,0,0,22.1-4.078Zm1.758.164a2.52,2.52,0,0,0-.3,1.172l.727-.75Zm-12.281.586v-.3h-.141Zm5.836-.164a.579.579,0,0,0,.3.445Zm-6.281.164v.281l.3-.141Zm7.758,0a3.213,3.213,0,0,0-.75,1.313A5.977,5.977,0,0,0,18.891-3.328Zm.727,0a.8.8,0,0,0,.281.281Q19.875-3.234,19.617-3.328Zm1.758,0v.281l.281-.141Zm4.523,0-.141.586.422-.3Q26.156-3.234,25.9-3.328Zm-8.906.141a1.053,1.053,0,0,0,.422.445Zm-.3.445a.521.521,0,0,0,.445.281Zm6.281,0-.281.586.586-.3A.428.428,0,0,0,22.969-2.742Zm2.484,0-.141.422h.281l.164-.422Zm-6.281.281-.586.445L18.3-.844l.422-.164L19.758-2.32Zm-5.7.586.141.141.445-.281-.445-.141Zm9.07-.281q.023.164.281.281A.6.6,0,0,0,22.547-2.156Zm-4.969.422h.281l-.141-.281Zm7.289-.281a.771.771,0,0,0,.3.281A.428.428,0,0,0,24.867-2.016Zm-8.906.141q.023.188.281.281Q16.219-1.734,15.961-1.875Zm-1.312.281v.3l.281-.141Zm2.766,0,.164.445v-.445Zm6,.164-.141.422.281-.141Zm-9.07.141L13.922-.7A.844.844,0,0,0,14.344-1.289Zm14.32,0a1.6,1.6,0,0,0-.422,1.031Zm-11.531.141-.586.891A1.4,1.4,0,0,0,17.133-1.148Zm-6.867.586V-.844H10.1ZM8.648.469q.188.023.3.281Zm16.078,0q.188.023.3.281Q24.844.727,24.727.469ZM14.508.609a.5.5,0,0,1,.281.3Zm.563,0a.486.486,0,0,1,.3.3Zm.586,0a.486.486,0,0,1,.3.3A.486.486,0,0,1,15.656.609Zm.586,0a.486.486,0,0,1,.3.3A.486.486,0,0,1,16.242.609Zm.586,0a.486.486,0,0,1,.3.3A.486.486,0,0,1,16.828.609Zm.891.3a.486.486,0,0,1-.3-.3Zm3.8-.164a.428.428,0,0,1,.281.3Zm1.453.3a.428.428,0,0,1-.281-.3Zm.586,0a.428.428,0,0,1-.281-.3ZM27.938.914q.188.023.3.281Zm.586,0q.188.023.3.281Zm.586,0h.3L29.25,1.2Z" transform="translate(-2.367 40.758)"/>
</svg>
