<svg xmlns="http://www.w3.org/2000/svg" width="26.484" height="42" viewBox="0 0 26.484 42">
  <path id="路径_60915" data-name="路径 60915" d="M12.539-39.844,14.391-38.7a6.063,6.063,0,0,1,1.148-.586l-.164,1.008a11.453,11.453,0,0,0,1.711-.562L18.234-39l.281.727,1.289.141a2.98,2.98,0,0,1,.844.7l1.711.586-.281.563,1.008-.141.281.7-.141.281a1.7,1.7,0,0,1,.984,1.43,5.664,5.664,0,0,1,.867,1.148,2.457,2.457,0,0,1-.445.844.7.7,0,0,0,.445.281l.422,1.289a.545.545,0,0,0-.281.422,3.908,3.908,0,0,0,.563,1.008l-.281.563-.281,1.43v.422h.141l-.281,1.57a1.392,1.392,0,0,0-.867,1.125,5.694,5.694,0,0,1-1.125,1.289l.281.844-.141.3-1.43.422a3.444,3.444,0,0,1-.562,1.125l.563.164,1.43.844a3.41,3.41,0,0,0,1.406,1.289A2.062,2.062,0,0,1,25.641-16.5a1.706,1.706,0,0,0,.844,1.148,11.824,11.824,0,0,0,.586,1.992l-.141,1.992-1.008.281,1.289,1.711a4.864,4.864,0,0,0-.867.844,3.382,3.382,0,0,1-.422,1.289l-.141,1.852a5.06,5.06,0,0,0-1.289.7,1.642,1.642,0,0,1-.844,1.008l.422,1.57a4.785,4.785,0,0,1-2.133.844A7.486,7.486,0,0,0,20.508.727a1.7,1.7,0,0,0-1.43.867A10.374,10.374,0,0,1,17.227.164L15.68.023l.141.7L15.68.867l-.3,1.289a5.05,5.05,0,0,1-.844-1.008A7.987,7.987,0,0,0,12.4.3L10.406.023,7.992-.68,7.125-.4l-.7-1.43a2.382,2.382,0,0,1-1.711-1.43A6.394,6.394,0,0,0,3-4.828,4.893,4.893,0,0,1,1.992-6.82l-.7-.281a2.27,2.27,0,0,1,1.148-.562,6.02,6.02,0,0,0,1.406-.727l1.289-.844L3.844-9.375l-.422.563-1.57-.281a1,1,0,0,1-.562-.422,1.251,1.251,0,0,0,.844-.562l6.281-1.289h.563L7.688-8.953a2.047,2.047,0,0,1,.727.422,1.957,1.957,0,0,0,.422-.844l.7.7a9.825,9.825,0,0,1-.984,1.43L6.844-5.531A2.821,2.821,0,0,0,6.281-4.1L8.555-6.68a4.216,4.216,0,0,1,1.43-.7.994.994,0,0,0-.3.563h.445a4.094,4.094,0,0,1,1.711.727,5.664,5.664,0,0,1,1.852.422l.844.422a6.3,6.3,0,0,1,.563-1.125l.727.563L16.8-6.82a10.6,10.6,0,0,0,.422-2.414,11.3,11.3,0,0,1,1.008-2.273,16.447,16.447,0,0,0,.984-2.133l.164-1.57L18.8-16.219a3.161,3.161,0,0,0-1.711-1.406l-1.266-.586-.445.281-.422.164a4.018,4.018,0,0,0-1.711-.445,8.281,8.281,0,0,1-2.133-.7,4.736,4.736,0,0,0,.563-1.992l.164-2.133.7-.141,1.43.7-.445-.7a.569.569,0,0,0,.3-.281l2.133,2.414,1.266,1.125.867.164a6,6,0,0,0-.867-1.148l-.984-.7L15.094-22.9l.867-1.008a4.42,4.42,0,0,1,.984.727L16.8-24.891l.141-2.133.281-.445-.281-3.117a2.852,2.852,0,0,0-1.711-1.57L13.688-32.3l-.867.422a8.652,8.652,0,0,0-1.992,1.43l-.422,1.43-.727-.445-.141,1.43a9.385,9.385,0,0,1-2.414-.562l-2.273-.562L3.844-29.3l-.281.141H3.141l-.562-.867,2.273-.141a.545.545,0,0,0,.422.281,16.994,16.994,0,0,0,2.133.586L5.273-30.445A7.6,7.6,0,0,1,3-31.312a.7.7,0,0,1,.422-.422,6.572,6.572,0,0,0,1.852.422,21.005,21.005,0,0,0,2.273.867,4.966,4.966,0,0,0-1.57-.7A3.7,3.7,0,0,1,4.43-32.437a3.991,3.991,0,0,1-.281-1.148L4.992-33l3.422.984-.422-.422-.445-.281-1.992-.422a3.467,3.467,0,0,1-.562-.867l.844.281a.338.338,0,0,0,.3-.281l-.586-.422,1.008-.281a.909.909,0,0,0,.422.422L5.977-35.437,6.984-36l1.992.7a7.458,7.458,0,0,1,1.289.867,7.427,7.427,0,0,0,1.57.563,10.239,10.239,0,0,0-1.852-1.125,5.232,5.232,0,0,0-1.992-1.148l-.164-.7,1.43.422a1.464,1.464,0,0,0-.281-.727.33.33,0,0,0,.281-.281l.867.727a3.933,3.933,0,0,1,1.125.844,8.206,8.206,0,0,0-.984-1.711l-.422-.141-.3.141.445-.984,2.133,1.992a4.3,4.3,0,0,0,.844.844,2.65,2.65,0,0,0-.562-.844l-.562-.867-.586-1.406a11.179,11.179,0,0,1,1.992.984Zm1.289,1.57v-.281h-.141Zm2.836,0a1.691,1.691,0,0,0-.7.7.837.837,0,0,0,.422.563l-.281-.281h.281l.563-.422a1.333,1.333,0,0,0,.586-.562Zm-1.992.422-.281.422A.45.45,0,0,0,14.672-37.852Zm4.547.422-.844,1.289.7-.422.727-.867Zm-4.547.586v-.3h-.141Zm5.836.281L18.938-35.3l-.422.586.563-.281.141.281.164-.141-.164-.445,1.57-.422.445-.844-.586.141Zm-10.969.141.3.281A.6.6,0,0,0,9.539-36.422Zm8.555.281-.141.422.422-.141Q18.352-36.047,18.094-36.141ZM11.672-36l-.281.422A.683.683,0,0,0,11.672-36Zm1.43.281a1.656,1.656,0,0,0,.422.563A1.773,1.773,0,0,0,13.1-35.719Zm8.555,0-1.008,1.008a.369.369,0,0,0,.281.281,6.159,6.159,0,0,1,1.008-.727l.422-.422Zm-9.68.422v.3l.281-.164Zm-3.562.586a2.366,2.366,0,0,0,.844.7Zm7.969.141a2.086,2.086,0,0,1-.7.844l-1.43.141,1.125.445L16.523-33a2.6,2.6,0,0,0,.867.563l.281-.867-.445.164a1.158,1.158,0,0,1-.562-.727A1.341,1.341,0,0,0,16.383-34.57Zm-8.836.141.586.563A2.9,2.9,0,0,0,7.547-34.43Zm-1.266.563.984.727,1.43.281A1.542,1.542,0,0,0,7.688-33.3,6.955,6.955,0,0,0,6.281-33.867Zm11.109,1.711.141.141.281-.141-.281-.141Zm-11.109,0q.023.188.281.281A.6.6,0,0,0,6.281-32.156Zm2.7.422a.8.8,0,0,0,.281.281Q9.234-31.617,8.977-31.734Zm9.68.586a3.182,3.182,0,0,0-.562.563l.281.422A2.016,2.016,0,0,0,18.656-31.148Zm3,.984a1,1,0,0,0,.563.422Zm.984,0a.623.623,0,0,0,.445.281Zm.727.141-1.289.563h.563l1.289-.281Zm-2.859.422v-.281h-.141Zm1.148,0v.3l.281-.164Zm-3.422.141v.727a2.979,2.979,0,0,0,.844-.281Zm-10.547.445V-29.3H7.547Zm.141-.141.727.422A1.273,1.273,0,0,0,7.828-29.156Zm15.094.422a1.518,1.518,0,0,0-.7.422l1.008.141,1.266-.422Zm-4.547.422v-.281h-.141Zm0,.141a.7.7,0,0,0,.563.563A2.4,2.4,0,0,0,18.375-28.172Zm2.414.7a.569.569,0,0,0,.281.3Q21.047-27.352,20.789-27.469Zm.727.164a.683.683,0,0,0,.422.281Zm.563,0a1.337,1.337,0,0,0,.7.422Zm-3.844.422a1,1,0,0,0,.422.563Zm3,.422v-.281H21.07Zm-3.141.141v.281l.281-.141Zm0,.563q.023.188.281.3Q18.352-25.617,18.094-25.758Zm-.422,1.148,1.125.7,1.43.586a3.158,3.158,0,0,0,1.148.563,1.379,1.379,0,0,0,.7.422,8.2,8.2,0,0,0-1.008-.844l-2.414-1.008A3.125,3.125,0,0,0,17.672-24.609Zm-1.008.563q-.164-.023-.281-.281Zm-.844,1.008v-.281H15.68Zm1.57-.281.422.7,1.711,1.289a1.91,1.91,0,0,1,.563.563.566.566,0,0,0,.563-.422l-.984-.867Zm-1.43.281a5.349,5.349,0,0,0,.844.844l.586.867,1.125.844a2.149,2.149,0,0,0,.7.563l.164-.281a3.426,3.426,0,0,1-.727-.7l-.562-.7-.867-.727Zm-1.852.7a2.415,2.415,0,0,0,.984,1.711,2.729,2.729,0,0,0,.727.867.988.988,0,0,0,.281-.586,7.518,7.518,0,0,1-1.148-.984Zm-.867.727a4.263,4.263,0,0,0,.867,1.266A5.212,5.212,0,0,0,13.242-21.609Zm1.992.422.141.281v-.281Zm-2.273.7v-.281H12.82Zm6.7,0a.545.545,0,0,0,.422.281Zm-5.273.141-.422.422.563.727Zm-2.133.141a2.262,2.262,0,0,0,.844,1.148A6.572,6.572,0,0,0,12.258-20.2Zm7.969,0a1.55,1.55,0,0,0,.563.586A1.56,1.56,0,0,0,20.227-20.2Zm-4.125.445-.422.281.563.281a1.094,1.094,0,0,0,.422-.422Zm5.977,1.992-.141.422h.281l.563-.281ZM21.8-16.641a.8.8,0,0,0,.281.281l.141-.141Zm.563.141,1.148.586A5.245,5.245,0,0,0,22.359-16.5ZM21.07-15.211a2.777,2.777,0,0,0,.867.7l.984-.281.3.563a1.851,1.851,0,0,0-.727-.7ZM23.227-12.8l1.547.727,1.289.141a4.275,4.275,0,0,0-1.148-.445Zm-2.719.281a1.929,1.929,0,0,0,.727.867l.563.422a.491.491,0,0,0,.281-.281Zm7.266.586a.428.428,0,0,1-.281-.3Zm-4.125.281a.545.545,0,0,0,.422.281Zm-1.43.281-.141.281.422-.141Zm-2.555.141-.445.7,1.289.445A1.579,1.579,0,0,0,19.664-11.227Zm2.977,0a.791.791,0,0,0,.445.422Zm1.852.281v-.281h-.141Zm-2.977.281,1.711,1.289,1.852.984-.445-.844Zm5.25.141a.486.486,0,0,1,.3.3ZM19.078-9.516l.867.984a1.316,1.316,0,0,0,.984.445,3.444,3.444,0,0,1-.844-.867A2.2,2.2,0,0,0,19.078-9.516ZM5.555-9.234l-.984.563.422.281.141-.281q.141-.023.281-.281l.563.422L5.7-8.672,2.859-7.242a3.04,3.04,0,0,0,1.289.281L5.7-7.383A9.955,9.955,0,0,0,6.844-8.531Zm1.711.141-.422.422A.441.441,0,0,0,7.266-9.094Zm-1.57.7a1.789,1.789,0,0,1-.562.586Zm16.945.164.586.844,1.266.563a4.477,4.477,0,0,0-.984-.844Zm-1.57.141-.141.422a.976.976,0,0,0,.3-.281ZM7.125-7.945,5.414-6.82A3.592,3.592,0,0,0,4.289-5.812L6.141-6.68A4.438,4.438,0,0,0,7.125-7.945ZM4.289-7.8h.7a1.069,1.069,0,0,1-.562.281Zm15.375.141.563.563A1.219,1.219,0,0,0,19.664-7.664Zm-1.148.422a2.087,2.087,0,0,0,1.008.563ZM7.125-6.961l-.281.422A.45.45,0,0,0,7.125-6.961Zm2.414.141a.484.484,0,0,0,.445.281Zm16.383,0,.422.445A1.653,1.653,0,0,1,25.922-6.82Zm-19.5.281a.73.73,0,0,0,.281.3l.141-.141Zm11.672,0-.141.445h.281l.141-.281Zm2.133.445.7,1.125,1.008.867-.7-1.148Zm-1.289.281a2.5,2.5,0,0,0,.727.844ZM4.43-5.391l.141.141.281-.141v-.281H4.711Zm12.094.141a.42.42,0,0,0,.281.281Q16.781-5.133,16.523-5.25Zm-.7.422q.023.188.281.281A.6.6,0,0,0,15.82-4.828Zm-8.273.141a2.927,2.927,0,0,0-.562,1.148A2.156,2.156,0,0,0,7.547-4.687Zm1.992.3-.281.7L9.844-4.1A.428.428,0,0,0,9.539-4.383Zm8.414,0a2.89,2.89,0,0,0,.7.844ZM5.836-4.242a.5.5,0,0,0,.3.281A.6.6,0,0,0,5.836-4.242Zm6,.563-.445.844A1.57,1.57,0,0,0,11.836-3.68Zm-5.414.141a1.094,1.094,0,0,0,.422.422A.8.8,0,0,0,6.422-3.539Zm12.375,0a.8.8,0,0,0-.281.281Q18.727-3.258,18.8-3.539Zm-9.961.281a3.751,3.751,0,0,0-.562,1.148A1.657,1.657,0,0,0,8.836-3.258Zm9.961.141v.281l.281-.141Zm.281.281a1.02,1.02,0,0,0,.3.586Zm-5.25.586q.023.164.281.281A.42.42,0,0,0,13.828-2.25Zm0,.563q.023.188.281.281A.491.491,0,0,0,13.828-1.687Zm.141.844v-.281h-.141Zm5.7-.141a.83.83,0,0,0,.281.586A1.363,1.363,0,0,0,19.664-.984Z" transform="translate(-1.289 39.844)"/>
</svg>
