<svg xmlns="http://www.w3.org/2000/svg" width="30.914" height="42.68" viewBox="0 0 30.914 42.68">
  <path id="路径_60916" data-name="路径 60916" d="M25.523-42.68a6.335,6.335,0,0,1,1.5.914,3.727,3.727,0,0,1,.445,1.5l.164.609-.164,1.5-.445,1.8L26.414-35.3l.3,1.219q-.187,0-.3.3l-.3,1.2.609,1.5L26.273-30l.445,1.336-.445,1.055a1.111,1.111,0,0,0,.445.914l.3,1.359.3,3.914-.164.469a7.894,7.894,0,0,1,.164,1.2l.141,1.5-.141.469-.3,1.5.141.445a2.24,2.24,0,0,0,.609.914,1.778,1.778,0,0,1,1.055-.609l.914-.3.3-.3a1.566,1.566,0,0,0,.891.3l1.219,1.219A9.47,9.47,0,0,0,32.6-12.68l-.609,1.828a6.552,6.552,0,0,1-.586,1.945h-.773l.3-.891-.141-.3a2.092,2.092,0,0,1-1.055.891,1.854,1.854,0,0,0-.75-1.055,1.274,1.274,0,0,1-.914.469l.141-1.055-.586.3-.914,2.859.75.3a4,4,0,0,1-.3,1.055,6.336,6.336,0,0,0-.281,1.8l.141,1.664a10.088,10.088,0,0,1-.75,1.8l-.914.3a.439.439,0,0,0-.445-.3,2.569,2.569,0,0,1-1.055.445l-.75-.445-.469.609h-.75l.75-.914a6.563,6.563,0,0,0-1.2.914L21,0l-.914-.609a4.626,4.626,0,0,1,.445-1.055L21-2.414a.845.845,0,0,0-.469.3.809.809,0,0,1-.586-.445,1.755,1.755,0,0,1-.3-1.055,3.687,3.687,0,0,0,.586-1.219l-.75.609a.588.588,0,0,1-.445-.445,8.818,8.818,0,0,0,.609-1.219l1.5-2.109a9.018,9.018,0,0,0,.609-1.055h-.469v.141l-.891,1.055-.75.609a.756.756,0,0,1-.469-.3,5.531,5.531,0,0,1,.914-.891l-.445-.773.75.3a3.016,3.016,0,0,1,.891-.891,2.289,2.289,0,0,0,.3-1.055l-1.2,1.2a1.271,1.271,0,0,1-.609-.609l-.75.609a2.428,2.428,0,0,1-.3.914L18.281-10.1l.445-.609-.609-.445-.586,1.2a1.723,1.723,0,0,1-.773.914l-.445-.609.75-.609.3-1.2q-.023-.141-.3-.3a2.377,2.377,0,0,0-.891.445L15.7-10.1a2.356,2.356,0,0,1-1.2.609l.3-.773a.427.427,0,0,0-.3-.281,3.321,3.321,0,0,1-.914.891L13.008-9.8l.586-.609A1.7,1.7,0,0,0,12.7-9.8a1.456,1.456,0,0,1-.914.445,2.165,2.165,0,0,1,.445-1.055l.3-1.2a.466.466,0,0,0-.445-.3l-1.055,1.2L9.68-9.656a2.417,2.417,0,0,1,.3-.891l.609-1.219-.914.3-.914,1.2a4.111,4.111,0,0,1-.75,1.055.906.906,0,0,1-.445-.281l.3-.609a.983.983,0,0,1-.914-.75l-.75-.164-1.2.75A5.906,5.906,0,0,1,3.8-9.352a3.554,3.554,0,0,1,.445-1.055l-.281-.3-1.219.164.141-.609-.141-.164-.914.164L1.688-11.6l.141-1.523.469-1.8a8.208,8.208,0,0,0,.3-1.5l1.359-1.219a3.35,3.35,0,0,0,1.2-.75L5.6-19.453l.914-.75L5.3-20.367l.3-.891a5.977,5.977,0,0,0,1.523-.75,4.024,4.024,0,0,0,.891-1.055l-.609-.3-.281.141a7.583,7.583,0,0,0,.586-.609l1.219-1.2a2.647,2.647,0,0,0,.609-1.219,10.767,10.767,0,0,0,1.2-1.2L11.18-28.8l1.055-1.055L13.9-32.414l.75-.469.773-1.359.75-.891.3-.75a4.919,4.919,0,0,1,.891-1.055,6.317,6.317,0,0,0,.914-.914l.586-1.359.164-.75.75-1.359a2.933,2.933,0,0,0,.914-.445,2.139,2.139,0,0,1,1.2-.609l1.219.141.3-.141A12.472,12.472,0,0,0,25.523-42.68Zm.445,5.578a7.744,7.744,0,0,0-1.055,1.664l-.3,1.055.609-.3,1.2-2.25Zm.914,3.164a.428.428,0,0,1,.281.3Zm-1.664.469-.469.891.773-.445A.579.579,0,0,0,25.219-33.469Zm-.914,1.5a.666.666,0,0,0,.3.445A.579.579,0,0,0,24.3-31.969Zm1.359.891v-.281h-.141Zm-5.883.469a1.883,1.883,0,0,0-.914,1.055l-1.2,1.8-.914,2.109a6.4,6.4,0,0,1-1.5,1.359,6.6,6.6,0,0,1-1.359,1.8l-3.023,5.133h.609a2.1,2.1,0,0,0,1.664,1.055l1.2-.609.609.609,2.414-.445a10.291,10.291,0,0,1,1.8-.914l.3.445.469-.445-1.664.75-.75.609.891.3,1.219-.75-.469.75.609-.3.3-.445.75-1.664-1.664.141.469-.891L21-20.508l.141-1.219a2.294,2.294,0,0,0-.75.3l-.3-.3.445-1.2a.579.579,0,0,0-.445-.3l-1.055.609.141-.609,1.055-1.664A8.97,8.97,0,0,0,21-26.7l-1.523-.141a12.854,12.854,0,0,1,1.055-1.523l.609-1.5-1.055.914-.3-.609.3-.75Zm4.828.445.3.164v-.469H24.75ZM24.469-30A8.388,8.388,0,0,0,24-28.359l.469-.3.445-1.055Zm-6.047.445h.3l-.141-.3Zm7.1.609-.3,1.641.445-.141.141-1.219Q25.781-28.852,25.523-28.945Zm-1.828.891H24l-.141-.3Zm1.055.164-.891,1.5L23.7-25.031a5.447,5.447,0,0,0,1.055-1.359l.164-1.219v-.281ZM9.984-27.3h.3l-.164.3Zm15.82.469-.141.445h.3v-.445Zm-.141.586.141.469.164-.469Zm.609,0,.141,2.109.469-1.8A1.4,1.4,0,0,0,26.273-26.25Zm-7.242.3h.3l-.164.3Zm0,.609h.3l-.164.3Zm0,.609h.3l-.164.3Zm1.8.3-.3.891a.486.486,0,0,0,.3.3L21-24.141v-.281Zm3.773.141-.609.75-.3,1.523a4.251,4.251,0,0,0,.914-1.359,1.8,1.8,0,0,0,.445-.773Zm2.109.141-.141.469h.3Zm-6.328.3v.3A.2.2,0,0,0,20.391-23.836Zm6.188.3a.756.756,0,0,0,.3.469A.648.648,0,0,0,26.578-23.531Zm0,.609a.666.666,0,0,0,.3.445A.579.579,0,0,0,26.578-22.922Zm0,.609a.666.666,0,0,0,.3.445Zm-.3.445v-.3h-.164Zm-1.359-.141L24-20.812l-.141,1.055.445-.3.914-1.664A.428.428,0,0,0,24.914-22.008Zm1.055.281a.648.648,0,0,0,.3.469A.648.648,0,0,0,25.969-21.727Zm.609,0a2.685,2.685,0,0,0,.445,1.055A2.049,2.049,0,0,0,26.578-21.727Zm-.164.469a.674.674,0,0,0-.3.586Zm.3,1.055.3.141v-.445h-.141Zm.164.445.141.445v-.445Zm-1.664.3-.75.445-.164.469h.445Zm-4.383.141-.445.914.445-.141L21-18.4a1.79,1.79,0,0,0,.281-.75Zm3.328.773L24-17.648a4.243,4.243,0,0,0,.75-.75Zm-14.18.891a1.945,1.945,0,0,0-.445,1.055A1.442,1.442,0,0,0,9.984-17.648Zm15.07,0-.445.445.3.164-.75.75a2.651,2.651,0,0,0,.891-.445l.469-.75Zm-3.773.445L21-16.594l.586-.3Q21.563-17.086,21.281-17.2Zm-.445.609v.3Q21-16.43,20.836-16.594Zm-1.2.609a2.168,2.168,0,0,0,.891.609A2.168,2.168,0,0,0,19.641-15.984Zm.891,0a.925.925,0,0,0,.3.3L21-15.844Zm4.219.445a.486.486,0,0,0,.3.3Q25.031-15.375,24.75-15.539Zm-3.469.469h.3v-.3h-.141Zm3.188-.164q.023.188.281.3Q24.727-15.07,24.469-15.234Zm.586.164.164.445.445-.445ZM15.7-11.906l-.281.586A.778.778,0,0,0,15.7-11.906Zm-6.937.141v.3l.3-.141Zm4.992.164-.3.75A1.7,1.7,0,0,0,13.758-11.6Zm4.523,0,.445.445A.639.639,0,0,0,18.281-11.6Zm1.8,0-.609,1.336,1.055-.891A.781.781,0,0,0,20.086-11.6Zm9.188,0-.141.891q.141-.023.3-.3l.445-.586-.445.141Zm-22.312.141.3.445.141-.445Zm1.359,0-.609.914.469.141.586-.914Zm17.039,0L24.914-10.1l.3-.3.586-.75Zm5.438,0a.666.666,0,0,0,.445.3A.6.6,0,0,0,30.8-11.461Zm.3.445-.469.609.469.3.141-.75Zm-24.891.3a.486.486,0,0,1,.3.3ZM21.586-9.352a1.39,1.39,0,0,0,.3.3Q21.867-9.234,21.586-9.352Zm-3.469.3a.486.486,0,0,1-.3-.3Zm6.938,0a.789.789,0,0,0,.3.445A.515.515,0,0,0,25.055-9.047Zm.164,1.359.141.3v-.3Zm.586,0a.771.771,0,0,0-.281.3A.428.428,0,0,0,25.8-7.687Zm-.891.3-.3,1.055.75-.469A1.584,1.584,0,0,0,24.914-7.383Zm1.2.75-.445.3a1.564,1.564,0,0,0,.3.75l.445-.75Q26.391-6.492,26.109-6.633Zm-4.664.141a3.408,3.408,0,0,0-.75.914A2.258,2.258,0,0,0,21.445-6.492Zm3.773.469-1.055,1.2.586.445A4.308,4.308,0,0,0,25.219-6.023Zm-4.687.445a.486.486,0,0,0,.3.3Q20.813-5.437,20.531-5.578Zm-.3.3a.913.913,0,0,0,.469.3Zm6.047.141-.3.469A.511.511,0,0,0,26.273-5.133ZM21.586-3.469h.3v-.3H21.75Zm3.328-.3a.515.515,0,0,0,.3.445ZM21.141-2.414v-.3H21Zm.75,0-.3.609.609-.469ZM23.109-.75h.3l-.164.3Z" transform="translate(-1.688 42.68)"/>
</svg>
