<svg xmlns="http://www.w3.org/2000/svg" width="27.281" height="41.93" viewBox="0 0 27.281 41.93">
  <path id="路径_60917" data-name="路径 60917" d="M12.516-41.016l1.2,1.336,1.477-.445a1.1,1.1,0,0,0,.586.3l1.641-.445,1.031.727a6.6,6.6,0,0,0,1.2-.445l.586-.281a10.468,10.468,0,0,0,1.641.281,17.7,17.7,0,0,1,2.367-.141l.445.141a9.616,9.616,0,0,0,2.063-.281l1.641,1.477-.3,4.289a1.9,1.9,0,0,0,.609.164.994.994,0,0,1-.445.281,3.1,3.1,0,0,1-1.336.75,11.733,11.733,0,0,1-1.781.3,16.737,16.737,0,0,1-2.367.141l-2.391.141-.586-.141-1.922.141-.445-.141L14.742-33l-.891.141-.3-.141-.281.141L13.1-33l-.586,2.508-.141,2.672h.141l-.141.445.141.141,4.008-.586.445.141h1.922l.891.3a10.88,10.88,0,0,1,2.531.586,7.27,7.27,0,0,1,1.781,1.641l3.094,3.4.75,2.086.3,1.477.586,1.477a10.3,10.3,0,0,1,.141,1.781l.164,1.2-.164.281-.141.445.445,1.945A8.834,8.834,0,0,0,28.828-8.7L27.8-6.633,24.234-2.766,22.758-1.594A5.825,5.825,0,0,0,20.672-.258L18.75-.4,16.828.469,15.047.914,14.6.609,12.82.773l.141-.75.586-1.758L12.375-.094,11.484-.7l-.445.445L9.4-.7l.75-1.477L9.7-2.461,8.813-1.289A1.5,1.5,0,0,1,7.781-2.625l.281-.445-.141-.281a1.206,1.206,0,0,0-.445.586l-.75.727-.586-.422.891-1.781a4.283,4.283,0,0,1-.75-.609L6-4.1a2.952,2.952,0,0,1-1.031-.3L5.555-5.3q-.422.047-.586.609l-.445-.3-.3.141a7.745,7.745,0,0,1,.75-1.477l.141-.586-.141-.164a2.976,2.976,0,0,1-.891.445l-1.055.164A5.133,5.133,0,0,1,1.992-8.555a2.187,2.187,0,0,1,1.031-1.781,4.948,4.948,0,0,0,1.641-.445L5.7-9.891a8.381,8.381,0,0,1,2.227-1.031l.3-.3a1.633,1.633,0,0,0,.891.3l-.3.891A1.655,1.655,0,0,1,10.008-9a4.262,4.262,0,0,1,1.031,1.781l.75.141.281-.141h.3l.281,1.2-.422.586.422.3.891-.609a5.376,5.376,0,0,1,1.5.445l.445-.281a14,14,0,0,0,2.672-.445,5.127,5.127,0,0,0,1.922-1.055L20.977-9a3.166,3.166,0,0,1,.891-1.477L21.7-11.953a4.125,4.125,0,0,1,.609-1.2l-.3-.445-.586,1.031.281.3-.891-.445.445-1.617-.727-.3.727-1.641-.727-.281.445-1.945-.609.3q0-.211-.281-.3a.839.839,0,0,1,.281-.586l.3-.586-.586-.445-.609.586L19.2-20.555l.281-.3.3-1.172-.586.281-.3,1.2A.916.916,0,0,1,18.164-21a2.825,2.825,0,0,1-1.336-.586,11.379,11.379,0,0,0,.891-1.641l.891-1.641a4.275,4.275,0,0,0-1.2,1.5l-1.2,1.922h.3L15.492-21l-.445-.3.586-.445,1.781-3.562a8.69,8.69,0,0,0-1.477,1.2L14.438-21l-.586.141-.141-.445,1.031-1.922a3.9,3.9,0,0,1,.75-1.781,1.612,1.612,0,0,0-1.055.891,9.067,9.067,0,0,0-1.172,1.336L12.375-21.3l-.75,1.781a2,2,0,0,1-.891.445,9.127,9.127,0,0,1,.609-1.336L11.93-22.2a9.036,9.036,0,0,0-.891,1.5L9.7-19.383a4.593,4.593,0,0,0-1.031.891,1.717,1.717,0,0,1-.75-1.336l-1.031.445a2.442,2.442,0,0,1-1.055.609l.3-1.055L4.8-19.383q0-.211-.281-.281l.891-.75a2.984,2.984,0,0,0-1.055-.445l-.727.891L3.328-21l.586-1.2.164-1.477a6.774,6.774,0,0,1,.445-2.086,1.417,1.417,0,0,1,.445-.867L5.25-27.68l-.445.164a1.266,1.266,0,0,1,.164-.75l.586-.75L4.8-30.047a12.04,12.04,0,0,0,.609-2.672L6.141-34.2l.445-1.336,1.031-2.086.3-1.922-.141-.445,1.477-.141,1.2-.3.445.445a5.29,5.29,0,0,1,1.172.609.348.348,0,0,1,.3-.3l-.75-.3Zm.586,1.477a.486.486,0,0,0,.3.3Q13.383-39.375,13.1-39.539Zm14.836,0a.486.486,0,0,1,.3.3Zm-5.18,1.5-.3.727a2.6,2.6,0,0,0,.586-.586Zm2.508.141-.281.586A.9.9,0,0,0,25.266-37.9Zm-6.211.141-.445.586A1.047,1.047,0,0,0,19.055-37.758Zm2.2,0-1.031,1.336a3.351,3.351,0,0,1-.75,1.031,3.972,3.972,0,0,0-.422,1.2l-.445.586.445-.141.867-1.031,1.055-2.086.727-.75Zm-3.844.3a6.9,6.9,0,0,0-1.031,1.477A4.66,4.66,0,0,0,17.414-37.453Zm-2.086.586h.3l-.141-.3Zm2.977-.3a2.984,2.984,0,0,0-.3,1.055A1.822,1.822,0,0,0,18.3-37.172Zm7.406.445v-.281H25.57Zm1.477.3-.141.586.3.164v-.609Zm-20.742,0a.428.428,0,0,1,.281.3Zm6.375.445v-.3h-.164Zm8.883-.3v.3l.3-.141Zm-6.961.164a2.825,2.825,0,0,0-.586,1.336A2.969,2.969,0,0,0,14.742-36.117Zm10.383,0-.586,1.172.445.3a3.508,3.508,0,0,1,.445-1.2A.6.6,0,0,0,25.125-36.117Zm-9.187.141-1.5,2.227.445-.141.164.141,1.336-1.781A.781.781,0,0,0,15.938-35.977Zm1.781,0a3.2,3.2,0,0,0-.609,1.031A1.867,1.867,0,0,0,17.719-35.977Zm9.469.75v-.3h-.141Zm-14.812-.164-.3.609A1.035,1.035,0,0,0,12.375-35.391Zm8.6.3-.3.75a3.131,3.131,0,0,0,.586-.609Zm1.336,0-.164.445h.3v-.445Zm4.594.141a.73.73,0,0,0,.281.3Q27.164-34.828,26.906-34.945Zm-10.242.164-.445,1.031.445-.141a3.73,3.73,0,0,0,.609-.891l-.445.141Zm5.344.141-.3.586h.609A1.247,1.247,0,0,0,22.008-34.641Zm2.367,0a1.021,1.021,0,0,0,.445.445A1.214,1.214,0,0,0,24.375-34.641Zm-4.148.75.445.281A.7.7,0,0,0,20.227-33.891Zm1.336,0a1.173,1.173,0,0,0,.586.586A.846.846,0,0,0,21.563-33.891Zm2.672,0a.9.9,0,0,0,.586.281Zm-1.2.445v-.3H22.9Zm.891-.3a.486.486,0,0,0,.3.3A.486.486,0,0,0,23.93-33.75Zm-11.7,1.031h.281V-33h-.141Zm.281,1.031v-.281h-.141Zm-1.781.609v-.3h-.141Zm1.336.445v-.3H11.93Zm0,.445v-.3H11.93Zm-5.484.281v.3l.3-.141Zm-.141.75.141.445v-.445Zm5.039.75v-.3h-.141Zm-5.344.445L6-27.234a1.214,1.214,0,0,0,.445-.445A.428.428,0,0,0,6.141-27.961Zm-.3.891a1.08,1.08,0,0,0,.3.281Q6.117-26.977,5.836-27.07Zm0,.281-.141.445H6Zm14.7,1.781.281.141v-.445h-.141Zm-1.2.3-.281.445.141.281.281-.445V-24.7Zm1.336.281V-24.7h-.141ZM21.7-24.7a.881.881,0,0,0,.445.445Zm-1.477.586.3.141-.164-.445Zm1.336,0a.925.925,0,0,0,.3.3l.141-.164Zm-2.672.141-.586,1.5a1.7,1.7,0,0,1-.445.727l.445.3.891-2.227A.692.692,0,0,0,18.891-23.977Zm1.2.164a.8.8,0,0,0,.281.281Q20.344-23.719,20.086-23.812Zm1.336,0-.445,1.336h.445v-.164l.281-.891Q21.68-23.719,21.422-23.812Zm-1.5.281-.141.445h.3l.141-.445Zm2.531.3-.3,1.477.75-1.172A.6.6,0,0,0,22.453-23.227Zm-2.812.586-.164.445h.3l.141-.445Zm-7.711.164a.771.771,0,0,0,.3.281A.428.428,0,0,0,11.93-22.477Zm8.883.141-.141.75a4.255,4.255,0,0,0,.75-.75Zm-12.586.75v.281l.281-.141Zm12.445.141-.3.75A1.128,1.128,0,0,0,20.672-21.445Zm1.2,0-.164.75.445-.445Q22.125-21.328,21.867-21.445ZM24.094-21l.141.3V-21Zm-.891.141-.609,1.2a.514.514,0,0,0,.445.445l.3-.609.141-.727Zm-2.977.164a.5.5,0,0,0,.3.281A.6.6,0,0,0,20.227-20.7Zm1.336.141.141.445v-.445ZM7.031-19.523h.3l-.164-.3Zm16.453-.141-.141.727a1.214,1.214,0,0,0,.445-.445A.5.5,0,0,0,23.484-19.664Zm-.891.727-.445.609A1.014,1.014,0,0,0,22.594-18.937Zm2.391,0a.905.905,0,0,0-.445.609A1.156,1.156,0,0,0,24.984-18.937Zm-1.945.445-.281.75A1.12,1.12,0,0,0,23.039-18.492Zm1.336.164-.727.586.281.445-.727.891a3.83,3.83,0,0,0-.3,1.2l-.586.445.281.445.891-1.055,1.055-2.062Zm-2.227.141v.3l.3-.164Zm2.531.141.141.3v-.3Zm.891.891-1.031,1.5-.891,1.617,1.336-1.172Zm0,2.391a5.06,5.06,0,0,1-.891,1.172l-.75,1.031a3.224,3.224,0,0,0-.445,1.336,6.8,6.8,0,0,0-.891,1.2,14.331,14.331,0,0,0,1.2-1.2l1.477-2.367.609-.727Zm-3.422.445-.141.727a1.206,1.206,0,0,0,.586-.445A.7.7,0,0,0,22.148-14.32Zm1.336.586-.586.891.445.141.445-.75A.6.6,0,0,0,23.484-13.734ZM22.9-12.562a1.822,1.822,0,0,0-.3,1.055l.609-.75A.486.486,0,0,0,22.9-12.562Zm2.227.609.3.445A.579.579,0,0,0,25.125-11.953Zm-.141.445a2.791,2.791,0,0,0-.609.891A1.765,1.765,0,0,0,24.984-11.508Zm-2.531,1.477a1.02,1.02,0,0,0,.3.586l.141-.445ZM3.469-9l-.727.891A1.767,1.767,0,0,0,3.469-9ZM6.727-9l-.281.609A1,1,0,0,0,6.727-9Zm14.836.891-.3.445H21.7l.164-.445ZM3.023-7.523a2.911,2.911,0,0,0,.75.609A1.845,1.845,0,0,0,3.023-7.523Zm.891,0v.3l.3-.141Zm5.789.3v-.3H9.563Zm11.719-.3-.445.445A.777.777,0,0,0,21.422-7.523Zm-12.164.3a.486.486,0,0,0,.3.3A.569.569,0,0,0,9.258-7.219Zm6.961.141A6.689,6.689,0,0,1,18-6.469,6.689,6.689,0,0,1,16.219-7.078Zm-7.1.609L9.4-6.633l-.141-.141Zm12.75.281-.3.609A1.035,1.035,0,0,0,21.867-6.187Zm-1.5.609h.3l-.141-.3Zm.891.281h.3l-.141-.281ZM10.9-5.437l-.3.586.586-.281Q11.156-5.32,10.9-5.437Zm9.188.445-.164.586.3-.281v-.3ZM15.047-3.961h.281l-.141-.281Zm2.367-.281-.3.586.609-.3A.428.428,0,0,0,17.414-4.242Zm2.227.281-.164.445.3-.141v-.3Zm-2.812.609h.281l-.141-.3ZM5.109-3.516l.586.3A.756.756,0,0,1,5.109-3.516ZM10.9-2.039l-.164.445h.3l.141-.445Zm-.3.445q.023.188.3.3A.692.692,0,0,0,10.594-1.594Zm6.07.3-.281.75.586-.3A.579.579,0,0,0,16.664-1.289Zm-5.039.141.164.445.141-.445Zm3.563.164-.445.727.445.281a2.194,2.194,0,0,1,.3-.727A.5.5,0,0,0,15.188-.984ZM16.523-.4l-.3.422A.424.424,0,0,0,16.523-.4Z" transform="translate(-1.992 41.016)"/>
</svg>
