<svg xmlns="http://www.w3.org/2000/svg" width="26.578" height="42.305" viewBox="0 0 26.578 42.305">
  <path id="路径_60910" data-name="路径 60910" d="M16.969-41.2h2.18L22.313-40.2,24.773-38.6l1.875,2.461.586,1.43.141,1.031h-.586l-.281.867q.188.023.281.281l.727.281-.281.867a2.066,2.066,0,0,1-.3,1.008l-.7.727-.3-.281.3-.445-.586.3a3.224,3.224,0,0,1-1.008.7l-.141-.7.141-.3-.445.445-.562.422q-.633-.094-.727-.562a2.762,2.762,0,0,1-1.008.422l-.867.141a1.946,1.946,0,0,1-.445-1.008l.141-.727L20.3-31.1a3.791,3.791,0,0,1-.586-1.148l.445-.562-.727-.3-.867.3.141-.3.141-1.148a.45.45,0,0,0-.281.422l-.867.3a1.338,1.338,0,0,1-.867-.445,2.828,2.828,0,0,0-1.008.445l-1.008.281-.867.445a.486.486,0,0,0-.3-.3,5.37,5.37,0,0,1-1.148.727l-1.148.867a2.342,2.342,0,0,1-.586.727l-.422,2.016.281.281-.727,2.32-.141.867.141.281a.428.428,0,0,1,.281.3L9.75-22.992l.867-.3a5.664,5.664,0,0,1,1.148-.867l1.172-.867,1.57-.562a7.01,7.01,0,0,1,1.594-.445l2.016.141.867-.141.3.141.422.164,3.75,2.438L24.914-21.7l-.422-.281v.563l1.57,2.18.727.727.445,1.008-.141,1.148.563.867.3,1.008a4.688,4.688,0,0,1,.281,1.313l.141,1.43-.727,3.469L27.094-6.82a7.3,7.3,0,0,1-.586,1.594L25.5-4.219l-.586,1.008-1.289.727-.3.586-.727.867a1.39,1.39,0,0,1-1.008-.445L20.3-1.031a7.284,7.284,0,0,1-1.312.7L17.836.094a1.8,1.8,0,0,0-.727.727l-.867.141L15.961.82,15.094.68l-.586.422L14.086.68,13.5.516l-.281.3L11.906,1.1,11.625.68A2.647,2.647,0,0,0,10.336.234L8.883-.023A3.443,3.443,0,0,1,8.3-1.2H7.008l-.281-.562-.3-1.172A1.043,1.043,0,0,1,6-3.492a3.615,3.615,0,0,1-1.172-.3L3.961-5.086,2.813-9.562l.445.141-.164.445.445.281v-.445H3.4L3.258-10.43l-.867-.727.141-1.453L1.8-16.055l.281-.3q-.023-.141-.281-.281l.281-.727.141-1.289-.141-.727.3-.141a.569.569,0,0,0-.3-.3l.586-2.742-.281-1.453a1.388,1.388,0,0,0,.563-.562l.141-1.148a1.818,1.818,0,0,1-.281-.586l-.281-.727.281-.281.281-.867.727-3.187a5.057,5.057,0,0,0,.727-1.008l.727-.727a1.274,1.274,0,0,1,.281-.727l1.008-1.148a1.861,1.861,0,0,1,.727-.586,3.261,3.261,0,0,1,.867-.867l.867-.141a2.43,2.43,0,0,0,.867-.727l.586-.7a5.627,5.627,0,0,0,1.289-.727L14.227-40.2Zm-.141,4.336-.586,1.008-.281.867A5.529,5.529,0,0,0,16.828-36l.281-.727Zm-1.594.141.445.445A.781.781,0,0,0,15.234-36.727Zm2.6.141.141.445.141-.445ZM15.094-36h.281l-.141-.281Zm0,.141.141.445.141-.445Zm2.156.586h.3l-.141-.3Zm-2.437-.141.141.422.141-.422Zm3.469,0v.281l.281-.141Zm-5.93.141-.141.422h.281l.141-.422Zm8.953.281v-.281h-.141Zm-.422.281h.281l-.141-.281Zm-8.812-.141-.164.867.445-.562A.569.569,0,0,0,12.07-34.852Zm3.609.3v.281l.281-.141Zm-4.641.422-.281.727.727-.586Zm1.031.445a2.025,2.025,0,0,0-.727.867A4.969,4.969,0,0,0,12.07-33.68Zm8.953.422H21.3l-.141-.281ZM10.617-33.4l-.586,1.148A1.561,1.561,0,0,0,10.617-33.4Zm-3.891.141v.281l.281-.141Zm15.3.281v-.281h-.141Zm-15.609.3h.3l-.164-.3Zm17.2.563v-.281h-.164ZM6-31.969l-.3.727A1.427,1.427,0,0,0,6-31.969Zm2.883.3h.281v-.3H9.023Zm1.148.141V-31.8H9.891Zm-1.43.281-.141.586.422-.141A.594.594,0,0,0,8.6-31.242ZM5.7-30.8v-.3H5.555Zm2.6.141a6.874,6.874,0,0,1-.7,1.148l-.3,1.172a3.642,3.642,0,0,0,.727-1.172l.586-.727Zm-4.031.141-.3.727.164.281.7.141.164-.867Zm18.914.445v-.3h-.141ZM8.6-28.641h.281v-.281H8.742Zm-1.734.3a.683.683,0,0,0,.422.281Zm1.594.563v-.281H8.3Zm-.445.3H8.3l-.141-.3ZM3.4-27.187v-.281H3.258Zm-.3.281-.141.586.3-.281v-.3Zm4.781.3v-.3H7.734Zm1.148,0v-.3H8.883Zm-1.594,0-.281.563.586-.281A.428.428,0,0,0,7.43-26.6Zm.867.867a.5.5,0,0,0,.3.281A.428.428,0,0,0,8.3-25.734Zm-1.43.281v.281l.281-.141Zm1.289,0v.281A.176.176,0,0,0,8.156-25.453Zm0,.422L7.43-24.023a.674.674,0,0,0,.3.586Zm7.664.586L14.813-23.3l-.141,1.453a3.525,3.525,0,0,0,.844-1.312l.727-.867Zm2.883,0A8.479,8.479,0,0,0,17.7-22.852a6.424,6.424,0,0,0-.586,1.43l1.313-1.43.563-1.172A.5.5,0,0,0,18.7-24.445Zm-1.594.141L16.688-23.3A1.509,1.509,0,0,0,17.109-24.3Zm2.742.445-.422.7A.816.816,0,0,0,19.852-23.859Zm-11.109.422v-.281H8.6Zm4.9,0a1.047,1.047,0,0,0,.445.586A1.047,1.047,0,0,0,13.641-23.437Zm6.938.281h.3v-.281h-.164ZM7.148-23.3a.666.666,0,0,0,.445.3Zm9.4,0a4.73,4.73,0,0,0-.445,1.734A4.573,4.573,0,0,0,16.547-23.3Zm-8.086.141L8.3-22.57l.445-.281A.7.7,0,0,0,8.461-23.156Zm10.828,0a4.442,4.442,0,0,0-.3,1.313l.727-1.148Zm-12.281.3q.023.188.281.281Q7.266-22.758,7.008-22.852Zm14.438.141-.562,1.453a4.019,4.019,0,0,0-.586,1.734,7.5,7.5,0,0,0,.867-1.734l.586-1.031A.566.566,0,0,0,21.445-22.711Zm-7.8.141.164.445.141-.445Zm-5.484.281-.141.727.445-.422A.486.486,0,0,0,8.156-22.289Zm11.859.3H20.3l-.141-.3Zm-7.8.141h.281l-.141-.281Zm1.148,0h.281l-.141-.281ZM6.867-21.7v-.281H6.727Zm7.5-.141v.281A.176.176,0,0,0,14.367-21.844Zm5.789.281v-.281h-.141Zm-4.477,0-.3.727.586-.586Zm4.172,0-.141.445.3-.141Zm-3.3.586h.281l-.141-.281Zm5.625-.281-.422,1.148v.422l.422.164v-.3l.422-1.148A.545.545,0,0,0,22.172-21.258Zm-14.578.422h.281v-.281H7.734Zm6.352.141h.281l-.141-.281Zm-2.461.586h.281l-.141-.281Zm5.93.586-2.32.422a5.314,5.314,0,0,1-1.734.727L12.07-16.922l-1.031,1.711a13.42,13.42,0,0,0-.562,2.18l.867,4.2A5.31,5.31,0,0,1,11.625-7.1L10.9-7.687v.281h.141l-.562,3.328-.141.445h.281l.281-.3.445-1.43a1.851,1.851,0,0,1,.563-1.312l.727.727,1.008.281.867-.141.3.586-.3.422-.141.867.586-.727.281-1.008.727-.141v.445L15.82-4.8l.422-.281a2.464,2.464,0,0,1,.867-.281L18.563-6.4a4.558,4.558,0,0,1,1.289-1.008l.586-.7.445-1.312-.164-1.289.586-1.312-.586-.281.164-1.312-.164-1.594a2.211,2.211,0,0,0-.422-1.148l-.141-1.289-.867.422-.586-.281v-.727A4.224,4.224,0,0,0,17.414-19.523Zm2.438,0-.141.7.586-.422A.7.7,0,0,0,19.852-19.523Zm1.734,0-.7,2.3.867-1.148.281-1.008Zm-16.031.281.3.422L6-19.242Zm16.9,1.008h.3v-.281h-.164Zm-.141.141a.976.976,0,0,0,.281.3Q22.57-17.977,22.313-18.094Zm0,.3-.141.422.281-.141ZM9.3-17.648l.3.422A.566.566,0,0,0,9.3-17.648Zm17.063.422v-.281h-.141Zm-17.2.141a.708.708,0,0,0,.3.3A.486.486,0,0,0,9.164-17.086Zm-6.352.445v-.281H2.672Zm6.211-.141-.281,1.734L9.469-16.5Zm12.867,0v.281l.281-.141Zm-19.219.563V-16.5H2.531ZM22.758-16.5q.023.188.281.281A.491.491,0,0,0,22.758-16.5Zm3.75.281a1.807,1.807,0,0,0,.586,1.008A3.232,3.232,0,0,0,26.508-16.219Zm-24.117.164a.683.683,0,0,0,.281.422Zm19.055,0,.141.7.164-.562Zm1.313,0-.445,1.008-.422.7.281.3.727-1.008.141-.867ZM8.6-14.18l-.141.422.281-.141v-.281Zm13.148.141a.4.4,0,0,0,.422.281A.683.683,0,0,0,21.75-14.039Zm1.289,0,.141.422v-.422Zm4.2.422V-13.9h-.141Zm-18.773.3-.164.422.3-.141v-.281Zm18.469,0-.141.422.141,1.313.3-1.031-.141-.281.141-.422Zm-3.164.281v.281l.281-.141Zm-.3.586h.3l-.141-.3ZM8.3-12.164v-.281H8.156ZM22.313-12.3l-.281.727A1.09,1.09,0,0,0,22.313-12.3Zm1.148,0-.281.727A1.09,1.09,0,0,0,23.461-12.3Zm-15.3.727v-.3H8.016Zm14.883,0a.491.491,0,0,0,.281.281Q23.3-11.437,23.039-11.578Zm4.922.563V-11.3H27.8ZM2.672-11.156v.281h.141v-.281Zm19.078,0,.141.445.141-.445Zm1.148,0a4.08,4.08,0,0,0-.3,1.594l.586-1.148.141-.445Zm-13.289.445v-.3H9.469Zm14.438-.3v.3l.281-.164ZM2.672-10.43l.281.727A1.424,1.424,0,0,1,2.672-10.43Zm21.094.141-.3,1.594.586-1.148A.521.521,0,0,0,23.766-10.289Zm-14.3.445v-.3H9.3Zm.563,0-.141,1.43L9.3-7.1l.164,1.148L9.3-4.945,9.75-4.8l.141-1.008v-.281H9.75l.586-2.32.141-1.148ZM3.961-9.7a.784.784,0,0,0,.3.422Zm0,.563.3.445A.636.636,0,0,0,3.961-9.141Zm.3.867a.7.7,0,0,0,.281.445Zm4.2.445v-.281H8.3Zm-4.2.422.281.445A.521.521,0,0,0,4.266-7.406Zm17.766.141q.023.188.281.3Q22.289-7.1,22.031-7.266ZM3.961-6.82v.281A.162.162,0,0,0,3.961-6.82Zm16.922,0-.164.422h.3V-6.82Zm.867,0-.586,1.453a2.151,2.151,0,0,0-.586.563l-.281.727a.435.435,0,0,0,.422.281.6.6,0,0,1,.3-.281l.422-.867a4.823,4.823,0,0,0,.3-1.008l.422-.727Zm2.016.141-.586.727.281.141A1.224,1.224,0,0,0,23.766-6.68ZM4.406-6.094a2,2,0,0,0,.422,1.008Zm7.664.281.422.445A.7.7,0,0,0,12.07-5.812Zm0,.445-.445,2.742.281.281L12.352-3.8l.141-1.289Zm1.148,0-.141,1.43-.3,1.172.3.422A8.3,8.3,0,0,0,13.5-4.078l.141-1.008Zm5.625,0-.281.563.586-.281A.428.428,0,0,0,18.844-5.367Zm-2.016.422h.281l-.141-.281Zm5.625,0-.141.586.445-.445ZM5.414-4.8v.445h.141L5.7-4.8Zm-.586.445v-.3H4.688Zm10.992-.3-.141.445.281-.141v-.3ZM5.555-4.078h.3v-.281H5.7Zm12.727-.141v.281l.281-.141Zm-3.609.141L14.227-3.07l-.141.867a2.6,2.6,0,0,0,.586-1.008l.141-.727Zm3.3.445.3.141-.164-.445Zm2.461.281.281-.141-.141-.141Zm-7.359,0h.281l-.141.281ZM17.7-3.07v.3l.281-.164ZM14.086-2.062l.141.445.141-.281ZM12.773-.328l.445.422A.905.905,0,0,0,12.773-.328Zm-.422.164.422.539A.943.943,0,0,0,12.352-.164Z" transform="translate(-1.805 41.203)"/>
</svg>
