<svg xmlns="http://www.w3.org/2000/svg" width="26.719" height="42.492" viewBox="0 0 26.719 42.492">
  <path id="路径_60911" data-name="路径 60911" d="M21.539-40.148l5.273.445a7.272,7.272,0,0,1,1.148.586,2.413,2.413,0,0,0,.3.867l-.445.141,1.031,1.031-.3.281a.532.532,0,0,1,.3.445l.141,3.938-.281.445-.891-.3a4.828,4.828,0,0,1-1.008,1.031l-2.062,1.9-.422.727.281.3a3.406,3.406,0,0,0-.867,1.008l-.586.727a3.614,3.614,0,0,1-.445,1.031l-.445,1.031-1.148,2.039L20.227-21.3a2.335,2.335,0,0,1-.422.867q-.234.539-.586,1.172a3.055,3.055,0,0,1-.445.867l-.445,1.031L17.6-16.5l.3.727-.3.164-.281,1.594a1.453,1.453,0,0,1-.891.727,1.569,1.569,0,0,0,.3.891l-.445.422.281.164-.281,1.453a1.342,1.342,0,0,0-.445.867L15.7-8.18l-.281.891-.445.867-.586,2.789.3.727L14.25-3.07l.141.75-.281,1.148A4.106,4.106,0,0,0,14.7,0L14.25,1.031a4.748,4.748,0,0,0-.727-.586l.141.586a4.567,4.567,0,0,0-1.172.586,3.808,3.808,0,0,1-1.312.727L10.594.891a1.93,1.93,0,0,1-1.031-.3l-1.453.586A.7.7,0,0,1,7.383.445L7.969-.586l.141-1.148-.141.281.141-1.453-.141-.586.141-.891-.281-.727h.281V-5.25l.3-1.031-.3-.281A3.409,3.409,0,0,0,8.7-7.289l.867-3.352.164-.891a5.1,5.1,0,0,1,.586-1.172l-.164-.867a1.9,1.9,0,0,0,.3-.867l.867-2.484a4.567,4.567,0,0,1,.586-1.172l.586-1.031a6.792,6.792,0,0,1,.586-1.172,3.165,3.165,0,0,0,.445-1.008l.867-1.031a3.947,3.947,0,0,0,.867-1.172l1.031-1.9-.445-.586.586-.422,3.07-4.828-1.031-.281-1.594.141-.867-.141-.3.141h-.445l-1.008-.141-2.789.586L10.313-31.1l-.3.164-3.8.141.3-.586L2.555-31.1l1.617-.727-.586-.445a2.56,2.56,0,0,1-1.031.445q-.164-.023-.281-.281l.445-.586-.3-1.312.445-.727a.913.913,0,0,1-.3-.445l.586-1.031a4.547,4.547,0,0,0-.586-1.172,2.776,2.776,0,0,0,.586-.727,1.745,1.745,0,0,1,.586.586l.586.141.3.75-.3.281a.771.771,0,0,0,.3.281l-.3.75-.281,1.453.422-.3.75-1.594-.3-.3a1.045,1.045,0,0,0,.3-.727L5.625-37.8a3.543,3.543,0,0,0,.891-.3,1.506,1.506,0,0,1,.586.586l-.164.586h.445l-.141-.281.422-1.172.586.867-.141,1.172a1.705,1.705,0,0,0,.445-.867L9-38.109l.727-1.008,3.352-.891,1.313.141,1.172-.141.445.141,1.594-.141,1.172.141,1.172-.141.281.141Zm-4.523,1.758a1.905,1.905,0,0,0-.867.586l-.3,1.008-.586,1.172q-.352.516-.727,1.172A8.287,8.287,0,0,0,15.7-35.625l.445-.586.281-1.172A3.056,3.056,0,0,0,17.016-38.391Zm1.031,0a.683.683,0,0,0,.281.422A.5.5,0,0,0,18.047-38.391Zm1.453,0-.281.422.586-.281Zm1.453.141-1.008,1.9A9.559,9.559,0,0,0,21.4-37.523l.727.586a4,4,0,0,0,.445-1.031A16.314,16.314,0,0,0,20.953-38.25Zm5.273.141q.023.188.281.3Q26.484-37.992,26.227-38.109Zm-16.359.141a2.112,2.112,0,0,0,.445.75A1.688,1.688,0,0,0,9.867-37.969Zm1.453,0a5.362,5.362,0,0,0-.422,1.336A2.381,2.381,0,0,0,11.32-37.969Zm6.422,0a1.3,1.3,0,0,1-.281.75l-.445.867a.6.6,0,0,0,.3.281L18.328-37.8Zm1.9,0a1.4,1.4,0,0,0-.422,1.031Zm4.1,0a3.342,3.342,0,0,0-.586,1.031Zm-8.625.164-.586.727.445.445a3.851,3.851,0,0,1,.586-1.031Zm10.8,0a.7.7,0,0,0,.445.281Zm-1.453.141-.3.727.586-.445Q24.727-37.547,24.469-37.664Zm-11.836.141-.281.586.586-.445Zm1.031,0,.141.445.141-.445Zm-3.656.141-.141.445q.141-.023.281-.281Zm15.469,0-.141.445h.3Zm-6.7.3v.281A.176.176,0,0,0,18.773-37.078Zm-11.836.586L6.8-36.07l.445-.562L6.8-36.8Zm7.453-.3-.445,1.031.3.141.586-.727Zm4.664,0a3.5,3.5,0,0,0-.867,1.313l-1.172,1.172a9.032,9.032,0,0,0,1.453-1.008Zm2.93.3v-.3h-.141Zm2.344,0v-.3h-.164Zm-12.117-.141q.023.164.281.281Q12.469-36.539,12.211-36.633Zm1.008,0-.141.563.586-.422Zm-3.656.141-.281.727.586-.445A.6.6,0,0,0,9.563-36.492Zm1.031,0a.7.7,0,0,0,.445.281Zm9.773.281.3-.141-.141-.141Zm1.031-.281-.141.586.586-.3A.7.7,0,0,0,21.4-36.492Zm1.313,0-.141.422h.281l.164-.422Zm1.172,0,.141.422.141-.422Zm1.172,0-.3.727.586-.445Q25.313-36.4,25.055-36.492Zm-17.086.281-.141.727.586-.422A.6.6,0,0,0,7.969-36.211Zm-4.523.141L3.3-34.9q.164-.023.281-.281v-.727Zm7.008,0q.023.188.281.3Q10.711-35.953,10.453-36.07Zm6.422,0-.445.75A.954.954,0,0,0,16.875-36.07Zm6.727.3h.281l-.141-.3ZM6.656-35.906v.422l.445-.281Zm13.148,0a.8.8,0,0,0,.281.281A.42.42,0,0,0,19.8-35.906Zm-9.656.422h.3l-.141-.281Zm13.289-.141a.925.925,0,0,0,.3.3A.486.486,0,0,0,23.438-35.625Zm1.172,0a.925.925,0,0,0,.3.3A.486.486,0,0,0,24.609-35.625Zm-16.945.141-.141.891.445.141.141-.867Zm4.1,0,.141.3v-.3Zm2.039,0a.708.708,0,0,0,.3.3A.486.486,0,0,0,13.8-35.484Zm-7.148.164-.3.727A1.045,1.045,0,0,0,6.656-35.32ZM9-35.32l-.3.727.727-.586Zm7.289,0-.141.586.422-.3Q16.547-35.18,16.289-35.32Zm2.93,0a2.342,2.342,0,0,1-.586.727l.281.422A2.025,2.025,0,0,0,19.5-34.9Zm3.938,0-.445.867.445.141.445-.727A.787.787,0,0,0,23.156-35.32Zm1.313,0-.3.727.586-.445Q24.727-35.227,24.469-35.32Zm-14.32.141-.281.586.586-.445Zm2.344,0-.281.586.586-.445Zm1.172,0-.445,1.008A1.8,1.8,0,0,0,13.664-35.18Zm7.008.141v.3l.281-.164Zm7.594.141.281.445A.564.564,0,0,0,28.266-34.9Zm-25.125.164.164.422.141-.422Zm17.227,0v.281l.3-.141Zm-12.984.141L7.1-33.422l.727-.75Zm2.344,0q.023.188.281.281Q9.984-34.453,9.727-34.594Zm2.18.281h.3l-.164-.281Zm4.1-.281v.281l.281-.141Zm5.531,0-.281.586A.9.9,0,0,0,21.539-34.594Zm-12.984.141a4.163,4.163,0,0,0-.586,1.313A2.422,2.422,0,0,0,8.555-34.453Zm5.836,0a.428.428,0,0,0,.3.281A.6.6,0,0,0,14.391-34.453Zm9.633,0a.771.771,0,0,0,.3.281A.5.5,0,0,0,24.023-34.453Zm4.242.141v.3h.141v-.3Zm-25.547.141a1.153,1.153,0,0,0,.422.586A.87.87,0,0,0,2.719-34.172Zm3.352,0-.281.75.563-.445Q6.328-34.055,6.07-34.172Zm16.5,0a.569.569,0,0,1-.3.3l.164.281.586-.422Zm1.313,0-.281.586.563-.422Zm-14.156.164-.445.422A.506.506,0,0,0,9.727-34.008Zm18.82,0a8.1,8.1,0,0,0-.281,1.172A4.031,4.031,0,0,0,28.547-34.008ZM4.758-33v-.281H4.617Zm21.3,2.789a.55.55,0,0,1-.281.422Zm-4.219,4.8a2.173,2.173,0,0,0-.3,1.031l.586-.727Q22.1-25.289,21.844-25.406Zm-5.109.445-.3.727.586-.445Q16.992-24.844,16.734-24.961Zm4.523.445-.3.867.586-.281Zm-.445.867a.428.428,0,0,0,.3.281A.6.6,0,0,0,20.813-23.648Zm-.445.727L19.8-22.2l.281.445A2.407,2.407,0,0,0,20.367-22.922ZM19.5-21.469l-.281.75L19.8-21.3Zm-5.977,1.477.141.281v-.281Zm-.3.281-.281.586A.9.9,0,0,0,13.219-19.711Zm-.281.727-.3.445h.445Zm2.039,4.1.141.445v-.445Zm-.141.867-.141.445.281-.141v-.3Zm1.9.445v.281l.281-.141ZM14.25-11.812v-.3h-.141Zm.586,0v-.3H14.7Zm-1.172.867h.281v-.281H13.8Zm.586,0h.281v-.281h-.141Zm1.758-.141-.3,1.008.586-.281Zm-2.648.586.164.422.141-.422Zm1.9,2.18V-8.6h-.141Zm-2.766.586-.141.586L12.8-7.43A.486.486,0,0,0,12.492-7.734Zm1.031,1.172v-.3h-.164Zm.867,5.25a.486.486,0,0,1,.3.3Zm-2.18.727-.164.445h.3V-.586Zm-.164.75-.141.563.3-.281V.164Z" transform="translate(-2.273 40.148)"/>
</svg>
