<svg xmlns="http://www.w3.org/2000/svg" width="27.867" height="42.633" viewBox="0 0 27.867 42.633">
  <path id="路径_60912" data-name="路径 60912" d="M20.484-41.227l.75,1.5L20.32-38.2l1.664-1.359.609-.3-.164,1.055a6.58,6.58,0,0,1-.445,1.359l.445.445.3-.609-.609.3,1.664-.891a2.651,2.651,0,0,0,.891.75,6.994,6.994,0,0,0,1.055.891,9.437,9.437,0,0,0-.891,1.219l.609-.3a3.192,3.192,0,0,1,1.2-.75l.914.3-.3,1.055,1.055.281-.3.914a2.452,2.452,0,0,0-.75,1.055l.141.3-.141.75.586-.3.773-.141L27.4-29.625l-.75.75.445.75.914-.75.445.445-.445.914-1.359,1.2a7.568,7.568,0,0,0-.914,1.523,3.023,3.023,0,0,0-.891.891l-1.055,1.055-.3-.445,1.055-1.359.3-.75-.445.141-.469.469a6.215,6.215,0,0,1-.891,1.336,7.13,7.13,0,0,0-.445,1.523l-1.359,1.8a1.428,1.428,0,0,0,.586-.445,6.359,6.359,0,0,1,1.523-.914A5.6,5.6,0,0,0,24.4-20.437a1.421,1.421,0,0,1,.586,1.055l.609-.609.3,1.055.891.3a2.933,2.933,0,0,0-.445.914l.914.586-.164-.281h.3a3.574,3.574,0,0,1,1.055,1.2l.914,1.8-1.219-.445-.141.609.141,1.5-.141.445A1.1,1.1,0,0,0,28.9-13.2l.914,1.336L28.758-7.781l-1.8,3.3-.609,1.523-1.5.891A4.415,4.415,0,0,1,23.039-.7L21.375.352A.905.905,0,0,0,20.766.8L19.875.352A5.942,5.942,0,0,0,18.07.8a2.59,2.59,0,0,0-1.055-.3L15.961.961l-.609-.75L14.6.8a9.8,9.8,0,0,1-2.109.469A14.986,14.986,0,0,1,10.523.8,11.781,11.781,0,0,1,8.414-.094l-1.2-1.219A7.988,7.988,0,0,1,5.859-2.672l-1.055.3a2.438,2.438,0,0,0-.445-1.055A2.25,2.25,0,0,0,3-4.477L2.7-6.891a8.651,8.651,0,0,0-.3-1.641l.3-1.359-.3-.445.3-1.055-.445-.3a2.05,2.05,0,0,0-.3-1.055l.445-.609.164-.609-.164-1.5.164-2.25a12.536,12.536,0,0,1,1.055-1.359,14.623,14.623,0,0,1,.445-1.969,11.314,11.314,0,0,1,1.5-1.5l2.109-.609a5.657,5.657,0,0,0-.75-.75,1.4,1.4,0,0,1-.891-.891l-.914-.914-1.055-.141.3-1.219L4.2-28.734a1.584,1.584,0,0,0-.445-.586l.609-1.055L4.8-31.734a8.589,8.589,0,0,1-1.2,1.2l-.469-.445L4.5-33.7l.469-1.2.891-1.359a7.677,7.677,0,0,1,.914-1.359,2.853,2.853,0,0,1,.75-.75,1.783,1.783,0,0,1,1.359-.609,2.165,2.165,0,0,0,.891-.586,4.043,4.043,0,0,1,1.219-.609l.141.609L9.469-38.2l-1.055,1.2a7.2,7.2,0,0,1-.891,1.2q-.3.469-.609,1.055l.3.469,1.945-2.719.609-1.055a13.557,13.557,0,0,0,1.5-1.5,12.854,12.854,0,0,1,1.055-1.523l1.055.469L10.828-38.2l-.609,1.2a16.921,16.921,0,0,0-1.5,1.5,2.152,2.152,0,0,1-.75.75L6.914-33.094l-.3.914.609-.164.141.164,3.469-4.969,1.359-1.359.609-1.219,1.8-.891,1.055-.3.445.141-.609.469a2.218,2.218,0,0,0-.891,1.641l-1.359.469a5.578,5.578,0,0,1-.3,1.641l.914-.586,1.055-1.523,1.5-1.5.3-.445-.164-.3,1.523.609.75-.3-.3.891L15.492-36.7a3.742,3.742,0,0,0,1.664-.75l1.8-2.273A12.359,12.359,0,0,0,20.484-41.227Zm-3.023.914-.445.586A.715.715,0,0,0,17.461-40.312Zm-.609.586a.486.486,0,0,0,.3.3Q17.133-39.562,16.852-39.727Zm3.023.164a.925.925,0,0,0,.3.3A.486.486,0,0,0,19.875-39.562Zm-3.328.3a1.08,1.08,0,0,0,.3.281l.164-.141Zm3.328.281v-.281h-.164Zm-3.609,0a.73.73,0,0,0,.281.3l.164-.141Zm-7.383.164-.914,1.055-.609.445.3.445A8.52,8.52,0,0,0,8.883-38.812Zm7.078.141a.708.708,0,0,0,.3.3l.141-.141Zm3.164.164-1.219,1.055a1.945,1.945,0,0,0-.445,1.055,9.558,9.558,0,0,0,1.055-1.219A1.643,1.643,0,0,0,19.125-38.508Zm-5.133,0a1.214,1.214,0,0,1,.445.445Zm1.664.141-1.219,1.359a2.165,2.165,0,0,0-.445,1.055l1.219-1.2A1.749,1.749,0,0,0,15.656-38.367Zm4.359.164a.428.428,0,0,0,.3.281A.428.428,0,0,0,20.016-38.2Zm-.141.281q.023.188.3.3A.692.692,0,0,0,19.875-37.922Zm-.445.609h.281l-.141-.3Zm-.164,0a11.316,11.316,0,0,1-.75,1.055,4.248,4.248,0,0,0,1.2-.75Zm-12.047.3-.609,1.2a8.961,8.961,0,0,0-1.055,1.219,8.963,8.963,0,0,0,1.219-1.219A1.914,1.914,0,0,0,7.219-37.008Zm14.766,0-1.219,1.055-.445.75.3.3.141-.141.469-1.055A2.258,2.258,0,0,0,21.984-37.008Zm1.945.445a.486.486,0,0,0,.3.3Q24.211-36.445,23.93-36.562Zm-11.6.3-.141.609.141.3.469-.3Zm7.547,0-.445.75A1.534,1.534,0,0,0,19.875-36.258Zm3.914,0a.486.486,0,0,0,.3.3A.692.692,0,0,0,23.789-36.258Zm-8.578.3L14.156-34.9a4.27,4.27,0,0,0-1.219.445l-.609.164-2.25,3.164L9.023-30.07l-.141.891a2.809,2.809,0,0,0-.914.914l-.609.586.469.3.586-.75.914-.609.3-.891.891-.914.469-.586a1.123,1.123,0,0,1,.75-.469.954.954,0,0,1,.3.609l-.469.445-1.5,1.969.445.3.914-.609.141,1.2.914-.141a2.112,2.112,0,0,1-.445.75l-.469.609a.491.491,0,0,0,.3.3,1.162,1.162,0,0,1,.609.586,2.786,2.786,0,0,0-.609.773l.445.281,1.055-1.055a1.666,1.666,0,0,0,.914.469l.75.445-.609.445L12.492-22.1a3.184,3.184,0,0,1-.914.914l-.586.891-.3.609.586-.141.164.141.891-.609.469-1.055.75-.586.75-.914.141-.3L14.3-23.3l-.445.3.445-.469.914-.586a2.97,2.97,0,0,1,.586-.609l.609.3-1.8,1.945-.164.914a2.632,2.632,0,0,0-.891.914l-.75.586.445.164a5.059,5.059,0,0,1,.914-.914l1.945-2.25.445-.914,1.664-1.359.3.3-.3.609.609-.445,1.055-1.055a1.308,1.308,0,0,0-.75-.3l-.609-.3.609-.75.445-1.359.141-1.5-.281-1.8L18.82-33.4a8.42,8.42,0,0,0-1.664-.445,2.145,2.145,0,0,1-1.2-.609.881.881,0,0,1-.75-.445l.141-.75v-.3Zm8.273.141a.708.708,0,0,0,.3.3l.141-.141Zm-9.937.164.141.445.164-.445Zm8.438.141.445.3A.6.6,0,0,0,21.984-35.508Zm1.2,0-1.055,1.8L21.07-32.484l.609-.164.141.164,1.219-1.664a5.52,5.52,0,0,1,.586-1.055A.666.666,0,0,0,23.18-35.508Zm-11.6.164-.75,1.359-.75.75.445.141.164-.141a8.455,8.455,0,0,1,1.055-1.359l.586-.75-.586.141Zm12.961,0a.486.486,0,0,0,.3.3A.427.427,0,0,0,24.539-35.344Zm2.555,0v.3h.164v-.3ZM20.18-35.2a.515.515,0,0,0,.3.445Zm1.5,0a3.144,3.144,0,0,0-.609,1.055A1.514,1.514,0,0,0,21.68-35.2Zm2.719.3a.976.976,0,0,0,.281.3Q24.656-34.781,24.4-34.9Zm2.555.141-1.219,1.219-.586,1.055L23.93-31.125l-.586,1.055a8.751,8.751,0,0,0-1.055,1.5,9.962,9.962,0,0,0-.469,1.055,1.722,1.722,0,0,0-.445.891l-.445.773.75-.3a7.038,7.038,0,0,1,.609-1.523l.586-1.055.914-1.055.609-.445.586-1.055a3.822,3.822,0,0,1,.75-1.055l.773-1.359A2.251,2.251,0,0,0,26.953-34.758Zm-21.234.469h.3l-.164-.3Zm19.57-.3a.925.925,0,0,0,.3.3A.486.486,0,0,0,25.289-34.594Zm-15.961.141a.486.486,0,0,0,.3.3A.486.486,0,0,0,9.328-34.453Zm15.82.164a2.587,2.587,0,0,0-.609,1.359A3.369,3.369,0,0,0,25.148-34.289Zm-16.266.445-.469.914a.428.428,0,0,0,.3.281l.609-.75Zm1.2.75a2.122,2.122,0,0,0-.445,1.359A2.755,2.755,0,0,0,10.078-33.094Zm13.852.164a4.8,4.8,0,0,0-.445,1.336l.914-1.055Zm-1.055.141-.281.609.586-.3Q23.156-32.672,22.875-32.789Zm-13.711.141a4,4,0,0,0-.586.914A2.057,2.057,0,0,0,9.164-32.648ZM4.8-31.875v-.3H4.664Zm1.5-.3.3.586.609-.586-.609.3Q6.586-32.086,6.3-32.18Zm1.828,0q.023.188.281.3A.371.371,0,0,0,8.133-32.18Zm14.156,0-.3.586.609-.141A.789.789,0,0,0,22.289-32.18Zm-14.461.3-.609.891A1.537,1.537,0,0,0,7.828-31.875Zm.586.141a.486.486,0,0,0,.3.3Q8.7-31.594,8.414-31.734Zm.609.3h.3l-.164-.3Zm14.016-.164a.57.57,0,0,0,.3.469Zm4.055,0a.5.5,0,0,0,.469.3A.711.711,0,0,0,27.094-31.594ZM8.883-31.43a3.432,3.432,0,0,0-.469,1.055A1.984,1.984,0,0,0,8.883-31.43Zm12.938,0,.3.445A.515.515,0,0,0,21.82-31.43Zm3.914.141-.445.75A1.238,1.238,0,0,0,25.734-31.289Zm1.055.164A5.228,5.228,0,0,1,25.9-30.07l-.3.891-1.359,1.219a4.27,4.27,0,0,0-.3,1.336l1.219-1.336.586-1.055,1.523-1.969Zm-5.109.141-.141.445h.281l.164-.445Zm.914.3-.3.609.586-.3Q22.852-30.562,22.594-30.68Zm2.391.445h.3l-.141-.3ZM6.773-30.375v.3l.3-.164Zm1.2,0-.75,1.2.609-.141.586-.914Zm14.016.3.3.445A.789.789,0,0,0,21.984-30.07Zm-.164.281a.913.913,0,0,0,.3.469Zm2.414.3-.445,1.219.75-.75.141-.469Zm3.023.164.445.445A1.214,1.214,0,0,1,27.258-29.32Zm-20.039.445-.445.75A1.534,1.534,0,0,0,7.219-28.875Zm2.719.445a.666.666,0,0,0,.445.3Zm1.2.609-.609,1.055a6.884,6.884,0,0,0-1.2,1.359,15.92,15.92,0,0,0,1.359-1.219l.891-.75Zm16.57.3h.3l-.164-.3ZM9.328-27.68a.708.708,0,0,0,.3.3l.141-.141Zm-1.2.3v.3l.281-.141Zm1.031,0v.3l.3-.141Zm-.141.609v-.3H8.883Zm-3.914.3v-.3H4.969Zm20.625-.3a1.39,1.39,0,0,0,.3.3l.164-.164Zm-17.32.445h.3l-.141-.3Zm16.125.164v-.3H24.4ZM27.7-26.32q-.187-.023-.3-.3Zm-2.25,0-.3.609.586-.3Q25.711-26.2,25.453-26.32Zm-1.359.164-.469.75A1.152,1.152,0,0,0,24.094-26.156Zm-12.656.141a2.647,2.647,0,0,0-.609,1.219A2.987,2.987,0,0,0,11.438-26.016Zm11.3,0a1.549,1.549,0,0,0-.445,1.055A2.569,2.569,0,0,0,22.734-26.016Zm-1.969.164a1.616,1.616,0,0,0,.3.586A.866.866,0,0,0,20.766-25.852Zm-.281.281v.3A.2.2,0,0,0,20.484-25.57Zm-1.664,0h.3l-.164.3Zm1.945.3L19.43-24.047a3.235,3.235,0,0,0-.773,1.055,4.821,4.821,0,0,0,1.055-1.055A4.714,4.714,0,0,0,20.766-25.266Zm-14.3.469v-.3H6.3Zm15.07-.164L20.18-23.3a4.374,4.374,0,0,0-.75,1.359,20.372,20.372,0,0,0,1.8-1.664l.75-1.055Zm-11.32.164a.428.428,0,0,0,.3.281Q10.5-24.7,10.219-24.8Zm12.656,0,.164.445.141-.3Zm-12.937.281-.3.609.586-.3Q10.2-24.4,9.938-24.516Zm1.8,0-1.055,1.055-.469.773,1.219-.914A1.4,1.4,0,0,0,11.742-24.516Zm10.688.469v.3l.3-.164Zm-7.687.445.3-.141-.141-.164Zm-2.25-.141a.484.484,0,0,0,.445.281Zm9.633,0v.281l.3-.141Zm-4.664.141-.3.75.609-.445A.486.486,0,0,0,17.461-23.6Zm-4.969.3-.445.609A1.625,1.625,0,0,0,12.492-23.3Zm4.359.445-2.7,2.859a5.991,5.991,0,0,0-.609,1.359l-.75.75-.914.3.3-.891.914-1.055a4.147,4.147,0,0,0-1.219.75l-.609,1.2a3.673,3.673,0,0,0-.586,1.219l-1.219,1.2.914-.3.609.445-.773.609a3.556,3.556,0,0,0-.586,1.5,6.72,6.72,0,0,0-1.055,1.055l-.75.914.141.914-.141.281.445-.586L9.164-12l.609-.3.3.164-1.2,2.109q-.281.563-.469.891l-.891,1.2a11.716,11.716,0,0,1-.914,1.055l.164,1.055L8.133-7.781l.75-1.664a6.6,6.6,0,0,1,1.2-.445v.609a4,4,0,0,0,.3,1.055l-.445.281a6.687,6.687,0,0,1-.773,1.359L7.523-3.562l.141.609.469-.469,2.086-3.75.773-.469.281.609a6.33,6.33,0,0,0-.75,1.359,1.708,1.708,0,0,1,1.055-.445,1.638,1.638,0,0,1,.914.586l.75-.141.141.141,1.359.609a2.384,2.384,0,0,1-.75.914q.164.4.445.445l.914-1.5a5.284,5.284,0,0,0,1.5-.773,4.868,4.868,0,0,0,1.359.773L20.93-6.727l-.3-.3.445-.609-.586.164-.469-.609.469-1.2a6.237,6.237,0,0,1-.469-1.8l.3-1.523-.609-2.555.3-.914-.586-.445.141-.445-.445-.164-.164.3-.3-.141.164-1.055.141-.445-.141-.164a2.241,2.241,0,0,0-.609.609,5.822,5.822,0,0,0-.891-1.219l-.609-.445-.164.445.164.3-1.219.3.164-1.055-.609.609a4.725,4.725,0,0,1-.75,1.055l-.141-.609a5.979,5.979,0,0,1,.891-1.359l.445-1.055.914-.586A3.446,3.446,0,0,0,16.852-22.852Zm-6.773.164a.7.7,0,0,0,.445.281Zm1.664,0-1.8,1.8.445.3a.854.854,0,0,0-.445.75l1.336-1.664A4.337,4.337,0,0,0,11.742-22.687Zm-2.109.281q.023.188.3.3A.486.486,0,0,0,9.633-22.406Zm-.164.3-.445,1.219.914-.75Zm9.492.164-.3.586.609-.281Q19.242-21.82,18.961-21.937Zm-.586.891h.281l-.141-.3Zm1.945-.3-.445,1.359a3.637,3.637,0,0,0,.75-.891ZM7.828-20.3h.3v-.281H7.969Zm.141.164-1.2,1.2a1.028,1.028,0,0,0,.3.609,3.409,3.409,0,0,0,.75-1.055l.586-.609Zm14.766,0a1.945,1.945,0,0,0-.445,1.055A2.83,2.83,0,0,0,22.734-20.133Zm-1.8.3-.164.586.609-.281A.666.666,0,0,0,20.93-19.828Zm3.609.445-.3.609A.824.824,0,0,0,24.539-19.383Zm-2.719.3a.486.486,0,0,0,.3.3Q22.1-18.937,21.82-19.078Zm-11.133.3a1.836,1.836,0,0,0-.3.891l.609-.75Zm13.242,0-.445.891a.486.486,0,0,0,.3.3l.75-1.2-.141.141Zm1.664,0v.3l.3-.164Zm-19.43.586h.3L6.3-18.469Zm19.125-.281v.281l.3-.141Zm-.141.281-.3.609A1.035,1.035,0,0,0,25.148-18.187Zm-19.43.3q.023.188.3.3A.692.692,0,0,0,5.719-17.883Zm4.219.164-.773.75.609.3.445-.75Q10.2-17.578,9.938-17.719Zm-1.664.141a4.2,4.2,0,0,1-.75.914l-.609,1.055-1.359,1.5.3.75,1.055-1.2,1.219-2.273.445-.586Zm14.906,0a1.538,1.538,0,0,0-.445.914A1.456,1.456,0,0,0,23.18-17.578Zm-17.461.445v-.281H5.555Zm-.3,0-.164.469.3-.164Zm21.375.164a1.774,1.774,0,0,0-.445,1.2A2.415,2.415,0,0,0,26.789-16.969Zm-21.82.3v.3l.281-.164Zm4.359,0a9.679,9.679,0,0,0-1.5,1.5L5.414-11.7a6.241,6.241,0,0,1-.3,1.5,3.994,3.994,0,0,0,1.359-1.5l1.2-1.664a12.234,12.234,0,0,1,1.219-1.8Zm15.82,0a7.35,7.35,0,0,0-1.219,1.945,2.452,2.452,0,0,0-.75,1.055l1.359-1.5A4.22,4.22,0,0,0,25.148-16.664Zm-2.719.141.164.445.141-.445Zm5.414.75v-.3H27.7Zm-22.289.164v-.3H5.414Zm17.484-.3.3.445.141-.445Zm2.7.3-.586.75.445.3.609-.75Zm-3.141.445q.023.188.281.3Q22.852-15.023,22.594-15.164Zm4.055.141-.914,1.664-1.055.914a.645.645,0,0,0,.469.445L26.2-13.664a3.637,3.637,0,0,0,.75-.891A.713.713,0,0,0,26.648-15.023Zm-1.664.469-.3.586.609-.141Zm-16.1.141a6.639,6.639,0,0,0-.609,1.8l1.055-1.5Zm15.516.445a1.111,1.111,0,0,0,.445.609A1.459,1.459,0,0,0,24.4-13.969Zm-1.219.609a.905.905,0,0,0-.445.609A1.54,1.54,0,0,0,23.18-13.359Zm1.219,0-1.055.914a.7.7,0,0,0,.445.445ZM5.414-13.2a.771.771,0,0,0,.3.281l.141-.141Zm2.414.445a5.114,5.114,0,0,0-.609,1.664l.914-1.055Zm14.6,0-.3.609.609-.3A.486.486,0,0,0,22.43-12.75ZM4.8-12.141h.3l-.141-.3Zm20.344,0,.3-.164-.164-.141Zm-2.109.281h.3l-.164-.281Zm-.3.3h.3l-.164-.3Zm.75-.3a12.655,12.655,0,0,0-1.2,1.219l-.3.75v.445l.141-.141.609-1.219Zm1.055,0-.3.609.609-.3A.486.486,0,0,0,24.539-11.859Zm-.609.609a.486.486,0,0,0,.3.3Q24.211-11.133,23.93-11.25Zm-17.156.164a.771.771,0,0,0,.3.281A.428.428,0,0,0,6.773-11.086Zm16.852.141a5.081,5.081,0,0,0-.445,1.5A2.954,2.954,0,0,0,23.625-10.945Zm4.383,0A2.638,2.638,0,0,0,27.4-9.891,3.662,3.662,0,0,0,28.008-10.945ZM6.469-10.8l-.445.773q.023.188.281.281l.609-.75Zm1.055.469-.3.586.609-.281A.427.427,0,0,0,7.523-10.336Zm-1.8.891h.3l-.164-.3Zm1.2-.3L6.469-8.7l-.445.609a2.112,2.112,0,0,0,.75-.445l-.3.445L7.523-9.141A.857.857,0,0,0,6.914-9.75Zm15.68.609h.281l-.141-.3Zm4.2-.3-.141.609.609-.445Zm-5.109.164.141.445.164-.445Zm3.164.141v.3l.3-.164Zm-15.375.3v.3l.3-.164Zm16.875,0-.3.75.609-.3A.666.666,0,0,0,26.344-8.836ZM22.43-8.7l-.141.469.3-.164v-.3Zm-13.1.164-.445.75A1.3,1.3,0,0,0,9.328-8.531Zm11.742.445.164.445.141-.445Zm5.719.3h.3v-.3h-.141Zm-4.8.141v-.3H21.82Zm1.945,0-.445.75A1.155,1.155,0,0,0,23.93-7.641Zm1.664,0-.3.75.75-.586Zm1.969,0-.164.469h.3l.141-.469ZM8.719-7.031v-.3H8.578Zm-.445,0-.3.75.609-.445A.486.486,0,0,0,8.273-7.031Zm15.961.609v-.3h-.141Zm-1.055,0-.3.586A.866.866,0,0,0,23.18-6.422Zm1.664,0a.925.925,0,0,0,.3.3A.486.486,0,0,0,24.844-6.422ZM6.3-6.117a2.345,2.345,0,0,0,.3.586A.866.866,0,0,0,6.3-6.117Zm17.32,0-.281.586A.9.9,0,0,0,23.625-6.117Zm1.055,0-.586.586.3.469A2.01,2.01,0,0,0,24.68-6.117Zm-21.07.281a2.519,2.519,0,0,0,.3,1.219l.141-1.055Zm4.055,0v.3l.3-.141Zm14.93.3h.281l-.141-.3ZM6.023-5.672l.445.445A1.021,1.021,0,0,0,6.023-5.672Zm20.18,0a2.791,2.791,0,0,0-.609.891A1.827,1.827,0,0,0,26.2-5.672ZM7.359-5.531a2.352,2.352,0,0,0-.281,1.055A1.934,1.934,0,0,0,7.359-5.531Zm3.773,0,.141.469.164-.469Zm.914.469q.023.188.281.281Q12.3-4.922,12.047-5.062Zm6.328,0-.609,1.2.141.75.75-1.2.3-.75Zm-4.992.141a3.148,3.148,0,0,0-.891,1.8A7.2,7.2,0,0,0,13.383-4.922Zm9.492,0v.3l.3-.164Zm-13.1.141a3.87,3.87,0,0,0-.609.914A1.825,1.825,0,0,0,9.773-4.781Zm7.242,0v.3l.3-.141Zm8.438,0a3.9,3.9,0,0,0-.469,1.359L25.9-4.477Zm-14.766.164-.609.75a.486.486,0,0,0,.3.3l.609-.75A.486.486,0,0,0,10.688-4.617ZM4.5-4.477l-.141.469h.3v-.469Zm12.211,0A4.935,4.935,0,0,0,15.8-2.812a1.671,1.671,0,0,0-.586,1.055,9.182,9.182,0,0,1,1.055-1.2A7.954,7.954,0,0,0,16.711-4.477Zm-9.8.469v-.3H6.773Zm4.664-.3v.3l.3-.164Zm10.711.586-.164.469.3-.164Zm-11.3.469h.281l-.141-.3Zm2.555-.3-1.055,1.8-.3.914.445.281-.141-.586A3.891,3.891,0,0,0,13.1-2.2l.891-.75Zm-8.3.141a.486.486,0,0,0,.3.3Q5.531-3.258,5.25-3.422Zm20.648.75h.3v-.281h-.164ZM9.469-2.812v.3l.3-.164Zm1.359.3v-.3h-.141Zm.914-.3-.609,1.055.3.609.75-1.359Zm5.719.445v-.3H17.32Zm-7.242-.141-.281.75.75-.609Zm-.586.75a3.151,3.151,0,0,0,.586,1.2A2.58,2.58,0,0,0,9.633-1.758Zm5.109,0-.3.914.609-.3Zm1.8.914v-.3h-.141Zm-4.359.281-.3.609.445-.3a.486.486,0,0,0,.3.3A1.156,1.156,0,0,0,12.188-.562Zm1.5.164-.141.445h.3L13.992-.4Zm3.773,1.5a.486.486,0,0,1,.3.3A.486.486,0,0,1,17.461,1.1Z" transform="translate(-1.945 41.227)"/>
</svg>
