<svg xmlns="http://www.w3.org/2000/svg" width="27.727" height="42.539" viewBox="0 0 27.727 42.539">
  <path id="路径_60913" data-name="路径 60913" d="M12.867-41.133l1.336.75a2.454,2.454,0,0,1,1.055-.3l1.031.75,2.086-1.2.141.445-.3.3a4.93,4.93,0,0,0-.891,1.031l1.2-.891a1.31,1.31,0,0,0,.445.586l1.172-.586,1.945,1.477.281.75a1.742,1.742,0,0,1,1.336.586,8.993,8.993,0,0,0-1.336,1.336,9.2,9.2,0,0,0,1.5-1.336A1.193,1.193,0,0,1,24.891-36.4a2.2,2.2,0,0,1,.727.891,1.892,1.892,0,0,0,.609.609l-.445.727.586-.281.3.586a3.368,3.368,0,0,0-.3,1.477l.891.586-.75.75a5.361,5.361,0,0,0-1.031,1.031l-.727.609a3.584,3.584,0,0,0,.867-.3l.75-.891a2.862,2.862,0,0,1,.891.3l.445.586-.586.445a5.2,5.2,0,0,1,.445,1.2l-5.484,5.484a7.264,7.264,0,0,0,1.172-.891l1.2-.891,2.672-2.836a6.8,6.8,0,0,1,1.172-.445l.3.445a5.459,5.459,0,0,1-1.336.75,1.487,1.487,0,0,0,.445.586q.4.375.891.891a1.753,1.753,0,0,0-.586,1.055,4.2,4.2,0,0,1,1.031-.445l-.3.445-1.477,1.336a.521.521,0,0,0,.445.281l.141-.281a2.26,2.26,0,0,1,.75.867,1.326,1.326,0,0,1-.75,1.055,4.057,4.057,0,0,1,.75.891l-1.031.586.586.141A1.326,1.326,0,0,1,27.4-18l-.281.445.445.867L28.9-15.8l-.609.3a1.633,1.633,0,0,1,.3.891,6.432,6.432,0,0,1-1.2.891l.609.3.281-.164-.445.75.3,1.172-.586.3-.609.891.445.3.3-.164a2.906,2.906,0,0,1-1.031.609l.141,1.031-.141.445-.75.586.586.445a7.907,7.907,0,0,1-1.031,1.477,4.162,4.162,0,0,1-1.031.891,9.249,9.249,0,0,1-1.031,1.336l-.891,1.2L21.188-.961,19.547.07a1.357,1.357,0,0,0-.75.75L18.211.375,17.039.82l-4.9.586-1.2-.3A11.577,11.577,0,0,1,9.023.516,15.03,15.03,0,0,0,7.383-.516L4.57-3.328,3.539-4.969,2.789-6.75,2.344-8.531,3.4-9.7l.891.281,1.922-.445a.862.862,0,0,0,.281.609,3.988,3.988,0,0,1,1.5-.75l1.172-.3.445.3L8.883-8.672a1.539,1.539,0,0,1,1.031,1.2l.586.891a2.6,2.6,0,0,0,.609.867,3.508,3.508,0,0,0,.727-.445l.75.891,1.172-.141a2.681,2.681,0,0,1,1.055,1.031,4.357,4.357,0,0,1,1.617-.727l.891-.445a4.937,4.937,0,0,0,.609-.891l-.609-.141-.281.281a1.156,1.156,0,0,1-.609.445l-1.172.141L14.813-6a2.089,2.089,0,0,1,.586-.586l1.641-1.2a9.487,9.487,0,0,0,1.172-1.2l.75-.445a2.621,2.621,0,0,0-.3-.891,12.948,12.948,0,0,1,.891-1.922l.3-3.7-.3.3-.141-.3a6.187,6.187,0,0,0-1.477.586,5.057,5.057,0,0,0-1.5.609,2.177,2.177,0,0,0-1.172.445.865.865,0,0,1-.445-.609l-.891.445a.883.883,0,0,0-.891.445l-1.2.3-.281-.3-.75-.445a1.593,1.593,0,0,0-.75-.727l-.281.891-.891-.445.281-.609-.891-.281-2.062-1.2A5.186,5.186,0,0,1,5.156-18a1.832,1.832,0,0,1-.867.727L4.57-18.3,4.43-19.5a.85.85,0,0,1-.75-.891l-.891-1.172q-.469-.891-.891-1.922a11.576,11.576,0,0,0-.281-2.227l-.3-2.367.445-2.086a5.717,5.717,0,0,1,.75-2.086l.141-1.758.891-1.781,1.336-1.5a10.514,10.514,0,0,1,1.172-1.477,3.722,3.722,0,0,1,1.781-1.172l1.945-.75,2.063.586Zm.3.75a.428.428,0,0,0,.3.281A.428.428,0,0,0,13.172-40.383Zm7.406,1.031a.486.486,0,0,0,.3.3A.486.486,0,0,0,20.578-39.352Zm-3.7.141-.141.445h.3Zm-.445.445v.3l.3-.141Zm-.281.3-.164.445.445-.164Q16.406-38.344,16.148-38.461Zm1.172.141.445.3A.6.6,0,0,0,17.32-38.32Zm.164.586v-.281H17.32Zm-1.641.164v-.3H15.7Zm1.2-.164q.023.188.281.3Q17.3-37.617,17.039-37.734Zm-1.781.164a.521.521,0,0,0,.445.281Zm-.3.141-.3,1.2.75-.609A1.31,1.31,0,0,0,14.953-37.43Zm1.641,0a.976.976,0,0,0,.281.3l.164-.164Zm1.477.3v-.3H17.93ZM7.547-37.289v.3l.281-.141Zm4.289,0-.281.445A.467.467,0,0,0,11.836-37.289Zm-2.953.164.141.281v-.281Zm7.406,0a.771.771,0,0,0,.3.281l.141-.141Zm-.141.281v.3l.281-.141Zm-9.211.164v.281l.3-.141Zm5.2.141a2.219,2.219,0,0,0-.586,1.2A2.77,2.77,0,0,0,12.141-36.539Zm3.7,0v.3l.3-.164Zm1.031,0v.445l.445-.3ZM6.656-36.4v.3l.281-.141Zm3.7.75h.3l-.164-.3Zm2.367-.3a.486.486,0,0,0,.3.3A.486.486,0,0,0,12.727-35.953Zm1.2,0-.3,1.2a.486.486,0,0,1,.3.3l-.445-.3-.3.141-1.2-.445-.141.75a3.48,3.48,0,0,1-1.031.891l.75.281L9.914-30.914a1.759,1.759,0,0,1,.75.609,13.415,13.415,0,0,1-1.5,1.922L7.992-27.047l-.164.727,1.055-.727a1.694,1.694,0,0,1,1.336.727,6.421,6.421,0,0,1-.75,1.781,2.767,2.767,0,0,0-.586,1.2l.445-.445a2.32,2.32,0,0,1,1.172-.586l-.445.891-.891,1.172h.609A2.953,2.953,0,0,1,10.8-21.281a3.712,3.712,0,0,0-.586,1.2l.445-.445,3.539.891L13.031-18a11.854,11.854,0,0,0,1.336-1.055,9.877,9.877,0,0,1,1.781-.445l1.172-.586,1.336-1.031.141.586,1.2-.891.586-.891-.586-.141.3-.586-.164-1.641.164-2.086.141-.445a10.5,10.5,0,0,0-.445-2.508l-.586-2.367a2.835,2.835,0,0,0-1.2-.891l-1.617-1.477-.609-.3a5.175,5.175,0,0,1-1.477.3Zm6.656.164-.445.586A.663.663,0,0,0,20.578-35.789Zm3.727.281v-.281h-.164Zm-13.2.164-.445.445.281.281Zm8.578.445a.428.428,0,0,0,.3.281Q19.969-34.758,19.688-34.9Zm-9.328.141a2.883,2.883,0,0,0-.586,1.336l.586-.445.586-.75Zm14.227.3v-.3h-.141Zm-18.539.281-.445.75A1.181,1.181,0,0,0,6.047-34.172Zm19.43,0A7.339,7.339,0,0,0,24.3-32.531,5.78,5.78,0,0,0,25.477-34.172Zm-16.008.75a5.244,5.244,0,0,0-.891,1.477A4.294,4.294,0,0,0,9.469-33.422Zm-2.531.141-.141.445h.3l.141-.445Zm3.422.141-.141.445H10.5l.164-.445Zm12.75,0v.3l.3-.141Zm-.3.3v.3l.3-.164Zm-13.031.3a1.782,1.782,0,0,0-.3,1.031A1.782,1.782,0,0,0,9.773-32.531Zm12.75,0v.281l.281-.141Zm1.336,0-.445.586A.855.855,0,0,0,23.859-32.531ZM5.32-32.25l-.586.891A1.9,1.9,0,0,0,5.32-32.25Zm.727,0a.486.486,0,0,0,.3.3Q6.328-32.086,6.047-32.25Zm16.172,0v.3l.3-.141Zm-.3.3v.3l.3-.164Zm1.2,0-.141.75.445-.445A.486.486,0,0,0,23.109-31.945ZM5.766-31.8a.73.73,0,0,0,.281.3Q6.023-31.687,5.766-31.8Zm15.867.164q.023.188.281.281Q21.891-31.547,21.633-31.641ZM5.6-31.5a.486.486,0,0,0,.3.3Q5.883-31.383,5.6-31.5Zm16.922.141-.3.609.75-.164ZM5.461-31.2l-.445.727A1.4,1.4,0,0,0,5.461-31.2Zm2.367.141a3.8,3.8,0,0,0-.891,1.2Zm14.25.3a.564.564,0,0,0,.281.445Zm-13.945.281-.445.891A1.234,1.234,0,0,0,8.133-30.469Zm1.2,0-.164.609.609-.3A.6.6,0,0,0,9.328-30.469Zm12.445,0a.579.579,0,0,0,.3.445Zm-12.891.609.281.445A.7.7,0,0,0,8.883-29.859Zm-1.5.281-.586.891A1.53,1.53,0,0,0,7.383-29.578Zm1.2,0,.3.445A.913.913,0,0,0,8.578-29.578Zm-.3.3a9.9,9.9,0,0,1-.727,1.031l-.3.75h.3v-.164a3.851,3.851,0,0,0,.586-1.031l.586-.141Zm16.172,0-.891,1.031a2.781,2.781,0,0,0-.586.75l.445-.164A4.335,4.335,0,0,0,24.445-29.273Zm1.922.75a.5.5,0,0,0,.3.281A.6.6,0,0,0,26.367-28.523Zm-20.016.281-.445.3a1.548,1.548,0,0,0,.3.727l.445-.727A.692.692,0,0,0,6.352-28.242Zm19.711,0a.486.486,0,0,0,.3.3Q26.344-28.078,26.063-28.242Zm-1.477.164-.141.422.445-.281ZM3.68-27.8l-.141.445.445-.141A.486.486,0,0,0,3.68-27.8Zm3.258.3-.281.586.586-.3A.5.5,0,0,0,6.938-27.492Zm15.727,0-.3.586.609-.3A.5.5,0,0,0,22.664-27.492Zm-17.789.141a1.714,1.714,0,0,0-.3,1.031A1.782,1.782,0,0,0,4.875-27.352Zm20.32,0q.023.188.281.3Q25.453-27.211,25.2-27.352Zm-1.5.141v.3l.3-.141Zm-20.156.445v-.281H3.4Zm21.352-.281q.023.188.3.281A.6.6,0,0,0,24.891-27.047Zm-18.4.141-.445.586A.663.663,0,0,0,6.492-26.906Zm15.586,0v.3l.281-.164Zm1.336,0-.445.586A1.047,1.047,0,0,0,23.414-26.906ZM5.32-26.766l-.164.75.609-.586Zm19.266,0a.486.486,0,0,0,.3.3A.692.692,0,0,0,24.586-26.766Zm-18.68.445-.141.891a3.832,3.832,0,0,0,.727-.891l-.445.164Zm1.641,0a2.152,2.152,0,0,1-.75.75l-.445,1.031L5.32-23.484l1.031-.609.586.164a3.219,3.219,0,0,1,.609-1.2l.727-.75Zm1.922,0-.445.609A.905.905,0,0,0,9.469-26.32ZM24-26.156l-.3.445A.706.706,0,0,0,24-26.156Zm-1.641.445h.3l-.141-.3Zm4.313,0A10.932,10.932,0,0,1,25.2-24.234q-.609.586-1.336,1.2l-2.086,2.2,1.336-.727,2.813-2.531A3.573,3.573,0,0,0,26.672-25.711Zm-.445.445h.281v-.3h-.141Zm-22.828,0v.281l.281-.141Zm3.539-.164a.616.616,0,0,1-.281.445Zm-1.781.609.3.281.141-.445-.281-.141Zm1.055,0v.281A.176.176,0,0,0,6.211-24.82Zm1.922.281a2.463,2.463,0,0,0-.586,1.2A3.17,3.17,0,0,0,8.133-24.539Zm-4.148.609a.674.674,0,0,0-.3.586A1.02,1.02,0,0,0,3.984-23.93Zm4.594.281L6.938-21.281l.3.445,1.031-1.172A4.319,4.319,0,0,0,8.578-23.648Zm18.375,0v.3l.3-.141Zm-20.016.609.3.281.141-.281-.281-.3Zm-3.4-.164.3.445.141-.445Zm22.969.445v-.281h-.141ZM6.8-22.9l-.75,1.336A2.523,2.523,0,0,0,6.8-22.9Zm19.43.445v-.3h-.164Zm-4.453,0-.586.727A1,1,0,0,0,21.773-22.453Zm-12.75.141a.486.486,0,0,0,.3.3A.569.569,0,0,0,9.023-22.312Zm17.648.141-.3.75.586-.3Zm-1.781.3.445.3A.6.6,0,0,0,24.891-21.867Zm-5.344,0a.486.486,0,0,1,.3.3A.486.486,0,0,1,19.547-21.867Zm5.2.141a.45.45,0,0,0,.445.3Zm1.477.3-3.117,2.367a2.545,2.545,0,0,1-.75.891l-.141.75,3.117-2.812A4.679,4.679,0,0,0,26.227-21.422Zm-16.617.141-.586,1.055A2.147,2.147,0,0,0,9.609-21.281Zm.164,1.336.281.3.164-.445-.3-.141Zm16.289-.281-.141.445.445-.3Zm-18.82.281a.486.486,0,0,0,.3.3A.692.692,0,0,0,7.242-19.945Zm1.2.164a3.887,3.887,0,0,0-.445,1.172l.727-.727.164-.445Zm2.672,0a1.011,1.011,0,0,0-.3.586A1.02,1.02,0,0,0,11.109-19.781Zm7.406.281v-.281h-.141Zm.727,0-.141.445.3-.141v-.3Zm-9.773.164-.586.891A1.634,1.634,0,0,0,9.469-19.336Zm8.461,0-.164.445h.3l.141-.445Zm7.1.281.445-.141-.281-.141Zm-6.234,0-.141.445.445-.281Zm6.094,0-.3.445A.466.466,0,0,0,24.891-19.055Zm-12.609.3a.486.486,0,0,0,.3.3A.486.486,0,0,0,12.281-18.75Zm-7.125.3.3.445A.515.515,0,0,0,5.156-18.445Zm6.82.281h.3l-.141-.281Zm5.344-.281.164.445.141-.445ZM9.914-18.3v.3l.3-.164ZM24-18.3v.3l.3-.164Zm-7.125.445-.141.445h.3l.141-.445Zm-7.406.141.141.445.164-.445Zm2.367.3v-.3H11.7Zm.891-.3-.445,1.336.891-.891A1.021,1.021,0,0,0,12.727-17.719Zm5.2,0v.3l.281-.141Zm1.758,0v.3l.3-.141Zm3.727,0-.164.445.445-.281Zm-5.789.586h.3l-.164-.281Zm1.781-.281v.281l.281-.141Zm3.563,0-.445.891A1.234,1.234,0,0,0,22.969-17.414Zm-12.914.445h.3v-.3h-.141Zm1.2-.164-.141.445.281-.141Zm7.852,0v.3l.3-.141Zm-3.7.164-.586.727A1.266,1.266,0,0,0,15.4-16.969Zm5.484.141-.586.586.445-.141.141.141a1.5,1.5,0,0,0,.586-.586Zm5.625.3-.586.727A1.225,1.225,0,0,0,26.508-16.523Zm-2.062.727-.3.445A.466.466,0,0,0,24.445-15.8Zm1.172,0-.281.609.586-.3Q25.9-15.68,25.617-15.8Zm-.586.609L24-14.156l-1.2.891-.586.75a4.163,4.163,0,0,0-.75,1.031L24.586-14.3A1.435,1.435,0,0,0,25.031-15.187Zm-1.477.141a.486.486,0,0,0,.3.3A.486.486,0,0,0,23.555-15.047Zm-6.82,0h.3l-.164.3Zm6.516.3v.281l.3-.141Zm2.531.141-.445.586A1.047,1.047,0,0,0,25.781-14.6Zm-2.812.141v.3l.281-.141Zm3.539.164a.428.428,0,0,0,.3.281Q26.789-14.156,26.508-14.3Zm-3.844.141v.3l.3-.164Zm2.367.141a2.022,2.022,0,0,0-.586,1.2A3.17,3.17,0,0,0,25.031-14.016Zm-2.508.445v-.281h-.164Zm-.891,0,.281.609.445-.609Zm4.875.445v.3l.3-.141Zm-5.18.164-.3.727.75-.586Zm2.367.141-.586.891h.445v-.141l.586-.445Zm2.531,0L25.2-11.789a1.044,1.044,0,0,0-.445.75l1.031-.891A2,2,0,0,0,26.227-12.82Zm-5.2,1.336-.141.586.445-.141A.666.666,0,0,0,21.023-11.484Zm1.336,0a9.817,9.817,0,0,0-.586.891A1.753,1.753,0,0,0,22.359-11.484Zm1.945.445L21.633-9.117a5.3,5.3,0,0,0-.891,1.2,1.757,1.757,0,0,0-.75.727l.586-.281,1.2-1.2L22.8-9.258l.75-.609A4.17,4.17,0,0,0,24.3-11.039Zm-2.836.445v.281l.3-.141Zm-.141.586v-.3h-.141ZM5.016-9.562l-.281.75.586-.3Zm19.125,0a.486.486,0,0,0,.3.3A.569.569,0,0,0,24.141-9.562Zm-14.367,0a.428.428,0,0,1,.281.3Zm13.641.586q.023.188.281.3Q23.672-8.859,23.414-8.977Zm-.164.3-1.336,1.2-1.172.727L19.406-5.273l-.3.609.445-.164,1.641-1.758,1.336-.891A8.1,8.1,0,0,0,23.25-8.672Zm1.2,0,.141.3v-.3Zm-.586.445v.3l.281-.164Zm-.3.3v.281l.3-.141Zm-.445.445-.445.586A1.163,1.163,0,0,0,23.109-7.477ZM18.516-7.2l-.586.75A1.5,1.5,0,0,0,18.516-7.2Zm1.031.164v.281l.3-.141ZM8.883-6.445a.8.8,0,0,0,.281.281Q9.141-6.328,8.883-6.445Zm-.3.281-.141.609L9.023-6ZM9.914-6a.428.428,0,0,0,.3.281A.5.5,0,0,0,9.914-6Zm11.414.141-.3.445.609-.3ZM7.992-5.719l-.75,1.055a8.991,8.991,0,0,0-.891,1.336L8.438-5.273Zm1.617.164a2.145,2.145,0,0,0-.586,1.031A3.342,3.342,0,0,0,9.609-5.555Zm1.2,0-.3.445.609-.3Zm7.992.891v.281l.3-.141ZM8.438-4.523l-.3.586.586-.281Q8.7-4.406,8.438-4.523Zm10.078.141v.3l.281-.141Zm-9.047.164.141.281v-.281Zm14.391,0q.023.188.281.281Q24.117-4.125,23.859-4.219ZM7.828-3.633h.3l-.141-.3Zm1.336-.3a.706.706,0,0,0,.3.445Zm4.758,0-.164.445h.3l.141-.445Zm1.172.164-.727.891A2.719,2.719,0,0,0,15.094-3.773Zm-6.211.281a2.648,2.648,0,0,0-.609.891,1.625,1.625,0,0,0-.445.609l.3.281.445-1.172A.734.734,0,0,0,8.883-3.492Zm3.4.445v-.281h-.141Zm5.039-.141a.486.486,0,0,0,.3.3A.486.486,0,0,0,17.32-3.187Zm-4.289.141v.3l.281-.141Zm3.844.445.445-.141-.281-.141Zm-4.148-.141-.141.445h.281l.164-.445Zm4.008.141-.3.609A1.132,1.132,0,0,0,16.734-2.6Zm-4.453.3-.141.75.586-.445Zm3.867.3-.3.586A1.02,1.02,0,0,0,16.148-1.992Zm1.172,0A2.9,2.9,0,0,0,16.594-.82,3.783,3.783,0,0,0,17.32-1.992Zm-5.484.445a6.792,6.792,0,0,1-.891.867l.3.609A6.47,6.47,0,0,0,11.836-1.547Zm.891.281v.3l.3-.164Zm-.141.3-.164.445.3-.164Zm3.563.141q.023.188.281.3Q16.406-.68,16.148-.82Zm2.813.141q.023.188.281.3Q19.219-.562,18.961-.68Zm-6.82.164a.7.7,0,0,0,.445.281Zm5.344,0q.023.188.281.281Q17.742-.375,17.484-.516ZM14.2-.375l-.445.75h1.5Zm1.781.141a.486.486,0,0,0,.3.3A.486.486,0,0,0,15.984-.234Zm1.2,0q.023.188.3.3A.486.486,0,0,0,17.18-.234ZM15.7.375h.281l-.141-.3Zm3.844.281q-.187-.023-.3-.281Z" transform="translate(-1.313 41.133)"/>
</svg>
