<svg xmlns="http://www.w3.org/2000/svg" width="20" height="20" viewBox="0 0 20 20">
  <g id="组_24002" data-name="组 24002" transform="translate(-302 -235)">
    <rect id="矩形_3384" data-name="矩形 3384" width="20" height="20" transform="translate(302 235)" fill="rgba(40,115,248,0)"/>
    <path id="路径_60122" data-name="路径 60122" d="M10.841,97.218h.574c.088,0,.221-.044.309-.044.044,0,.133-.044.177-.044.088-.044.221-.044.309-.088.044,0,.088-.044.133-.044.133-.044.221-.088.353-.133.044,0,.044-.044.088-.044.133-.044.265-.133.4-.177a4.435,4.435,0,0,0,1.149-.884,2.524,2.524,0,0,0,.309-.353c0-.044.044-.044.044-.088a5.057,5.057,0,0,0,1.1-3.181H14.6c-.044,0-.044,0-.088-.044V92l2.076-3.048c0-.044.044-.044.088-.044s.044,0,.088.044l1.944,3v.088c0,.044-.044.044-.088.044H17.424a6.824,6.824,0,0,1-1.193,3.844.043.043,0,0,1-.044.044,1.923,1.923,0,0,1-.265.309c-.044.044-.044.088-.088.133-.133.133-.265.309-.4.442l-.044.044a7.528,7.528,0,0,1-1.5,1.149.043.043,0,0,0-.044.044,2.368,2.368,0,0,1-.486.221c-.044,0-.088.044-.133.044a4.584,4.584,0,0,1-.442.177c-.088.044-.133.044-.221.088a1.29,1.29,0,0,1-.4.088c-.088,0-.177.044-.265.044-.044,0-.088,0-.088.044a1.1,1.1,0,0,1-.353.044h-.133c-.221,0-.442.044-.663.044a6.506,6.506,0,0,1-3.8-1.237.831.831,0,0,1-.177-1.149.785.785,0,0,1,1.1-.177,5.44,5.44,0,0,0,3.048.884ZM5.274,88.293a.043.043,0,0,1,.044-.044,2.429,2.429,0,0,1,.309-.4l.044-.044a6.891,6.891,0,0,1,2.474-1.9c.044,0,.044-.044.088-.044.133-.044.309-.133.486-.177.044,0,.133-.044.177-.044a1.29,1.29,0,0,1,.4-.088,1.914,1.914,0,0,0,.221-.044.162.162,0,0,0,.133-.044c.088,0,.221-.044.309-.044a.4.4,0,0,0,.221-.044c.133,0,.309-.044.486-.044h.088A6.744,6.744,0,0,1,14.6,86.57a.831.831,0,0,1,.177,1.149.785.785,0,0,1-1.1.177,5.109,5.109,0,0,0-2.96-.928,1.5,1.5,0,0,0-.442.044h-.133c-.133,0-.221.044-.353.044-.044,0-.088.044-.133.044-.133.044-.221.044-.353.088a.154.154,0,0,0-.088.044l-.4.133H8.765a4.776,4.776,0,0,0-1.9,1.458,5.25,5.25,0,0,0-1.149,3.269H6.909c.044,0,.044,0,.088.044v.088l-1.988,3c0,.044-.044.044-.088.044s-.044,0-.088-.044l-1.988-3v-.088c0-.044.044-.044.088-.044H4.126A6.242,6.242,0,0,1,5.274,88.293Z" transform="translate(301.225 152.86)" fill="#64748b"/>
  </g>
</svg>
