<svg xmlns="http://www.w3.org/2000/svg" xmlns:xlink="http://www.w3.org/1999/xlink" width="12" height="12" viewBox="0 0 12 12">
  <defs>
    <clipPath id="clip-path">
      <rect id="矩形_3581" data-name="矩形 3581" width="12" height="12" transform="translate(376 3313)" fill="#fff" stroke="#707070" stroke-width="1"/>
    </clipPath>
  </defs>
  <g id="蒙版组_513" data-name="蒙版组 513" transform="translate(-376 -3313)" clip-path="url(#clip-path)">
    <g id="组_24994" data-name="组 24994" transform="translate(378.192 3313.923)">
      <path id="Path" d="M3.808,3.808c1.84,0,3.808-.571,3.808-1.9S5.648,0,3.808,0,0,.571,0,1.9,1.967,3.808,3.808,3.808Z" fill="#8e9bae" stroke="rgba(0,0,0,0)" stroke-width="1"/>
      <path id="Path-2" data-name="Path" d="M0,0V.952c0,1.333,1.967,1.9,3.808,1.9s3.808-.571,3.808-1.9V0A7.162,7.162,0,0,1,3.808.952,7.162,7.162,0,0,1,0,0Z" transform="translate(0 4.125)" fill="#8e9bae" stroke="rgba(0,0,0,0)" stroke-width="1"/>
      <path id="Path-3" data-name="Path" d="M0,0V.952c0,1.333,1.967,1.9,3.808,1.9s3.808-.571,3.808-1.9V0A6.626,6.626,0,0,1,3.808.952,7.162,7.162,0,0,1,0,0Z" transform="translate(0 7.298)" fill="#8e9bae" stroke="rgba(0,0,0,0)" stroke-width="1"/>
    </g>
  </g>
</svg>
