<svg xmlns="http://www.w3.org/2000/svg" xmlns:xlink="http://www.w3.org/1999/xlink" width="12" height="12" viewBox="0 0 12 12">
  <defs>
    <clipPath id="clip-path">
      <rect id="矩形_3579" data-name="矩形 3579" width="12" height="12" transform="translate(376 3313)" fill="#fff" stroke="#707070" stroke-width="1"/>
    </clipPath>
  </defs>
  <g id="蒙版组_511" data-name="蒙版组 511" transform="translate(-376 -3313)" clip-path="url(#clip-path)">
    <g id="组_24988" data-name="组 24988" transform="translate(378 3314)">
      <path id="路径_60269" data-name="路径 60269" d="M5.714,8.706a.205.205,0,0,0,.205.205h8.428a.205.205,0,0,0,.206-.205V7.931a.206.206,0,0,0-.206-.205H10.679a3,3,0,0,1-1.658-.7c-.532-.372-2.929-2.745-2.929-2.745a.205.205,0,0,0-.172.317L7.894,7.725H5.919a.205.205,0,0,0-.205.205Z" transform="translate(-5.714 -4.286)" fill="#8e9bae" fill-rule="evenodd"/>
      <path id="路径_60270" data-name="路径 60270" d="M14.553,16.634a.205.205,0,0,0-.205-.205H5.92a.205.205,0,0,0-.206.205v.776a.206.206,0,0,0,.206.205H9.588a3,3,0,0,1,1.658.7c.532.372,2.929,2.745,2.929,2.745a.205.205,0,0,0,.172-.317l-1.975-3.123h1.975a.205.205,0,0,0,.205-.205Z" transform="translate(-5.714 -10.775)" fill="#8e9bae" fill-rule="evenodd"/>
    </g>
  </g>
</svg>
