<svg xmlns="http://www.w3.org/2000/svg" width="586" height="502.233" viewBox="0 0 586 502.233">
  <g id="组_41231" data-name="组 41231" transform="translate(-973 -1165.767)">
    <g id="组_41229" data-name="组 41229" transform="translate(-76)">
      <text id="Transaction_you_need_to_validated_when_receiveing_the_payment_P" data-name="Transaction you need to validated when receiveing the payment P" transform="translate(1085 1543)" fill="#0f1923" font-size="16" font-family="MuktaMahee-Light, Mukta Mahee" font-weight="300" letter-spacing="0.02em"><tspan x="0" y="18">Transaction you need to validated </tspan></text>
      <g id="椭圆_48" data-name="椭圆 48" transform="translate(1049 1543.232)" fill="#fff" stroke="#ff3150" stroke-width="2">
        <circle cx="12" cy="12" r="12" stroke="none"/>
        <circle cx="12" cy="12" r="11" fill="none"/>
      </g>
    </g>
    <g id="组_41230" data-name="组 41230" transform="translate(-58)">
      <text id="Other_transaction_related_to_the_asset_generated_in_genesis_G_but_that_the_receiver_of_payment_P_doesn_t_need_to_validated_nor_to_know_they_exist" data-name="Other transaction related to the asset generated in genesis G, but that the receiver of payment P doesn&apos;t need to validated nor to know they exist" transform="translate(1391 1543)" fill="#0f1923" font-size="16" font-family="MuktaMahee-Light, Mukta Mahee" font-weight="300" letter-spacing="0.02em"><tspan x="0" y="18">Other transaction related to the </tspan><tspan x="0" y="38">asset generated in genesis G, but </tspan><tspan x="0" y="58">that the receiver of payment P </tspan><tspan x="0" y="78">doesn&apos;t need to validated nor to </tspan><tspan x="0" y="98">know they exist</tspan></text>
      <g id="椭圆_49" data-name="椭圆 49" transform="translate(1355 1543.232)" fill="#fff" stroke="#ece8e1" stroke-width="2">
        <circle cx="12" cy="12" r="12" stroke="none"/>
        <circle cx="12" cy="12" r="11" fill="none"/>
      </g>
    </g>
    <g id="组_41206" data-name="组 41206" transform="translate(0 5.232)">
      <path id="路径_2775" data-name="路径 2775" d="M-.7,53.393,60.028,1.022" transform="translate(999.788 1234.6)" fill="none" stroke="#0f1923" stroke-width="2"/>
      <line id="直线_258" data-name="直线 258" y1="7.787" x2="67.166" transform="translate(1001.716 1287.191)" fill="none" stroke="#0f1923" stroke-width="2"/>
      <path id="路径_2776" data-name="路径 2776" d="M0,52.371,60.726,0" transform="translate(1110.17 1188.617) rotate(41)" fill="none" stroke="#0f1923" stroke-width="2"/>
      <path id="路径_2777" data-name="路径 2777" d="M0,52.371,60.726,0" transform="matrix(0.819, 0.574, -0.574, 0.819, 1203.396, 1185.54)" fill="none" stroke="#0f1923" stroke-width="2"/>
      <path id="路径_2778" data-name="路径 2778" d="M0,52.371,60.726,0" transform="matrix(0.719, 0.695, -0.695, 0.719, 1129.111, 1249.715)" fill="none" stroke="#0f1923" stroke-width="2"/>
      <path id="路径_2779" data-name="路径 2779" d="M0,32.7,38.252,0" transform="matrix(0.719, 0.695, -0.695, 0.719, 1067.717, 1300.802)" fill="none" stroke="#0f1923" stroke-width="2"/>
      <path id="路径_2780" data-name="路径 2780" d="M0,39.25,31.546,0" transform="translate(1030.771 1289.643) rotate(72)" fill="none" stroke="#0f1923" stroke-width="2"/>
      <path id="路径_2781" data-name="路径 2781" d="M0,39.25,31.546,0" transform="translate(1154.863 1321.747) rotate(83)" fill="none" stroke="#0f1923" stroke-width="2"/>
      <path id="路径_2782" data-name="路径 2782" d="M0,39.25,31.546,0" transform="matrix(0.276, 0.961, -0.961, 0.276, 1207.66, 1342.189)" fill="none" stroke="#0f1923" stroke-width="2"/>
      <g id="椭圆_22" data-name="椭圆 22" transform="translate(1048.927 1210.777)" fill="#fff" stroke="#ff3150" stroke-width="4">
        <circle cx="17.522" cy="17.522" r="17.522" stroke="none"/>
        <circle cx="17.522" cy="17.522" r="15.522" fill="none"/>
      </g>
      <g id="椭圆_29" data-name="椭圆 29" transform="translate(973 1276.971)" fill="#fff" stroke="#ff3150" stroke-width="4">
        <circle cx="17.522" cy="17.522" r="17.522" stroke="none"/>
        <circle cx="17.522" cy="17.522" r="15.522" fill="none"/>
      </g>
      <g id="椭圆_30" data-name="椭圆 30" transform="translate(1062.555 1269.183)" fill="#fff" stroke="#ff3150" stroke-width="4">
        <circle cx="17.522" cy="17.522" r="17.522" stroke="none"/>
        <circle cx="17.522" cy="17.522" r="15.522" fill="none"/>
      </g>
      <path id="路径_2785" data-name="路径 2785" d="M0,22.237,15.02,13.9,40.052,0" transform="translate(1217.011 1276.588) rotate(51)" fill="none" stroke="#0f1923" stroke-width="2"/>
      <path id="路径_2786" data-name="路径 2786" d="M0,22.237,15.02,13.9,40.052,0" transform="matrix(0.961, -0.276, 0.276, 0.961, 1251.547, 1279.021)" fill="none" stroke="#0f1923" stroke-width="2"/>
      <path id="路径_2787" data-name="路径 2787" d="M0,22.237,15.02,13.9,40.052,0" transform="translate(1282.869 1220.512) rotate(87)" fill="none" stroke="#0f1923" stroke-width="2"/>
      <path id="路径_2788" data-name="路径 2788" d="M0,22.237,15.02,13.9,40.052,0" transform="translate(1289.821 1241.477) rotate(-30)" fill="none" stroke="#0f1923" stroke-width="2"/>
      <path id="路径_2789" data-name="路径 2789" d="M0,63.066,103.412,0" transform="translate(1330.939 1207.803) rotate(23)" fill="none" stroke="#0f1923" stroke-width="2"/>
      <path id="路径_2790" data-name="路径 2790" d="M0,31.271,50.016,0" transform="translate(1352.76 1183.324) rotate(18)" fill="none" stroke="#0f1923" stroke-width="2"/>
      <path id="路径_2791" data-name="路径 2791" d="M0,44.315,70.919,0" transform="translate(1444.939 1161.534) rotate(32)" fill="none" stroke="#0f1923" stroke-width="2"/>
      <path id="路径_2792" data-name="路径 2792" d="M0,44.315,70.919,0" transform="translate(1463.814 1212.133) rotate(32)" fill="none" stroke="#0f1923" stroke-width="2"/>
      <path id="路径_2793" data-name="路径 2793" d="M0,44.315,70.919,0" transform="matrix(0.914, 0.407, -0.407, 0.914, 1468.002, 1275.781)" fill="none" stroke="#0f1923" stroke-width="2"/>
      <path id="路径_2795" data-name="路径 2795" d="M0,55.8,90.615,0" transform="translate(1282.611 1254.057) rotate(20)" fill="none" stroke="#0f1923" stroke-width="2"/>
      <path id="路径_2796" data-name="路径 2796" d="M0,30,50.068,0" transform="matrix(0.669, 0.743, -0.743, 0.669, 1278.25, 1292.056)" fill="none" stroke="#0f1923" stroke-width="2"/>
      <path id="路径_2794" data-name="路径 2794" d="M0,44.315,70.919,0" transform="matrix(0.559, 0.829, -0.829, 0.559, 1402.952, 1254.057)" fill="none" stroke="#0f1923" stroke-width="2"/>
      <g id="椭圆_31" data-name="椭圆 31" transform="translate(1169.631 1275.023)" fill="#fff" stroke="#ff3150" stroke-width="4">
        <circle cx="17.522" cy="17.522" r="17.522" stroke="none"/>
        <circle cx="17.522" cy="17.522" r="15.522" fill="none"/>
      </g>
      <g id="椭圆_32" data-name="椭圆 32" transform="translate(1234.851 1286.704)" fill="#fff" stroke="#ff3150" stroke-width="4">
        <circle cx="17.522" cy="17.522" r="17.522" stroke="none"/>
        <circle cx="17.522" cy="17.522" r="15.522" fill="none"/>
      </g>
      <g id="椭圆_33" data-name="椭圆 33" transform="translate(1017.777 1307.146)" fill="#fff" stroke="#ece8e1" stroke-width="4">
        <circle cx="17.522" cy="17.522" r="17.522" stroke="none"/>
        <circle cx="17.522" cy="17.522" r="15.522" fill="none"/>
      </g>
      <g id="椭圆_34" data-name="椭圆 34" transform="translate(1087.863 1310.066)" fill="#fff" stroke="#ece8e1" stroke-width="4">
        <circle cx="17.522" cy="17.522" r="17.522" stroke="none"/>
        <circle cx="17.522" cy="17.522" r="15.522" fill="none"/>
      </g>
      <g id="椭圆_35" data-name="椭圆 35" transform="translate(1145.296 1339.27)" fill="#fff" stroke="#ece8e1" stroke-width="4">
        <circle cx="17.522" cy="17.522" r="17.522" stroke="none"/>
        <circle cx="17.522" cy="17.522" r="15.522" fill="none"/>
      </g>
      <path id="路径_2783" data-name="路径 2783" d="M0,39.25,31.546,0" transform="translate(1267.431 1345.11) rotate(51)" fill="none" stroke="#0f1923" stroke-width="2"/>
      <path id="路径_2784" data-name="路径 2784" d="M0,38.505,51.117,0" transform="translate(1341.101 1345.055) rotate(51)" fill="none" stroke="#0f1923" stroke-width="2"/>
      <g id="椭圆_36" data-name="椭圆 36" transform="translate(1208.568 1353.871)" fill="#fff" stroke="#ece8e1" stroke-width="4">
        <circle cx="17.522" cy="17.522" r="17.522" stroke="none"/>
        <circle cx="17.522" cy="17.522" r="15.522" fill="none"/>
      </g>
      <path id="路径_2797" data-name="路径 2797" d="M0,52.189,86.986,0" transform="translate(1353.747 1279.371) rotate(25)" fill="none" stroke="#0f1923" stroke-width="2"/>
      <path id="路径_2798" data-name="路径 2798" d="M0,52.189,86.986,0" transform="translate(1475.243 1267.278) rotate(23)" fill="none" stroke="#0f1923" stroke-width="2"/>
      <path id="路径_2799" data-name="路径 2799" d="M0,52.189,86.986,0" transform="translate(1367.762 1340.896) rotate(-15)" fill="none" stroke="#0f1923" stroke-width="2"/>
      <g id="椭圆_37" data-name="椭圆 37" transform="translate(1280.602 1353.871)" fill="#fff" stroke="#ece8e1" stroke-width="4">
        <circle cx="17.522" cy="17.522" r="17.522" stroke="none"/>
        <circle cx="17.522" cy="17.522" r="15.522" fill="none"/>
      </g>
      <g id="椭圆_38" data-name="椭圆 38" transform="translate(1302.99 1310.066)" fill="#fff" stroke="#ece8e1" stroke-width="4">
        <circle cx="17.522" cy="17.522" r="17.522" stroke="none"/>
        <circle cx="17.522" cy="17.522" r="15.522" fill="none"/>
      </g>
      <g id="椭圆_39" data-name="椭圆 39" transform="translate(1350.688 1269.183)" fill="#fff" stroke="#ece8e1" stroke-width="4">
        <circle cx="17.522" cy="17.522" r="17.522" stroke="none"/>
        <circle cx="17.522" cy="17.522" r="15.522" fill="none"/>
      </g>
      <g id="椭圆_40" data-name="椭圆 40" transform="translate(1422.721 1299.359)" fill="#fff" stroke="#ece8e1" stroke-width="4">
        <circle cx="17.522" cy="17.522" r="17.522" stroke="none"/>
        <circle cx="17.522" cy="17.522" r="15.522" fill="none"/>
      </g>
      <path id="路径_2802" data-name="路径 2802" d="M0,10.5,54.015,0" transform="translate(1401.844 1372.646) rotate(41)" fill="none" stroke="#0f1923" stroke-width="2"/>
      <path id="路径_2800" data-name="路径 2800" d="M0,50.777,80.154,0" transform="translate(1449.89 1349.442) rotate(1)" fill="none" stroke="#0f1923" stroke-width="2"/>
      <g id="椭圆_41" data-name="椭圆 41" transform="translate(1368.209 1368.472)" fill="#fff" stroke="#ece8e1" stroke-width="4">
        <circle cx="17.522" cy="17.522" r="17.522" stroke="none"/>
        <circle cx="17.522" cy="17.522" r="15.522" fill="none"/>
      </g>
      <path id="路径_2801" data-name="路径 2801" d="M0,50.777,80.154,0" transform="translate(1484.688 1363.559) rotate(41)" fill="none" stroke="#0f1923" stroke-width="2"/>
      <g id="椭圆_42" data-name="椭圆 42" transform="translate(1431.481 1385.993)" fill="#fff" stroke="#ece8e1" stroke-width="4">
        <circle cx="17.522" cy="17.522" r="17.522" stroke="none"/>
        <circle cx="17.522" cy="17.522" r="15.522" fill="none"/>
      </g>
      <g id="椭圆_44" data-name="椭圆 44" transform="translate(1523.957 1333.429)" fill="#fff" stroke="#ece8e1" stroke-width="4">
        <circle cx="17.522" cy="17.522" r="17.522" stroke="none"/>
        <circle cx="17.522" cy="17.522" r="15.522" fill="none"/>
      </g>
      <g id="椭圆_45" data-name="椭圆 45" transform="translate(1523.957 1286.704)" fill="#fff" stroke="#ece8e1" stroke-width="4">
        <circle cx="17.522" cy="17.522" r="17.522" stroke="none"/>
        <circle cx="17.522" cy="17.522" r="15.522" fill="none"/>
      </g>
      <g id="椭圆_46" data-name="椭圆 46" transform="translate(1511.303 1231.22)" fill="#fff" stroke="#ece8e1" stroke-width="4">
        <circle cx="17.522" cy="17.522" r="17.522" stroke="none"/>
        <circle cx="17.522" cy="17.522" r="15.522" fill="none"/>
      </g>
      <g id="椭圆_47" data-name="椭圆 47" transform="translate(1414.934 1231.22)" fill="#fff" stroke="#ece8e1" stroke-width="4">
        <circle cx="17.522" cy="17.522" r="17.522" stroke="none"/>
        <circle cx="17.522" cy="17.522" r="15.522" fill="none"/>
      </g>
      <g id="椭圆_43" data-name="椭圆 43" transform="translate(1523.957 1395.728)" fill="#fff" stroke="#ece8e1" stroke-width="4">
        <circle cx="17.522" cy="17.522" r="17.522" stroke="none"/>
        <circle cx="17.522" cy="17.522" r="15.522" fill="none"/>
      </g>
      <g id="椭圆_23" data-name="椭圆 23" transform="translate(1145.296 1210.777)" fill="#fff" stroke="#ff3150" stroke-width="4">
        <circle cx="17.522" cy="17.522" r="17.522" stroke="none"/>
        <circle cx="17.522" cy="17.522" r="15.522" fill="none"/>
      </g>
      <g id="椭圆_24" data-name="椭圆 24" transform="translate(1241.664 1202.99)" fill="#fff" stroke="#ff3150" stroke-width="4">
        <circle cx="17.522" cy="17.522" r="17.522" stroke="none"/>
        <circle cx="17.522" cy="17.522" r="15.522" fill="none"/>
      </g>
      <g id="椭圆_25" data-name="椭圆 25" transform="translate(1276.708 1249.715)" fill="#fff" stroke="#ff3150" stroke-width="4">
        <circle cx="17.522" cy="17.522" r="17.522" stroke="none"/>
        <circle cx="17.522" cy="17.522" r="15.522" fill="none"/>
      </g>
      <g id="椭圆_26" data-name="椭圆 26" transform="translate(1315.645 1193.256)" fill="#fff" stroke="#ff3150" stroke-width="4">
        <circle cx="17.522" cy="17.522" r="17.522" stroke="none"/>
        <circle cx="17.522" cy="17.522" r="15.522" fill="none"/>
      </g>
      <g id="椭圆_27" data-name="椭圆 27" transform="translate(1390.598 1180.602)" fill="#fff" stroke="#ff3150" stroke-width="4">
        <circle cx="17.522" cy="17.522" r="17.522" stroke="none"/>
        <circle cx="17.522" cy="17.522" r="15.522" fill="none"/>
      </g>
      <g id="椭圆_28" data-name="椭圆 28" transform="translate(1493.781 1180.602)" fill="#fff" stroke="#ff3150" stroke-width="4">
        <circle cx="17.522" cy="17.522" r="17.522" stroke="none"/>
        <circle cx="17.522" cy="17.522" r="15.522" fill="none"/>
      </g>
      <text id="G" transform="translate(990 1299.768)" fill="#0f1923" font-size="16" font-family="MuktaMahee-SemiBold, Mukta Mahee" font-weight="600" letter-spacing="0.02em"><tspan x="-5.016" y="0">G</tspan></text>
      <text id="P" transform="translate(1512 1203.768)" fill="#0f1923" font-size="16" font-family="MuktaMahee-SemiBold, Mukta Mahee" font-weight="600" letter-spacing="0.02em"><tspan x="-4.384" y="0">P</tspan></text>
    </g>
  </g>
</svg>
